M48
; DRILL file {KiCad 5.1.2} date Wed 07 Aug 2019 03:53:01 PM CEST
; FORMAT={-:-/ absolute / inch / decimal}
; #@! TF.CreationDate,2019-08-07T15:53:01+02:00
; #@! TF.GenerationSoftware,Kicad,Pcbnew,5.1.2
; #@! TF.FileFunction,Plated,1,2,PTH
FMAT,2
INCH
T1C0.0118
T2C0.0157
T3C0.0394
T4C0.0402
%
G90
G05
T1
X3.025Y-2.1
X3.05Y-2.225
T2
X3.0Y-2.225
X3.138Y-2.282
X3.175Y-1.525
X3.225Y-1.525
X3.328Y-2.294
X3.6713Y-2.0768
X3.7Y-1.925
X3.7402Y-2.0768
X3.81Y-2.2343
X3.875Y-1.925
X3.8965Y-2.1654
X3.9567Y-2.1654
X3.9567Y-2.2441
X4.03Y-1.6
X4.0453Y-1.2795
X4.0748Y-1.9931
X4.0748Y-2.0571
X4.266Y-2.0502
X4.3228Y-1.7598
X4.325Y-1.275
X4.3602Y-1.9587
X4.3937Y-1.7598
X4.4224Y-2.0502
X4.4843Y-1.9921
X4.5276Y-2.0984
X4.5669Y-1.9685
X4.575Y-1.875
X4.626Y-2.0276
X4.8622Y-1.874
X4.875Y-2.025
X5.075Y-2.175
X5.325Y-2.175
T3
X5.075Y-2.275
X5.175Y-2.275
X5.275Y-2.275
X5.375Y-2.275
X5.475Y-2.275
X2.8Y-1.275
X2.9Y-1.275
X3.0Y-1.275
X3.1Y-1.275
X3.2Y-1.275
X3.3Y-1.275
X5.075Y-2.4409
X5.175Y-2.4409
X5.275Y-2.4409
X5.375Y-2.4409
T4
X2.675Y-1.5598
X2.675Y-2.15
T0
M30
