G04 #@! TF.GenerationSoftware,KiCad,Pcbnew,5.1.2*
G04 #@! TF.CreationDate,2019-08-07T15:52:47+02:00*
G04 #@! TF.ProjectId,wifisensor-dual-cpu,77696669-7365-46e7-936f-722d6475616c,rev?*
G04 #@! TF.SameCoordinates,Original*
G04 #@! TF.FileFunction,Copper,L2,Bot*
G04 #@! TF.FilePolarity,Positive*
%FSLAX46Y46*%
G04 Gerber Fmt 4.6, Leading zero omitted, Abs format (unit mm)*
G04 Created by KiCad (PCBNEW 5.1.2) date 2019-08-07 15:52:47*
%MOMM*%
%LPD*%
G04 APERTURE LIST*
%ADD10C,2.000000*%
%ADD11R,2.000000X2.000000*%
%ADD12R,1.700000X1.700000*%
%ADD13O,1.700000X1.700000*%
%ADD14C,0.800000*%
%ADD15C,0.600000*%
%ADD16C,0.500000*%
%ADD17C,0.250000*%
%ADD18C,0.254000*%
G04 APERTURE END LIST*
D10*
X83820000Y-32385000D03*
X81280000Y-32385000D03*
X78740000Y-32385000D03*
X76200000Y-32385000D03*
X73660000Y-32385000D03*
X71120000Y-32385000D03*
D11*
X67945000Y-54610000D03*
D10*
X67945000Y-39620000D03*
D12*
X136525000Y-62000000D03*
D13*
X133985000Y-62000000D03*
X131445000Y-62000000D03*
X128905000Y-62000000D03*
D12*
X139065000Y-57785000D03*
D13*
X136525000Y-57785000D03*
X133985000Y-57785000D03*
X131445000Y-57785000D03*
X128905000Y-57785000D03*
D14*
X110750000Y-49750000D03*
X112327983Y-52075000D03*
X108356949Y-52075000D03*
D15*
X77470000Y-56515000D03*
X76835000Y-53340000D03*
D14*
X116205000Y-47625000D03*
X109855000Y-32385000D03*
X102362000Y-40640000D03*
X84531200Y-58267600D03*
X79705200Y-57962800D03*
X76200000Y-56515000D03*
X102750000Y-32500000D03*
X100500000Y-57000000D03*
X96775000Y-56750000D03*
X95000000Y-52750000D03*
X93250000Y-52750000D03*
X115000000Y-53300000D03*
X113900000Y-50600000D03*
X81915000Y-38735000D03*
X80645000Y-38735000D03*
X135255000Y-55245000D03*
X128905000Y-55245000D03*
X123825000Y-51435000D03*
X123500000Y-47600000D03*
X109800000Y-44700000D03*
X111600000Y-44700000D03*
X117500000Y-51500000D03*
X116000000Y-50000000D03*
X93980000Y-48895000D03*
X98425000Y-48895000D03*
X100500000Y-55000000D03*
X98970000Y-55000000D03*
X103500000Y-52250000D03*
X103500000Y-50625000D03*
D16*
X110750000Y-49750000D02*
X110750000Y-50497017D01*
X110750000Y-50497017D02*
X112327983Y-52075000D01*
X108425000Y-52075000D02*
X110750000Y-49750000D01*
X108356949Y-52075000D02*
X108425000Y-52075000D01*
D17*
X76835000Y-53340000D02*
X77470000Y-53975000D01*
X77470000Y-53975000D02*
X77470000Y-56515000D01*
X128905000Y-62000000D02*
X128905000Y-57785000D01*
D16*
X126365000Y-57785000D02*
X128905000Y-57785000D01*
X116205000Y-47625000D02*
X126365000Y-57785000D01*
X109855000Y-41275000D02*
X116205000Y-47625000D01*
X109855000Y-32385000D02*
X109855000Y-41275000D01*
X102997000Y-41275000D02*
X109855000Y-41275000D01*
X102362000Y-40640000D02*
X102997000Y-41275000D01*
X81280000Y-30970787D02*
X81280000Y-32385000D01*
X81244212Y-30934999D02*
X81280000Y-30970787D01*
X69395001Y-30934999D02*
X81244212Y-30934999D01*
X67945000Y-32385000D02*
X69395001Y-30934999D01*
X67945000Y-39620000D02*
X67945000Y-32385000D01*
X76835000Y-53340000D02*
X74295000Y-53340000D01*
X74295000Y-45970000D02*
X67945000Y-39620000D01*
X74295000Y-53340000D02*
X74295000Y-45970000D01*
X102362000Y-40640000D02*
X89535000Y-40640000D01*
X89535000Y-40640000D02*
X83185000Y-34290000D01*
X83185000Y-34290000D02*
X82550000Y-34290000D01*
X82550000Y-33655000D02*
X81280000Y-32385000D01*
X82550000Y-34290000D02*
X82550000Y-33655000D01*
X84531200Y-58267600D02*
X77774800Y-58267600D01*
X77774800Y-56819800D02*
X77470000Y-56515000D01*
X77774800Y-58267600D02*
X77774800Y-56819800D01*
X109740000Y-32500000D02*
X109855000Y-32385000D01*
X102750000Y-32500000D02*
X109740000Y-32500000D01*
X100500000Y-57000000D02*
X97025000Y-57000000D01*
X97025000Y-57000000D02*
X96775000Y-56750000D01*
X95000000Y-52750000D02*
X93250000Y-52750000D01*
X115000000Y-53300000D02*
X115000000Y-51700000D01*
X115000000Y-51700000D02*
X113900000Y-50600000D01*
D17*
X81915000Y-35560000D02*
X78740000Y-32385000D01*
X81915000Y-38735000D02*
X81915000Y-35560000D01*
X80645000Y-36830000D02*
X76200000Y-32385000D01*
X80645000Y-38735000D02*
X80645000Y-36830000D01*
X135255000Y-55245000D02*
X128905000Y-55245000D01*
X123825000Y-51435000D02*
X123825000Y-47925000D01*
X123825000Y-47925000D02*
X123500000Y-47600000D01*
X109800000Y-44700000D02*
X111600000Y-44700000D01*
X117500000Y-51500000D02*
X116000000Y-50000000D01*
X93980000Y-48895000D02*
X98425000Y-48895000D01*
X100500000Y-55000000D02*
X98970000Y-55000000D01*
X103500000Y-52250000D02*
X103500000Y-50625000D01*
D18*
G36*
X114373000Y-49675647D02*
G01*
X114201898Y-49604774D01*
X114001939Y-49565000D01*
X113798061Y-49565000D01*
X113598102Y-49604774D01*
X113409744Y-49682795D01*
X113240226Y-49796063D01*
X113096063Y-49940226D01*
X112982795Y-50109744D01*
X112904774Y-50298102D01*
X112865000Y-50498061D01*
X112865000Y-50701939D01*
X112904774Y-50901898D01*
X112982795Y-51090256D01*
X113096063Y-51259774D01*
X113240226Y-51403937D01*
X113409744Y-51517205D01*
X113598102Y-51595226D01*
X113654957Y-51606535D01*
X114115001Y-52066580D01*
X114115000Y-52761545D01*
X114082795Y-52809744D01*
X114004774Y-52998102D01*
X113965000Y-53198061D01*
X113965000Y-53401939D01*
X114004774Y-53601898D01*
X114082795Y-53790256D01*
X114196063Y-53959774D01*
X114340226Y-54103937D01*
X114373000Y-54125836D01*
X114373000Y-63340000D01*
X66660000Y-63340000D01*
X66660000Y-56648061D01*
X95740000Y-56648061D01*
X95740000Y-56851939D01*
X95779774Y-57051898D01*
X95857795Y-57240256D01*
X95971063Y-57409774D01*
X96115226Y-57553937D01*
X96284744Y-57667205D01*
X96473102Y-57745226D01*
X96582550Y-57766996D01*
X96684687Y-57821589D01*
X96851510Y-57872195D01*
X96981523Y-57885000D01*
X96981533Y-57885000D01*
X97024999Y-57889281D01*
X97068465Y-57885000D01*
X99961546Y-57885000D01*
X100009744Y-57917205D01*
X100198102Y-57995226D01*
X100398061Y-58035000D01*
X100601939Y-58035000D01*
X100801898Y-57995226D01*
X100990256Y-57917205D01*
X101159774Y-57803937D01*
X101303937Y-57659774D01*
X101417205Y-57490256D01*
X101495226Y-57301898D01*
X101535000Y-57101939D01*
X101535000Y-56898061D01*
X101495226Y-56698102D01*
X101417205Y-56509744D01*
X101303937Y-56340226D01*
X101159774Y-56196063D01*
X100990256Y-56082795D01*
X100801898Y-56004774D01*
X100777897Y-56000000D01*
X100801898Y-55995226D01*
X100990256Y-55917205D01*
X101159774Y-55803937D01*
X101303937Y-55659774D01*
X101417205Y-55490256D01*
X101495226Y-55301898D01*
X101535000Y-55101939D01*
X101535000Y-54898061D01*
X101495226Y-54698102D01*
X101417205Y-54509744D01*
X101303937Y-54340226D01*
X101159774Y-54196063D01*
X100990256Y-54082795D01*
X100801898Y-54004774D01*
X100601939Y-53965000D01*
X100398061Y-53965000D01*
X100198102Y-54004774D01*
X100009744Y-54082795D01*
X99840226Y-54196063D01*
X99796289Y-54240000D01*
X99673711Y-54240000D01*
X99629774Y-54196063D01*
X99460256Y-54082795D01*
X99271898Y-54004774D01*
X99071939Y-53965000D01*
X98868061Y-53965000D01*
X98668102Y-54004774D01*
X98479744Y-54082795D01*
X98310226Y-54196063D01*
X98166063Y-54340226D01*
X98052795Y-54509744D01*
X97974774Y-54698102D01*
X97935000Y-54898061D01*
X97935000Y-55101939D01*
X97974774Y-55301898D01*
X98052795Y-55490256D01*
X98166063Y-55659774D01*
X98310226Y-55803937D01*
X98479744Y-55917205D01*
X98668102Y-55995226D01*
X98868061Y-56035000D01*
X99071939Y-56035000D01*
X99271898Y-55995226D01*
X99460256Y-55917205D01*
X99629774Y-55803937D01*
X99673711Y-55760000D01*
X99796289Y-55760000D01*
X99840226Y-55803937D01*
X100009744Y-55917205D01*
X100198102Y-55995226D01*
X100222103Y-56000000D01*
X100198102Y-56004774D01*
X100009744Y-56082795D01*
X99961546Y-56115000D01*
X97595490Y-56115000D01*
X97578937Y-56090226D01*
X97434774Y-55946063D01*
X97265256Y-55832795D01*
X97076898Y-55754774D01*
X96876939Y-55715000D01*
X96673061Y-55715000D01*
X96473102Y-55754774D01*
X96284744Y-55832795D01*
X96115226Y-55946063D01*
X95971063Y-56090226D01*
X95857795Y-56259744D01*
X95779774Y-56448102D01*
X95740000Y-56648061D01*
X66660000Y-56648061D01*
X66660000Y-56177683D01*
X66700820Y-56199502D01*
X66820518Y-56235812D01*
X66945000Y-56248072D01*
X68945000Y-56248072D01*
X69069482Y-56235812D01*
X69189180Y-56199502D01*
X69299494Y-56140537D01*
X69396185Y-56061185D01*
X69475537Y-55964494D01*
X69534502Y-55854180D01*
X69570812Y-55734482D01*
X69583072Y-55610000D01*
X69583072Y-53610000D01*
X69570812Y-53485518D01*
X69534502Y-53365820D01*
X69475537Y-53255506D01*
X69396185Y-53158815D01*
X69299494Y-53079463D01*
X69189180Y-53020498D01*
X69069482Y-52984188D01*
X68945000Y-52971928D01*
X66945000Y-52971928D01*
X66820518Y-52984188D01*
X66700820Y-53020498D01*
X66660000Y-53042317D01*
X66660000Y-52648061D01*
X92215000Y-52648061D01*
X92215000Y-52851939D01*
X92254774Y-53051898D01*
X92332795Y-53240256D01*
X92446063Y-53409774D01*
X92590226Y-53553937D01*
X92759744Y-53667205D01*
X92948102Y-53745226D01*
X93148061Y-53785000D01*
X93351939Y-53785000D01*
X93551898Y-53745226D01*
X93740256Y-53667205D01*
X93788454Y-53635000D01*
X94461546Y-53635000D01*
X94509744Y-53667205D01*
X94698102Y-53745226D01*
X94898061Y-53785000D01*
X95101939Y-53785000D01*
X95301898Y-53745226D01*
X95490256Y-53667205D01*
X95659774Y-53553937D01*
X95803937Y-53409774D01*
X95917205Y-53240256D01*
X95995226Y-53051898D01*
X96035000Y-52851939D01*
X96035000Y-52648061D01*
X95995226Y-52448102D01*
X95917205Y-52259744D01*
X95803937Y-52090226D01*
X95659774Y-51946063D01*
X95490256Y-51832795D01*
X95301898Y-51754774D01*
X95101939Y-51715000D01*
X94898061Y-51715000D01*
X94698102Y-51754774D01*
X94509744Y-51832795D01*
X94461546Y-51865000D01*
X93788454Y-51865000D01*
X93740256Y-51832795D01*
X93551898Y-51754774D01*
X93351939Y-51715000D01*
X93148061Y-51715000D01*
X92948102Y-51754774D01*
X92759744Y-51832795D01*
X92590226Y-51946063D01*
X92446063Y-52090226D01*
X92332795Y-52259744D01*
X92254774Y-52448102D01*
X92215000Y-52648061D01*
X66660000Y-52648061D01*
X66660000Y-50523061D01*
X102465000Y-50523061D01*
X102465000Y-50726939D01*
X102504774Y-50926898D01*
X102582795Y-51115256D01*
X102696063Y-51284774D01*
X102740001Y-51328712D01*
X102740000Y-51546289D01*
X102696063Y-51590226D01*
X102582795Y-51759744D01*
X102504774Y-51948102D01*
X102465000Y-52148061D01*
X102465000Y-52351939D01*
X102504774Y-52551898D01*
X102582795Y-52740256D01*
X102696063Y-52909774D01*
X102840226Y-53053937D01*
X103009744Y-53167205D01*
X103198102Y-53245226D01*
X103398061Y-53285000D01*
X103601939Y-53285000D01*
X103801898Y-53245226D01*
X103990256Y-53167205D01*
X104159774Y-53053937D01*
X104303937Y-52909774D01*
X104417205Y-52740256D01*
X104495226Y-52551898D01*
X104535000Y-52351939D01*
X104535000Y-52148061D01*
X104500191Y-51973061D01*
X107321949Y-51973061D01*
X107321949Y-52176939D01*
X107361723Y-52376898D01*
X107439744Y-52565256D01*
X107553012Y-52734774D01*
X107697175Y-52878937D01*
X107866693Y-52992205D01*
X108055051Y-53070226D01*
X108255010Y-53110000D01*
X108458888Y-53110000D01*
X108658847Y-53070226D01*
X108847205Y-52992205D01*
X109016723Y-52878937D01*
X109160886Y-52734774D01*
X109274154Y-52565256D01*
X109336261Y-52415317D01*
X110376492Y-51375087D01*
X111321448Y-52320044D01*
X111332757Y-52376898D01*
X111410778Y-52565256D01*
X111524046Y-52734774D01*
X111668209Y-52878937D01*
X111837727Y-52992205D01*
X112026085Y-53070226D01*
X112226044Y-53110000D01*
X112429922Y-53110000D01*
X112629881Y-53070226D01*
X112818239Y-52992205D01*
X112987757Y-52878937D01*
X113131920Y-52734774D01*
X113245188Y-52565256D01*
X113323209Y-52376898D01*
X113362983Y-52176939D01*
X113362983Y-51973061D01*
X113323209Y-51773102D01*
X113245188Y-51584744D01*
X113131920Y-51415226D01*
X112987757Y-51271063D01*
X112818239Y-51157795D01*
X112629881Y-51079774D01*
X112573027Y-51068465D01*
X111689937Y-50185376D01*
X111745226Y-50051898D01*
X111785000Y-49851939D01*
X111785000Y-49648061D01*
X111745226Y-49448102D01*
X111667205Y-49259744D01*
X111553937Y-49090226D01*
X111409774Y-48946063D01*
X111240256Y-48832795D01*
X111051898Y-48754774D01*
X110851939Y-48715000D01*
X110648061Y-48715000D01*
X110448102Y-48754774D01*
X110259744Y-48832795D01*
X110090226Y-48946063D01*
X109946063Y-49090226D01*
X109832795Y-49259744D01*
X109754774Y-49448102D01*
X109743465Y-49504956D01*
X108196854Y-51051568D01*
X108055051Y-51079774D01*
X107866693Y-51157795D01*
X107697175Y-51271063D01*
X107553012Y-51415226D01*
X107439744Y-51584744D01*
X107361723Y-51773102D01*
X107321949Y-51973061D01*
X104500191Y-51973061D01*
X104495226Y-51948102D01*
X104417205Y-51759744D01*
X104303937Y-51590226D01*
X104260000Y-51546289D01*
X104260000Y-51328711D01*
X104303937Y-51284774D01*
X104417205Y-51115256D01*
X104495226Y-50926898D01*
X104535000Y-50726939D01*
X104535000Y-50523061D01*
X104495226Y-50323102D01*
X104417205Y-50134744D01*
X104303937Y-49965226D01*
X104159774Y-49821063D01*
X103990256Y-49707795D01*
X103801898Y-49629774D01*
X103601939Y-49590000D01*
X103398061Y-49590000D01*
X103198102Y-49629774D01*
X103009744Y-49707795D01*
X102840226Y-49821063D01*
X102696063Y-49965226D01*
X102582795Y-50134744D01*
X102504774Y-50323102D01*
X102465000Y-50523061D01*
X66660000Y-50523061D01*
X66660000Y-48793061D01*
X92945000Y-48793061D01*
X92945000Y-48996939D01*
X92984774Y-49196898D01*
X93062795Y-49385256D01*
X93176063Y-49554774D01*
X93320226Y-49698937D01*
X93489744Y-49812205D01*
X93678102Y-49890226D01*
X93878061Y-49930000D01*
X94081939Y-49930000D01*
X94281898Y-49890226D01*
X94470256Y-49812205D01*
X94639774Y-49698937D01*
X94683711Y-49655000D01*
X97721289Y-49655000D01*
X97765226Y-49698937D01*
X97934744Y-49812205D01*
X98123102Y-49890226D01*
X98323061Y-49930000D01*
X98526939Y-49930000D01*
X98726898Y-49890226D01*
X98915256Y-49812205D01*
X99084774Y-49698937D01*
X99228937Y-49554774D01*
X99342205Y-49385256D01*
X99420226Y-49196898D01*
X99460000Y-48996939D01*
X99460000Y-48793061D01*
X99420226Y-48593102D01*
X99342205Y-48404744D01*
X99228937Y-48235226D01*
X99084774Y-48091063D01*
X98915256Y-47977795D01*
X98726898Y-47899774D01*
X98526939Y-47860000D01*
X98323061Y-47860000D01*
X98123102Y-47899774D01*
X97934744Y-47977795D01*
X97765226Y-48091063D01*
X97721289Y-48135000D01*
X94683711Y-48135000D01*
X94639774Y-48091063D01*
X94470256Y-47977795D01*
X94281898Y-47899774D01*
X94081939Y-47860000D01*
X93878061Y-47860000D01*
X93678102Y-47899774D01*
X93489744Y-47977795D01*
X93320226Y-48091063D01*
X93176063Y-48235226D01*
X93062795Y-48404744D01*
X92984774Y-48593102D01*
X92945000Y-48793061D01*
X66660000Y-48793061D01*
X66660000Y-44598061D01*
X108765000Y-44598061D01*
X108765000Y-44801939D01*
X108804774Y-45001898D01*
X108882795Y-45190256D01*
X108996063Y-45359774D01*
X109140226Y-45503937D01*
X109309744Y-45617205D01*
X109498102Y-45695226D01*
X109698061Y-45735000D01*
X109901939Y-45735000D01*
X110101898Y-45695226D01*
X110290256Y-45617205D01*
X110459774Y-45503937D01*
X110503711Y-45460000D01*
X110896289Y-45460000D01*
X110940226Y-45503937D01*
X111109744Y-45617205D01*
X111298102Y-45695226D01*
X111498061Y-45735000D01*
X111701939Y-45735000D01*
X111901898Y-45695226D01*
X112090256Y-45617205D01*
X112259774Y-45503937D01*
X112403937Y-45359774D01*
X112517205Y-45190256D01*
X112595226Y-45001898D01*
X112635000Y-44801939D01*
X112635000Y-44598061D01*
X112595226Y-44398102D01*
X112517205Y-44209744D01*
X112403937Y-44040226D01*
X112259774Y-43896063D01*
X112090256Y-43782795D01*
X111901898Y-43704774D01*
X111701939Y-43665000D01*
X111498061Y-43665000D01*
X111298102Y-43704774D01*
X111109744Y-43782795D01*
X110940226Y-43896063D01*
X110896289Y-43940000D01*
X110503711Y-43940000D01*
X110459774Y-43896063D01*
X110290256Y-43782795D01*
X110101898Y-43704774D01*
X109901939Y-43665000D01*
X109698061Y-43665000D01*
X109498102Y-43704774D01*
X109309744Y-43782795D01*
X109140226Y-43896063D01*
X108996063Y-44040226D01*
X108882795Y-44209744D01*
X108804774Y-44398102D01*
X108765000Y-44598061D01*
X66660000Y-44598061D01*
X66660000Y-40758751D01*
X67333751Y-40758751D01*
X67461123Y-40920586D01*
X67724152Y-40989995D01*
X67995668Y-41006757D01*
X68265238Y-40970225D01*
X68428877Y-40920586D01*
X68556249Y-40758751D01*
X67945000Y-40147502D01*
X67333751Y-40758751D01*
X66660000Y-40758751D01*
X66660000Y-40116144D01*
X66806249Y-40231249D01*
X67417498Y-39620000D01*
X68472502Y-39620000D01*
X69083751Y-40231249D01*
X69245586Y-40103877D01*
X69314995Y-39840848D01*
X69331757Y-39569332D01*
X69295225Y-39299762D01*
X69245586Y-39136123D01*
X69083751Y-39008751D01*
X68472502Y-39620000D01*
X67417498Y-39620000D01*
X66806249Y-39008751D01*
X66660000Y-39123856D01*
X66660000Y-38481249D01*
X67333751Y-38481249D01*
X67945000Y-39092498D01*
X68556249Y-38481249D01*
X68428877Y-38319414D01*
X68165848Y-38250005D01*
X67894332Y-38233243D01*
X67624762Y-38269775D01*
X67461123Y-38319414D01*
X67333751Y-38481249D01*
X66660000Y-38481249D01*
X66660000Y-32223967D01*
X69485000Y-32223967D01*
X69485000Y-32546033D01*
X69547832Y-32861912D01*
X69671082Y-33159463D01*
X69850013Y-33427252D01*
X70077748Y-33654987D01*
X70345537Y-33833918D01*
X70643088Y-33957168D01*
X70958967Y-34020000D01*
X71281033Y-34020000D01*
X71596912Y-33957168D01*
X71894463Y-33833918D01*
X72162252Y-33654987D01*
X72389987Y-33427252D01*
X72390000Y-33427233D01*
X72390013Y-33427252D01*
X72617748Y-33654987D01*
X72885537Y-33833918D01*
X73183088Y-33957168D01*
X73498967Y-34020000D01*
X73821033Y-34020000D01*
X74136912Y-33957168D01*
X74434463Y-33833918D01*
X74702252Y-33654987D01*
X74929987Y-33427252D01*
X74930000Y-33427233D01*
X74930013Y-33427252D01*
X75157748Y-33654987D01*
X75425537Y-33833918D01*
X75723088Y-33957168D01*
X76038967Y-34020000D01*
X76361033Y-34020000D01*
X76676912Y-33957168D01*
X76691376Y-33951177D01*
X79885001Y-37144803D01*
X79885000Y-38031289D01*
X79841063Y-38075226D01*
X79727795Y-38244744D01*
X79649774Y-38433102D01*
X79610000Y-38633061D01*
X79610000Y-38836939D01*
X79649774Y-39036898D01*
X79727795Y-39225256D01*
X79841063Y-39394774D01*
X79985226Y-39538937D01*
X80154744Y-39652205D01*
X80343102Y-39730226D01*
X80543061Y-39770000D01*
X80746939Y-39770000D01*
X80946898Y-39730226D01*
X81135256Y-39652205D01*
X81280000Y-39555490D01*
X81424744Y-39652205D01*
X81613102Y-39730226D01*
X81813061Y-39770000D01*
X82016939Y-39770000D01*
X82216898Y-39730226D01*
X82405256Y-39652205D01*
X82574774Y-39538937D01*
X82718937Y-39394774D01*
X82832205Y-39225256D01*
X82910226Y-39036898D01*
X82950000Y-38836939D01*
X82950000Y-38633061D01*
X82910226Y-38433102D01*
X82832205Y-38244744D01*
X82718937Y-38075226D01*
X82675000Y-38031289D01*
X82675000Y-35597322D01*
X82678676Y-35559999D01*
X82675000Y-35522676D01*
X82675000Y-35522667D01*
X82664003Y-35411014D01*
X82620546Y-35267753D01*
X82549974Y-35135723D01*
X82478799Y-35048997D01*
X82455001Y-35019999D01*
X82426003Y-34996201D01*
X81193064Y-33763262D01*
X81330668Y-33771757D01*
X81600238Y-33735225D01*
X81763877Y-33685586D01*
X81891249Y-33523751D01*
X81280000Y-32912502D01*
X81265858Y-32926644D01*
X80738356Y-32399142D01*
X80752498Y-32385000D01*
X81807502Y-32385000D01*
X82238749Y-32816247D01*
X82247832Y-32861912D01*
X82371082Y-33159463D01*
X82550013Y-33427252D01*
X82777748Y-33654987D01*
X83045537Y-33833918D01*
X83343088Y-33957168D01*
X83658967Y-34020000D01*
X83981033Y-34020000D01*
X84296912Y-33957168D01*
X84594463Y-33833918D01*
X84862252Y-33654987D01*
X85089987Y-33427252D01*
X85268918Y-33159463D01*
X85392168Y-32861912D01*
X85455000Y-32546033D01*
X85455000Y-32223967D01*
X85392168Y-31908088D01*
X85268918Y-31610537D01*
X85089987Y-31342748D01*
X84862252Y-31115013D01*
X84594463Y-30936082D01*
X84296912Y-30812832D01*
X83981033Y-30750000D01*
X83658967Y-30750000D01*
X83343088Y-30812832D01*
X83045537Y-30936082D01*
X82777748Y-31115013D01*
X82550013Y-31342748D01*
X82371082Y-31610537D01*
X82247832Y-31908088D01*
X82238749Y-31953753D01*
X81807502Y-32385000D01*
X80752498Y-32385000D01*
X80321251Y-31953753D01*
X80312168Y-31908088D01*
X80188918Y-31610537D01*
X80009987Y-31342748D01*
X79913488Y-31246249D01*
X80668751Y-31246249D01*
X81280000Y-31857498D01*
X81891249Y-31246249D01*
X81763877Y-31084414D01*
X81500848Y-31015005D01*
X81229332Y-30998243D01*
X80959762Y-31034775D01*
X80796123Y-31084414D01*
X80668751Y-31246249D01*
X79913488Y-31246249D01*
X79782252Y-31115013D01*
X79514463Y-30936082D01*
X79216912Y-30812832D01*
X78901033Y-30750000D01*
X78578967Y-30750000D01*
X78263088Y-30812832D01*
X77965537Y-30936082D01*
X77697748Y-31115013D01*
X77470013Y-31342748D01*
X77470000Y-31342767D01*
X77469987Y-31342748D01*
X77242252Y-31115013D01*
X76974463Y-30936082D01*
X76676912Y-30812832D01*
X76361033Y-30750000D01*
X76038967Y-30750000D01*
X75723088Y-30812832D01*
X75425537Y-30936082D01*
X75157748Y-31115013D01*
X74930013Y-31342748D01*
X74930000Y-31342767D01*
X74929987Y-31342748D01*
X74702252Y-31115013D01*
X74434463Y-30936082D01*
X74136912Y-30812832D01*
X73821033Y-30750000D01*
X73498967Y-30750000D01*
X73183088Y-30812832D01*
X72885537Y-30936082D01*
X72617748Y-31115013D01*
X72390013Y-31342748D01*
X72390000Y-31342767D01*
X72389987Y-31342748D01*
X72162252Y-31115013D01*
X71894463Y-30936082D01*
X71596912Y-30812832D01*
X71281033Y-30750000D01*
X70958967Y-30750000D01*
X70643088Y-30812832D01*
X70345537Y-30936082D01*
X70077748Y-31115013D01*
X69850013Y-31342748D01*
X69671082Y-31610537D01*
X69547832Y-31908088D01*
X69485000Y-32223967D01*
X66660000Y-32223967D01*
X66660000Y-30660000D01*
X114373000Y-30660000D01*
X114373000Y-49675647D01*
X114373000Y-49675647D01*
G37*
X114373000Y-49675647D02*
X114201898Y-49604774D01*
X114001939Y-49565000D01*
X113798061Y-49565000D01*
X113598102Y-49604774D01*
X113409744Y-49682795D01*
X113240226Y-49796063D01*
X113096063Y-49940226D01*
X112982795Y-50109744D01*
X112904774Y-50298102D01*
X112865000Y-50498061D01*
X112865000Y-50701939D01*
X112904774Y-50901898D01*
X112982795Y-51090256D01*
X113096063Y-51259774D01*
X113240226Y-51403937D01*
X113409744Y-51517205D01*
X113598102Y-51595226D01*
X113654957Y-51606535D01*
X114115001Y-52066580D01*
X114115000Y-52761545D01*
X114082795Y-52809744D01*
X114004774Y-52998102D01*
X113965000Y-53198061D01*
X113965000Y-53401939D01*
X114004774Y-53601898D01*
X114082795Y-53790256D01*
X114196063Y-53959774D01*
X114340226Y-54103937D01*
X114373000Y-54125836D01*
X114373000Y-63340000D01*
X66660000Y-63340000D01*
X66660000Y-56648061D01*
X95740000Y-56648061D01*
X95740000Y-56851939D01*
X95779774Y-57051898D01*
X95857795Y-57240256D01*
X95971063Y-57409774D01*
X96115226Y-57553937D01*
X96284744Y-57667205D01*
X96473102Y-57745226D01*
X96582550Y-57766996D01*
X96684687Y-57821589D01*
X96851510Y-57872195D01*
X96981523Y-57885000D01*
X96981533Y-57885000D01*
X97024999Y-57889281D01*
X97068465Y-57885000D01*
X99961546Y-57885000D01*
X100009744Y-57917205D01*
X100198102Y-57995226D01*
X100398061Y-58035000D01*
X100601939Y-58035000D01*
X100801898Y-57995226D01*
X100990256Y-57917205D01*
X101159774Y-57803937D01*
X101303937Y-57659774D01*
X101417205Y-57490256D01*
X101495226Y-57301898D01*
X101535000Y-57101939D01*
X101535000Y-56898061D01*
X101495226Y-56698102D01*
X101417205Y-56509744D01*
X101303937Y-56340226D01*
X101159774Y-56196063D01*
X100990256Y-56082795D01*
X100801898Y-56004774D01*
X100777897Y-56000000D01*
X100801898Y-55995226D01*
X100990256Y-55917205D01*
X101159774Y-55803937D01*
X101303937Y-55659774D01*
X101417205Y-55490256D01*
X101495226Y-55301898D01*
X101535000Y-55101939D01*
X101535000Y-54898061D01*
X101495226Y-54698102D01*
X101417205Y-54509744D01*
X101303937Y-54340226D01*
X101159774Y-54196063D01*
X100990256Y-54082795D01*
X100801898Y-54004774D01*
X100601939Y-53965000D01*
X100398061Y-53965000D01*
X100198102Y-54004774D01*
X100009744Y-54082795D01*
X99840226Y-54196063D01*
X99796289Y-54240000D01*
X99673711Y-54240000D01*
X99629774Y-54196063D01*
X99460256Y-54082795D01*
X99271898Y-54004774D01*
X99071939Y-53965000D01*
X98868061Y-53965000D01*
X98668102Y-54004774D01*
X98479744Y-54082795D01*
X98310226Y-54196063D01*
X98166063Y-54340226D01*
X98052795Y-54509744D01*
X97974774Y-54698102D01*
X97935000Y-54898061D01*
X97935000Y-55101939D01*
X97974774Y-55301898D01*
X98052795Y-55490256D01*
X98166063Y-55659774D01*
X98310226Y-55803937D01*
X98479744Y-55917205D01*
X98668102Y-55995226D01*
X98868061Y-56035000D01*
X99071939Y-56035000D01*
X99271898Y-55995226D01*
X99460256Y-55917205D01*
X99629774Y-55803937D01*
X99673711Y-55760000D01*
X99796289Y-55760000D01*
X99840226Y-55803937D01*
X100009744Y-55917205D01*
X100198102Y-55995226D01*
X100222103Y-56000000D01*
X100198102Y-56004774D01*
X100009744Y-56082795D01*
X99961546Y-56115000D01*
X97595490Y-56115000D01*
X97578937Y-56090226D01*
X97434774Y-55946063D01*
X97265256Y-55832795D01*
X97076898Y-55754774D01*
X96876939Y-55715000D01*
X96673061Y-55715000D01*
X96473102Y-55754774D01*
X96284744Y-55832795D01*
X96115226Y-55946063D01*
X95971063Y-56090226D01*
X95857795Y-56259744D01*
X95779774Y-56448102D01*
X95740000Y-56648061D01*
X66660000Y-56648061D01*
X66660000Y-56177683D01*
X66700820Y-56199502D01*
X66820518Y-56235812D01*
X66945000Y-56248072D01*
X68945000Y-56248072D01*
X69069482Y-56235812D01*
X69189180Y-56199502D01*
X69299494Y-56140537D01*
X69396185Y-56061185D01*
X69475537Y-55964494D01*
X69534502Y-55854180D01*
X69570812Y-55734482D01*
X69583072Y-55610000D01*
X69583072Y-53610000D01*
X69570812Y-53485518D01*
X69534502Y-53365820D01*
X69475537Y-53255506D01*
X69396185Y-53158815D01*
X69299494Y-53079463D01*
X69189180Y-53020498D01*
X69069482Y-52984188D01*
X68945000Y-52971928D01*
X66945000Y-52971928D01*
X66820518Y-52984188D01*
X66700820Y-53020498D01*
X66660000Y-53042317D01*
X66660000Y-52648061D01*
X92215000Y-52648061D01*
X92215000Y-52851939D01*
X92254774Y-53051898D01*
X92332795Y-53240256D01*
X92446063Y-53409774D01*
X92590226Y-53553937D01*
X92759744Y-53667205D01*
X92948102Y-53745226D01*
X93148061Y-53785000D01*
X93351939Y-53785000D01*
X93551898Y-53745226D01*
X93740256Y-53667205D01*
X93788454Y-53635000D01*
X94461546Y-53635000D01*
X94509744Y-53667205D01*
X94698102Y-53745226D01*
X94898061Y-53785000D01*
X95101939Y-53785000D01*
X95301898Y-53745226D01*
X95490256Y-53667205D01*
X95659774Y-53553937D01*
X95803937Y-53409774D01*
X95917205Y-53240256D01*
X95995226Y-53051898D01*
X96035000Y-52851939D01*
X96035000Y-52648061D01*
X95995226Y-52448102D01*
X95917205Y-52259744D01*
X95803937Y-52090226D01*
X95659774Y-51946063D01*
X95490256Y-51832795D01*
X95301898Y-51754774D01*
X95101939Y-51715000D01*
X94898061Y-51715000D01*
X94698102Y-51754774D01*
X94509744Y-51832795D01*
X94461546Y-51865000D01*
X93788454Y-51865000D01*
X93740256Y-51832795D01*
X93551898Y-51754774D01*
X93351939Y-51715000D01*
X93148061Y-51715000D01*
X92948102Y-51754774D01*
X92759744Y-51832795D01*
X92590226Y-51946063D01*
X92446063Y-52090226D01*
X92332795Y-52259744D01*
X92254774Y-52448102D01*
X92215000Y-52648061D01*
X66660000Y-52648061D01*
X66660000Y-50523061D01*
X102465000Y-50523061D01*
X102465000Y-50726939D01*
X102504774Y-50926898D01*
X102582795Y-51115256D01*
X102696063Y-51284774D01*
X102740001Y-51328712D01*
X102740000Y-51546289D01*
X102696063Y-51590226D01*
X102582795Y-51759744D01*
X102504774Y-51948102D01*
X102465000Y-52148061D01*
X102465000Y-52351939D01*
X102504774Y-52551898D01*
X102582795Y-52740256D01*
X102696063Y-52909774D01*
X102840226Y-53053937D01*
X103009744Y-53167205D01*
X103198102Y-53245226D01*
X103398061Y-53285000D01*
X103601939Y-53285000D01*
X103801898Y-53245226D01*
X103990256Y-53167205D01*
X104159774Y-53053937D01*
X104303937Y-52909774D01*
X104417205Y-52740256D01*
X104495226Y-52551898D01*
X104535000Y-52351939D01*
X104535000Y-52148061D01*
X104500191Y-51973061D01*
X107321949Y-51973061D01*
X107321949Y-52176939D01*
X107361723Y-52376898D01*
X107439744Y-52565256D01*
X107553012Y-52734774D01*
X107697175Y-52878937D01*
X107866693Y-52992205D01*
X108055051Y-53070226D01*
X108255010Y-53110000D01*
X108458888Y-53110000D01*
X108658847Y-53070226D01*
X108847205Y-52992205D01*
X109016723Y-52878937D01*
X109160886Y-52734774D01*
X109274154Y-52565256D01*
X109336261Y-52415317D01*
X110376492Y-51375087D01*
X111321448Y-52320044D01*
X111332757Y-52376898D01*
X111410778Y-52565256D01*
X111524046Y-52734774D01*
X111668209Y-52878937D01*
X111837727Y-52992205D01*
X112026085Y-53070226D01*
X112226044Y-53110000D01*
X112429922Y-53110000D01*
X112629881Y-53070226D01*
X112818239Y-52992205D01*
X112987757Y-52878937D01*
X113131920Y-52734774D01*
X113245188Y-52565256D01*
X113323209Y-52376898D01*
X113362983Y-52176939D01*
X113362983Y-51973061D01*
X113323209Y-51773102D01*
X113245188Y-51584744D01*
X113131920Y-51415226D01*
X112987757Y-51271063D01*
X112818239Y-51157795D01*
X112629881Y-51079774D01*
X112573027Y-51068465D01*
X111689937Y-50185376D01*
X111745226Y-50051898D01*
X111785000Y-49851939D01*
X111785000Y-49648061D01*
X111745226Y-49448102D01*
X111667205Y-49259744D01*
X111553937Y-49090226D01*
X111409774Y-48946063D01*
X111240256Y-48832795D01*
X111051898Y-48754774D01*
X110851939Y-48715000D01*
X110648061Y-48715000D01*
X110448102Y-48754774D01*
X110259744Y-48832795D01*
X110090226Y-48946063D01*
X109946063Y-49090226D01*
X109832795Y-49259744D01*
X109754774Y-49448102D01*
X109743465Y-49504956D01*
X108196854Y-51051568D01*
X108055051Y-51079774D01*
X107866693Y-51157795D01*
X107697175Y-51271063D01*
X107553012Y-51415226D01*
X107439744Y-51584744D01*
X107361723Y-51773102D01*
X107321949Y-51973061D01*
X104500191Y-51973061D01*
X104495226Y-51948102D01*
X104417205Y-51759744D01*
X104303937Y-51590226D01*
X104260000Y-51546289D01*
X104260000Y-51328711D01*
X104303937Y-51284774D01*
X104417205Y-51115256D01*
X104495226Y-50926898D01*
X104535000Y-50726939D01*
X104535000Y-50523061D01*
X104495226Y-50323102D01*
X104417205Y-50134744D01*
X104303937Y-49965226D01*
X104159774Y-49821063D01*
X103990256Y-49707795D01*
X103801898Y-49629774D01*
X103601939Y-49590000D01*
X103398061Y-49590000D01*
X103198102Y-49629774D01*
X103009744Y-49707795D01*
X102840226Y-49821063D01*
X102696063Y-49965226D01*
X102582795Y-50134744D01*
X102504774Y-50323102D01*
X102465000Y-50523061D01*
X66660000Y-50523061D01*
X66660000Y-48793061D01*
X92945000Y-48793061D01*
X92945000Y-48996939D01*
X92984774Y-49196898D01*
X93062795Y-49385256D01*
X93176063Y-49554774D01*
X93320226Y-49698937D01*
X93489744Y-49812205D01*
X93678102Y-49890226D01*
X93878061Y-49930000D01*
X94081939Y-49930000D01*
X94281898Y-49890226D01*
X94470256Y-49812205D01*
X94639774Y-49698937D01*
X94683711Y-49655000D01*
X97721289Y-49655000D01*
X97765226Y-49698937D01*
X97934744Y-49812205D01*
X98123102Y-49890226D01*
X98323061Y-49930000D01*
X98526939Y-49930000D01*
X98726898Y-49890226D01*
X98915256Y-49812205D01*
X99084774Y-49698937D01*
X99228937Y-49554774D01*
X99342205Y-49385256D01*
X99420226Y-49196898D01*
X99460000Y-48996939D01*
X99460000Y-48793061D01*
X99420226Y-48593102D01*
X99342205Y-48404744D01*
X99228937Y-48235226D01*
X99084774Y-48091063D01*
X98915256Y-47977795D01*
X98726898Y-47899774D01*
X98526939Y-47860000D01*
X98323061Y-47860000D01*
X98123102Y-47899774D01*
X97934744Y-47977795D01*
X97765226Y-48091063D01*
X97721289Y-48135000D01*
X94683711Y-48135000D01*
X94639774Y-48091063D01*
X94470256Y-47977795D01*
X94281898Y-47899774D01*
X94081939Y-47860000D01*
X93878061Y-47860000D01*
X93678102Y-47899774D01*
X93489744Y-47977795D01*
X93320226Y-48091063D01*
X93176063Y-48235226D01*
X93062795Y-48404744D01*
X92984774Y-48593102D01*
X92945000Y-48793061D01*
X66660000Y-48793061D01*
X66660000Y-44598061D01*
X108765000Y-44598061D01*
X108765000Y-44801939D01*
X108804774Y-45001898D01*
X108882795Y-45190256D01*
X108996063Y-45359774D01*
X109140226Y-45503937D01*
X109309744Y-45617205D01*
X109498102Y-45695226D01*
X109698061Y-45735000D01*
X109901939Y-45735000D01*
X110101898Y-45695226D01*
X110290256Y-45617205D01*
X110459774Y-45503937D01*
X110503711Y-45460000D01*
X110896289Y-45460000D01*
X110940226Y-45503937D01*
X111109744Y-45617205D01*
X111298102Y-45695226D01*
X111498061Y-45735000D01*
X111701939Y-45735000D01*
X111901898Y-45695226D01*
X112090256Y-45617205D01*
X112259774Y-45503937D01*
X112403937Y-45359774D01*
X112517205Y-45190256D01*
X112595226Y-45001898D01*
X112635000Y-44801939D01*
X112635000Y-44598061D01*
X112595226Y-44398102D01*
X112517205Y-44209744D01*
X112403937Y-44040226D01*
X112259774Y-43896063D01*
X112090256Y-43782795D01*
X111901898Y-43704774D01*
X111701939Y-43665000D01*
X111498061Y-43665000D01*
X111298102Y-43704774D01*
X111109744Y-43782795D01*
X110940226Y-43896063D01*
X110896289Y-43940000D01*
X110503711Y-43940000D01*
X110459774Y-43896063D01*
X110290256Y-43782795D01*
X110101898Y-43704774D01*
X109901939Y-43665000D01*
X109698061Y-43665000D01*
X109498102Y-43704774D01*
X109309744Y-43782795D01*
X109140226Y-43896063D01*
X108996063Y-44040226D01*
X108882795Y-44209744D01*
X108804774Y-44398102D01*
X108765000Y-44598061D01*
X66660000Y-44598061D01*
X66660000Y-40758751D01*
X67333751Y-40758751D01*
X67461123Y-40920586D01*
X67724152Y-40989995D01*
X67995668Y-41006757D01*
X68265238Y-40970225D01*
X68428877Y-40920586D01*
X68556249Y-40758751D01*
X67945000Y-40147502D01*
X67333751Y-40758751D01*
X66660000Y-40758751D01*
X66660000Y-40116144D01*
X66806249Y-40231249D01*
X67417498Y-39620000D01*
X68472502Y-39620000D01*
X69083751Y-40231249D01*
X69245586Y-40103877D01*
X69314995Y-39840848D01*
X69331757Y-39569332D01*
X69295225Y-39299762D01*
X69245586Y-39136123D01*
X69083751Y-39008751D01*
X68472502Y-39620000D01*
X67417498Y-39620000D01*
X66806249Y-39008751D01*
X66660000Y-39123856D01*
X66660000Y-38481249D01*
X67333751Y-38481249D01*
X67945000Y-39092498D01*
X68556249Y-38481249D01*
X68428877Y-38319414D01*
X68165848Y-38250005D01*
X67894332Y-38233243D01*
X67624762Y-38269775D01*
X67461123Y-38319414D01*
X67333751Y-38481249D01*
X66660000Y-38481249D01*
X66660000Y-32223967D01*
X69485000Y-32223967D01*
X69485000Y-32546033D01*
X69547832Y-32861912D01*
X69671082Y-33159463D01*
X69850013Y-33427252D01*
X70077748Y-33654987D01*
X70345537Y-33833918D01*
X70643088Y-33957168D01*
X70958967Y-34020000D01*
X71281033Y-34020000D01*
X71596912Y-33957168D01*
X71894463Y-33833918D01*
X72162252Y-33654987D01*
X72389987Y-33427252D01*
X72390000Y-33427233D01*
X72390013Y-33427252D01*
X72617748Y-33654987D01*
X72885537Y-33833918D01*
X73183088Y-33957168D01*
X73498967Y-34020000D01*
X73821033Y-34020000D01*
X74136912Y-33957168D01*
X74434463Y-33833918D01*
X74702252Y-33654987D01*
X74929987Y-33427252D01*
X74930000Y-33427233D01*
X74930013Y-33427252D01*
X75157748Y-33654987D01*
X75425537Y-33833918D01*
X75723088Y-33957168D01*
X76038967Y-34020000D01*
X76361033Y-34020000D01*
X76676912Y-33957168D01*
X76691376Y-33951177D01*
X79885001Y-37144803D01*
X79885000Y-38031289D01*
X79841063Y-38075226D01*
X79727795Y-38244744D01*
X79649774Y-38433102D01*
X79610000Y-38633061D01*
X79610000Y-38836939D01*
X79649774Y-39036898D01*
X79727795Y-39225256D01*
X79841063Y-39394774D01*
X79985226Y-39538937D01*
X80154744Y-39652205D01*
X80343102Y-39730226D01*
X80543061Y-39770000D01*
X80746939Y-39770000D01*
X80946898Y-39730226D01*
X81135256Y-39652205D01*
X81280000Y-39555490D01*
X81424744Y-39652205D01*
X81613102Y-39730226D01*
X81813061Y-39770000D01*
X82016939Y-39770000D01*
X82216898Y-39730226D01*
X82405256Y-39652205D01*
X82574774Y-39538937D01*
X82718937Y-39394774D01*
X82832205Y-39225256D01*
X82910226Y-39036898D01*
X82950000Y-38836939D01*
X82950000Y-38633061D01*
X82910226Y-38433102D01*
X82832205Y-38244744D01*
X82718937Y-38075226D01*
X82675000Y-38031289D01*
X82675000Y-35597322D01*
X82678676Y-35559999D01*
X82675000Y-35522676D01*
X82675000Y-35522667D01*
X82664003Y-35411014D01*
X82620546Y-35267753D01*
X82549974Y-35135723D01*
X82478799Y-35048997D01*
X82455001Y-35019999D01*
X82426003Y-34996201D01*
X81193064Y-33763262D01*
X81330668Y-33771757D01*
X81600238Y-33735225D01*
X81763877Y-33685586D01*
X81891249Y-33523751D01*
X81280000Y-32912502D01*
X81265858Y-32926644D01*
X80738356Y-32399142D01*
X80752498Y-32385000D01*
X81807502Y-32385000D01*
X82238749Y-32816247D01*
X82247832Y-32861912D01*
X82371082Y-33159463D01*
X82550013Y-33427252D01*
X82777748Y-33654987D01*
X83045537Y-33833918D01*
X83343088Y-33957168D01*
X83658967Y-34020000D01*
X83981033Y-34020000D01*
X84296912Y-33957168D01*
X84594463Y-33833918D01*
X84862252Y-33654987D01*
X85089987Y-33427252D01*
X85268918Y-33159463D01*
X85392168Y-32861912D01*
X85455000Y-32546033D01*
X85455000Y-32223967D01*
X85392168Y-31908088D01*
X85268918Y-31610537D01*
X85089987Y-31342748D01*
X84862252Y-31115013D01*
X84594463Y-30936082D01*
X84296912Y-30812832D01*
X83981033Y-30750000D01*
X83658967Y-30750000D01*
X83343088Y-30812832D01*
X83045537Y-30936082D01*
X82777748Y-31115013D01*
X82550013Y-31342748D01*
X82371082Y-31610537D01*
X82247832Y-31908088D01*
X82238749Y-31953753D01*
X81807502Y-32385000D01*
X80752498Y-32385000D01*
X80321251Y-31953753D01*
X80312168Y-31908088D01*
X80188918Y-31610537D01*
X80009987Y-31342748D01*
X79913488Y-31246249D01*
X80668751Y-31246249D01*
X81280000Y-31857498D01*
X81891249Y-31246249D01*
X81763877Y-31084414D01*
X81500848Y-31015005D01*
X81229332Y-30998243D01*
X80959762Y-31034775D01*
X80796123Y-31084414D01*
X80668751Y-31246249D01*
X79913488Y-31246249D01*
X79782252Y-31115013D01*
X79514463Y-30936082D01*
X79216912Y-30812832D01*
X78901033Y-30750000D01*
X78578967Y-30750000D01*
X78263088Y-30812832D01*
X77965537Y-30936082D01*
X77697748Y-31115013D01*
X77470013Y-31342748D01*
X77470000Y-31342767D01*
X77469987Y-31342748D01*
X77242252Y-31115013D01*
X76974463Y-30936082D01*
X76676912Y-30812832D01*
X76361033Y-30750000D01*
X76038967Y-30750000D01*
X75723088Y-30812832D01*
X75425537Y-30936082D01*
X75157748Y-31115013D01*
X74930013Y-31342748D01*
X74930000Y-31342767D01*
X74929987Y-31342748D01*
X74702252Y-31115013D01*
X74434463Y-30936082D01*
X74136912Y-30812832D01*
X73821033Y-30750000D01*
X73498967Y-30750000D01*
X73183088Y-30812832D01*
X72885537Y-30936082D01*
X72617748Y-31115013D01*
X72390013Y-31342748D01*
X72390000Y-31342767D01*
X72389987Y-31342748D01*
X72162252Y-31115013D01*
X71894463Y-30936082D01*
X71596912Y-30812832D01*
X71281033Y-30750000D01*
X70958967Y-30750000D01*
X70643088Y-30812832D01*
X70345537Y-30936082D01*
X70077748Y-31115013D01*
X69850013Y-31342748D01*
X69671082Y-31610537D01*
X69547832Y-31908088D01*
X69485000Y-32223967D01*
X66660000Y-32223967D01*
X66660000Y-30660000D01*
X114373000Y-30660000D01*
X114373000Y-49675647D01*
M02*
