G04 #@! TF.GenerationSoftware,KiCad,Pcbnew,5.1.2*
G04 #@! TF.CreationDate,2019-08-07T15:52:47+02:00*
G04 #@! TF.ProjectId,wifisensor-dual-cpu,77696669-7365-46e7-936f-722d6475616c,rev?*
G04 #@! TF.SameCoordinates,Original*
G04 #@! TF.FileFunction,Legend,Top*
G04 #@! TF.FilePolarity,Positive*
%FSLAX46Y46*%
G04 Gerber Fmt 4.6, Leading zero omitted, Abs format (unit mm)*
G04 Created by KiCad (PCBNEW 5.1.2) date 2019-08-07 15:52:47*
%MOMM*%
%LPD*%
G04 APERTURE LIST*
%ADD10C,0.150000*%
%ADD11C,0.120000*%
G04 APERTURE END LIST*
D10*
X108785714Y-58000000D02*
X108690476Y-57952380D01*
X108547619Y-57952380D01*
X108404761Y-58000000D01*
X108309523Y-58095238D01*
X108261904Y-58190476D01*
X108214285Y-58380952D01*
X108214285Y-58523809D01*
X108261904Y-58714285D01*
X108309523Y-58809523D01*
X108404761Y-58904761D01*
X108547619Y-58952380D01*
X108642857Y-58952380D01*
X108785714Y-58904761D01*
X108833333Y-58857142D01*
X108833333Y-58523809D01*
X108642857Y-58523809D01*
X109261904Y-58952380D02*
X109261904Y-57952380D01*
X109833333Y-58952380D01*
X109833333Y-57952380D01*
X110309523Y-58952380D02*
X110309523Y-57952380D01*
X110547619Y-57952380D01*
X110690476Y-58000000D01*
X110785714Y-58095238D01*
X110833333Y-58190476D01*
X110880952Y-58380952D01*
X110880952Y-58523809D01*
X110833333Y-58714285D01*
X110785714Y-58809523D01*
X110690476Y-58904761D01*
X110547619Y-58952380D01*
X110309523Y-58952380D01*
X112642857Y-58952380D02*
X112309523Y-58476190D01*
X112071428Y-58952380D02*
X112071428Y-57952380D01*
X112452380Y-57952380D01*
X112547619Y-58000000D01*
X112595238Y-58047619D01*
X112642857Y-58142857D01*
X112642857Y-58285714D01*
X112595238Y-58380952D01*
X112547619Y-58428571D01*
X112452380Y-58476190D01*
X112071428Y-58476190D01*
X113023809Y-58904761D02*
X113166666Y-58952380D01*
X113404761Y-58952380D01*
X113500000Y-58904761D01*
X113547619Y-58857142D01*
X113595238Y-58761904D01*
X113595238Y-58666666D01*
X113547619Y-58571428D01*
X113500000Y-58523809D01*
X113404761Y-58476190D01*
X113214285Y-58428571D01*
X113119047Y-58380952D01*
X113071428Y-58333333D01*
X113023809Y-58238095D01*
X113023809Y-58142857D01*
X113071428Y-58047619D01*
X113119047Y-58000000D01*
X113214285Y-57952380D01*
X113452380Y-57952380D01*
X113595238Y-58000000D01*
X113880952Y-57952380D02*
X114452380Y-57952380D01*
X114166666Y-58952380D02*
X114166666Y-57952380D01*
X116119047Y-58952380D02*
X115785714Y-58476190D01*
X115547619Y-58952380D02*
X115547619Y-57952380D01*
X115928571Y-57952380D01*
X116023809Y-58000000D01*
X116071428Y-58047619D01*
X116119047Y-58142857D01*
X116119047Y-58285714D01*
X116071428Y-58380952D01*
X116023809Y-58428571D01*
X115928571Y-58476190D01*
X115547619Y-58476190D01*
X116452380Y-57952380D02*
X117119047Y-58952380D01*
X117119047Y-57952380D02*
X116452380Y-58952380D01*
X117500000Y-58952380D02*
X117500000Y-57952380D01*
X117738095Y-57952380D01*
X117880952Y-58000000D01*
X117976190Y-58095238D01*
X118023809Y-58190476D01*
X118071428Y-58380952D01*
X118071428Y-58523809D01*
X118023809Y-58714285D01*
X117976190Y-58809523D01*
X117880952Y-58904761D01*
X117738095Y-58952380D01*
X117500000Y-58952380D01*
X119119047Y-57952380D02*
X119690476Y-57952380D01*
X119404761Y-58952380D02*
X119404761Y-57952380D01*
X119928571Y-57952380D02*
X120595238Y-58952380D01*
X120595238Y-57952380D02*
X119928571Y-58952380D01*
X120976190Y-58952380D02*
X120976190Y-57952380D01*
X121214285Y-57952380D01*
X121357142Y-58000000D01*
X121452380Y-58095238D01*
X121500000Y-58190476D01*
X121547619Y-58380952D01*
X121547619Y-58523809D01*
X121500000Y-58714285D01*
X121452380Y-58809523D01*
X121357142Y-58904761D01*
X121214285Y-58952380D01*
X120976190Y-58952380D01*
X123261904Y-58000000D02*
X123166666Y-57952380D01*
X123023809Y-57952380D01*
X122880952Y-58000000D01*
X122785714Y-58095238D01*
X122738095Y-58190476D01*
X122690476Y-58380952D01*
X122690476Y-58523809D01*
X122738095Y-58714285D01*
X122785714Y-58809523D01*
X122880952Y-58904761D01*
X123023809Y-58952380D01*
X123119047Y-58952380D01*
X123261904Y-58904761D01*
X123309523Y-58857142D01*
X123309523Y-58523809D01*
X123119047Y-58523809D01*
X123738095Y-58952380D02*
X123738095Y-57952380D01*
X124119047Y-57952380D01*
X124214285Y-58000000D01*
X124261904Y-58047619D01*
X124309523Y-58142857D01*
X124309523Y-58285714D01*
X124261904Y-58380952D01*
X124214285Y-58428571D01*
X124119047Y-58476190D01*
X123738095Y-58476190D01*
X124738095Y-58952380D02*
X124738095Y-57952380D01*
X125404761Y-57952380D02*
X125595238Y-57952380D01*
X125690476Y-58000000D01*
X125785714Y-58095238D01*
X125833333Y-58285714D01*
X125833333Y-58619047D01*
X125785714Y-58809523D01*
X125690476Y-58904761D01*
X125595238Y-58952380D01*
X125404761Y-58952380D01*
X125309523Y-58904761D01*
X125214285Y-58809523D01*
X125166666Y-58619047D01*
X125166666Y-58285714D01*
X125214285Y-58095238D01*
X125309523Y-58000000D01*
X125404761Y-57952380D01*
X126452380Y-57952380D02*
X126547619Y-57952380D01*
X126642857Y-58000000D01*
X126690476Y-58047619D01*
X126738095Y-58142857D01*
X126785714Y-58333333D01*
X126785714Y-58571428D01*
X126738095Y-58761904D01*
X126690476Y-58857142D01*
X126642857Y-58904761D01*
X126547619Y-58952380D01*
X126452380Y-58952380D01*
X126357142Y-58904761D01*
X126309523Y-58857142D01*
X126261904Y-58761904D01*
X126214285Y-58571428D01*
X126214285Y-58333333D01*
X126261904Y-58142857D01*
X126309523Y-58047619D01*
X126357142Y-58000000D01*
X126452380Y-57952380D01*
X113000000Y-61500000D02*
X112904761Y-61452380D01*
X112761904Y-61452380D01*
X112619047Y-61500000D01*
X112523809Y-61595238D01*
X112476190Y-61690476D01*
X112428571Y-61880952D01*
X112428571Y-62023809D01*
X112476190Y-62214285D01*
X112523809Y-62309523D01*
X112619047Y-62404761D01*
X112761904Y-62452380D01*
X112857142Y-62452380D01*
X113000000Y-62404761D01*
X113047619Y-62357142D01*
X113047619Y-62023809D01*
X112857142Y-62023809D01*
X113476190Y-62452380D02*
X113476190Y-61452380D01*
X114047619Y-62452380D01*
X114047619Y-61452380D01*
X114523809Y-62452380D02*
X114523809Y-61452380D01*
X114761904Y-61452380D01*
X114904761Y-61500000D01*
X115000000Y-61595238D01*
X115047619Y-61690476D01*
X115095238Y-61880952D01*
X115095238Y-62023809D01*
X115047619Y-62214285D01*
X115000000Y-62309523D01*
X114904761Y-62404761D01*
X114761904Y-62452380D01*
X114523809Y-62452380D01*
X116857142Y-62452380D02*
X116523809Y-61976190D01*
X116285714Y-62452380D02*
X116285714Y-61452380D01*
X116666666Y-61452380D01*
X116761904Y-61500000D01*
X116809523Y-61547619D01*
X116857142Y-61642857D01*
X116857142Y-61785714D01*
X116809523Y-61880952D01*
X116761904Y-61928571D01*
X116666666Y-61976190D01*
X116285714Y-61976190D01*
X117190476Y-61452380D02*
X117857142Y-62452380D01*
X117857142Y-61452380D02*
X117190476Y-62452380D01*
X118238095Y-62452380D02*
X118238095Y-61452380D01*
X118476190Y-61452380D01*
X118619047Y-61500000D01*
X118714285Y-61595238D01*
X118761904Y-61690476D01*
X118809523Y-61880952D01*
X118809523Y-62023809D01*
X118761904Y-62214285D01*
X118714285Y-62309523D01*
X118619047Y-62404761D01*
X118476190Y-62452380D01*
X118238095Y-62452380D01*
X119857142Y-61452380D02*
X120428571Y-61452380D01*
X120142857Y-62452380D02*
X120142857Y-61452380D01*
X120666666Y-61452380D02*
X121333333Y-62452380D01*
X121333333Y-61452380D02*
X120666666Y-62452380D01*
X121714285Y-62452380D02*
X121714285Y-61452380D01*
X121952380Y-61452380D01*
X122095238Y-61500000D01*
X122190476Y-61595238D01*
X122238095Y-61690476D01*
X122285714Y-61880952D01*
X122285714Y-62023809D01*
X122238095Y-62214285D01*
X122190476Y-62309523D01*
X122095238Y-62404761D01*
X121952380Y-62452380D01*
X121714285Y-62452380D01*
X123476190Y-61452380D02*
X123476190Y-62261904D01*
X123523809Y-62357142D01*
X123571428Y-62404761D01*
X123666666Y-62452380D01*
X123857142Y-62452380D01*
X123952380Y-62404761D01*
X124000000Y-62357142D01*
X124047619Y-62261904D01*
X124047619Y-61452380D01*
X124523809Y-62452380D02*
X124523809Y-61452380D01*
X124904761Y-61452380D01*
X125000000Y-61500000D01*
X125047619Y-61547619D01*
X125095238Y-61642857D01*
X125095238Y-61785714D01*
X125047619Y-61880952D01*
X125000000Y-61928571D01*
X124904761Y-61976190D01*
X124523809Y-61976190D01*
X125523809Y-62452380D02*
X125523809Y-61452380D01*
X125761904Y-61452380D01*
X125904761Y-61500000D01*
X126000000Y-61595238D01*
X126047619Y-61690476D01*
X126095238Y-61880952D01*
X126095238Y-62023809D01*
X126047619Y-62214285D01*
X126000000Y-62309523D01*
X125904761Y-62404761D01*
X125761904Y-62452380D01*
X125523809Y-62452380D01*
X126523809Y-62452380D02*
X126523809Y-61452380D01*
X70428571Y-62404761D02*
X70523809Y-62452380D01*
X70714285Y-62452380D01*
X70809523Y-62404761D01*
X70857142Y-62309523D01*
X70857142Y-62261904D01*
X70809523Y-62166666D01*
X70714285Y-62119047D01*
X70571428Y-62119047D01*
X70476190Y-62071428D01*
X70428571Y-61976190D01*
X70428571Y-61928571D01*
X70476190Y-61833333D01*
X70571428Y-61785714D01*
X70714285Y-61785714D01*
X70809523Y-61833333D01*
X71666666Y-62404761D02*
X71571428Y-62452380D01*
X71380952Y-62452380D01*
X71285714Y-62404761D01*
X71238095Y-62309523D01*
X71238095Y-61928571D01*
X71285714Y-61833333D01*
X71380952Y-61785714D01*
X71571428Y-61785714D01*
X71666666Y-61833333D01*
X71714285Y-61928571D01*
X71714285Y-62023809D01*
X71238095Y-62119047D01*
X72142857Y-62452380D02*
X72142857Y-61452380D01*
X72142857Y-61833333D02*
X72238095Y-61785714D01*
X72428571Y-61785714D01*
X72523809Y-61833333D01*
X72571428Y-61880952D01*
X72619047Y-61976190D01*
X72619047Y-62261904D01*
X72571428Y-62357142D01*
X72523809Y-62404761D01*
X72428571Y-62452380D01*
X72238095Y-62452380D01*
X72142857Y-62404761D01*
X73476190Y-62452380D02*
X73476190Y-61928571D01*
X73428571Y-61833333D01*
X73333333Y-61785714D01*
X73142857Y-61785714D01*
X73047619Y-61833333D01*
X73476190Y-62404761D02*
X73380952Y-62452380D01*
X73142857Y-62452380D01*
X73047619Y-62404761D01*
X73000000Y-62309523D01*
X73000000Y-62214285D01*
X73047619Y-62119047D01*
X73142857Y-62071428D01*
X73380952Y-62071428D01*
X73476190Y-62023809D01*
X73904761Y-62404761D02*
X74000000Y-62452380D01*
X74190476Y-62452380D01*
X74285714Y-62404761D01*
X74333333Y-62309523D01*
X74333333Y-62261904D01*
X74285714Y-62166666D01*
X74190476Y-62119047D01*
X74047619Y-62119047D01*
X73952380Y-62071428D01*
X73904761Y-61976190D01*
X73904761Y-61928571D01*
X73952380Y-61833333D01*
X74047619Y-61785714D01*
X74190476Y-61785714D01*
X74285714Y-61833333D01*
X74619047Y-61785714D02*
X75000000Y-61785714D01*
X74761904Y-61452380D02*
X74761904Y-62309523D01*
X74809523Y-62404761D01*
X74904761Y-62452380D01*
X75000000Y-62452380D01*
X75333333Y-62452380D02*
X75333333Y-61785714D01*
X75333333Y-61452380D02*
X75285714Y-61500000D01*
X75333333Y-61547619D01*
X75380952Y-61500000D01*
X75333333Y-61452380D01*
X75333333Y-61547619D01*
X76238095Y-62452380D02*
X76238095Y-61928571D01*
X76190476Y-61833333D01*
X76095238Y-61785714D01*
X75904761Y-61785714D01*
X75809523Y-61833333D01*
X76238095Y-62404761D02*
X76142857Y-62452380D01*
X75904761Y-62452380D01*
X75809523Y-62404761D01*
X75761904Y-62309523D01*
X75761904Y-62214285D01*
X75809523Y-62119047D01*
X75904761Y-62071428D01*
X76142857Y-62071428D01*
X76238095Y-62023809D01*
X76714285Y-61785714D02*
X76714285Y-62452380D01*
X76714285Y-61880952D02*
X76761904Y-61833333D01*
X76857142Y-61785714D01*
X77000000Y-61785714D01*
X77095238Y-61833333D01*
X77142857Y-61928571D01*
X77142857Y-62452380D01*
X78238095Y-61976190D02*
X78190476Y-61928571D01*
X78095238Y-61880952D01*
X78000000Y-61880952D01*
X77904761Y-61928571D01*
X77857142Y-61976190D01*
X77809523Y-62071428D01*
X77809523Y-62166666D01*
X77857142Y-62261904D01*
X77904761Y-62309523D01*
X78000000Y-62357142D01*
X78095238Y-62357142D01*
X78190476Y-62309523D01*
X78238095Y-62261904D01*
X78238095Y-61880952D02*
X78238095Y-62261904D01*
X78285714Y-62309523D01*
X78333333Y-62309523D01*
X78428571Y-62261904D01*
X78476190Y-62166666D01*
X78476190Y-61928571D01*
X78380952Y-61785714D01*
X78238095Y-61690476D01*
X78047619Y-61642857D01*
X77857142Y-61690476D01*
X77714285Y-61785714D01*
X77619047Y-61928571D01*
X77571428Y-62119047D01*
X77619047Y-62309523D01*
X77714285Y-62452380D01*
X77857142Y-62547619D01*
X78047619Y-62595238D01*
X78238095Y-62547619D01*
X78380952Y-62452380D01*
X78857142Y-62404761D02*
X78952380Y-62452380D01*
X79142857Y-62452380D01*
X79238095Y-62404761D01*
X79285714Y-62309523D01*
X79285714Y-62261904D01*
X79238095Y-62166666D01*
X79142857Y-62119047D01*
X79000000Y-62119047D01*
X78904761Y-62071428D01*
X78857142Y-61976190D01*
X78857142Y-61928571D01*
X78904761Y-61833333D01*
X79000000Y-61785714D01*
X79142857Y-61785714D01*
X79238095Y-61833333D01*
X80142857Y-62404761D02*
X80047619Y-62452380D01*
X79857142Y-62452380D01*
X79761904Y-62404761D01*
X79714285Y-62357142D01*
X79666666Y-62261904D01*
X79666666Y-61976190D01*
X79714285Y-61880952D01*
X79761904Y-61833333D01*
X79857142Y-61785714D01*
X80047619Y-61785714D01*
X80142857Y-61833333D01*
X80571428Y-62452380D02*
X80571428Y-61452380D01*
X81000000Y-62452380D02*
X81000000Y-61928571D01*
X80952380Y-61833333D01*
X80857142Y-61785714D01*
X80714285Y-61785714D01*
X80619047Y-61833333D01*
X80571428Y-61880952D01*
X81619047Y-62452380D02*
X81523809Y-62404761D01*
X81476190Y-62357142D01*
X81428571Y-62261904D01*
X81428571Y-61976190D01*
X81476190Y-61880952D01*
X81523809Y-61833333D01*
X81619047Y-61785714D01*
X81761904Y-61785714D01*
X81857142Y-61833333D01*
X81904761Y-61880952D01*
X81952380Y-61976190D01*
X81952380Y-62261904D01*
X81904761Y-62357142D01*
X81857142Y-62404761D01*
X81761904Y-62452380D01*
X81619047Y-62452380D01*
X82761904Y-62404761D02*
X82666666Y-62452380D01*
X82476190Y-62452380D01*
X82380952Y-62404761D01*
X82333333Y-62309523D01*
X82333333Y-61928571D01*
X82380952Y-61833333D01*
X82476190Y-61785714D01*
X82666666Y-61785714D01*
X82761904Y-61833333D01*
X82809523Y-61928571D01*
X82809523Y-62023809D01*
X82333333Y-62119047D01*
X83238095Y-61785714D02*
X83238095Y-62785714D01*
X83238095Y-61833333D02*
X83333333Y-61785714D01*
X83523809Y-61785714D01*
X83619047Y-61833333D01*
X83666666Y-61880952D01*
X83714285Y-61976190D01*
X83714285Y-62261904D01*
X83666666Y-62357142D01*
X83619047Y-62404761D01*
X83523809Y-62452380D01*
X83333333Y-62452380D01*
X83238095Y-62404761D01*
X84142857Y-61785714D02*
X84142857Y-62785714D01*
X84142857Y-61833333D02*
X84238095Y-61785714D01*
X84428571Y-61785714D01*
X84523809Y-61833333D01*
X84571428Y-61880952D01*
X84619047Y-61976190D01*
X84619047Y-62261904D01*
X84571428Y-62357142D01*
X84523809Y-62404761D01*
X84428571Y-62452380D01*
X84238095Y-62452380D01*
X84142857Y-62404761D01*
X85428571Y-62404761D02*
X85333333Y-62452380D01*
X85142857Y-62452380D01*
X85047619Y-62404761D01*
X85000000Y-62309523D01*
X85000000Y-61928571D01*
X85047619Y-61833333D01*
X85142857Y-61785714D01*
X85333333Y-61785714D01*
X85428571Y-61833333D01*
X85476190Y-61928571D01*
X85476190Y-62023809D01*
X85000000Y-62119047D01*
X86047619Y-62452380D02*
X85952380Y-62404761D01*
X85904761Y-62309523D01*
X85904761Y-61452380D01*
X86428571Y-62357142D02*
X86476190Y-62404761D01*
X86428571Y-62452380D01*
X86380952Y-62404761D01*
X86428571Y-62357142D01*
X86428571Y-62452380D01*
X87333333Y-62404761D02*
X87238095Y-62452380D01*
X87047619Y-62452380D01*
X86952380Y-62404761D01*
X86904761Y-62357142D01*
X86857142Y-62261904D01*
X86857142Y-61976190D01*
X86904761Y-61880952D01*
X86952380Y-61833333D01*
X87047619Y-61785714D01*
X87238095Y-61785714D01*
X87333333Y-61833333D01*
X87904761Y-62452380D02*
X87809523Y-62404761D01*
X87761904Y-62357142D01*
X87714285Y-62261904D01*
X87714285Y-61976190D01*
X87761904Y-61880952D01*
X87809523Y-61833333D01*
X87904761Y-61785714D01*
X88047619Y-61785714D01*
X88142857Y-61833333D01*
X88190476Y-61880952D01*
X88238095Y-61976190D01*
X88238095Y-62261904D01*
X88190476Y-62357142D01*
X88142857Y-62404761D01*
X88047619Y-62452380D01*
X87904761Y-62452380D01*
X88666666Y-62452380D02*
X88666666Y-61785714D01*
X88666666Y-61880952D02*
X88714285Y-61833333D01*
X88809523Y-61785714D01*
X88952380Y-61785714D01*
X89047619Y-61833333D01*
X89095238Y-61928571D01*
X89095238Y-62452380D01*
X89095238Y-61928571D02*
X89142857Y-61833333D01*
X89238095Y-61785714D01*
X89380952Y-61785714D01*
X89476190Y-61833333D01*
X89523809Y-61928571D01*
X89523809Y-62452380D01*
X87595238Y-33285714D02*
X87785714Y-33952380D01*
X87976190Y-33476190D01*
X88166666Y-33952380D01*
X88357142Y-33285714D01*
X88738095Y-33952380D02*
X88738095Y-33285714D01*
X88738095Y-32952380D02*
X88690476Y-33000000D01*
X88738095Y-33047619D01*
X88785714Y-33000000D01*
X88738095Y-32952380D01*
X88738095Y-33047619D01*
X89071428Y-33285714D02*
X89452380Y-33285714D01*
X89214285Y-33952380D02*
X89214285Y-33095238D01*
X89261904Y-33000000D01*
X89357142Y-32952380D01*
X89452380Y-32952380D01*
X89785714Y-33952380D02*
X89785714Y-33285714D01*
X89785714Y-32952380D02*
X89738095Y-33000000D01*
X89785714Y-33047619D01*
X89833333Y-33000000D01*
X89785714Y-32952380D01*
X89785714Y-33047619D01*
X90214285Y-33904761D02*
X90309523Y-33952380D01*
X90500000Y-33952380D01*
X90595238Y-33904761D01*
X90642857Y-33809523D01*
X90642857Y-33761904D01*
X90595238Y-33666666D01*
X90500000Y-33619047D01*
X90357142Y-33619047D01*
X90261904Y-33571428D01*
X90214285Y-33476190D01*
X90214285Y-33428571D01*
X90261904Y-33333333D01*
X90357142Y-33285714D01*
X90500000Y-33285714D01*
X90595238Y-33333333D01*
X91452380Y-33904761D02*
X91357142Y-33952380D01*
X91166666Y-33952380D01*
X91071428Y-33904761D01*
X91023809Y-33809523D01*
X91023809Y-33428571D01*
X91071428Y-33333333D01*
X91166666Y-33285714D01*
X91357142Y-33285714D01*
X91452380Y-33333333D01*
X91500000Y-33428571D01*
X91500000Y-33523809D01*
X91023809Y-33619047D01*
X91928571Y-33285714D02*
X91928571Y-33952380D01*
X91928571Y-33380952D02*
X91976190Y-33333333D01*
X92071428Y-33285714D01*
X92214285Y-33285714D01*
X92309523Y-33333333D01*
X92357142Y-33428571D01*
X92357142Y-33952380D01*
X92785714Y-33904761D02*
X92880952Y-33952380D01*
X93071428Y-33952380D01*
X93166666Y-33904761D01*
X93214285Y-33809523D01*
X93214285Y-33761904D01*
X93166666Y-33666666D01*
X93071428Y-33619047D01*
X92928571Y-33619047D01*
X92833333Y-33571428D01*
X92785714Y-33476190D01*
X92785714Y-33428571D01*
X92833333Y-33333333D01*
X92928571Y-33285714D01*
X93071428Y-33285714D01*
X93166666Y-33333333D01*
X93785714Y-33952380D02*
X93690476Y-33904761D01*
X93642857Y-33857142D01*
X93595238Y-33761904D01*
X93595238Y-33476190D01*
X93642857Y-33380952D01*
X93690476Y-33333333D01*
X93785714Y-33285714D01*
X93928571Y-33285714D01*
X94023809Y-33333333D01*
X94071428Y-33380952D01*
X94119047Y-33476190D01*
X94119047Y-33761904D01*
X94071428Y-33857142D01*
X94023809Y-33904761D01*
X93928571Y-33952380D01*
X93785714Y-33952380D01*
X94547619Y-33952380D02*
X94547619Y-33285714D01*
X94547619Y-33476190D02*
X94595238Y-33380952D01*
X94642857Y-33333333D01*
X94738095Y-33285714D01*
X94833333Y-33285714D01*
X96500000Y-33952380D02*
X96166666Y-33476190D01*
X95928571Y-33952380D02*
X95928571Y-32952380D01*
X96309523Y-32952380D01*
X96404761Y-33000000D01*
X96452380Y-33047619D01*
X96500000Y-33142857D01*
X96500000Y-33285714D01*
X96452380Y-33380952D01*
X96404761Y-33428571D01*
X96309523Y-33476190D01*
X95928571Y-33476190D01*
X97309523Y-33904761D02*
X97214285Y-33952380D01*
X97023809Y-33952380D01*
X96928571Y-33904761D01*
X96880952Y-33809523D01*
X96880952Y-33428571D01*
X96928571Y-33333333D01*
X97023809Y-33285714D01*
X97214285Y-33285714D01*
X97309523Y-33333333D01*
X97357142Y-33428571D01*
X97357142Y-33523809D01*
X96880952Y-33619047D01*
X97690476Y-33285714D02*
X97928571Y-33952380D01*
X98166666Y-33285714D01*
X98547619Y-33857142D02*
X98595238Y-33904761D01*
X98547619Y-33952380D01*
X98500000Y-33904761D01*
X98547619Y-33857142D01*
X98547619Y-33952380D01*
X100119047Y-33428571D02*
X100261904Y-33476190D01*
X100309523Y-33523809D01*
X100357142Y-33619047D01*
X100357142Y-33761904D01*
X100309523Y-33857142D01*
X100261904Y-33904761D01*
X100166666Y-33952380D01*
X99785714Y-33952380D01*
X99785714Y-32952380D01*
X100119047Y-32952380D01*
X100214285Y-33000000D01*
X100261904Y-33047619D01*
X100309523Y-33142857D01*
X100309523Y-33238095D01*
X100261904Y-33333333D01*
X100214285Y-33380952D01*
X100119047Y-33428571D01*
X99785714Y-33428571D01*
D11*
X85090000Y-32385000D02*
X85090000Y-42545000D01*
X85090000Y-42545000D02*
X69850000Y-42545000D01*
X69850000Y-42545000D02*
X69850000Y-31115000D01*
X69850000Y-31115000D02*
X85090000Y-31115000D01*
X85090000Y-31115000D02*
X85090000Y-32385000D01*
X85365000Y-55147936D02*
X85365000Y-56352064D01*
X83545000Y-55147936D02*
X83545000Y-56352064D01*
X73750000Y-55147936D02*
X73750000Y-56352064D01*
X71030000Y-55147936D02*
X71030000Y-56352064D01*
X140120000Y-31880000D02*
X140120000Y-48120000D01*
X140120000Y-48120000D02*
X132500000Y-48120000D01*
X116500000Y-48120000D02*
X115880000Y-48120000D01*
X115880000Y-48120000D02*
X115880000Y-46000000D01*
X115880000Y-34000000D02*
X115880000Y-31880000D01*
X115880000Y-31880000D02*
X116500000Y-31880000D01*
X132500000Y-31880000D02*
X140120000Y-31880000D01*
X132500000Y-31880000D02*
X132500000Y-31270000D01*
X107825000Y-42555279D02*
X107825000Y-42229721D01*
X106805000Y-42555279D02*
X106805000Y-42229721D01*
X90967779Y-47510000D02*
X90642221Y-47510000D01*
X90967779Y-46490000D02*
X90642221Y-46490000D01*
X112351078Y-33095000D02*
X111833922Y-33095000D01*
X112351078Y-31675000D02*
X111833922Y-31675000D01*
X118990000Y-56375279D02*
X118990000Y-56049721D01*
X120010000Y-56375279D02*
X120010000Y-56049721D01*
X79105000Y-44040000D02*
X76420000Y-44040000D01*
X76420000Y-44040000D02*
X76420000Y-45960000D01*
X76420000Y-45960000D02*
X79105000Y-45960000D01*
X76910000Y-55318922D02*
X76910000Y-55836078D01*
X75490000Y-55318922D02*
X75490000Y-55836078D01*
X81620000Y-56610000D02*
X81620000Y-54810000D01*
X78400000Y-54810000D02*
X78400000Y-57260000D01*
X77785279Y-51560000D02*
X77459721Y-51560000D01*
X77785279Y-52580000D02*
X77459721Y-52580000D01*
X99000000Y-50435000D02*
X100950000Y-50435000D01*
X99000000Y-50435000D02*
X97050000Y-50435000D01*
X99000000Y-41565000D02*
X100950000Y-41565000D01*
X99000000Y-41565000D02*
X95550000Y-41565000D01*
X81595279Y-52580000D02*
X81269721Y-52580000D01*
X81595279Y-51560000D02*
X81269721Y-51560000D01*
X118010000Y-56375279D02*
X118010000Y-56049721D01*
X116990000Y-56375279D02*
X116990000Y-56049721D01*
X105729721Y-38860000D02*
X106055279Y-38860000D01*
X105729721Y-39880000D02*
X106055279Y-39880000D01*
X98774721Y-39880000D02*
X99100279Y-39880000D01*
X98774721Y-38860000D02*
X99100279Y-38860000D01*
X104265000Y-42555279D02*
X104265000Y-42229721D01*
X105285000Y-42555279D02*
X105285000Y-42229721D01*
X88010000Y-56549721D02*
X88010000Y-56875279D01*
X86990000Y-56549721D02*
X86990000Y-56875279D01*
X111200000Y-50840000D02*
X109800000Y-50840000D01*
X109800000Y-53160000D02*
X111700000Y-53160000D01*
X104450000Y-32590000D02*
X102550000Y-32590000D01*
X103050000Y-34910000D02*
X104450000Y-34910000D01*
X102990000Y-54450279D02*
X102990000Y-54124721D01*
X104010000Y-54450279D02*
X104010000Y-54124721D01*
X106010000Y-54450279D02*
X106010000Y-54124721D01*
X104990000Y-54450279D02*
X104990000Y-54124721D01*
D10*
X83058095Y-40952380D02*
X83058095Y-41761904D01*
X83105714Y-41857142D01*
X83153333Y-41904761D01*
X83248571Y-41952380D01*
X83439047Y-41952380D01*
X83534285Y-41904761D01*
X83581904Y-41857142D01*
X83629523Y-41761904D01*
X83629523Y-40952380D01*
X84534285Y-41285714D02*
X84534285Y-41952380D01*
X84296190Y-40904761D02*
X84058095Y-41619047D01*
X84677142Y-41619047D01*
X84833333Y-52857142D02*
X84785714Y-52904761D01*
X84642857Y-52952380D01*
X84547619Y-52952380D01*
X84404761Y-52904761D01*
X84309523Y-52809523D01*
X84261904Y-52714285D01*
X84214285Y-52523809D01*
X84214285Y-52380952D01*
X84261904Y-52190476D01*
X84309523Y-52095238D01*
X84404761Y-52000000D01*
X84547619Y-51952380D01*
X84642857Y-51952380D01*
X84785714Y-52000000D01*
X84833333Y-52047619D01*
X85214285Y-52047619D02*
X85261904Y-52000000D01*
X85357142Y-51952380D01*
X85595238Y-51952380D01*
X85690476Y-52000000D01*
X85738095Y-52047619D01*
X85785714Y-52142857D01*
X85785714Y-52238095D01*
X85738095Y-52380952D01*
X85166666Y-52952380D01*
X85785714Y-52952380D01*
X72333333Y-52952380D02*
X71857142Y-52952380D01*
X71857142Y-51952380D01*
X73190476Y-52952380D02*
X72619047Y-52952380D01*
X72904761Y-52952380D02*
X72904761Y-51952380D01*
X72809523Y-52095238D01*
X72714285Y-52190476D01*
X72619047Y-52238095D01*
X128452380Y-38761904D02*
X129261904Y-38761904D01*
X129357142Y-38714285D01*
X129404761Y-38666666D01*
X129452380Y-38571428D01*
X129452380Y-38380952D01*
X129404761Y-38285714D01*
X129357142Y-38238095D01*
X129261904Y-38190476D01*
X128452380Y-38190476D01*
X128452380Y-37809523D02*
X128452380Y-37190476D01*
X128833333Y-37523809D01*
X128833333Y-37380952D01*
X128880952Y-37285714D01*
X128928571Y-37238095D01*
X129023809Y-37190476D01*
X129261904Y-37190476D01*
X129357142Y-37238095D01*
X129404761Y-37285714D01*
X129452380Y-37380952D01*
X129452380Y-37666666D01*
X129404761Y-37761904D01*
X129357142Y-37809523D01*
X107952380Y-45666666D02*
X107476190Y-46000000D01*
X107952380Y-46238095D02*
X106952380Y-46238095D01*
X106952380Y-45857142D01*
X107000000Y-45761904D01*
X107047619Y-45714285D01*
X107142857Y-45666666D01*
X107285714Y-45666666D01*
X107380952Y-45714285D01*
X107428571Y-45761904D01*
X107476190Y-45857142D01*
X107476190Y-46238095D01*
X107285714Y-44809523D02*
X107952380Y-44809523D01*
X106904761Y-45047619D02*
X107619047Y-45285714D01*
X107619047Y-44666666D01*
X90638333Y-48882380D02*
X90305000Y-48406190D01*
X90066904Y-48882380D02*
X90066904Y-47882380D01*
X90447857Y-47882380D01*
X90543095Y-47930000D01*
X90590714Y-47977619D01*
X90638333Y-48072857D01*
X90638333Y-48215714D01*
X90590714Y-48310952D01*
X90543095Y-48358571D01*
X90447857Y-48406190D01*
X90066904Y-48406190D01*
X91543095Y-47882380D02*
X91066904Y-47882380D01*
X91019285Y-48358571D01*
X91066904Y-48310952D01*
X91162142Y-48263333D01*
X91400238Y-48263333D01*
X91495476Y-48310952D01*
X91543095Y-48358571D01*
X91590714Y-48453809D01*
X91590714Y-48691904D01*
X91543095Y-48787142D01*
X91495476Y-48834761D01*
X91400238Y-48882380D01*
X91162142Y-48882380D01*
X91066904Y-48834761D01*
X91019285Y-48787142D01*
X111925833Y-34392142D02*
X111878214Y-34439761D01*
X111735357Y-34487380D01*
X111640119Y-34487380D01*
X111497261Y-34439761D01*
X111402023Y-34344523D01*
X111354404Y-34249285D01*
X111306785Y-34058809D01*
X111306785Y-33915952D01*
X111354404Y-33725476D01*
X111402023Y-33630238D01*
X111497261Y-33535000D01*
X111640119Y-33487380D01*
X111735357Y-33487380D01*
X111878214Y-33535000D01*
X111925833Y-33582619D01*
X112830595Y-33487380D02*
X112354404Y-33487380D01*
X112306785Y-33963571D01*
X112354404Y-33915952D01*
X112449642Y-33868333D01*
X112687738Y-33868333D01*
X112782976Y-33915952D01*
X112830595Y-33963571D01*
X112878214Y-34058809D01*
X112878214Y-34296904D01*
X112830595Y-34392142D01*
X112782976Y-34439761D01*
X112687738Y-34487380D01*
X112449642Y-34487380D01*
X112354404Y-34439761D01*
X112306785Y-34392142D01*
X119833333Y-53952380D02*
X119500000Y-53476190D01*
X119261904Y-53952380D02*
X119261904Y-52952380D01*
X119642857Y-52952380D01*
X119738095Y-53000000D01*
X119785714Y-53047619D01*
X119833333Y-53142857D01*
X119833333Y-53285714D01*
X119785714Y-53380952D01*
X119738095Y-53428571D01*
X119642857Y-53476190D01*
X119261904Y-53476190D01*
X120690476Y-52952380D02*
X120500000Y-52952380D01*
X120404761Y-53000000D01*
X120357142Y-53047619D01*
X120261904Y-53190476D01*
X120214285Y-53380952D01*
X120214285Y-53761904D01*
X120261904Y-53857142D01*
X120309523Y-53904761D01*
X120404761Y-53952380D01*
X120595238Y-53952380D01*
X120690476Y-53904761D01*
X120738095Y-53857142D01*
X120785714Y-53761904D01*
X120785714Y-53523809D01*
X120738095Y-53428571D01*
X120690476Y-53380952D01*
X120595238Y-53333333D01*
X120404761Y-53333333D01*
X120309523Y-53380952D01*
X120261904Y-53428571D01*
X120214285Y-53523809D01*
X77366904Y-43802380D02*
X77366904Y-42802380D01*
X77605000Y-42802380D01*
X77747857Y-42850000D01*
X77843095Y-42945238D01*
X77890714Y-43040476D01*
X77938333Y-43230952D01*
X77938333Y-43373809D01*
X77890714Y-43564285D01*
X77843095Y-43659523D01*
X77747857Y-43754761D01*
X77605000Y-43802380D01*
X77366904Y-43802380D01*
X78890714Y-43802380D02*
X78319285Y-43802380D01*
X78605000Y-43802380D02*
X78605000Y-42802380D01*
X78509761Y-42945238D01*
X78414523Y-43040476D01*
X78319285Y-43088095D01*
X76333333Y-58857142D02*
X76285714Y-58904761D01*
X76142857Y-58952380D01*
X76047619Y-58952380D01*
X75904761Y-58904761D01*
X75809523Y-58809523D01*
X75761904Y-58714285D01*
X75714285Y-58523809D01*
X75714285Y-58380952D01*
X75761904Y-58190476D01*
X75809523Y-58095238D01*
X75904761Y-58000000D01*
X76047619Y-57952380D01*
X76142857Y-57952380D01*
X76285714Y-58000000D01*
X76333333Y-58047619D01*
X77285714Y-58952380D02*
X76714285Y-58952380D01*
X77000000Y-58952380D02*
X77000000Y-57952380D01*
X76904761Y-58095238D01*
X76809523Y-58190476D01*
X76714285Y-58238095D01*
X79238095Y-57952380D02*
X79238095Y-58761904D01*
X79285714Y-58857142D01*
X79333333Y-58904761D01*
X79428571Y-58952380D01*
X79619047Y-58952380D01*
X79714285Y-58904761D01*
X79761904Y-58857142D01*
X79809523Y-58761904D01*
X79809523Y-57952380D01*
X80238095Y-58047619D02*
X80285714Y-58000000D01*
X80380952Y-57952380D01*
X80619047Y-57952380D01*
X80714285Y-58000000D01*
X80761904Y-58047619D01*
X80809523Y-58142857D01*
X80809523Y-58238095D01*
X80761904Y-58380952D01*
X80190476Y-58952380D01*
X80809523Y-58952380D01*
X77333333Y-50952380D02*
X77000000Y-50476190D01*
X76761904Y-50952380D02*
X76761904Y-49952380D01*
X77142857Y-49952380D01*
X77238095Y-50000000D01*
X77285714Y-50047619D01*
X77333333Y-50142857D01*
X77333333Y-50285714D01*
X77285714Y-50380952D01*
X77238095Y-50428571D01*
X77142857Y-50476190D01*
X76761904Y-50476190D01*
X77714285Y-50047619D02*
X77761904Y-50000000D01*
X77857142Y-49952380D01*
X78095238Y-49952380D01*
X78190476Y-50000000D01*
X78238095Y-50047619D01*
X78285714Y-50142857D01*
X78285714Y-50238095D01*
X78238095Y-50380952D01*
X77666666Y-50952380D01*
X78285714Y-50952380D01*
X98238095Y-50952380D02*
X98238095Y-51761904D01*
X98285714Y-51857142D01*
X98333333Y-51904761D01*
X98428571Y-51952380D01*
X98619047Y-51952380D01*
X98714285Y-51904761D01*
X98761904Y-51857142D01*
X98809523Y-51761904D01*
X98809523Y-50952380D01*
X99809523Y-51952380D02*
X99238095Y-51952380D01*
X99523809Y-51952380D02*
X99523809Y-50952380D01*
X99428571Y-51095238D01*
X99333333Y-51190476D01*
X99238095Y-51238095D01*
X81333333Y-50952380D02*
X81000000Y-50476190D01*
X80761904Y-50952380D02*
X80761904Y-49952380D01*
X81142857Y-49952380D01*
X81238095Y-50000000D01*
X81285714Y-50047619D01*
X81333333Y-50142857D01*
X81333333Y-50285714D01*
X81285714Y-50380952D01*
X81238095Y-50428571D01*
X81142857Y-50476190D01*
X80761904Y-50476190D01*
X82285714Y-50952380D02*
X81714285Y-50952380D01*
X82000000Y-50952380D02*
X82000000Y-49952380D01*
X81904761Y-50095238D01*
X81809523Y-50190476D01*
X81714285Y-50238095D01*
X116333333Y-53952380D02*
X116000000Y-53476190D01*
X115761904Y-53952380D02*
X115761904Y-52952380D01*
X116142857Y-52952380D01*
X116238095Y-53000000D01*
X116285714Y-53047619D01*
X116333333Y-53142857D01*
X116333333Y-53285714D01*
X116285714Y-53380952D01*
X116238095Y-53428571D01*
X116142857Y-53476190D01*
X115761904Y-53476190D01*
X116666666Y-52952380D02*
X117333333Y-52952380D01*
X116904761Y-53952380D01*
X105725833Y-38392380D02*
X105392500Y-37916190D01*
X105154404Y-38392380D02*
X105154404Y-37392380D01*
X105535357Y-37392380D01*
X105630595Y-37440000D01*
X105678214Y-37487619D01*
X105725833Y-37582857D01*
X105725833Y-37725714D01*
X105678214Y-37820952D01*
X105630595Y-37868571D01*
X105535357Y-37916190D01*
X105154404Y-37916190D01*
X106059166Y-37392380D02*
X106678214Y-37392380D01*
X106344880Y-37773333D01*
X106487738Y-37773333D01*
X106582976Y-37820952D01*
X106630595Y-37868571D01*
X106678214Y-37963809D01*
X106678214Y-38201904D01*
X106630595Y-38297142D01*
X106582976Y-38344761D01*
X106487738Y-38392380D01*
X106202023Y-38392380D01*
X106106785Y-38344761D01*
X106059166Y-38297142D01*
X98770833Y-38297142D02*
X98723214Y-38344761D01*
X98580357Y-38392380D01*
X98485119Y-38392380D01*
X98342261Y-38344761D01*
X98247023Y-38249523D01*
X98199404Y-38154285D01*
X98151785Y-37963809D01*
X98151785Y-37820952D01*
X98199404Y-37630476D01*
X98247023Y-37535238D01*
X98342261Y-37440000D01*
X98485119Y-37392380D01*
X98580357Y-37392380D01*
X98723214Y-37440000D01*
X98770833Y-37487619D01*
X99104166Y-37392380D02*
X99723214Y-37392380D01*
X99389880Y-37773333D01*
X99532738Y-37773333D01*
X99627976Y-37820952D01*
X99675595Y-37868571D01*
X99723214Y-37963809D01*
X99723214Y-38201904D01*
X99675595Y-38297142D01*
X99627976Y-38344761D01*
X99532738Y-38392380D01*
X99247023Y-38392380D01*
X99151785Y-38344761D01*
X99104166Y-38297142D01*
X105357142Y-45666666D02*
X105404761Y-45714285D01*
X105452380Y-45857142D01*
X105452380Y-45952380D01*
X105404761Y-46095238D01*
X105309523Y-46190476D01*
X105214285Y-46238095D01*
X105023809Y-46285714D01*
X104880952Y-46285714D01*
X104690476Y-46238095D01*
X104595238Y-46190476D01*
X104500000Y-46095238D01*
X104452380Y-45952380D01*
X104452380Y-45857142D01*
X104500000Y-45714285D01*
X104547619Y-45666666D01*
X104785714Y-44809523D02*
X105452380Y-44809523D01*
X104404761Y-45047619D02*
X105119047Y-45285714D01*
X105119047Y-44666666D01*
X89287142Y-56879166D02*
X89334761Y-56926785D01*
X89382380Y-57069642D01*
X89382380Y-57164880D01*
X89334761Y-57307738D01*
X89239523Y-57402976D01*
X89144285Y-57450595D01*
X88953809Y-57498214D01*
X88810952Y-57498214D01*
X88620476Y-57450595D01*
X88525238Y-57402976D01*
X88430000Y-57307738D01*
X88382380Y-57164880D01*
X88382380Y-57069642D01*
X88430000Y-56926785D01*
X88477619Y-56879166D01*
X88382380Y-56022023D02*
X88382380Y-56212500D01*
X88430000Y-56307738D01*
X88477619Y-56355357D01*
X88620476Y-56450595D01*
X88810952Y-56498214D01*
X89191904Y-56498214D01*
X89287142Y-56450595D01*
X89334761Y-56402976D01*
X89382380Y-56307738D01*
X89382380Y-56117261D01*
X89334761Y-56022023D01*
X89287142Y-55974404D01*
X89191904Y-55926785D01*
X88953809Y-55926785D01*
X88858571Y-55974404D01*
X88810952Y-56022023D01*
X88763333Y-56117261D01*
X88763333Y-56307738D01*
X88810952Y-56402976D01*
X88858571Y-56450595D01*
X88953809Y-56498214D01*
X110404761Y-54547619D02*
X110309523Y-54500000D01*
X110214285Y-54404761D01*
X110071428Y-54261904D01*
X109976190Y-54214285D01*
X109880952Y-54214285D01*
X109928571Y-54452380D02*
X109833333Y-54404761D01*
X109738095Y-54309523D01*
X109690476Y-54119047D01*
X109690476Y-53785714D01*
X109738095Y-53595238D01*
X109833333Y-53500000D01*
X109928571Y-53452380D01*
X110119047Y-53452380D01*
X110214285Y-53500000D01*
X110309523Y-53595238D01*
X110357142Y-53785714D01*
X110357142Y-54119047D01*
X110309523Y-54309523D01*
X110214285Y-54404761D01*
X110119047Y-54452380D01*
X109928571Y-54452380D01*
X111309523Y-54452380D02*
X110738095Y-54452380D01*
X111023809Y-54452380D02*
X111023809Y-53452380D01*
X110928571Y-53595238D01*
X110833333Y-53690476D01*
X110738095Y-53738095D01*
X103654761Y-32297619D02*
X103559523Y-32250000D01*
X103464285Y-32154761D01*
X103321428Y-32011904D01*
X103226190Y-31964285D01*
X103130952Y-31964285D01*
X103178571Y-32202380D02*
X103083333Y-32154761D01*
X102988095Y-32059523D01*
X102940476Y-31869047D01*
X102940476Y-31535714D01*
X102988095Y-31345238D01*
X103083333Y-31250000D01*
X103178571Y-31202380D01*
X103369047Y-31202380D01*
X103464285Y-31250000D01*
X103559523Y-31345238D01*
X103607142Y-31535714D01*
X103607142Y-31869047D01*
X103559523Y-32059523D01*
X103464285Y-32154761D01*
X103369047Y-32202380D01*
X103178571Y-32202380D01*
X103988095Y-31297619D02*
X104035714Y-31250000D01*
X104130952Y-31202380D01*
X104369047Y-31202380D01*
X104464285Y-31250000D01*
X104511904Y-31297619D01*
X104559523Y-31392857D01*
X104559523Y-31488095D01*
X104511904Y-31630952D01*
X103940476Y-32202380D01*
X104559523Y-32202380D01*
X102522380Y-54454166D02*
X102046190Y-54787500D01*
X102522380Y-55025595D02*
X101522380Y-55025595D01*
X101522380Y-54644642D01*
X101570000Y-54549404D01*
X101617619Y-54501785D01*
X101712857Y-54454166D01*
X101855714Y-54454166D01*
X101950952Y-54501785D01*
X101998571Y-54549404D01*
X102046190Y-54644642D01*
X102046190Y-55025595D01*
X101950952Y-53882738D02*
X101903333Y-53977976D01*
X101855714Y-54025595D01*
X101760476Y-54073214D01*
X101712857Y-54073214D01*
X101617619Y-54025595D01*
X101570000Y-53977976D01*
X101522380Y-53882738D01*
X101522380Y-53692261D01*
X101570000Y-53597023D01*
X101617619Y-53549404D01*
X101712857Y-53501785D01*
X101760476Y-53501785D01*
X101855714Y-53549404D01*
X101903333Y-53597023D01*
X101950952Y-53692261D01*
X101950952Y-53882738D01*
X101998571Y-53977976D01*
X102046190Y-54025595D01*
X102141428Y-54073214D01*
X102331904Y-54073214D01*
X102427142Y-54025595D01*
X102474761Y-53977976D01*
X102522380Y-53882738D01*
X102522380Y-53692261D01*
X102474761Y-53597023D01*
X102427142Y-53549404D01*
X102331904Y-53501785D01*
X102141428Y-53501785D01*
X102046190Y-53549404D01*
X101998571Y-53597023D01*
X101950952Y-53692261D01*
X107452380Y-54454166D02*
X106976190Y-54787500D01*
X107452380Y-55025595D02*
X106452380Y-55025595D01*
X106452380Y-54644642D01*
X106500000Y-54549404D01*
X106547619Y-54501785D01*
X106642857Y-54454166D01*
X106785714Y-54454166D01*
X106880952Y-54501785D01*
X106928571Y-54549404D01*
X106976190Y-54644642D01*
X106976190Y-55025595D01*
X107452380Y-53977976D02*
X107452380Y-53787500D01*
X107404761Y-53692261D01*
X107357142Y-53644642D01*
X107214285Y-53549404D01*
X107023809Y-53501785D01*
X106642857Y-53501785D01*
X106547619Y-53549404D01*
X106500000Y-53597023D01*
X106452380Y-53692261D01*
X106452380Y-53882738D01*
X106500000Y-53977976D01*
X106547619Y-54025595D01*
X106642857Y-54073214D01*
X106880952Y-54073214D01*
X106976190Y-54025595D01*
X107023809Y-53977976D01*
X107071428Y-53882738D01*
X107071428Y-53692261D01*
X107023809Y-53597023D01*
X106976190Y-53549404D01*
X106880952Y-53501785D01*
M02*
