G04 #@! TF.GenerationSoftware,KiCad,Pcbnew,5.1.2*
G04 #@! TF.CreationDate,2019-08-07T15:52:47+02:00*
G04 #@! TF.ProjectId,wifisensor-dual-cpu,77696669-7365-46e7-936f-722d6475616c,rev?*
G04 #@! TF.SameCoordinates,Original*
G04 #@! TF.FileFunction,Soldermask,Bot*
G04 #@! TF.FilePolarity,Negative*
%FSLAX46Y46*%
G04 Gerber Fmt 4.6, Leading zero omitted, Abs format (unit mm)*
G04 Created by KiCad (PCBNEW 5.1.2) date 2019-08-07 15:52:47*
%MOMM*%
%LPD*%
G04 APERTURE LIST*
%ADD10C,0.100000*%
G04 APERTURE END LIST*
D10*
G36*
X131555443Y-61105519D02*
G01*
X131621627Y-61112037D01*
X131791466Y-61163557D01*
X131947991Y-61247222D01*
X131983729Y-61276552D01*
X132085186Y-61359814D01*
X132168448Y-61461271D01*
X132197778Y-61497009D01*
X132281443Y-61653534D01*
X132332963Y-61823373D01*
X132350359Y-62000000D01*
X132332963Y-62176627D01*
X132281443Y-62346466D01*
X132197778Y-62502991D01*
X132168448Y-62538729D01*
X132085186Y-62640186D01*
X131983729Y-62723448D01*
X131947991Y-62752778D01*
X131791466Y-62836443D01*
X131621627Y-62887963D01*
X131555442Y-62894482D01*
X131489260Y-62901000D01*
X131400740Y-62901000D01*
X131334558Y-62894482D01*
X131268373Y-62887963D01*
X131098534Y-62836443D01*
X130942009Y-62752778D01*
X130906271Y-62723448D01*
X130804814Y-62640186D01*
X130721552Y-62538729D01*
X130692222Y-62502991D01*
X130608557Y-62346466D01*
X130557037Y-62176627D01*
X130539641Y-62000000D01*
X130557037Y-61823373D01*
X130608557Y-61653534D01*
X130692222Y-61497009D01*
X130721552Y-61461271D01*
X130804814Y-61359814D01*
X130906271Y-61276552D01*
X130942009Y-61247222D01*
X131098534Y-61163557D01*
X131268373Y-61112037D01*
X131334557Y-61105519D01*
X131400740Y-61099000D01*
X131489260Y-61099000D01*
X131555443Y-61105519D01*
X131555443Y-61105519D01*
G37*
G36*
X129015443Y-61105519D02*
G01*
X129081627Y-61112037D01*
X129251466Y-61163557D01*
X129407991Y-61247222D01*
X129443729Y-61276552D01*
X129545186Y-61359814D01*
X129628448Y-61461271D01*
X129657778Y-61497009D01*
X129741443Y-61653534D01*
X129792963Y-61823373D01*
X129810359Y-62000000D01*
X129792963Y-62176627D01*
X129741443Y-62346466D01*
X129657778Y-62502991D01*
X129628448Y-62538729D01*
X129545186Y-62640186D01*
X129443729Y-62723448D01*
X129407991Y-62752778D01*
X129251466Y-62836443D01*
X129081627Y-62887963D01*
X129015442Y-62894482D01*
X128949260Y-62901000D01*
X128860740Y-62901000D01*
X128794558Y-62894482D01*
X128728373Y-62887963D01*
X128558534Y-62836443D01*
X128402009Y-62752778D01*
X128366271Y-62723448D01*
X128264814Y-62640186D01*
X128181552Y-62538729D01*
X128152222Y-62502991D01*
X128068557Y-62346466D01*
X128017037Y-62176627D01*
X127999641Y-62000000D01*
X128017037Y-61823373D01*
X128068557Y-61653534D01*
X128152222Y-61497009D01*
X128181552Y-61461271D01*
X128264814Y-61359814D01*
X128366271Y-61276552D01*
X128402009Y-61247222D01*
X128558534Y-61163557D01*
X128728373Y-61112037D01*
X128794557Y-61105519D01*
X128860740Y-61099000D01*
X128949260Y-61099000D01*
X129015443Y-61105519D01*
X129015443Y-61105519D01*
G37*
G36*
X137426000Y-62901000D02*
G01*
X135624000Y-62901000D01*
X135624000Y-61099000D01*
X137426000Y-61099000D01*
X137426000Y-62901000D01*
X137426000Y-62901000D01*
G37*
G36*
X134095443Y-61105519D02*
G01*
X134161627Y-61112037D01*
X134331466Y-61163557D01*
X134487991Y-61247222D01*
X134523729Y-61276552D01*
X134625186Y-61359814D01*
X134708448Y-61461271D01*
X134737778Y-61497009D01*
X134821443Y-61653534D01*
X134872963Y-61823373D01*
X134890359Y-62000000D01*
X134872963Y-62176627D01*
X134821443Y-62346466D01*
X134737778Y-62502991D01*
X134708448Y-62538729D01*
X134625186Y-62640186D01*
X134523729Y-62723448D01*
X134487991Y-62752778D01*
X134331466Y-62836443D01*
X134161627Y-62887963D01*
X134095442Y-62894482D01*
X134029260Y-62901000D01*
X133940740Y-62901000D01*
X133874558Y-62894482D01*
X133808373Y-62887963D01*
X133638534Y-62836443D01*
X133482009Y-62752778D01*
X133446271Y-62723448D01*
X133344814Y-62640186D01*
X133261552Y-62538729D01*
X133232222Y-62502991D01*
X133148557Y-62346466D01*
X133097037Y-62176627D01*
X133079641Y-62000000D01*
X133097037Y-61823373D01*
X133148557Y-61653534D01*
X133232222Y-61497009D01*
X133261552Y-61461271D01*
X133344814Y-61359814D01*
X133446271Y-61276552D01*
X133482009Y-61247222D01*
X133638534Y-61163557D01*
X133808373Y-61112037D01*
X133874557Y-61105519D01*
X133940740Y-61099000D01*
X134029260Y-61099000D01*
X134095443Y-61105519D01*
X134095443Y-61105519D01*
G37*
G36*
X139966000Y-58686000D02*
G01*
X138164000Y-58686000D01*
X138164000Y-56884000D01*
X139966000Y-56884000D01*
X139966000Y-58686000D01*
X139966000Y-58686000D01*
G37*
G36*
X136635442Y-56890518D02*
G01*
X136701627Y-56897037D01*
X136871466Y-56948557D01*
X137027991Y-57032222D01*
X137063729Y-57061552D01*
X137165186Y-57144814D01*
X137248448Y-57246271D01*
X137277778Y-57282009D01*
X137361443Y-57438534D01*
X137412963Y-57608373D01*
X137430359Y-57785000D01*
X137412963Y-57961627D01*
X137361443Y-58131466D01*
X137277778Y-58287991D01*
X137248448Y-58323729D01*
X137165186Y-58425186D01*
X137063729Y-58508448D01*
X137027991Y-58537778D01*
X136871466Y-58621443D01*
X136701627Y-58672963D01*
X136635442Y-58679482D01*
X136569260Y-58686000D01*
X136480740Y-58686000D01*
X136414558Y-58679482D01*
X136348373Y-58672963D01*
X136178534Y-58621443D01*
X136022009Y-58537778D01*
X135986271Y-58508448D01*
X135884814Y-58425186D01*
X135801552Y-58323729D01*
X135772222Y-58287991D01*
X135688557Y-58131466D01*
X135637037Y-57961627D01*
X135619641Y-57785000D01*
X135637037Y-57608373D01*
X135688557Y-57438534D01*
X135772222Y-57282009D01*
X135801552Y-57246271D01*
X135884814Y-57144814D01*
X135986271Y-57061552D01*
X136022009Y-57032222D01*
X136178534Y-56948557D01*
X136348373Y-56897037D01*
X136414558Y-56890518D01*
X136480740Y-56884000D01*
X136569260Y-56884000D01*
X136635442Y-56890518D01*
X136635442Y-56890518D01*
G37*
G36*
X134095442Y-56890518D02*
G01*
X134161627Y-56897037D01*
X134331466Y-56948557D01*
X134487991Y-57032222D01*
X134523729Y-57061552D01*
X134625186Y-57144814D01*
X134708448Y-57246271D01*
X134737778Y-57282009D01*
X134821443Y-57438534D01*
X134872963Y-57608373D01*
X134890359Y-57785000D01*
X134872963Y-57961627D01*
X134821443Y-58131466D01*
X134737778Y-58287991D01*
X134708448Y-58323729D01*
X134625186Y-58425186D01*
X134523729Y-58508448D01*
X134487991Y-58537778D01*
X134331466Y-58621443D01*
X134161627Y-58672963D01*
X134095442Y-58679482D01*
X134029260Y-58686000D01*
X133940740Y-58686000D01*
X133874558Y-58679482D01*
X133808373Y-58672963D01*
X133638534Y-58621443D01*
X133482009Y-58537778D01*
X133446271Y-58508448D01*
X133344814Y-58425186D01*
X133261552Y-58323729D01*
X133232222Y-58287991D01*
X133148557Y-58131466D01*
X133097037Y-57961627D01*
X133079641Y-57785000D01*
X133097037Y-57608373D01*
X133148557Y-57438534D01*
X133232222Y-57282009D01*
X133261552Y-57246271D01*
X133344814Y-57144814D01*
X133446271Y-57061552D01*
X133482009Y-57032222D01*
X133638534Y-56948557D01*
X133808373Y-56897037D01*
X133874558Y-56890518D01*
X133940740Y-56884000D01*
X134029260Y-56884000D01*
X134095442Y-56890518D01*
X134095442Y-56890518D01*
G37*
G36*
X131555442Y-56890518D02*
G01*
X131621627Y-56897037D01*
X131791466Y-56948557D01*
X131947991Y-57032222D01*
X131983729Y-57061552D01*
X132085186Y-57144814D01*
X132168448Y-57246271D01*
X132197778Y-57282009D01*
X132281443Y-57438534D01*
X132332963Y-57608373D01*
X132350359Y-57785000D01*
X132332963Y-57961627D01*
X132281443Y-58131466D01*
X132197778Y-58287991D01*
X132168448Y-58323729D01*
X132085186Y-58425186D01*
X131983729Y-58508448D01*
X131947991Y-58537778D01*
X131791466Y-58621443D01*
X131621627Y-58672963D01*
X131555442Y-58679482D01*
X131489260Y-58686000D01*
X131400740Y-58686000D01*
X131334558Y-58679482D01*
X131268373Y-58672963D01*
X131098534Y-58621443D01*
X130942009Y-58537778D01*
X130906271Y-58508448D01*
X130804814Y-58425186D01*
X130721552Y-58323729D01*
X130692222Y-58287991D01*
X130608557Y-58131466D01*
X130557037Y-57961627D01*
X130539641Y-57785000D01*
X130557037Y-57608373D01*
X130608557Y-57438534D01*
X130692222Y-57282009D01*
X130721552Y-57246271D01*
X130804814Y-57144814D01*
X130906271Y-57061552D01*
X130942009Y-57032222D01*
X131098534Y-56948557D01*
X131268373Y-56897037D01*
X131334558Y-56890518D01*
X131400740Y-56884000D01*
X131489260Y-56884000D01*
X131555442Y-56890518D01*
X131555442Y-56890518D01*
G37*
G36*
X129015442Y-56890518D02*
G01*
X129081627Y-56897037D01*
X129251466Y-56948557D01*
X129407991Y-57032222D01*
X129443729Y-57061552D01*
X129545186Y-57144814D01*
X129628448Y-57246271D01*
X129657778Y-57282009D01*
X129741443Y-57438534D01*
X129792963Y-57608373D01*
X129810359Y-57785000D01*
X129792963Y-57961627D01*
X129741443Y-58131466D01*
X129657778Y-58287991D01*
X129628448Y-58323729D01*
X129545186Y-58425186D01*
X129443729Y-58508448D01*
X129407991Y-58537778D01*
X129251466Y-58621443D01*
X129081627Y-58672963D01*
X129015442Y-58679482D01*
X128949260Y-58686000D01*
X128860740Y-58686000D01*
X128794558Y-58679482D01*
X128728373Y-58672963D01*
X128558534Y-58621443D01*
X128402009Y-58537778D01*
X128366271Y-58508448D01*
X128264814Y-58425186D01*
X128181552Y-58323729D01*
X128152222Y-58287991D01*
X128068557Y-58131466D01*
X128017037Y-57961627D01*
X127999641Y-57785000D01*
X128017037Y-57608373D01*
X128068557Y-57438534D01*
X128152222Y-57282009D01*
X128181552Y-57246271D01*
X128264814Y-57144814D01*
X128366271Y-57061552D01*
X128402009Y-57032222D01*
X128558534Y-56948557D01*
X128728373Y-56897037D01*
X128794558Y-56890518D01*
X128860740Y-56884000D01*
X128949260Y-56884000D01*
X129015442Y-56890518D01*
X129015442Y-56890518D01*
G37*
G36*
X68996000Y-55661000D02*
G01*
X66894000Y-55661000D01*
X66894000Y-53559000D01*
X68996000Y-53559000D01*
X68996000Y-55661000D01*
X68996000Y-55661000D01*
G37*
G36*
X68251564Y-38609389D02*
G01*
X68442833Y-38688615D01*
X68442835Y-38688616D01*
X68614973Y-38803635D01*
X68761365Y-38950027D01*
X68876385Y-39122167D01*
X68955611Y-39313436D01*
X68996000Y-39516484D01*
X68996000Y-39723516D01*
X68955611Y-39926564D01*
X68876385Y-40117833D01*
X68876384Y-40117835D01*
X68761365Y-40289973D01*
X68614973Y-40436365D01*
X68442835Y-40551384D01*
X68442834Y-40551385D01*
X68442833Y-40551385D01*
X68251564Y-40630611D01*
X68048516Y-40671000D01*
X67841484Y-40671000D01*
X67638436Y-40630611D01*
X67447167Y-40551385D01*
X67447166Y-40551385D01*
X67447165Y-40551384D01*
X67275027Y-40436365D01*
X67128635Y-40289973D01*
X67013616Y-40117835D01*
X67013615Y-40117833D01*
X66934389Y-39926564D01*
X66894000Y-39723516D01*
X66894000Y-39516484D01*
X66934389Y-39313436D01*
X67013615Y-39122167D01*
X67128635Y-38950027D01*
X67275027Y-38803635D01*
X67447165Y-38688616D01*
X67447167Y-38688615D01*
X67638436Y-38609389D01*
X67841484Y-38569000D01*
X68048516Y-38569000D01*
X68251564Y-38609389D01*
X68251564Y-38609389D01*
G37*
G36*
X76506564Y-31374389D02*
G01*
X76697833Y-31453615D01*
X76697835Y-31453616D01*
X76869973Y-31568635D01*
X77016365Y-31715027D01*
X77131385Y-31887167D01*
X77210611Y-32078436D01*
X77251000Y-32281484D01*
X77251000Y-32488516D01*
X77210611Y-32691564D01*
X77131385Y-32882833D01*
X77131384Y-32882835D01*
X77016365Y-33054973D01*
X76869973Y-33201365D01*
X76697835Y-33316384D01*
X76697834Y-33316385D01*
X76697833Y-33316385D01*
X76506564Y-33395611D01*
X76303516Y-33436000D01*
X76096484Y-33436000D01*
X75893436Y-33395611D01*
X75702167Y-33316385D01*
X75702166Y-33316385D01*
X75702165Y-33316384D01*
X75530027Y-33201365D01*
X75383635Y-33054973D01*
X75268616Y-32882835D01*
X75268615Y-32882833D01*
X75189389Y-32691564D01*
X75149000Y-32488516D01*
X75149000Y-32281484D01*
X75189389Y-32078436D01*
X75268615Y-31887167D01*
X75383635Y-31715027D01*
X75530027Y-31568635D01*
X75702165Y-31453616D01*
X75702167Y-31453615D01*
X75893436Y-31374389D01*
X76096484Y-31334000D01*
X76303516Y-31334000D01*
X76506564Y-31374389D01*
X76506564Y-31374389D01*
G37*
G36*
X73966564Y-31374389D02*
G01*
X74157833Y-31453615D01*
X74157835Y-31453616D01*
X74329973Y-31568635D01*
X74476365Y-31715027D01*
X74591385Y-31887167D01*
X74670611Y-32078436D01*
X74711000Y-32281484D01*
X74711000Y-32488516D01*
X74670611Y-32691564D01*
X74591385Y-32882833D01*
X74591384Y-32882835D01*
X74476365Y-33054973D01*
X74329973Y-33201365D01*
X74157835Y-33316384D01*
X74157834Y-33316385D01*
X74157833Y-33316385D01*
X73966564Y-33395611D01*
X73763516Y-33436000D01*
X73556484Y-33436000D01*
X73353436Y-33395611D01*
X73162167Y-33316385D01*
X73162166Y-33316385D01*
X73162165Y-33316384D01*
X72990027Y-33201365D01*
X72843635Y-33054973D01*
X72728616Y-32882835D01*
X72728615Y-32882833D01*
X72649389Y-32691564D01*
X72609000Y-32488516D01*
X72609000Y-32281484D01*
X72649389Y-32078436D01*
X72728615Y-31887167D01*
X72843635Y-31715027D01*
X72990027Y-31568635D01*
X73162165Y-31453616D01*
X73162167Y-31453615D01*
X73353436Y-31374389D01*
X73556484Y-31334000D01*
X73763516Y-31334000D01*
X73966564Y-31374389D01*
X73966564Y-31374389D01*
G37*
G36*
X71426564Y-31374389D02*
G01*
X71617833Y-31453615D01*
X71617835Y-31453616D01*
X71789973Y-31568635D01*
X71936365Y-31715027D01*
X72051385Y-31887167D01*
X72130611Y-32078436D01*
X72171000Y-32281484D01*
X72171000Y-32488516D01*
X72130611Y-32691564D01*
X72051385Y-32882833D01*
X72051384Y-32882835D01*
X71936365Y-33054973D01*
X71789973Y-33201365D01*
X71617835Y-33316384D01*
X71617834Y-33316385D01*
X71617833Y-33316385D01*
X71426564Y-33395611D01*
X71223516Y-33436000D01*
X71016484Y-33436000D01*
X70813436Y-33395611D01*
X70622167Y-33316385D01*
X70622166Y-33316385D01*
X70622165Y-33316384D01*
X70450027Y-33201365D01*
X70303635Y-33054973D01*
X70188616Y-32882835D01*
X70188615Y-32882833D01*
X70109389Y-32691564D01*
X70069000Y-32488516D01*
X70069000Y-32281484D01*
X70109389Y-32078436D01*
X70188615Y-31887167D01*
X70303635Y-31715027D01*
X70450027Y-31568635D01*
X70622165Y-31453616D01*
X70622167Y-31453615D01*
X70813436Y-31374389D01*
X71016484Y-31334000D01*
X71223516Y-31334000D01*
X71426564Y-31374389D01*
X71426564Y-31374389D01*
G37*
G36*
X79046564Y-31374389D02*
G01*
X79237833Y-31453615D01*
X79237835Y-31453616D01*
X79409973Y-31568635D01*
X79556365Y-31715027D01*
X79671385Y-31887167D01*
X79750611Y-32078436D01*
X79791000Y-32281484D01*
X79791000Y-32488516D01*
X79750611Y-32691564D01*
X79671385Y-32882833D01*
X79671384Y-32882835D01*
X79556365Y-33054973D01*
X79409973Y-33201365D01*
X79237835Y-33316384D01*
X79237834Y-33316385D01*
X79237833Y-33316385D01*
X79046564Y-33395611D01*
X78843516Y-33436000D01*
X78636484Y-33436000D01*
X78433436Y-33395611D01*
X78242167Y-33316385D01*
X78242166Y-33316385D01*
X78242165Y-33316384D01*
X78070027Y-33201365D01*
X77923635Y-33054973D01*
X77808616Y-32882835D01*
X77808615Y-32882833D01*
X77729389Y-32691564D01*
X77689000Y-32488516D01*
X77689000Y-32281484D01*
X77729389Y-32078436D01*
X77808615Y-31887167D01*
X77923635Y-31715027D01*
X78070027Y-31568635D01*
X78242165Y-31453616D01*
X78242167Y-31453615D01*
X78433436Y-31374389D01*
X78636484Y-31334000D01*
X78843516Y-31334000D01*
X79046564Y-31374389D01*
X79046564Y-31374389D01*
G37*
G36*
X81586564Y-31374389D02*
G01*
X81777833Y-31453615D01*
X81777835Y-31453616D01*
X81949973Y-31568635D01*
X82096365Y-31715027D01*
X82211385Y-31887167D01*
X82290611Y-32078436D01*
X82331000Y-32281484D01*
X82331000Y-32488516D01*
X82290611Y-32691564D01*
X82211385Y-32882833D01*
X82211384Y-32882835D01*
X82096365Y-33054973D01*
X81949973Y-33201365D01*
X81777835Y-33316384D01*
X81777834Y-33316385D01*
X81777833Y-33316385D01*
X81586564Y-33395611D01*
X81383516Y-33436000D01*
X81176484Y-33436000D01*
X80973436Y-33395611D01*
X80782167Y-33316385D01*
X80782166Y-33316385D01*
X80782165Y-33316384D01*
X80610027Y-33201365D01*
X80463635Y-33054973D01*
X80348616Y-32882835D01*
X80348615Y-32882833D01*
X80269389Y-32691564D01*
X80229000Y-32488516D01*
X80229000Y-32281484D01*
X80269389Y-32078436D01*
X80348615Y-31887167D01*
X80463635Y-31715027D01*
X80610027Y-31568635D01*
X80782165Y-31453616D01*
X80782167Y-31453615D01*
X80973436Y-31374389D01*
X81176484Y-31334000D01*
X81383516Y-31334000D01*
X81586564Y-31374389D01*
X81586564Y-31374389D01*
G37*
G36*
X84126564Y-31374389D02*
G01*
X84317833Y-31453615D01*
X84317835Y-31453616D01*
X84489973Y-31568635D01*
X84636365Y-31715027D01*
X84751385Y-31887167D01*
X84830611Y-32078436D01*
X84871000Y-32281484D01*
X84871000Y-32488516D01*
X84830611Y-32691564D01*
X84751385Y-32882833D01*
X84751384Y-32882835D01*
X84636365Y-33054973D01*
X84489973Y-33201365D01*
X84317835Y-33316384D01*
X84317834Y-33316385D01*
X84317833Y-33316385D01*
X84126564Y-33395611D01*
X83923516Y-33436000D01*
X83716484Y-33436000D01*
X83513436Y-33395611D01*
X83322167Y-33316385D01*
X83322166Y-33316385D01*
X83322165Y-33316384D01*
X83150027Y-33201365D01*
X83003635Y-33054973D01*
X82888616Y-32882835D01*
X82888615Y-32882833D01*
X82809389Y-32691564D01*
X82769000Y-32488516D01*
X82769000Y-32281484D01*
X82809389Y-32078436D01*
X82888615Y-31887167D01*
X83003635Y-31715027D01*
X83150027Y-31568635D01*
X83322165Y-31453616D01*
X83322167Y-31453615D01*
X83513436Y-31374389D01*
X83716484Y-31334000D01*
X83923516Y-31334000D01*
X84126564Y-31374389D01*
X84126564Y-31374389D01*
G37*
M02*
