G04 #@! TF.GenerationSoftware,KiCad,Pcbnew,5.1.2*
G04 #@! TF.CreationDate,2019-08-07T15:52:47+02:00*
G04 #@! TF.ProjectId,wifisensor-dual-cpu,77696669-7365-46e7-936f-722d6475616c,rev?*
G04 #@! TF.SameCoordinates,Original*
G04 #@! TF.FileFunction,Copper,L1,Top*
G04 #@! TF.FilePolarity,Positive*
%FSLAX46Y46*%
G04 Gerber Fmt 4.6, Leading zero omitted, Abs format (unit mm)*
G04 Created by KiCad (PCBNEW 5.1.2) date 2019-08-07 15:52:47*
%MOMM*%
%LPD*%
G04 APERTURE LIST*
%ADD10C,2.000000*%
%ADD11R,2.000000X2.000000*%
%ADD12C,0.100000*%
%ADD13C,1.250000*%
%ADD14R,1.000000X2.500000*%
%ADD15R,1.800000X1.000000*%
%ADD16C,0.875000*%
%ADD17C,0.975000*%
%ADD18R,1.700000X1.700000*%
%ADD19O,1.700000X1.700000*%
%ADD20R,0.650000X1.060000*%
%ADD21C,0.600000*%
%ADD22R,0.650000X0.400000*%
%ADD23C,0.800000*%
%ADD24C,0.250000*%
%ADD25C,0.500000*%
%ADD26C,0.254000*%
G04 APERTURE END LIST*
D10*
X83820000Y-32385000D03*
X81280000Y-32385000D03*
X78740000Y-32385000D03*
X76200000Y-32385000D03*
X73660000Y-32385000D03*
X71120000Y-32385000D03*
D11*
X67945000Y-54610000D03*
D10*
X67945000Y-39620000D03*
D12*
G36*
X85104504Y-53726204D02*
G01*
X85128773Y-53729804D01*
X85152571Y-53735765D01*
X85175671Y-53744030D01*
X85197849Y-53754520D01*
X85218893Y-53767133D01*
X85238598Y-53781747D01*
X85256777Y-53798223D01*
X85273253Y-53816402D01*
X85287867Y-53836107D01*
X85300480Y-53857151D01*
X85310970Y-53879329D01*
X85319235Y-53902429D01*
X85325196Y-53926227D01*
X85328796Y-53950496D01*
X85330000Y-53975000D01*
X85330000Y-54725000D01*
X85328796Y-54749504D01*
X85325196Y-54773773D01*
X85319235Y-54797571D01*
X85310970Y-54820671D01*
X85300480Y-54842849D01*
X85287867Y-54863893D01*
X85273253Y-54883598D01*
X85256777Y-54901777D01*
X85238598Y-54918253D01*
X85218893Y-54932867D01*
X85197849Y-54945480D01*
X85175671Y-54955970D01*
X85152571Y-54964235D01*
X85128773Y-54970196D01*
X85104504Y-54973796D01*
X85080000Y-54975000D01*
X83830000Y-54975000D01*
X83805496Y-54973796D01*
X83781227Y-54970196D01*
X83757429Y-54964235D01*
X83734329Y-54955970D01*
X83712151Y-54945480D01*
X83691107Y-54932867D01*
X83671402Y-54918253D01*
X83653223Y-54901777D01*
X83636747Y-54883598D01*
X83622133Y-54863893D01*
X83609520Y-54842849D01*
X83599030Y-54820671D01*
X83590765Y-54797571D01*
X83584804Y-54773773D01*
X83581204Y-54749504D01*
X83580000Y-54725000D01*
X83580000Y-53975000D01*
X83581204Y-53950496D01*
X83584804Y-53926227D01*
X83590765Y-53902429D01*
X83599030Y-53879329D01*
X83609520Y-53857151D01*
X83622133Y-53836107D01*
X83636747Y-53816402D01*
X83653223Y-53798223D01*
X83671402Y-53781747D01*
X83691107Y-53767133D01*
X83712151Y-53754520D01*
X83734329Y-53744030D01*
X83757429Y-53735765D01*
X83781227Y-53729804D01*
X83805496Y-53726204D01*
X83830000Y-53725000D01*
X85080000Y-53725000D01*
X85104504Y-53726204D01*
X85104504Y-53726204D01*
G37*
D13*
X84455000Y-54350000D03*
D12*
G36*
X85104504Y-56526204D02*
G01*
X85128773Y-56529804D01*
X85152571Y-56535765D01*
X85175671Y-56544030D01*
X85197849Y-56554520D01*
X85218893Y-56567133D01*
X85238598Y-56581747D01*
X85256777Y-56598223D01*
X85273253Y-56616402D01*
X85287867Y-56636107D01*
X85300480Y-56657151D01*
X85310970Y-56679329D01*
X85319235Y-56702429D01*
X85325196Y-56726227D01*
X85328796Y-56750496D01*
X85330000Y-56775000D01*
X85330000Y-57525000D01*
X85328796Y-57549504D01*
X85325196Y-57573773D01*
X85319235Y-57597571D01*
X85310970Y-57620671D01*
X85300480Y-57642849D01*
X85287867Y-57663893D01*
X85273253Y-57683598D01*
X85256777Y-57701777D01*
X85238598Y-57718253D01*
X85218893Y-57732867D01*
X85197849Y-57745480D01*
X85175671Y-57755970D01*
X85152571Y-57764235D01*
X85128773Y-57770196D01*
X85104504Y-57773796D01*
X85080000Y-57775000D01*
X83830000Y-57775000D01*
X83805496Y-57773796D01*
X83781227Y-57770196D01*
X83757429Y-57764235D01*
X83734329Y-57755970D01*
X83712151Y-57745480D01*
X83691107Y-57732867D01*
X83671402Y-57718253D01*
X83653223Y-57701777D01*
X83636747Y-57683598D01*
X83622133Y-57663893D01*
X83609520Y-57642849D01*
X83599030Y-57620671D01*
X83590765Y-57597571D01*
X83584804Y-57573773D01*
X83581204Y-57549504D01*
X83580000Y-57525000D01*
X83580000Y-56775000D01*
X83581204Y-56750496D01*
X83584804Y-56726227D01*
X83590765Y-56702429D01*
X83599030Y-56679329D01*
X83609520Y-56657151D01*
X83622133Y-56636107D01*
X83636747Y-56616402D01*
X83653223Y-56598223D01*
X83671402Y-56581747D01*
X83691107Y-56567133D01*
X83712151Y-56554520D01*
X83734329Y-56544030D01*
X83757429Y-56535765D01*
X83781227Y-56529804D01*
X83805496Y-56526204D01*
X83830000Y-56525000D01*
X85080000Y-56525000D01*
X85104504Y-56526204D01*
X85104504Y-56526204D01*
G37*
D13*
X84455000Y-57150000D03*
D12*
G36*
X73489504Y-53726204D02*
G01*
X73513773Y-53729804D01*
X73537571Y-53735765D01*
X73560671Y-53744030D01*
X73582849Y-53754520D01*
X73603893Y-53767133D01*
X73623598Y-53781747D01*
X73641777Y-53798223D01*
X73658253Y-53816402D01*
X73672867Y-53836107D01*
X73685480Y-53857151D01*
X73695970Y-53879329D01*
X73704235Y-53902429D01*
X73710196Y-53926227D01*
X73713796Y-53950496D01*
X73715000Y-53975000D01*
X73715000Y-54725000D01*
X73713796Y-54749504D01*
X73710196Y-54773773D01*
X73704235Y-54797571D01*
X73695970Y-54820671D01*
X73685480Y-54842849D01*
X73672867Y-54863893D01*
X73658253Y-54883598D01*
X73641777Y-54901777D01*
X73623598Y-54918253D01*
X73603893Y-54932867D01*
X73582849Y-54945480D01*
X73560671Y-54955970D01*
X73537571Y-54964235D01*
X73513773Y-54970196D01*
X73489504Y-54973796D01*
X73465000Y-54975000D01*
X71315000Y-54975000D01*
X71290496Y-54973796D01*
X71266227Y-54970196D01*
X71242429Y-54964235D01*
X71219329Y-54955970D01*
X71197151Y-54945480D01*
X71176107Y-54932867D01*
X71156402Y-54918253D01*
X71138223Y-54901777D01*
X71121747Y-54883598D01*
X71107133Y-54863893D01*
X71094520Y-54842849D01*
X71084030Y-54820671D01*
X71075765Y-54797571D01*
X71069804Y-54773773D01*
X71066204Y-54749504D01*
X71065000Y-54725000D01*
X71065000Y-53975000D01*
X71066204Y-53950496D01*
X71069804Y-53926227D01*
X71075765Y-53902429D01*
X71084030Y-53879329D01*
X71094520Y-53857151D01*
X71107133Y-53836107D01*
X71121747Y-53816402D01*
X71138223Y-53798223D01*
X71156402Y-53781747D01*
X71176107Y-53767133D01*
X71197151Y-53754520D01*
X71219329Y-53744030D01*
X71242429Y-53735765D01*
X71266227Y-53729804D01*
X71290496Y-53726204D01*
X71315000Y-53725000D01*
X73465000Y-53725000D01*
X73489504Y-53726204D01*
X73489504Y-53726204D01*
G37*
D13*
X72390000Y-54350000D03*
D12*
G36*
X73489504Y-56526204D02*
G01*
X73513773Y-56529804D01*
X73537571Y-56535765D01*
X73560671Y-56544030D01*
X73582849Y-56554520D01*
X73603893Y-56567133D01*
X73623598Y-56581747D01*
X73641777Y-56598223D01*
X73658253Y-56616402D01*
X73672867Y-56636107D01*
X73685480Y-56657151D01*
X73695970Y-56679329D01*
X73704235Y-56702429D01*
X73710196Y-56726227D01*
X73713796Y-56750496D01*
X73715000Y-56775000D01*
X73715000Y-57525000D01*
X73713796Y-57549504D01*
X73710196Y-57573773D01*
X73704235Y-57597571D01*
X73695970Y-57620671D01*
X73685480Y-57642849D01*
X73672867Y-57663893D01*
X73658253Y-57683598D01*
X73641777Y-57701777D01*
X73623598Y-57718253D01*
X73603893Y-57732867D01*
X73582849Y-57745480D01*
X73560671Y-57755970D01*
X73537571Y-57764235D01*
X73513773Y-57770196D01*
X73489504Y-57773796D01*
X73465000Y-57775000D01*
X71315000Y-57775000D01*
X71290496Y-57773796D01*
X71266227Y-57770196D01*
X71242429Y-57764235D01*
X71219329Y-57755970D01*
X71197151Y-57745480D01*
X71176107Y-57732867D01*
X71156402Y-57718253D01*
X71138223Y-57701777D01*
X71121747Y-57683598D01*
X71107133Y-57663893D01*
X71094520Y-57642849D01*
X71084030Y-57620671D01*
X71075765Y-57597571D01*
X71069804Y-57573773D01*
X71066204Y-57549504D01*
X71065000Y-57525000D01*
X71065000Y-56775000D01*
X71066204Y-56750496D01*
X71069804Y-56726227D01*
X71075765Y-56702429D01*
X71084030Y-56679329D01*
X71094520Y-56657151D01*
X71107133Y-56636107D01*
X71121747Y-56616402D01*
X71138223Y-56598223D01*
X71156402Y-56581747D01*
X71176107Y-56567133D01*
X71197151Y-56554520D01*
X71219329Y-56544030D01*
X71242429Y-56535765D01*
X71266227Y-56529804D01*
X71290496Y-56526204D01*
X71315000Y-56525000D01*
X73465000Y-56525000D01*
X73489504Y-56526204D01*
X73489504Y-56526204D01*
G37*
D13*
X72390000Y-57150000D03*
D14*
X131500000Y-32400000D03*
X129500000Y-32400000D03*
X127500000Y-32400000D03*
X125500000Y-32400000D03*
X123500000Y-32400000D03*
X121500000Y-32400000D03*
X119500000Y-32400000D03*
X117500000Y-32400000D03*
D15*
X116000000Y-35000000D03*
X116000000Y-37000000D03*
X116000000Y-39000000D03*
X116000000Y-41000000D03*
X116000000Y-43000000D03*
X116000000Y-45000000D03*
D14*
X117500000Y-47600000D03*
X119500000Y-47600000D03*
X121500000Y-47600000D03*
X123500000Y-47600000D03*
X125500000Y-47600000D03*
X127500000Y-47600000D03*
X129500000Y-47600000D03*
X131500000Y-47600000D03*
D12*
G36*
X107592691Y-41168553D02*
G01*
X107613926Y-41171703D01*
X107634750Y-41176919D01*
X107654962Y-41184151D01*
X107674368Y-41193330D01*
X107692781Y-41204366D01*
X107710024Y-41217154D01*
X107725930Y-41231570D01*
X107740346Y-41247476D01*
X107753134Y-41264719D01*
X107764170Y-41283132D01*
X107773349Y-41302538D01*
X107780581Y-41322750D01*
X107785797Y-41343574D01*
X107788947Y-41364809D01*
X107790000Y-41386250D01*
X107790000Y-41823750D01*
X107788947Y-41845191D01*
X107785797Y-41866426D01*
X107780581Y-41887250D01*
X107773349Y-41907462D01*
X107764170Y-41926868D01*
X107753134Y-41945281D01*
X107740346Y-41962524D01*
X107725930Y-41978430D01*
X107710024Y-41992846D01*
X107692781Y-42005634D01*
X107674368Y-42016670D01*
X107654962Y-42025849D01*
X107634750Y-42033081D01*
X107613926Y-42038297D01*
X107592691Y-42041447D01*
X107571250Y-42042500D01*
X107058750Y-42042500D01*
X107037309Y-42041447D01*
X107016074Y-42038297D01*
X106995250Y-42033081D01*
X106975038Y-42025849D01*
X106955632Y-42016670D01*
X106937219Y-42005634D01*
X106919976Y-41992846D01*
X106904070Y-41978430D01*
X106889654Y-41962524D01*
X106876866Y-41945281D01*
X106865830Y-41926868D01*
X106856651Y-41907462D01*
X106849419Y-41887250D01*
X106844203Y-41866426D01*
X106841053Y-41845191D01*
X106840000Y-41823750D01*
X106840000Y-41386250D01*
X106841053Y-41364809D01*
X106844203Y-41343574D01*
X106849419Y-41322750D01*
X106856651Y-41302538D01*
X106865830Y-41283132D01*
X106876866Y-41264719D01*
X106889654Y-41247476D01*
X106904070Y-41231570D01*
X106919976Y-41217154D01*
X106937219Y-41204366D01*
X106955632Y-41193330D01*
X106975038Y-41184151D01*
X106995250Y-41176919D01*
X107016074Y-41171703D01*
X107037309Y-41168553D01*
X107058750Y-41167500D01*
X107571250Y-41167500D01*
X107592691Y-41168553D01*
X107592691Y-41168553D01*
G37*
D16*
X107315000Y-41605000D03*
D12*
G36*
X107592691Y-42743553D02*
G01*
X107613926Y-42746703D01*
X107634750Y-42751919D01*
X107654962Y-42759151D01*
X107674368Y-42768330D01*
X107692781Y-42779366D01*
X107710024Y-42792154D01*
X107725930Y-42806570D01*
X107740346Y-42822476D01*
X107753134Y-42839719D01*
X107764170Y-42858132D01*
X107773349Y-42877538D01*
X107780581Y-42897750D01*
X107785797Y-42918574D01*
X107788947Y-42939809D01*
X107790000Y-42961250D01*
X107790000Y-43398750D01*
X107788947Y-43420191D01*
X107785797Y-43441426D01*
X107780581Y-43462250D01*
X107773349Y-43482462D01*
X107764170Y-43501868D01*
X107753134Y-43520281D01*
X107740346Y-43537524D01*
X107725930Y-43553430D01*
X107710024Y-43567846D01*
X107692781Y-43580634D01*
X107674368Y-43591670D01*
X107654962Y-43600849D01*
X107634750Y-43608081D01*
X107613926Y-43613297D01*
X107592691Y-43616447D01*
X107571250Y-43617500D01*
X107058750Y-43617500D01*
X107037309Y-43616447D01*
X107016074Y-43613297D01*
X106995250Y-43608081D01*
X106975038Y-43600849D01*
X106955632Y-43591670D01*
X106937219Y-43580634D01*
X106919976Y-43567846D01*
X106904070Y-43553430D01*
X106889654Y-43537524D01*
X106876866Y-43520281D01*
X106865830Y-43501868D01*
X106856651Y-43482462D01*
X106849419Y-43462250D01*
X106844203Y-43441426D01*
X106841053Y-43420191D01*
X106840000Y-43398750D01*
X106840000Y-42961250D01*
X106841053Y-42939809D01*
X106844203Y-42918574D01*
X106849419Y-42897750D01*
X106856651Y-42877538D01*
X106865830Y-42858132D01*
X106876866Y-42839719D01*
X106889654Y-42822476D01*
X106904070Y-42806570D01*
X106919976Y-42792154D01*
X106937219Y-42779366D01*
X106955632Y-42768330D01*
X106975038Y-42759151D01*
X106995250Y-42751919D01*
X107016074Y-42746703D01*
X107037309Y-42743553D01*
X107058750Y-42742500D01*
X107571250Y-42742500D01*
X107592691Y-42743553D01*
X107592691Y-42743553D01*
G37*
D16*
X107315000Y-43180000D03*
D12*
G36*
X91832691Y-46526053D02*
G01*
X91853926Y-46529203D01*
X91874750Y-46534419D01*
X91894962Y-46541651D01*
X91914368Y-46550830D01*
X91932781Y-46561866D01*
X91950024Y-46574654D01*
X91965930Y-46589070D01*
X91980346Y-46604976D01*
X91993134Y-46622219D01*
X92004170Y-46640632D01*
X92013349Y-46660038D01*
X92020581Y-46680250D01*
X92025797Y-46701074D01*
X92028947Y-46722309D01*
X92030000Y-46743750D01*
X92030000Y-47256250D01*
X92028947Y-47277691D01*
X92025797Y-47298926D01*
X92020581Y-47319750D01*
X92013349Y-47339962D01*
X92004170Y-47359368D01*
X91993134Y-47377781D01*
X91980346Y-47395024D01*
X91965930Y-47410930D01*
X91950024Y-47425346D01*
X91932781Y-47438134D01*
X91914368Y-47449170D01*
X91894962Y-47458349D01*
X91874750Y-47465581D01*
X91853926Y-47470797D01*
X91832691Y-47473947D01*
X91811250Y-47475000D01*
X91373750Y-47475000D01*
X91352309Y-47473947D01*
X91331074Y-47470797D01*
X91310250Y-47465581D01*
X91290038Y-47458349D01*
X91270632Y-47449170D01*
X91252219Y-47438134D01*
X91234976Y-47425346D01*
X91219070Y-47410930D01*
X91204654Y-47395024D01*
X91191866Y-47377781D01*
X91180830Y-47359368D01*
X91171651Y-47339962D01*
X91164419Y-47319750D01*
X91159203Y-47298926D01*
X91156053Y-47277691D01*
X91155000Y-47256250D01*
X91155000Y-46743750D01*
X91156053Y-46722309D01*
X91159203Y-46701074D01*
X91164419Y-46680250D01*
X91171651Y-46660038D01*
X91180830Y-46640632D01*
X91191866Y-46622219D01*
X91204654Y-46604976D01*
X91219070Y-46589070D01*
X91234976Y-46574654D01*
X91252219Y-46561866D01*
X91270632Y-46550830D01*
X91290038Y-46541651D01*
X91310250Y-46534419D01*
X91331074Y-46529203D01*
X91352309Y-46526053D01*
X91373750Y-46525000D01*
X91811250Y-46525000D01*
X91832691Y-46526053D01*
X91832691Y-46526053D01*
G37*
D16*
X91592500Y-47000000D03*
D12*
G36*
X90257691Y-46526053D02*
G01*
X90278926Y-46529203D01*
X90299750Y-46534419D01*
X90319962Y-46541651D01*
X90339368Y-46550830D01*
X90357781Y-46561866D01*
X90375024Y-46574654D01*
X90390930Y-46589070D01*
X90405346Y-46604976D01*
X90418134Y-46622219D01*
X90429170Y-46640632D01*
X90438349Y-46660038D01*
X90445581Y-46680250D01*
X90450797Y-46701074D01*
X90453947Y-46722309D01*
X90455000Y-46743750D01*
X90455000Y-47256250D01*
X90453947Y-47277691D01*
X90450797Y-47298926D01*
X90445581Y-47319750D01*
X90438349Y-47339962D01*
X90429170Y-47359368D01*
X90418134Y-47377781D01*
X90405346Y-47395024D01*
X90390930Y-47410930D01*
X90375024Y-47425346D01*
X90357781Y-47438134D01*
X90339368Y-47449170D01*
X90319962Y-47458349D01*
X90299750Y-47465581D01*
X90278926Y-47470797D01*
X90257691Y-47473947D01*
X90236250Y-47475000D01*
X89798750Y-47475000D01*
X89777309Y-47473947D01*
X89756074Y-47470797D01*
X89735250Y-47465581D01*
X89715038Y-47458349D01*
X89695632Y-47449170D01*
X89677219Y-47438134D01*
X89659976Y-47425346D01*
X89644070Y-47410930D01*
X89629654Y-47395024D01*
X89616866Y-47377781D01*
X89605830Y-47359368D01*
X89596651Y-47339962D01*
X89589419Y-47319750D01*
X89584203Y-47298926D01*
X89581053Y-47277691D01*
X89580000Y-47256250D01*
X89580000Y-46743750D01*
X89581053Y-46722309D01*
X89584203Y-46701074D01*
X89589419Y-46680250D01*
X89596651Y-46660038D01*
X89605830Y-46640632D01*
X89616866Y-46622219D01*
X89629654Y-46604976D01*
X89644070Y-46589070D01*
X89659976Y-46574654D01*
X89677219Y-46561866D01*
X89695632Y-46550830D01*
X89715038Y-46541651D01*
X89735250Y-46534419D01*
X89756074Y-46529203D01*
X89777309Y-46526053D01*
X89798750Y-46525000D01*
X90236250Y-46525000D01*
X90257691Y-46526053D01*
X90257691Y-46526053D01*
G37*
D16*
X90017500Y-47000000D03*
D12*
G36*
X113297642Y-31686174D02*
G01*
X113321303Y-31689684D01*
X113344507Y-31695496D01*
X113367029Y-31703554D01*
X113388653Y-31713782D01*
X113409170Y-31726079D01*
X113428383Y-31740329D01*
X113446107Y-31756393D01*
X113462171Y-31774117D01*
X113476421Y-31793330D01*
X113488718Y-31813847D01*
X113498946Y-31835471D01*
X113507004Y-31857993D01*
X113512816Y-31881197D01*
X113516326Y-31904858D01*
X113517500Y-31928750D01*
X113517500Y-32841250D01*
X113516326Y-32865142D01*
X113512816Y-32888803D01*
X113507004Y-32912007D01*
X113498946Y-32934529D01*
X113488718Y-32956153D01*
X113476421Y-32976670D01*
X113462171Y-32995883D01*
X113446107Y-33013607D01*
X113428383Y-33029671D01*
X113409170Y-33043921D01*
X113388653Y-33056218D01*
X113367029Y-33066446D01*
X113344507Y-33074504D01*
X113321303Y-33080316D01*
X113297642Y-33083826D01*
X113273750Y-33085000D01*
X112786250Y-33085000D01*
X112762358Y-33083826D01*
X112738697Y-33080316D01*
X112715493Y-33074504D01*
X112692971Y-33066446D01*
X112671347Y-33056218D01*
X112650830Y-33043921D01*
X112631617Y-33029671D01*
X112613893Y-33013607D01*
X112597829Y-32995883D01*
X112583579Y-32976670D01*
X112571282Y-32956153D01*
X112561054Y-32934529D01*
X112552996Y-32912007D01*
X112547184Y-32888803D01*
X112543674Y-32865142D01*
X112542500Y-32841250D01*
X112542500Y-31928750D01*
X112543674Y-31904858D01*
X112547184Y-31881197D01*
X112552996Y-31857993D01*
X112561054Y-31835471D01*
X112571282Y-31813847D01*
X112583579Y-31793330D01*
X112597829Y-31774117D01*
X112613893Y-31756393D01*
X112631617Y-31740329D01*
X112650830Y-31726079D01*
X112671347Y-31713782D01*
X112692971Y-31703554D01*
X112715493Y-31695496D01*
X112738697Y-31689684D01*
X112762358Y-31686174D01*
X112786250Y-31685000D01*
X113273750Y-31685000D01*
X113297642Y-31686174D01*
X113297642Y-31686174D01*
G37*
D17*
X113030000Y-32385000D03*
D12*
G36*
X111422642Y-31686174D02*
G01*
X111446303Y-31689684D01*
X111469507Y-31695496D01*
X111492029Y-31703554D01*
X111513653Y-31713782D01*
X111534170Y-31726079D01*
X111553383Y-31740329D01*
X111571107Y-31756393D01*
X111587171Y-31774117D01*
X111601421Y-31793330D01*
X111613718Y-31813847D01*
X111623946Y-31835471D01*
X111632004Y-31857993D01*
X111637816Y-31881197D01*
X111641326Y-31904858D01*
X111642500Y-31928750D01*
X111642500Y-32841250D01*
X111641326Y-32865142D01*
X111637816Y-32888803D01*
X111632004Y-32912007D01*
X111623946Y-32934529D01*
X111613718Y-32956153D01*
X111601421Y-32976670D01*
X111587171Y-32995883D01*
X111571107Y-33013607D01*
X111553383Y-33029671D01*
X111534170Y-33043921D01*
X111513653Y-33056218D01*
X111492029Y-33066446D01*
X111469507Y-33074504D01*
X111446303Y-33080316D01*
X111422642Y-33083826D01*
X111398750Y-33085000D01*
X110911250Y-33085000D01*
X110887358Y-33083826D01*
X110863697Y-33080316D01*
X110840493Y-33074504D01*
X110817971Y-33066446D01*
X110796347Y-33056218D01*
X110775830Y-33043921D01*
X110756617Y-33029671D01*
X110738893Y-33013607D01*
X110722829Y-32995883D01*
X110708579Y-32976670D01*
X110696282Y-32956153D01*
X110686054Y-32934529D01*
X110677996Y-32912007D01*
X110672184Y-32888803D01*
X110668674Y-32865142D01*
X110667500Y-32841250D01*
X110667500Y-31928750D01*
X110668674Y-31904858D01*
X110672184Y-31881197D01*
X110677996Y-31857993D01*
X110686054Y-31835471D01*
X110696282Y-31813847D01*
X110708579Y-31793330D01*
X110722829Y-31774117D01*
X110738893Y-31756393D01*
X110756617Y-31740329D01*
X110775830Y-31726079D01*
X110796347Y-31713782D01*
X110817971Y-31703554D01*
X110840493Y-31695496D01*
X110863697Y-31689684D01*
X110887358Y-31686174D01*
X110911250Y-31685000D01*
X111398750Y-31685000D01*
X111422642Y-31686174D01*
X111422642Y-31686174D01*
G37*
D17*
X111155000Y-32385000D03*
D18*
X136525000Y-62000000D03*
D19*
X133985000Y-62000000D03*
X131445000Y-62000000D03*
X128905000Y-62000000D03*
D12*
G36*
X119777691Y-56563553D02*
G01*
X119798926Y-56566703D01*
X119819750Y-56571919D01*
X119839962Y-56579151D01*
X119859368Y-56588330D01*
X119877781Y-56599366D01*
X119895024Y-56612154D01*
X119910930Y-56626570D01*
X119925346Y-56642476D01*
X119938134Y-56659719D01*
X119949170Y-56678132D01*
X119958349Y-56697538D01*
X119965581Y-56717750D01*
X119970797Y-56738574D01*
X119973947Y-56759809D01*
X119975000Y-56781250D01*
X119975000Y-57218750D01*
X119973947Y-57240191D01*
X119970797Y-57261426D01*
X119965581Y-57282250D01*
X119958349Y-57302462D01*
X119949170Y-57321868D01*
X119938134Y-57340281D01*
X119925346Y-57357524D01*
X119910930Y-57373430D01*
X119895024Y-57387846D01*
X119877781Y-57400634D01*
X119859368Y-57411670D01*
X119839962Y-57420849D01*
X119819750Y-57428081D01*
X119798926Y-57433297D01*
X119777691Y-57436447D01*
X119756250Y-57437500D01*
X119243750Y-57437500D01*
X119222309Y-57436447D01*
X119201074Y-57433297D01*
X119180250Y-57428081D01*
X119160038Y-57420849D01*
X119140632Y-57411670D01*
X119122219Y-57400634D01*
X119104976Y-57387846D01*
X119089070Y-57373430D01*
X119074654Y-57357524D01*
X119061866Y-57340281D01*
X119050830Y-57321868D01*
X119041651Y-57302462D01*
X119034419Y-57282250D01*
X119029203Y-57261426D01*
X119026053Y-57240191D01*
X119025000Y-57218750D01*
X119025000Y-56781250D01*
X119026053Y-56759809D01*
X119029203Y-56738574D01*
X119034419Y-56717750D01*
X119041651Y-56697538D01*
X119050830Y-56678132D01*
X119061866Y-56659719D01*
X119074654Y-56642476D01*
X119089070Y-56626570D01*
X119104976Y-56612154D01*
X119122219Y-56599366D01*
X119140632Y-56588330D01*
X119160038Y-56579151D01*
X119180250Y-56571919D01*
X119201074Y-56566703D01*
X119222309Y-56563553D01*
X119243750Y-56562500D01*
X119756250Y-56562500D01*
X119777691Y-56563553D01*
X119777691Y-56563553D01*
G37*
D16*
X119500000Y-57000000D03*
D12*
G36*
X119777691Y-54988553D02*
G01*
X119798926Y-54991703D01*
X119819750Y-54996919D01*
X119839962Y-55004151D01*
X119859368Y-55013330D01*
X119877781Y-55024366D01*
X119895024Y-55037154D01*
X119910930Y-55051570D01*
X119925346Y-55067476D01*
X119938134Y-55084719D01*
X119949170Y-55103132D01*
X119958349Y-55122538D01*
X119965581Y-55142750D01*
X119970797Y-55163574D01*
X119973947Y-55184809D01*
X119975000Y-55206250D01*
X119975000Y-55643750D01*
X119973947Y-55665191D01*
X119970797Y-55686426D01*
X119965581Y-55707250D01*
X119958349Y-55727462D01*
X119949170Y-55746868D01*
X119938134Y-55765281D01*
X119925346Y-55782524D01*
X119910930Y-55798430D01*
X119895024Y-55812846D01*
X119877781Y-55825634D01*
X119859368Y-55836670D01*
X119839962Y-55845849D01*
X119819750Y-55853081D01*
X119798926Y-55858297D01*
X119777691Y-55861447D01*
X119756250Y-55862500D01*
X119243750Y-55862500D01*
X119222309Y-55861447D01*
X119201074Y-55858297D01*
X119180250Y-55853081D01*
X119160038Y-55845849D01*
X119140632Y-55836670D01*
X119122219Y-55825634D01*
X119104976Y-55812846D01*
X119089070Y-55798430D01*
X119074654Y-55782524D01*
X119061866Y-55765281D01*
X119050830Y-55746868D01*
X119041651Y-55727462D01*
X119034419Y-55707250D01*
X119029203Y-55686426D01*
X119026053Y-55665191D01*
X119025000Y-55643750D01*
X119025000Y-55206250D01*
X119026053Y-55184809D01*
X119029203Y-55163574D01*
X119034419Y-55142750D01*
X119041651Y-55122538D01*
X119050830Y-55103132D01*
X119061866Y-55084719D01*
X119074654Y-55067476D01*
X119089070Y-55051570D01*
X119104976Y-55037154D01*
X119122219Y-55024366D01*
X119140632Y-55013330D01*
X119160038Y-55004151D01*
X119180250Y-54996919D01*
X119201074Y-54991703D01*
X119222309Y-54988553D01*
X119243750Y-54987500D01*
X119756250Y-54987500D01*
X119777691Y-54988553D01*
X119777691Y-54988553D01*
G37*
D16*
X119500000Y-55425000D03*
D12*
G36*
X77435142Y-44301174D02*
G01*
X77458803Y-44304684D01*
X77482007Y-44310496D01*
X77504529Y-44318554D01*
X77526153Y-44328782D01*
X77546670Y-44341079D01*
X77565883Y-44355329D01*
X77583607Y-44371393D01*
X77599671Y-44389117D01*
X77613921Y-44408330D01*
X77626218Y-44428847D01*
X77636446Y-44450471D01*
X77644504Y-44472993D01*
X77650316Y-44496197D01*
X77653826Y-44519858D01*
X77655000Y-44543750D01*
X77655000Y-45456250D01*
X77653826Y-45480142D01*
X77650316Y-45503803D01*
X77644504Y-45527007D01*
X77636446Y-45549529D01*
X77626218Y-45571153D01*
X77613921Y-45591670D01*
X77599671Y-45610883D01*
X77583607Y-45628607D01*
X77565883Y-45644671D01*
X77546670Y-45658921D01*
X77526153Y-45671218D01*
X77504529Y-45681446D01*
X77482007Y-45689504D01*
X77458803Y-45695316D01*
X77435142Y-45698826D01*
X77411250Y-45700000D01*
X76923750Y-45700000D01*
X76899858Y-45698826D01*
X76876197Y-45695316D01*
X76852993Y-45689504D01*
X76830471Y-45681446D01*
X76808847Y-45671218D01*
X76788330Y-45658921D01*
X76769117Y-45644671D01*
X76751393Y-45628607D01*
X76735329Y-45610883D01*
X76721079Y-45591670D01*
X76708782Y-45571153D01*
X76698554Y-45549529D01*
X76690496Y-45527007D01*
X76684684Y-45503803D01*
X76681174Y-45480142D01*
X76680000Y-45456250D01*
X76680000Y-44543750D01*
X76681174Y-44519858D01*
X76684684Y-44496197D01*
X76690496Y-44472993D01*
X76698554Y-44450471D01*
X76708782Y-44428847D01*
X76721079Y-44408330D01*
X76735329Y-44389117D01*
X76751393Y-44371393D01*
X76769117Y-44355329D01*
X76788330Y-44341079D01*
X76808847Y-44328782D01*
X76830471Y-44318554D01*
X76852993Y-44310496D01*
X76876197Y-44304684D01*
X76899858Y-44301174D01*
X76923750Y-44300000D01*
X77411250Y-44300000D01*
X77435142Y-44301174D01*
X77435142Y-44301174D01*
G37*
D17*
X77167500Y-45000000D03*
D12*
G36*
X79310142Y-44301174D02*
G01*
X79333803Y-44304684D01*
X79357007Y-44310496D01*
X79379529Y-44318554D01*
X79401153Y-44328782D01*
X79421670Y-44341079D01*
X79440883Y-44355329D01*
X79458607Y-44371393D01*
X79474671Y-44389117D01*
X79488921Y-44408330D01*
X79501218Y-44428847D01*
X79511446Y-44450471D01*
X79519504Y-44472993D01*
X79525316Y-44496197D01*
X79528826Y-44519858D01*
X79530000Y-44543750D01*
X79530000Y-45456250D01*
X79528826Y-45480142D01*
X79525316Y-45503803D01*
X79519504Y-45527007D01*
X79511446Y-45549529D01*
X79501218Y-45571153D01*
X79488921Y-45591670D01*
X79474671Y-45610883D01*
X79458607Y-45628607D01*
X79440883Y-45644671D01*
X79421670Y-45658921D01*
X79401153Y-45671218D01*
X79379529Y-45681446D01*
X79357007Y-45689504D01*
X79333803Y-45695316D01*
X79310142Y-45698826D01*
X79286250Y-45700000D01*
X78798750Y-45700000D01*
X78774858Y-45698826D01*
X78751197Y-45695316D01*
X78727993Y-45689504D01*
X78705471Y-45681446D01*
X78683847Y-45671218D01*
X78663330Y-45658921D01*
X78644117Y-45644671D01*
X78626393Y-45628607D01*
X78610329Y-45610883D01*
X78596079Y-45591670D01*
X78583782Y-45571153D01*
X78573554Y-45549529D01*
X78565496Y-45527007D01*
X78559684Y-45503803D01*
X78556174Y-45480142D01*
X78555000Y-45456250D01*
X78555000Y-44543750D01*
X78556174Y-44519858D01*
X78559684Y-44496197D01*
X78565496Y-44472993D01*
X78573554Y-44450471D01*
X78583782Y-44428847D01*
X78596079Y-44408330D01*
X78610329Y-44389117D01*
X78626393Y-44371393D01*
X78644117Y-44355329D01*
X78663330Y-44341079D01*
X78683847Y-44328782D01*
X78705471Y-44318554D01*
X78727993Y-44310496D01*
X78751197Y-44304684D01*
X78774858Y-44301174D01*
X78798750Y-44300000D01*
X79286250Y-44300000D01*
X79310142Y-44301174D01*
X79310142Y-44301174D01*
G37*
D17*
X79042500Y-45000000D03*
D12*
G36*
X76680142Y-54153674D02*
G01*
X76703803Y-54157184D01*
X76727007Y-54162996D01*
X76749529Y-54171054D01*
X76771153Y-54181282D01*
X76791670Y-54193579D01*
X76810883Y-54207829D01*
X76828607Y-54223893D01*
X76844671Y-54241617D01*
X76858921Y-54260830D01*
X76871218Y-54281347D01*
X76881446Y-54302971D01*
X76889504Y-54325493D01*
X76895316Y-54348697D01*
X76898826Y-54372358D01*
X76900000Y-54396250D01*
X76900000Y-54883750D01*
X76898826Y-54907642D01*
X76895316Y-54931303D01*
X76889504Y-54954507D01*
X76881446Y-54977029D01*
X76871218Y-54998653D01*
X76858921Y-55019170D01*
X76844671Y-55038383D01*
X76828607Y-55056107D01*
X76810883Y-55072171D01*
X76791670Y-55086421D01*
X76771153Y-55098718D01*
X76749529Y-55108946D01*
X76727007Y-55117004D01*
X76703803Y-55122816D01*
X76680142Y-55126326D01*
X76656250Y-55127500D01*
X75743750Y-55127500D01*
X75719858Y-55126326D01*
X75696197Y-55122816D01*
X75672993Y-55117004D01*
X75650471Y-55108946D01*
X75628847Y-55098718D01*
X75608330Y-55086421D01*
X75589117Y-55072171D01*
X75571393Y-55056107D01*
X75555329Y-55038383D01*
X75541079Y-55019170D01*
X75528782Y-54998653D01*
X75518554Y-54977029D01*
X75510496Y-54954507D01*
X75504684Y-54931303D01*
X75501174Y-54907642D01*
X75500000Y-54883750D01*
X75500000Y-54396250D01*
X75501174Y-54372358D01*
X75504684Y-54348697D01*
X75510496Y-54325493D01*
X75518554Y-54302971D01*
X75528782Y-54281347D01*
X75541079Y-54260830D01*
X75555329Y-54241617D01*
X75571393Y-54223893D01*
X75589117Y-54207829D01*
X75608330Y-54193579D01*
X75628847Y-54181282D01*
X75650471Y-54171054D01*
X75672993Y-54162996D01*
X75696197Y-54157184D01*
X75719858Y-54153674D01*
X75743750Y-54152500D01*
X76656250Y-54152500D01*
X76680142Y-54153674D01*
X76680142Y-54153674D01*
G37*
D17*
X76200000Y-54640000D03*
D12*
G36*
X76680142Y-56028674D02*
G01*
X76703803Y-56032184D01*
X76727007Y-56037996D01*
X76749529Y-56046054D01*
X76771153Y-56056282D01*
X76791670Y-56068579D01*
X76810883Y-56082829D01*
X76828607Y-56098893D01*
X76844671Y-56116617D01*
X76858921Y-56135830D01*
X76871218Y-56156347D01*
X76881446Y-56177971D01*
X76889504Y-56200493D01*
X76895316Y-56223697D01*
X76898826Y-56247358D01*
X76900000Y-56271250D01*
X76900000Y-56758750D01*
X76898826Y-56782642D01*
X76895316Y-56806303D01*
X76889504Y-56829507D01*
X76881446Y-56852029D01*
X76871218Y-56873653D01*
X76858921Y-56894170D01*
X76844671Y-56913383D01*
X76828607Y-56931107D01*
X76810883Y-56947171D01*
X76791670Y-56961421D01*
X76771153Y-56973718D01*
X76749529Y-56983946D01*
X76727007Y-56992004D01*
X76703803Y-56997816D01*
X76680142Y-57001326D01*
X76656250Y-57002500D01*
X75743750Y-57002500D01*
X75719858Y-57001326D01*
X75696197Y-56997816D01*
X75672993Y-56992004D01*
X75650471Y-56983946D01*
X75628847Y-56973718D01*
X75608330Y-56961421D01*
X75589117Y-56947171D01*
X75571393Y-56931107D01*
X75555329Y-56913383D01*
X75541079Y-56894170D01*
X75528782Y-56873653D01*
X75518554Y-56852029D01*
X75510496Y-56829507D01*
X75504684Y-56806303D01*
X75501174Y-56782642D01*
X75500000Y-56758750D01*
X75500000Y-56271250D01*
X75501174Y-56247358D01*
X75504684Y-56223697D01*
X75510496Y-56200493D01*
X75518554Y-56177971D01*
X75528782Y-56156347D01*
X75541079Y-56135830D01*
X75555329Y-56116617D01*
X75571393Y-56098893D01*
X75589117Y-56082829D01*
X75608330Y-56068579D01*
X75628847Y-56056282D01*
X75650471Y-56046054D01*
X75672993Y-56037996D01*
X75696197Y-56032184D01*
X75719858Y-56028674D01*
X75743750Y-56027500D01*
X76656250Y-56027500D01*
X76680142Y-56028674D01*
X76680142Y-56028674D01*
G37*
D17*
X76200000Y-56515000D03*
D20*
X79060000Y-56810000D03*
X80010000Y-56810000D03*
X80960000Y-56810000D03*
X80960000Y-54610000D03*
X79060000Y-54610000D03*
X80010000Y-54610000D03*
D12*
G36*
X77075191Y-51596053D02*
G01*
X77096426Y-51599203D01*
X77117250Y-51604419D01*
X77137462Y-51611651D01*
X77156868Y-51620830D01*
X77175281Y-51631866D01*
X77192524Y-51644654D01*
X77208430Y-51659070D01*
X77222846Y-51674976D01*
X77235634Y-51692219D01*
X77246670Y-51710632D01*
X77255849Y-51730038D01*
X77263081Y-51750250D01*
X77268297Y-51771074D01*
X77271447Y-51792309D01*
X77272500Y-51813750D01*
X77272500Y-52326250D01*
X77271447Y-52347691D01*
X77268297Y-52368926D01*
X77263081Y-52389750D01*
X77255849Y-52409962D01*
X77246670Y-52429368D01*
X77235634Y-52447781D01*
X77222846Y-52465024D01*
X77208430Y-52480930D01*
X77192524Y-52495346D01*
X77175281Y-52508134D01*
X77156868Y-52519170D01*
X77137462Y-52528349D01*
X77117250Y-52535581D01*
X77096426Y-52540797D01*
X77075191Y-52543947D01*
X77053750Y-52545000D01*
X76616250Y-52545000D01*
X76594809Y-52543947D01*
X76573574Y-52540797D01*
X76552750Y-52535581D01*
X76532538Y-52528349D01*
X76513132Y-52519170D01*
X76494719Y-52508134D01*
X76477476Y-52495346D01*
X76461570Y-52480930D01*
X76447154Y-52465024D01*
X76434366Y-52447781D01*
X76423330Y-52429368D01*
X76414151Y-52409962D01*
X76406919Y-52389750D01*
X76401703Y-52368926D01*
X76398553Y-52347691D01*
X76397500Y-52326250D01*
X76397500Y-51813750D01*
X76398553Y-51792309D01*
X76401703Y-51771074D01*
X76406919Y-51750250D01*
X76414151Y-51730038D01*
X76423330Y-51710632D01*
X76434366Y-51692219D01*
X76447154Y-51674976D01*
X76461570Y-51659070D01*
X76477476Y-51644654D01*
X76494719Y-51631866D01*
X76513132Y-51620830D01*
X76532538Y-51611651D01*
X76552750Y-51604419D01*
X76573574Y-51599203D01*
X76594809Y-51596053D01*
X76616250Y-51595000D01*
X77053750Y-51595000D01*
X77075191Y-51596053D01*
X77075191Y-51596053D01*
G37*
D16*
X76835000Y-52070000D03*
D12*
G36*
X78650191Y-51596053D02*
G01*
X78671426Y-51599203D01*
X78692250Y-51604419D01*
X78712462Y-51611651D01*
X78731868Y-51620830D01*
X78750281Y-51631866D01*
X78767524Y-51644654D01*
X78783430Y-51659070D01*
X78797846Y-51674976D01*
X78810634Y-51692219D01*
X78821670Y-51710632D01*
X78830849Y-51730038D01*
X78838081Y-51750250D01*
X78843297Y-51771074D01*
X78846447Y-51792309D01*
X78847500Y-51813750D01*
X78847500Y-52326250D01*
X78846447Y-52347691D01*
X78843297Y-52368926D01*
X78838081Y-52389750D01*
X78830849Y-52409962D01*
X78821670Y-52429368D01*
X78810634Y-52447781D01*
X78797846Y-52465024D01*
X78783430Y-52480930D01*
X78767524Y-52495346D01*
X78750281Y-52508134D01*
X78731868Y-52519170D01*
X78712462Y-52528349D01*
X78692250Y-52535581D01*
X78671426Y-52540797D01*
X78650191Y-52543947D01*
X78628750Y-52545000D01*
X78191250Y-52545000D01*
X78169809Y-52543947D01*
X78148574Y-52540797D01*
X78127750Y-52535581D01*
X78107538Y-52528349D01*
X78088132Y-52519170D01*
X78069719Y-52508134D01*
X78052476Y-52495346D01*
X78036570Y-52480930D01*
X78022154Y-52465024D01*
X78009366Y-52447781D01*
X77998330Y-52429368D01*
X77989151Y-52409962D01*
X77981919Y-52389750D01*
X77976703Y-52368926D01*
X77973553Y-52347691D01*
X77972500Y-52326250D01*
X77972500Y-51813750D01*
X77973553Y-51792309D01*
X77976703Y-51771074D01*
X77981919Y-51750250D01*
X77989151Y-51730038D01*
X77998330Y-51710632D01*
X78009366Y-51692219D01*
X78022154Y-51674976D01*
X78036570Y-51659070D01*
X78052476Y-51644654D01*
X78069719Y-51631866D01*
X78088132Y-51620830D01*
X78107538Y-51611651D01*
X78127750Y-51604419D01*
X78148574Y-51599203D01*
X78169809Y-51596053D01*
X78191250Y-51595000D01*
X78628750Y-51595000D01*
X78650191Y-51596053D01*
X78650191Y-51596053D01*
G37*
D16*
X78410000Y-52070000D03*
D12*
G36*
X97364703Y-41890722D02*
G01*
X97379264Y-41892882D01*
X97393543Y-41896459D01*
X97407403Y-41901418D01*
X97420710Y-41907712D01*
X97433336Y-41915280D01*
X97445159Y-41924048D01*
X97456066Y-41933934D01*
X97465952Y-41944841D01*
X97474720Y-41956664D01*
X97482288Y-41969290D01*
X97488582Y-41982597D01*
X97493541Y-41996457D01*
X97497118Y-42010736D01*
X97499278Y-42025297D01*
X97500000Y-42040000D01*
X97500000Y-42340000D01*
X97499278Y-42354703D01*
X97497118Y-42369264D01*
X97493541Y-42383543D01*
X97488582Y-42397403D01*
X97482288Y-42410710D01*
X97474720Y-42423336D01*
X97465952Y-42435159D01*
X97456066Y-42446066D01*
X97445159Y-42455952D01*
X97433336Y-42464720D01*
X97420710Y-42472288D01*
X97407403Y-42478582D01*
X97393543Y-42483541D01*
X97379264Y-42487118D01*
X97364703Y-42489278D01*
X97350000Y-42490000D01*
X95700000Y-42490000D01*
X95685297Y-42489278D01*
X95670736Y-42487118D01*
X95656457Y-42483541D01*
X95642597Y-42478582D01*
X95629290Y-42472288D01*
X95616664Y-42464720D01*
X95604841Y-42455952D01*
X95593934Y-42446066D01*
X95584048Y-42435159D01*
X95575280Y-42423336D01*
X95567712Y-42410710D01*
X95561418Y-42397403D01*
X95556459Y-42383543D01*
X95552882Y-42369264D01*
X95550722Y-42354703D01*
X95550000Y-42340000D01*
X95550000Y-42040000D01*
X95550722Y-42025297D01*
X95552882Y-42010736D01*
X95556459Y-41996457D01*
X95561418Y-41982597D01*
X95567712Y-41969290D01*
X95575280Y-41956664D01*
X95584048Y-41944841D01*
X95593934Y-41933934D01*
X95604841Y-41924048D01*
X95616664Y-41915280D01*
X95629290Y-41907712D01*
X95642597Y-41901418D01*
X95656457Y-41896459D01*
X95670736Y-41892882D01*
X95685297Y-41890722D01*
X95700000Y-41890000D01*
X97350000Y-41890000D01*
X97364703Y-41890722D01*
X97364703Y-41890722D01*
G37*
D21*
X96525000Y-42190000D03*
D12*
G36*
X97364703Y-43160722D02*
G01*
X97379264Y-43162882D01*
X97393543Y-43166459D01*
X97407403Y-43171418D01*
X97420710Y-43177712D01*
X97433336Y-43185280D01*
X97445159Y-43194048D01*
X97456066Y-43203934D01*
X97465952Y-43214841D01*
X97474720Y-43226664D01*
X97482288Y-43239290D01*
X97488582Y-43252597D01*
X97493541Y-43266457D01*
X97497118Y-43280736D01*
X97499278Y-43295297D01*
X97500000Y-43310000D01*
X97500000Y-43610000D01*
X97499278Y-43624703D01*
X97497118Y-43639264D01*
X97493541Y-43653543D01*
X97488582Y-43667403D01*
X97482288Y-43680710D01*
X97474720Y-43693336D01*
X97465952Y-43705159D01*
X97456066Y-43716066D01*
X97445159Y-43725952D01*
X97433336Y-43734720D01*
X97420710Y-43742288D01*
X97407403Y-43748582D01*
X97393543Y-43753541D01*
X97379264Y-43757118D01*
X97364703Y-43759278D01*
X97350000Y-43760000D01*
X95700000Y-43760000D01*
X95685297Y-43759278D01*
X95670736Y-43757118D01*
X95656457Y-43753541D01*
X95642597Y-43748582D01*
X95629290Y-43742288D01*
X95616664Y-43734720D01*
X95604841Y-43725952D01*
X95593934Y-43716066D01*
X95584048Y-43705159D01*
X95575280Y-43693336D01*
X95567712Y-43680710D01*
X95561418Y-43667403D01*
X95556459Y-43653543D01*
X95552882Y-43639264D01*
X95550722Y-43624703D01*
X95550000Y-43610000D01*
X95550000Y-43310000D01*
X95550722Y-43295297D01*
X95552882Y-43280736D01*
X95556459Y-43266457D01*
X95561418Y-43252597D01*
X95567712Y-43239290D01*
X95575280Y-43226664D01*
X95584048Y-43214841D01*
X95593934Y-43203934D01*
X95604841Y-43194048D01*
X95616664Y-43185280D01*
X95629290Y-43177712D01*
X95642597Y-43171418D01*
X95656457Y-43166459D01*
X95670736Y-43162882D01*
X95685297Y-43160722D01*
X95700000Y-43160000D01*
X97350000Y-43160000D01*
X97364703Y-43160722D01*
X97364703Y-43160722D01*
G37*
D21*
X96525000Y-43460000D03*
D12*
G36*
X97364703Y-44430722D02*
G01*
X97379264Y-44432882D01*
X97393543Y-44436459D01*
X97407403Y-44441418D01*
X97420710Y-44447712D01*
X97433336Y-44455280D01*
X97445159Y-44464048D01*
X97456066Y-44473934D01*
X97465952Y-44484841D01*
X97474720Y-44496664D01*
X97482288Y-44509290D01*
X97488582Y-44522597D01*
X97493541Y-44536457D01*
X97497118Y-44550736D01*
X97499278Y-44565297D01*
X97500000Y-44580000D01*
X97500000Y-44880000D01*
X97499278Y-44894703D01*
X97497118Y-44909264D01*
X97493541Y-44923543D01*
X97488582Y-44937403D01*
X97482288Y-44950710D01*
X97474720Y-44963336D01*
X97465952Y-44975159D01*
X97456066Y-44986066D01*
X97445159Y-44995952D01*
X97433336Y-45004720D01*
X97420710Y-45012288D01*
X97407403Y-45018582D01*
X97393543Y-45023541D01*
X97379264Y-45027118D01*
X97364703Y-45029278D01*
X97350000Y-45030000D01*
X95700000Y-45030000D01*
X95685297Y-45029278D01*
X95670736Y-45027118D01*
X95656457Y-45023541D01*
X95642597Y-45018582D01*
X95629290Y-45012288D01*
X95616664Y-45004720D01*
X95604841Y-44995952D01*
X95593934Y-44986066D01*
X95584048Y-44975159D01*
X95575280Y-44963336D01*
X95567712Y-44950710D01*
X95561418Y-44937403D01*
X95556459Y-44923543D01*
X95552882Y-44909264D01*
X95550722Y-44894703D01*
X95550000Y-44880000D01*
X95550000Y-44580000D01*
X95550722Y-44565297D01*
X95552882Y-44550736D01*
X95556459Y-44536457D01*
X95561418Y-44522597D01*
X95567712Y-44509290D01*
X95575280Y-44496664D01*
X95584048Y-44484841D01*
X95593934Y-44473934D01*
X95604841Y-44464048D01*
X95616664Y-44455280D01*
X95629290Y-44447712D01*
X95642597Y-44441418D01*
X95656457Y-44436459D01*
X95670736Y-44432882D01*
X95685297Y-44430722D01*
X95700000Y-44430000D01*
X97350000Y-44430000D01*
X97364703Y-44430722D01*
X97364703Y-44430722D01*
G37*
D21*
X96525000Y-44730000D03*
D12*
G36*
X97364703Y-45700722D02*
G01*
X97379264Y-45702882D01*
X97393543Y-45706459D01*
X97407403Y-45711418D01*
X97420710Y-45717712D01*
X97433336Y-45725280D01*
X97445159Y-45734048D01*
X97456066Y-45743934D01*
X97465952Y-45754841D01*
X97474720Y-45766664D01*
X97482288Y-45779290D01*
X97488582Y-45792597D01*
X97493541Y-45806457D01*
X97497118Y-45820736D01*
X97499278Y-45835297D01*
X97500000Y-45850000D01*
X97500000Y-46150000D01*
X97499278Y-46164703D01*
X97497118Y-46179264D01*
X97493541Y-46193543D01*
X97488582Y-46207403D01*
X97482288Y-46220710D01*
X97474720Y-46233336D01*
X97465952Y-46245159D01*
X97456066Y-46256066D01*
X97445159Y-46265952D01*
X97433336Y-46274720D01*
X97420710Y-46282288D01*
X97407403Y-46288582D01*
X97393543Y-46293541D01*
X97379264Y-46297118D01*
X97364703Y-46299278D01*
X97350000Y-46300000D01*
X95700000Y-46300000D01*
X95685297Y-46299278D01*
X95670736Y-46297118D01*
X95656457Y-46293541D01*
X95642597Y-46288582D01*
X95629290Y-46282288D01*
X95616664Y-46274720D01*
X95604841Y-46265952D01*
X95593934Y-46256066D01*
X95584048Y-46245159D01*
X95575280Y-46233336D01*
X95567712Y-46220710D01*
X95561418Y-46207403D01*
X95556459Y-46193543D01*
X95552882Y-46179264D01*
X95550722Y-46164703D01*
X95550000Y-46150000D01*
X95550000Y-45850000D01*
X95550722Y-45835297D01*
X95552882Y-45820736D01*
X95556459Y-45806457D01*
X95561418Y-45792597D01*
X95567712Y-45779290D01*
X95575280Y-45766664D01*
X95584048Y-45754841D01*
X95593934Y-45743934D01*
X95604841Y-45734048D01*
X95616664Y-45725280D01*
X95629290Y-45717712D01*
X95642597Y-45711418D01*
X95656457Y-45706459D01*
X95670736Y-45702882D01*
X95685297Y-45700722D01*
X95700000Y-45700000D01*
X97350000Y-45700000D01*
X97364703Y-45700722D01*
X97364703Y-45700722D01*
G37*
D21*
X96525000Y-46000000D03*
D12*
G36*
X97364703Y-46970722D02*
G01*
X97379264Y-46972882D01*
X97393543Y-46976459D01*
X97407403Y-46981418D01*
X97420710Y-46987712D01*
X97433336Y-46995280D01*
X97445159Y-47004048D01*
X97456066Y-47013934D01*
X97465952Y-47024841D01*
X97474720Y-47036664D01*
X97482288Y-47049290D01*
X97488582Y-47062597D01*
X97493541Y-47076457D01*
X97497118Y-47090736D01*
X97499278Y-47105297D01*
X97500000Y-47120000D01*
X97500000Y-47420000D01*
X97499278Y-47434703D01*
X97497118Y-47449264D01*
X97493541Y-47463543D01*
X97488582Y-47477403D01*
X97482288Y-47490710D01*
X97474720Y-47503336D01*
X97465952Y-47515159D01*
X97456066Y-47526066D01*
X97445159Y-47535952D01*
X97433336Y-47544720D01*
X97420710Y-47552288D01*
X97407403Y-47558582D01*
X97393543Y-47563541D01*
X97379264Y-47567118D01*
X97364703Y-47569278D01*
X97350000Y-47570000D01*
X95700000Y-47570000D01*
X95685297Y-47569278D01*
X95670736Y-47567118D01*
X95656457Y-47563541D01*
X95642597Y-47558582D01*
X95629290Y-47552288D01*
X95616664Y-47544720D01*
X95604841Y-47535952D01*
X95593934Y-47526066D01*
X95584048Y-47515159D01*
X95575280Y-47503336D01*
X95567712Y-47490710D01*
X95561418Y-47477403D01*
X95556459Y-47463543D01*
X95552882Y-47449264D01*
X95550722Y-47434703D01*
X95550000Y-47420000D01*
X95550000Y-47120000D01*
X95550722Y-47105297D01*
X95552882Y-47090736D01*
X95556459Y-47076457D01*
X95561418Y-47062597D01*
X95567712Y-47049290D01*
X95575280Y-47036664D01*
X95584048Y-47024841D01*
X95593934Y-47013934D01*
X95604841Y-47004048D01*
X95616664Y-46995280D01*
X95629290Y-46987712D01*
X95642597Y-46981418D01*
X95656457Y-46976459D01*
X95670736Y-46972882D01*
X95685297Y-46970722D01*
X95700000Y-46970000D01*
X97350000Y-46970000D01*
X97364703Y-46970722D01*
X97364703Y-46970722D01*
G37*
D21*
X96525000Y-47270000D03*
D12*
G36*
X97364703Y-48240722D02*
G01*
X97379264Y-48242882D01*
X97393543Y-48246459D01*
X97407403Y-48251418D01*
X97420710Y-48257712D01*
X97433336Y-48265280D01*
X97445159Y-48274048D01*
X97456066Y-48283934D01*
X97465952Y-48294841D01*
X97474720Y-48306664D01*
X97482288Y-48319290D01*
X97488582Y-48332597D01*
X97493541Y-48346457D01*
X97497118Y-48360736D01*
X97499278Y-48375297D01*
X97500000Y-48390000D01*
X97500000Y-48690000D01*
X97499278Y-48704703D01*
X97497118Y-48719264D01*
X97493541Y-48733543D01*
X97488582Y-48747403D01*
X97482288Y-48760710D01*
X97474720Y-48773336D01*
X97465952Y-48785159D01*
X97456066Y-48796066D01*
X97445159Y-48805952D01*
X97433336Y-48814720D01*
X97420710Y-48822288D01*
X97407403Y-48828582D01*
X97393543Y-48833541D01*
X97379264Y-48837118D01*
X97364703Y-48839278D01*
X97350000Y-48840000D01*
X95700000Y-48840000D01*
X95685297Y-48839278D01*
X95670736Y-48837118D01*
X95656457Y-48833541D01*
X95642597Y-48828582D01*
X95629290Y-48822288D01*
X95616664Y-48814720D01*
X95604841Y-48805952D01*
X95593934Y-48796066D01*
X95584048Y-48785159D01*
X95575280Y-48773336D01*
X95567712Y-48760710D01*
X95561418Y-48747403D01*
X95556459Y-48733543D01*
X95552882Y-48719264D01*
X95550722Y-48704703D01*
X95550000Y-48690000D01*
X95550000Y-48390000D01*
X95550722Y-48375297D01*
X95552882Y-48360736D01*
X95556459Y-48346457D01*
X95561418Y-48332597D01*
X95567712Y-48319290D01*
X95575280Y-48306664D01*
X95584048Y-48294841D01*
X95593934Y-48283934D01*
X95604841Y-48274048D01*
X95616664Y-48265280D01*
X95629290Y-48257712D01*
X95642597Y-48251418D01*
X95656457Y-48246459D01*
X95670736Y-48242882D01*
X95685297Y-48240722D01*
X95700000Y-48240000D01*
X97350000Y-48240000D01*
X97364703Y-48240722D01*
X97364703Y-48240722D01*
G37*
D21*
X96525000Y-48540000D03*
D12*
G36*
X97364703Y-49510722D02*
G01*
X97379264Y-49512882D01*
X97393543Y-49516459D01*
X97407403Y-49521418D01*
X97420710Y-49527712D01*
X97433336Y-49535280D01*
X97445159Y-49544048D01*
X97456066Y-49553934D01*
X97465952Y-49564841D01*
X97474720Y-49576664D01*
X97482288Y-49589290D01*
X97488582Y-49602597D01*
X97493541Y-49616457D01*
X97497118Y-49630736D01*
X97499278Y-49645297D01*
X97500000Y-49660000D01*
X97500000Y-49960000D01*
X97499278Y-49974703D01*
X97497118Y-49989264D01*
X97493541Y-50003543D01*
X97488582Y-50017403D01*
X97482288Y-50030710D01*
X97474720Y-50043336D01*
X97465952Y-50055159D01*
X97456066Y-50066066D01*
X97445159Y-50075952D01*
X97433336Y-50084720D01*
X97420710Y-50092288D01*
X97407403Y-50098582D01*
X97393543Y-50103541D01*
X97379264Y-50107118D01*
X97364703Y-50109278D01*
X97350000Y-50110000D01*
X95700000Y-50110000D01*
X95685297Y-50109278D01*
X95670736Y-50107118D01*
X95656457Y-50103541D01*
X95642597Y-50098582D01*
X95629290Y-50092288D01*
X95616664Y-50084720D01*
X95604841Y-50075952D01*
X95593934Y-50066066D01*
X95584048Y-50055159D01*
X95575280Y-50043336D01*
X95567712Y-50030710D01*
X95561418Y-50017403D01*
X95556459Y-50003543D01*
X95552882Y-49989264D01*
X95550722Y-49974703D01*
X95550000Y-49960000D01*
X95550000Y-49660000D01*
X95550722Y-49645297D01*
X95552882Y-49630736D01*
X95556459Y-49616457D01*
X95561418Y-49602597D01*
X95567712Y-49589290D01*
X95575280Y-49576664D01*
X95584048Y-49564841D01*
X95593934Y-49553934D01*
X95604841Y-49544048D01*
X95616664Y-49535280D01*
X95629290Y-49527712D01*
X95642597Y-49521418D01*
X95656457Y-49516459D01*
X95670736Y-49512882D01*
X95685297Y-49510722D01*
X95700000Y-49510000D01*
X97350000Y-49510000D01*
X97364703Y-49510722D01*
X97364703Y-49510722D01*
G37*
D21*
X96525000Y-49810000D03*
D12*
G36*
X102314703Y-49510722D02*
G01*
X102329264Y-49512882D01*
X102343543Y-49516459D01*
X102357403Y-49521418D01*
X102370710Y-49527712D01*
X102383336Y-49535280D01*
X102395159Y-49544048D01*
X102406066Y-49553934D01*
X102415952Y-49564841D01*
X102424720Y-49576664D01*
X102432288Y-49589290D01*
X102438582Y-49602597D01*
X102443541Y-49616457D01*
X102447118Y-49630736D01*
X102449278Y-49645297D01*
X102450000Y-49660000D01*
X102450000Y-49960000D01*
X102449278Y-49974703D01*
X102447118Y-49989264D01*
X102443541Y-50003543D01*
X102438582Y-50017403D01*
X102432288Y-50030710D01*
X102424720Y-50043336D01*
X102415952Y-50055159D01*
X102406066Y-50066066D01*
X102395159Y-50075952D01*
X102383336Y-50084720D01*
X102370710Y-50092288D01*
X102357403Y-50098582D01*
X102343543Y-50103541D01*
X102329264Y-50107118D01*
X102314703Y-50109278D01*
X102300000Y-50110000D01*
X100650000Y-50110000D01*
X100635297Y-50109278D01*
X100620736Y-50107118D01*
X100606457Y-50103541D01*
X100592597Y-50098582D01*
X100579290Y-50092288D01*
X100566664Y-50084720D01*
X100554841Y-50075952D01*
X100543934Y-50066066D01*
X100534048Y-50055159D01*
X100525280Y-50043336D01*
X100517712Y-50030710D01*
X100511418Y-50017403D01*
X100506459Y-50003543D01*
X100502882Y-49989264D01*
X100500722Y-49974703D01*
X100500000Y-49960000D01*
X100500000Y-49660000D01*
X100500722Y-49645297D01*
X100502882Y-49630736D01*
X100506459Y-49616457D01*
X100511418Y-49602597D01*
X100517712Y-49589290D01*
X100525280Y-49576664D01*
X100534048Y-49564841D01*
X100543934Y-49553934D01*
X100554841Y-49544048D01*
X100566664Y-49535280D01*
X100579290Y-49527712D01*
X100592597Y-49521418D01*
X100606457Y-49516459D01*
X100620736Y-49512882D01*
X100635297Y-49510722D01*
X100650000Y-49510000D01*
X102300000Y-49510000D01*
X102314703Y-49510722D01*
X102314703Y-49510722D01*
G37*
D21*
X101475000Y-49810000D03*
D12*
G36*
X102314703Y-48240722D02*
G01*
X102329264Y-48242882D01*
X102343543Y-48246459D01*
X102357403Y-48251418D01*
X102370710Y-48257712D01*
X102383336Y-48265280D01*
X102395159Y-48274048D01*
X102406066Y-48283934D01*
X102415952Y-48294841D01*
X102424720Y-48306664D01*
X102432288Y-48319290D01*
X102438582Y-48332597D01*
X102443541Y-48346457D01*
X102447118Y-48360736D01*
X102449278Y-48375297D01*
X102450000Y-48390000D01*
X102450000Y-48690000D01*
X102449278Y-48704703D01*
X102447118Y-48719264D01*
X102443541Y-48733543D01*
X102438582Y-48747403D01*
X102432288Y-48760710D01*
X102424720Y-48773336D01*
X102415952Y-48785159D01*
X102406066Y-48796066D01*
X102395159Y-48805952D01*
X102383336Y-48814720D01*
X102370710Y-48822288D01*
X102357403Y-48828582D01*
X102343543Y-48833541D01*
X102329264Y-48837118D01*
X102314703Y-48839278D01*
X102300000Y-48840000D01*
X100650000Y-48840000D01*
X100635297Y-48839278D01*
X100620736Y-48837118D01*
X100606457Y-48833541D01*
X100592597Y-48828582D01*
X100579290Y-48822288D01*
X100566664Y-48814720D01*
X100554841Y-48805952D01*
X100543934Y-48796066D01*
X100534048Y-48785159D01*
X100525280Y-48773336D01*
X100517712Y-48760710D01*
X100511418Y-48747403D01*
X100506459Y-48733543D01*
X100502882Y-48719264D01*
X100500722Y-48704703D01*
X100500000Y-48690000D01*
X100500000Y-48390000D01*
X100500722Y-48375297D01*
X100502882Y-48360736D01*
X100506459Y-48346457D01*
X100511418Y-48332597D01*
X100517712Y-48319290D01*
X100525280Y-48306664D01*
X100534048Y-48294841D01*
X100543934Y-48283934D01*
X100554841Y-48274048D01*
X100566664Y-48265280D01*
X100579290Y-48257712D01*
X100592597Y-48251418D01*
X100606457Y-48246459D01*
X100620736Y-48242882D01*
X100635297Y-48240722D01*
X100650000Y-48240000D01*
X102300000Y-48240000D01*
X102314703Y-48240722D01*
X102314703Y-48240722D01*
G37*
D21*
X101475000Y-48540000D03*
D12*
G36*
X102314703Y-46970722D02*
G01*
X102329264Y-46972882D01*
X102343543Y-46976459D01*
X102357403Y-46981418D01*
X102370710Y-46987712D01*
X102383336Y-46995280D01*
X102395159Y-47004048D01*
X102406066Y-47013934D01*
X102415952Y-47024841D01*
X102424720Y-47036664D01*
X102432288Y-47049290D01*
X102438582Y-47062597D01*
X102443541Y-47076457D01*
X102447118Y-47090736D01*
X102449278Y-47105297D01*
X102450000Y-47120000D01*
X102450000Y-47420000D01*
X102449278Y-47434703D01*
X102447118Y-47449264D01*
X102443541Y-47463543D01*
X102438582Y-47477403D01*
X102432288Y-47490710D01*
X102424720Y-47503336D01*
X102415952Y-47515159D01*
X102406066Y-47526066D01*
X102395159Y-47535952D01*
X102383336Y-47544720D01*
X102370710Y-47552288D01*
X102357403Y-47558582D01*
X102343543Y-47563541D01*
X102329264Y-47567118D01*
X102314703Y-47569278D01*
X102300000Y-47570000D01*
X100650000Y-47570000D01*
X100635297Y-47569278D01*
X100620736Y-47567118D01*
X100606457Y-47563541D01*
X100592597Y-47558582D01*
X100579290Y-47552288D01*
X100566664Y-47544720D01*
X100554841Y-47535952D01*
X100543934Y-47526066D01*
X100534048Y-47515159D01*
X100525280Y-47503336D01*
X100517712Y-47490710D01*
X100511418Y-47477403D01*
X100506459Y-47463543D01*
X100502882Y-47449264D01*
X100500722Y-47434703D01*
X100500000Y-47420000D01*
X100500000Y-47120000D01*
X100500722Y-47105297D01*
X100502882Y-47090736D01*
X100506459Y-47076457D01*
X100511418Y-47062597D01*
X100517712Y-47049290D01*
X100525280Y-47036664D01*
X100534048Y-47024841D01*
X100543934Y-47013934D01*
X100554841Y-47004048D01*
X100566664Y-46995280D01*
X100579290Y-46987712D01*
X100592597Y-46981418D01*
X100606457Y-46976459D01*
X100620736Y-46972882D01*
X100635297Y-46970722D01*
X100650000Y-46970000D01*
X102300000Y-46970000D01*
X102314703Y-46970722D01*
X102314703Y-46970722D01*
G37*
D21*
X101475000Y-47270000D03*
D12*
G36*
X102314703Y-45700722D02*
G01*
X102329264Y-45702882D01*
X102343543Y-45706459D01*
X102357403Y-45711418D01*
X102370710Y-45717712D01*
X102383336Y-45725280D01*
X102395159Y-45734048D01*
X102406066Y-45743934D01*
X102415952Y-45754841D01*
X102424720Y-45766664D01*
X102432288Y-45779290D01*
X102438582Y-45792597D01*
X102443541Y-45806457D01*
X102447118Y-45820736D01*
X102449278Y-45835297D01*
X102450000Y-45850000D01*
X102450000Y-46150000D01*
X102449278Y-46164703D01*
X102447118Y-46179264D01*
X102443541Y-46193543D01*
X102438582Y-46207403D01*
X102432288Y-46220710D01*
X102424720Y-46233336D01*
X102415952Y-46245159D01*
X102406066Y-46256066D01*
X102395159Y-46265952D01*
X102383336Y-46274720D01*
X102370710Y-46282288D01*
X102357403Y-46288582D01*
X102343543Y-46293541D01*
X102329264Y-46297118D01*
X102314703Y-46299278D01*
X102300000Y-46300000D01*
X100650000Y-46300000D01*
X100635297Y-46299278D01*
X100620736Y-46297118D01*
X100606457Y-46293541D01*
X100592597Y-46288582D01*
X100579290Y-46282288D01*
X100566664Y-46274720D01*
X100554841Y-46265952D01*
X100543934Y-46256066D01*
X100534048Y-46245159D01*
X100525280Y-46233336D01*
X100517712Y-46220710D01*
X100511418Y-46207403D01*
X100506459Y-46193543D01*
X100502882Y-46179264D01*
X100500722Y-46164703D01*
X100500000Y-46150000D01*
X100500000Y-45850000D01*
X100500722Y-45835297D01*
X100502882Y-45820736D01*
X100506459Y-45806457D01*
X100511418Y-45792597D01*
X100517712Y-45779290D01*
X100525280Y-45766664D01*
X100534048Y-45754841D01*
X100543934Y-45743934D01*
X100554841Y-45734048D01*
X100566664Y-45725280D01*
X100579290Y-45717712D01*
X100592597Y-45711418D01*
X100606457Y-45706459D01*
X100620736Y-45702882D01*
X100635297Y-45700722D01*
X100650000Y-45700000D01*
X102300000Y-45700000D01*
X102314703Y-45700722D01*
X102314703Y-45700722D01*
G37*
D21*
X101475000Y-46000000D03*
D12*
G36*
X102314703Y-44430722D02*
G01*
X102329264Y-44432882D01*
X102343543Y-44436459D01*
X102357403Y-44441418D01*
X102370710Y-44447712D01*
X102383336Y-44455280D01*
X102395159Y-44464048D01*
X102406066Y-44473934D01*
X102415952Y-44484841D01*
X102424720Y-44496664D01*
X102432288Y-44509290D01*
X102438582Y-44522597D01*
X102443541Y-44536457D01*
X102447118Y-44550736D01*
X102449278Y-44565297D01*
X102450000Y-44580000D01*
X102450000Y-44880000D01*
X102449278Y-44894703D01*
X102447118Y-44909264D01*
X102443541Y-44923543D01*
X102438582Y-44937403D01*
X102432288Y-44950710D01*
X102424720Y-44963336D01*
X102415952Y-44975159D01*
X102406066Y-44986066D01*
X102395159Y-44995952D01*
X102383336Y-45004720D01*
X102370710Y-45012288D01*
X102357403Y-45018582D01*
X102343543Y-45023541D01*
X102329264Y-45027118D01*
X102314703Y-45029278D01*
X102300000Y-45030000D01*
X100650000Y-45030000D01*
X100635297Y-45029278D01*
X100620736Y-45027118D01*
X100606457Y-45023541D01*
X100592597Y-45018582D01*
X100579290Y-45012288D01*
X100566664Y-45004720D01*
X100554841Y-44995952D01*
X100543934Y-44986066D01*
X100534048Y-44975159D01*
X100525280Y-44963336D01*
X100517712Y-44950710D01*
X100511418Y-44937403D01*
X100506459Y-44923543D01*
X100502882Y-44909264D01*
X100500722Y-44894703D01*
X100500000Y-44880000D01*
X100500000Y-44580000D01*
X100500722Y-44565297D01*
X100502882Y-44550736D01*
X100506459Y-44536457D01*
X100511418Y-44522597D01*
X100517712Y-44509290D01*
X100525280Y-44496664D01*
X100534048Y-44484841D01*
X100543934Y-44473934D01*
X100554841Y-44464048D01*
X100566664Y-44455280D01*
X100579290Y-44447712D01*
X100592597Y-44441418D01*
X100606457Y-44436459D01*
X100620736Y-44432882D01*
X100635297Y-44430722D01*
X100650000Y-44430000D01*
X102300000Y-44430000D01*
X102314703Y-44430722D01*
X102314703Y-44430722D01*
G37*
D21*
X101475000Y-44730000D03*
D12*
G36*
X102314703Y-43160722D02*
G01*
X102329264Y-43162882D01*
X102343543Y-43166459D01*
X102357403Y-43171418D01*
X102370710Y-43177712D01*
X102383336Y-43185280D01*
X102395159Y-43194048D01*
X102406066Y-43203934D01*
X102415952Y-43214841D01*
X102424720Y-43226664D01*
X102432288Y-43239290D01*
X102438582Y-43252597D01*
X102443541Y-43266457D01*
X102447118Y-43280736D01*
X102449278Y-43295297D01*
X102450000Y-43310000D01*
X102450000Y-43610000D01*
X102449278Y-43624703D01*
X102447118Y-43639264D01*
X102443541Y-43653543D01*
X102438582Y-43667403D01*
X102432288Y-43680710D01*
X102424720Y-43693336D01*
X102415952Y-43705159D01*
X102406066Y-43716066D01*
X102395159Y-43725952D01*
X102383336Y-43734720D01*
X102370710Y-43742288D01*
X102357403Y-43748582D01*
X102343543Y-43753541D01*
X102329264Y-43757118D01*
X102314703Y-43759278D01*
X102300000Y-43760000D01*
X100650000Y-43760000D01*
X100635297Y-43759278D01*
X100620736Y-43757118D01*
X100606457Y-43753541D01*
X100592597Y-43748582D01*
X100579290Y-43742288D01*
X100566664Y-43734720D01*
X100554841Y-43725952D01*
X100543934Y-43716066D01*
X100534048Y-43705159D01*
X100525280Y-43693336D01*
X100517712Y-43680710D01*
X100511418Y-43667403D01*
X100506459Y-43653543D01*
X100502882Y-43639264D01*
X100500722Y-43624703D01*
X100500000Y-43610000D01*
X100500000Y-43310000D01*
X100500722Y-43295297D01*
X100502882Y-43280736D01*
X100506459Y-43266457D01*
X100511418Y-43252597D01*
X100517712Y-43239290D01*
X100525280Y-43226664D01*
X100534048Y-43214841D01*
X100543934Y-43203934D01*
X100554841Y-43194048D01*
X100566664Y-43185280D01*
X100579290Y-43177712D01*
X100592597Y-43171418D01*
X100606457Y-43166459D01*
X100620736Y-43162882D01*
X100635297Y-43160722D01*
X100650000Y-43160000D01*
X102300000Y-43160000D01*
X102314703Y-43160722D01*
X102314703Y-43160722D01*
G37*
D21*
X101475000Y-43460000D03*
D12*
G36*
X102314703Y-41890722D02*
G01*
X102329264Y-41892882D01*
X102343543Y-41896459D01*
X102357403Y-41901418D01*
X102370710Y-41907712D01*
X102383336Y-41915280D01*
X102395159Y-41924048D01*
X102406066Y-41933934D01*
X102415952Y-41944841D01*
X102424720Y-41956664D01*
X102432288Y-41969290D01*
X102438582Y-41982597D01*
X102443541Y-41996457D01*
X102447118Y-42010736D01*
X102449278Y-42025297D01*
X102450000Y-42040000D01*
X102450000Y-42340000D01*
X102449278Y-42354703D01*
X102447118Y-42369264D01*
X102443541Y-42383543D01*
X102438582Y-42397403D01*
X102432288Y-42410710D01*
X102424720Y-42423336D01*
X102415952Y-42435159D01*
X102406066Y-42446066D01*
X102395159Y-42455952D01*
X102383336Y-42464720D01*
X102370710Y-42472288D01*
X102357403Y-42478582D01*
X102343543Y-42483541D01*
X102329264Y-42487118D01*
X102314703Y-42489278D01*
X102300000Y-42490000D01*
X100650000Y-42490000D01*
X100635297Y-42489278D01*
X100620736Y-42487118D01*
X100606457Y-42483541D01*
X100592597Y-42478582D01*
X100579290Y-42472288D01*
X100566664Y-42464720D01*
X100554841Y-42455952D01*
X100543934Y-42446066D01*
X100534048Y-42435159D01*
X100525280Y-42423336D01*
X100517712Y-42410710D01*
X100511418Y-42397403D01*
X100506459Y-42383543D01*
X100502882Y-42369264D01*
X100500722Y-42354703D01*
X100500000Y-42340000D01*
X100500000Y-42040000D01*
X100500722Y-42025297D01*
X100502882Y-42010736D01*
X100506459Y-41996457D01*
X100511418Y-41982597D01*
X100517712Y-41969290D01*
X100525280Y-41956664D01*
X100534048Y-41944841D01*
X100543934Y-41933934D01*
X100554841Y-41924048D01*
X100566664Y-41915280D01*
X100579290Y-41907712D01*
X100592597Y-41901418D01*
X100606457Y-41896459D01*
X100620736Y-41892882D01*
X100635297Y-41890722D01*
X100650000Y-41890000D01*
X102300000Y-41890000D01*
X102314703Y-41890722D01*
X102314703Y-41890722D01*
G37*
D21*
X101475000Y-42190000D03*
D12*
G36*
X82460191Y-51596053D02*
G01*
X82481426Y-51599203D01*
X82502250Y-51604419D01*
X82522462Y-51611651D01*
X82541868Y-51620830D01*
X82560281Y-51631866D01*
X82577524Y-51644654D01*
X82593430Y-51659070D01*
X82607846Y-51674976D01*
X82620634Y-51692219D01*
X82631670Y-51710632D01*
X82640849Y-51730038D01*
X82648081Y-51750250D01*
X82653297Y-51771074D01*
X82656447Y-51792309D01*
X82657500Y-51813750D01*
X82657500Y-52326250D01*
X82656447Y-52347691D01*
X82653297Y-52368926D01*
X82648081Y-52389750D01*
X82640849Y-52409962D01*
X82631670Y-52429368D01*
X82620634Y-52447781D01*
X82607846Y-52465024D01*
X82593430Y-52480930D01*
X82577524Y-52495346D01*
X82560281Y-52508134D01*
X82541868Y-52519170D01*
X82522462Y-52528349D01*
X82502250Y-52535581D01*
X82481426Y-52540797D01*
X82460191Y-52543947D01*
X82438750Y-52545000D01*
X82001250Y-52545000D01*
X81979809Y-52543947D01*
X81958574Y-52540797D01*
X81937750Y-52535581D01*
X81917538Y-52528349D01*
X81898132Y-52519170D01*
X81879719Y-52508134D01*
X81862476Y-52495346D01*
X81846570Y-52480930D01*
X81832154Y-52465024D01*
X81819366Y-52447781D01*
X81808330Y-52429368D01*
X81799151Y-52409962D01*
X81791919Y-52389750D01*
X81786703Y-52368926D01*
X81783553Y-52347691D01*
X81782500Y-52326250D01*
X81782500Y-51813750D01*
X81783553Y-51792309D01*
X81786703Y-51771074D01*
X81791919Y-51750250D01*
X81799151Y-51730038D01*
X81808330Y-51710632D01*
X81819366Y-51692219D01*
X81832154Y-51674976D01*
X81846570Y-51659070D01*
X81862476Y-51644654D01*
X81879719Y-51631866D01*
X81898132Y-51620830D01*
X81917538Y-51611651D01*
X81937750Y-51604419D01*
X81958574Y-51599203D01*
X81979809Y-51596053D01*
X82001250Y-51595000D01*
X82438750Y-51595000D01*
X82460191Y-51596053D01*
X82460191Y-51596053D01*
G37*
D16*
X82220000Y-52070000D03*
D12*
G36*
X80885191Y-51596053D02*
G01*
X80906426Y-51599203D01*
X80927250Y-51604419D01*
X80947462Y-51611651D01*
X80966868Y-51620830D01*
X80985281Y-51631866D01*
X81002524Y-51644654D01*
X81018430Y-51659070D01*
X81032846Y-51674976D01*
X81045634Y-51692219D01*
X81056670Y-51710632D01*
X81065849Y-51730038D01*
X81073081Y-51750250D01*
X81078297Y-51771074D01*
X81081447Y-51792309D01*
X81082500Y-51813750D01*
X81082500Y-52326250D01*
X81081447Y-52347691D01*
X81078297Y-52368926D01*
X81073081Y-52389750D01*
X81065849Y-52409962D01*
X81056670Y-52429368D01*
X81045634Y-52447781D01*
X81032846Y-52465024D01*
X81018430Y-52480930D01*
X81002524Y-52495346D01*
X80985281Y-52508134D01*
X80966868Y-52519170D01*
X80947462Y-52528349D01*
X80927250Y-52535581D01*
X80906426Y-52540797D01*
X80885191Y-52543947D01*
X80863750Y-52545000D01*
X80426250Y-52545000D01*
X80404809Y-52543947D01*
X80383574Y-52540797D01*
X80362750Y-52535581D01*
X80342538Y-52528349D01*
X80323132Y-52519170D01*
X80304719Y-52508134D01*
X80287476Y-52495346D01*
X80271570Y-52480930D01*
X80257154Y-52465024D01*
X80244366Y-52447781D01*
X80233330Y-52429368D01*
X80224151Y-52409962D01*
X80216919Y-52389750D01*
X80211703Y-52368926D01*
X80208553Y-52347691D01*
X80207500Y-52326250D01*
X80207500Y-51813750D01*
X80208553Y-51792309D01*
X80211703Y-51771074D01*
X80216919Y-51750250D01*
X80224151Y-51730038D01*
X80233330Y-51710632D01*
X80244366Y-51692219D01*
X80257154Y-51674976D01*
X80271570Y-51659070D01*
X80287476Y-51644654D01*
X80304719Y-51631866D01*
X80323132Y-51620830D01*
X80342538Y-51611651D01*
X80362750Y-51604419D01*
X80383574Y-51599203D01*
X80404809Y-51596053D01*
X80426250Y-51595000D01*
X80863750Y-51595000D01*
X80885191Y-51596053D01*
X80885191Y-51596053D01*
G37*
D16*
X80645000Y-52070000D03*
D12*
G36*
X117777691Y-54988553D02*
G01*
X117798926Y-54991703D01*
X117819750Y-54996919D01*
X117839962Y-55004151D01*
X117859368Y-55013330D01*
X117877781Y-55024366D01*
X117895024Y-55037154D01*
X117910930Y-55051570D01*
X117925346Y-55067476D01*
X117938134Y-55084719D01*
X117949170Y-55103132D01*
X117958349Y-55122538D01*
X117965581Y-55142750D01*
X117970797Y-55163574D01*
X117973947Y-55184809D01*
X117975000Y-55206250D01*
X117975000Y-55643750D01*
X117973947Y-55665191D01*
X117970797Y-55686426D01*
X117965581Y-55707250D01*
X117958349Y-55727462D01*
X117949170Y-55746868D01*
X117938134Y-55765281D01*
X117925346Y-55782524D01*
X117910930Y-55798430D01*
X117895024Y-55812846D01*
X117877781Y-55825634D01*
X117859368Y-55836670D01*
X117839962Y-55845849D01*
X117819750Y-55853081D01*
X117798926Y-55858297D01*
X117777691Y-55861447D01*
X117756250Y-55862500D01*
X117243750Y-55862500D01*
X117222309Y-55861447D01*
X117201074Y-55858297D01*
X117180250Y-55853081D01*
X117160038Y-55845849D01*
X117140632Y-55836670D01*
X117122219Y-55825634D01*
X117104976Y-55812846D01*
X117089070Y-55798430D01*
X117074654Y-55782524D01*
X117061866Y-55765281D01*
X117050830Y-55746868D01*
X117041651Y-55727462D01*
X117034419Y-55707250D01*
X117029203Y-55686426D01*
X117026053Y-55665191D01*
X117025000Y-55643750D01*
X117025000Y-55206250D01*
X117026053Y-55184809D01*
X117029203Y-55163574D01*
X117034419Y-55142750D01*
X117041651Y-55122538D01*
X117050830Y-55103132D01*
X117061866Y-55084719D01*
X117074654Y-55067476D01*
X117089070Y-55051570D01*
X117104976Y-55037154D01*
X117122219Y-55024366D01*
X117140632Y-55013330D01*
X117160038Y-55004151D01*
X117180250Y-54996919D01*
X117201074Y-54991703D01*
X117222309Y-54988553D01*
X117243750Y-54987500D01*
X117756250Y-54987500D01*
X117777691Y-54988553D01*
X117777691Y-54988553D01*
G37*
D16*
X117500000Y-55425000D03*
D12*
G36*
X117777691Y-56563553D02*
G01*
X117798926Y-56566703D01*
X117819750Y-56571919D01*
X117839962Y-56579151D01*
X117859368Y-56588330D01*
X117877781Y-56599366D01*
X117895024Y-56612154D01*
X117910930Y-56626570D01*
X117925346Y-56642476D01*
X117938134Y-56659719D01*
X117949170Y-56678132D01*
X117958349Y-56697538D01*
X117965581Y-56717750D01*
X117970797Y-56738574D01*
X117973947Y-56759809D01*
X117975000Y-56781250D01*
X117975000Y-57218750D01*
X117973947Y-57240191D01*
X117970797Y-57261426D01*
X117965581Y-57282250D01*
X117958349Y-57302462D01*
X117949170Y-57321868D01*
X117938134Y-57340281D01*
X117925346Y-57357524D01*
X117910930Y-57373430D01*
X117895024Y-57387846D01*
X117877781Y-57400634D01*
X117859368Y-57411670D01*
X117839962Y-57420849D01*
X117819750Y-57428081D01*
X117798926Y-57433297D01*
X117777691Y-57436447D01*
X117756250Y-57437500D01*
X117243750Y-57437500D01*
X117222309Y-57436447D01*
X117201074Y-57433297D01*
X117180250Y-57428081D01*
X117160038Y-57420849D01*
X117140632Y-57411670D01*
X117122219Y-57400634D01*
X117104976Y-57387846D01*
X117089070Y-57373430D01*
X117074654Y-57357524D01*
X117061866Y-57340281D01*
X117050830Y-57321868D01*
X117041651Y-57302462D01*
X117034419Y-57282250D01*
X117029203Y-57261426D01*
X117026053Y-57240191D01*
X117025000Y-57218750D01*
X117025000Y-56781250D01*
X117026053Y-56759809D01*
X117029203Y-56738574D01*
X117034419Y-56717750D01*
X117041651Y-56697538D01*
X117050830Y-56678132D01*
X117061866Y-56659719D01*
X117074654Y-56642476D01*
X117089070Y-56626570D01*
X117104976Y-56612154D01*
X117122219Y-56599366D01*
X117140632Y-56588330D01*
X117160038Y-56579151D01*
X117180250Y-56571919D01*
X117201074Y-56566703D01*
X117222309Y-56563553D01*
X117243750Y-56562500D01*
X117756250Y-56562500D01*
X117777691Y-56563553D01*
X117777691Y-56563553D01*
G37*
D16*
X117500000Y-57000000D03*
D18*
X139065000Y-57785000D03*
D19*
X136525000Y-57785000D03*
X133985000Y-57785000D03*
X131445000Y-57785000D03*
X128905000Y-57785000D03*
D12*
G36*
X105345191Y-38896053D02*
G01*
X105366426Y-38899203D01*
X105387250Y-38904419D01*
X105407462Y-38911651D01*
X105426868Y-38920830D01*
X105445281Y-38931866D01*
X105462524Y-38944654D01*
X105478430Y-38959070D01*
X105492846Y-38974976D01*
X105505634Y-38992219D01*
X105516670Y-39010632D01*
X105525849Y-39030038D01*
X105533081Y-39050250D01*
X105538297Y-39071074D01*
X105541447Y-39092309D01*
X105542500Y-39113750D01*
X105542500Y-39626250D01*
X105541447Y-39647691D01*
X105538297Y-39668926D01*
X105533081Y-39689750D01*
X105525849Y-39709962D01*
X105516670Y-39729368D01*
X105505634Y-39747781D01*
X105492846Y-39765024D01*
X105478430Y-39780930D01*
X105462524Y-39795346D01*
X105445281Y-39808134D01*
X105426868Y-39819170D01*
X105407462Y-39828349D01*
X105387250Y-39835581D01*
X105366426Y-39840797D01*
X105345191Y-39843947D01*
X105323750Y-39845000D01*
X104886250Y-39845000D01*
X104864809Y-39843947D01*
X104843574Y-39840797D01*
X104822750Y-39835581D01*
X104802538Y-39828349D01*
X104783132Y-39819170D01*
X104764719Y-39808134D01*
X104747476Y-39795346D01*
X104731570Y-39780930D01*
X104717154Y-39765024D01*
X104704366Y-39747781D01*
X104693330Y-39729368D01*
X104684151Y-39709962D01*
X104676919Y-39689750D01*
X104671703Y-39668926D01*
X104668553Y-39647691D01*
X104667500Y-39626250D01*
X104667500Y-39113750D01*
X104668553Y-39092309D01*
X104671703Y-39071074D01*
X104676919Y-39050250D01*
X104684151Y-39030038D01*
X104693330Y-39010632D01*
X104704366Y-38992219D01*
X104717154Y-38974976D01*
X104731570Y-38959070D01*
X104747476Y-38944654D01*
X104764719Y-38931866D01*
X104783132Y-38920830D01*
X104802538Y-38911651D01*
X104822750Y-38904419D01*
X104843574Y-38899203D01*
X104864809Y-38896053D01*
X104886250Y-38895000D01*
X105323750Y-38895000D01*
X105345191Y-38896053D01*
X105345191Y-38896053D01*
G37*
D16*
X105105000Y-39370000D03*
D12*
G36*
X106920191Y-38896053D02*
G01*
X106941426Y-38899203D01*
X106962250Y-38904419D01*
X106982462Y-38911651D01*
X107001868Y-38920830D01*
X107020281Y-38931866D01*
X107037524Y-38944654D01*
X107053430Y-38959070D01*
X107067846Y-38974976D01*
X107080634Y-38992219D01*
X107091670Y-39010632D01*
X107100849Y-39030038D01*
X107108081Y-39050250D01*
X107113297Y-39071074D01*
X107116447Y-39092309D01*
X107117500Y-39113750D01*
X107117500Y-39626250D01*
X107116447Y-39647691D01*
X107113297Y-39668926D01*
X107108081Y-39689750D01*
X107100849Y-39709962D01*
X107091670Y-39729368D01*
X107080634Y-39747781D01*
X107067846Y-39765024D01*
X107053430Y-39780930D01*
X107037524Y-39795346D01*
X107020281Y-39808134D01*
X107001868Y-39819170D01*
X106982462Y-39828349D01*
X106962250Y-39835581D01*
X106941426Y-39840797D01*
X106920191Y-39843947D01*
X106898750Y-39845000D01*
X106461250Y-39845000D01*
X106439809Y-39843947D01*
X106418574Y-39840797D01*
X106397750Y-39835581D01*
X106377538Y-39828349D01*
X106358132Y-39819170D01*
X106339719Y-39808134D01*
X106322476Y-39795346D01*
X106306570Y-39780930D01*
X106292154Y-39765024D01*
X106279366Y-39747781D01*
X106268330Y-39729368D01*
X106259151Y-39709962D01*
X106251919Y-39689750D01*
X106246703Y-39668926D01*
X106243553Y-39647691D01*
X106242500Y-39626250D01*
X106242500Y-39113750D01*
X106243553Y-39092309D01*
X106246703Y-39071074D01*
X106251919Y-39050250D01*
X106259151Y-39030038D01*
X106268330Y-39010632D01*
X106279366Y-38992219D01*
X106292154Y-38974976D01*
X106306570Y-38959070D01*
X106322476Y-38944654D01*
X106339719Y-38931866D01*
X106358132Y-38920830D01*
X106377538Y-38911651D01*
X106397750Y-38904419D01*
X106418574Y-38899203D01*
X106439809Y-38896053D01*
X106461250Y-38895000D01*
X106898750Y-38895000D01*
X106920191Y-38896053D01*
X106920191Y-38896053D01*
G37*
D16*
X106680000Y-39370000D03*
D12*
G36*
X99965191Y-38896053D02*
G01*
X99986426Y-38899203D01*
X100007250Y-38904419D01*
X100027462Y-38911651D01*
X100046868Y-38920830D01*
X100065281Y-38931866D01*
X100082524Y-38944654D01*
X100098430Y-38959070D01*
X100112846Y-38974976D01*
X100125634Y-38992219D01*
X100136670Y-39010632D01*
X100145849Y-39030038D01*
X100153081Y-39050250D01*
X100158297Y-39071074D01*
X100161447Y-39092309D01*
X100162500Y-39113750D01*
X100162500Y-39626250D01*
X100161447Y-39647691D01*
X100158297Y-39668926D01*
X100153081Y-39689750D01*
X100145849Y-39709962D01*
X100136670Y-39729368D01*
X100125634Y-39747781D01*
X100112846Y-39765024D01*
X100098430Y-39780930D01*
X100082524Y-39795346D01*
X100065281Y-39808134D01*
X100046868Y-39819170D01*
X100027462Y-39828349D01*
X100007250Y-39835581D01*
X99986426Y-39840797D01*
X99965191Y-39843947D01*
X99943750Y-39845000D01*
X99506250Y-39845000D01*
X99484809Y-39843947D01*
X99463574Y-39840797D01*
X99442750Y-39835581D01*
X99422538Y-39828349D01*
X99403132Y-39819170D01*
X99384719Y-39808134D01*
X99367476Y-39795346D01*
X99351570Y-39780930D01*
X99337154Y-39765024D01*
X99324366Y-39747781D01*
X99313330Y-39729368D01*
X99304151Y-39709962D01*
X99296919Y-39689750D01*
X99291703Y-39668926D01*
X99288553Y-39647691D01*
X99287500Y-39626250D01*
X99287500Y-39113750D01*
X99288553Y-39092309D01*
X99291703Y-39071074D01*
X99296919Y-39050250D01*
X99304151Y-39030038D01*
X99313330Y-39010632D01*
X99324366Y-38992219D01*
X99337154Y-38974976D01*
X99351570Y-38959070D01*
X99367476Y-38944654D01*
X99384719Y-38931866D01*
X99403132Y-38920830D01*
X99422538Y-38911651D01*
X99442750Y-38904419D01*
X99463574Y-38899203D01*
X99484809Y-38896053D01*
X99506250Y-38895000D01*
X99943750Y-38895000D01*
X99965191Y-38896053D01*
X99965191Y-38896053D01*
G37*
D16*
X99725000Y-39370000D03*
D12*
G36*
X98390191Y-38896053D02*
G01*
X98411426Y-38899203D01*
X98432250Y-38904419D01*
X98452462Y-38911651D01*
X98471868Y-38920830D01*
X98490281Y-38931866D01*
X98507524Y-38944654D01*
X98523430Y-38959070D01*
X98537846Y-38974976D01*
X98550634Y-38992219D01*
X98561670Y-39010632D01*
X98570849Y-39030038D01*
X98578081Y-39050250D01*
X98583297Y-39071074D01*
X98586447Y-39092309D01*
X98587500Y-39113750D01*
X98587500Y-39626250D01*
X98586447Y-39647691D01*
X98583297Y-39668926D01*
X98578081Y-39689750D01*
X98570849Y-39709962D01*
X98561670Y-39729368D01*
X98550634Y-39747781D01*
X98537846Y-39765024D01*
X98523430Y-39780930D01*
X98507524Y-39795346D01*
X98490281Y-39808134D01*
X98471868Y-39819170D01*
X98452462Y-39828349D01*
X98432250Y-39835581D01*
X98411426Y-39840797D01*
X98390191Y-39843947D01*
X98368750Y-39845000D01*
X97931250Y-39845000D01*
X97909809Y-39843947D01*
X97888574Y-39840797D01*
X97867750Y-39835581D01*
X97847538Y-39828349D01*
X97828132Y-39819170D01*
X97809719Y-39808134D01*
X97792476Y-39795346D01*
X97776570Y-39780930D01*
X97762154Y-39765024D01*
X97749366Y-39747781D01*
X97738330Y-39729368D01*
X97729151Y-39709962D01*
X97721919Y-39689750D01*
X97716703Y-39668926D01*
X97713553Y-39647691D01*
X97712500Y-39626250D01*
X97712500Y-39113750D01*
X97713553Y-39092309D01*
X97716703Y-39071074D01*
X97721919Y-39050250D01*
X97729151Y-39030038D01*
X97738330Y-39010632D01*
X97749366Y-38992219D01*
X97762154Y-38974976D01*
X97776570Y-38959070D01*
X97792476Y-38944654D01*
X97809719Y-38931866D01*
X97828132Y-38920830D01*
X97847538Y-38911651D01*
X97867750Y-38904419D01*
X97888574Y-38899203D01*
X97909809Y-38896053D01*
X97931250Y-38895000D01*
X98368750Y-38895000D01*
X98390191Y-38896053D01*
X98390191Y-38896053D01*
G37*
D16*
X98150000Y-39370000D03*
D12*
G36*
X105052691Y-42743553D02*
G01*
X105073926Y-42746703D01*
X105094750Y-42751919D01*
X105114962Y-42759151D01*
X105134368Y-42768330D01*
X105152781Y-42779366D01*
X105170024Y-42792154D01*
X105185930Y-42806570D01*
X105200346Y-42822476D01*
X105213134Y-42839719D01*
X105224170Y-42858132D01*
X105233349Y-42877538D01*
X105240581Y-42897750D01*
X105245797Y-42918574D01*
X105248947Y-42939809D01*
X105250000Y-42961250D01*
X105250000Y-43398750D01*
X105248947Y-43420191D01*
X105245797Y-43441426D01*
X105240581Y-43462250D01*
X105233349Y-43482462D01*
X105224170Y-43501868D01*
X105213134Y-43520281D01*
X105200346Y-43537524D01*
X105185930Y-43553430D01*
X105170024Y-43567846D01*
X105152781Y-43580634D01*
X105134368Y-43591670D01*
X105114962Y-43600849D01*
X105094750Y-43608081D01*
X105073926Y-43613297D01*
X105052691Y-43616447D01*
X105031250Y-43617500D01*
X104518750Y-43617500D01*
X104497309Y-43616447D01*
X104476074Y-43613297D01*
X104455250Y-43608081D01*
X104435038Y-43600849D01*
X104415632Y-43591670D01*
X104397219Y-43580634D01*
X104379976Y-43567846D01*
X104364070Y-43553430D01*
X104349654Y-43537524D01*
X104336866Y-43520281D01*
X104325830Y-43501868D01*
X104316651Y-43482462D01*
X104309419Y-43462250D01*
X104304203Y-43441426D01*
X104301053Y-43420191D01*
X104300000Y-43398750D01*
X104300000Y-42961250D01*
X104301053Y-42939809D01*
X104304203Y-42918574D01*
X104309419Y-42897750D01*
X104316651Y-42877538D01*
X104325830Y-42858132D01*
X104336866Y-42839719D01*
X104349654Y-42822476D01*
X104364070Y-42806570D01*
X104379976Y-42792154D01*
X104397219Y-42779366D01*
X104415632Y-42768330D01*
X104435038Y-42759151D01*
X104455250Y-42751919D01*
X104476074Y-42746703D01*
X104497309Y-42743553D01*
X104518750Y-42742500D01*
X105031250Y-42742500D01*
X105052691Y-42743553D01*
X105052691Y-42743553D01*
G37*
D16*
X104775000Y-43180000D03*
D12*
G36*
X105052691Y-41168553D02*
G01*
X105073926Y-41171703D01*
X105094750Y-41176919D01*
X105114962Y-41184151D01*
X105134368Y-41193330D01*
X105152781Y-41204366D01*
X105170024Y-41217154D01*
X105185930Y-41231570D01*
X105200346Y-41247476D01*
X105213134Y-41264719D01*
X105224170Y-41283132D01*
X105233349Y-41302538D01*
X105240581Y-41322750D01*
X105245797Y-41343574D01*
X105248947Y-41364809D01*
X105250000Y-41386250D01*
X105250000Y-41823750D01*
X105248947Y-41845191D01*
X105245797Y-41866426D01*
X105240581Y-41887250D01*
X105233349Y-41907462D01*
X105224170Y-41926868D01*
X105213134Y-41945281D01*
X105200346Y-41962524D01*
X105185930Y-41978430D01*
X105170024Y-41992846D01*
X105152781Y-42005634D01*
X105134368Y-42016670D01*
X105114962Y-42025849D01*
X105094750Y-42033081D01*
X105073926Y-42038297D01*
X105052691Y-42041447D01*
X105031250Y-42042500D01*
X104518750Y-42042500D01*
X104497309Y-42041447D01*
X104476074Y-42038297D01*
X104455250Y-42033081D01*
X104435038Y-42025849D01*
X104415632Y-42016670D01*
X104397219Y-42005634D01*
X104379976Y-41992846D01*
X104364070Y-41978430D01*
X104349654Y-41962524D01*
X104336866Y-41945281D01*
X104325830Y-41926868D01*
X104316651Y-41907462D01*
X104309419Y-41887250D01*
X104304203Y-41866426D01*
X104301053Y-41845191D01*
X104300000Y-41823750D01*
X104300000Y-41386250D01*
X104301053Y-41364809D01*
X104304203Y-41343574D01*
X104309419Y-41322750D01*
X104316651Y-41302538D01*
X104325830Y-41283132D01*
X104336866Y-41264719D01*
X104349654Y-41247476D01*
X104364070Y-41231570D01*
X104379976Y-41217154D01*
X104397219Y-41204366D01*
X104415632Y-41193330D01*
X104435038Y-41184151D01*
X104455250Y-41176919D01*
X104476074Y-41171703D01*
X104497309Y-41168553D01*
X104518750Y-41167500D01*
X105031250Y-41167500D01*
X105052691Y-41168553D01*
X105052691Y-41168553D01*
G37*
D16*
X104775000Y-41605000D03*
D12*
G36*
X87777691Y-55488553D02*
G01*
X87798926Y-55491703D01*
X87819750Y-55496919D01*
X87839962Y-55504151D01*
X87859368Y-55513330D01*
X87877781Y-55524366D01*
X87895024Y-55537154D01*
X87910930Y-55551570D01*
X87925346Y-55567476D01*
X87938134Y-55584719D01*
X87949170Y-55603132D01*
X87958349Y-55622538D01*
X87965581Y-55642750D01*
X87970797Y-55663574D01*
X87973947Y-55684809D01*
X87975000Y-55706250D01*
X87975000Y-56143750D01*
X87973947Y-56165191D01*
X87970797Y-56186426D01*
X87965581Y-56207250D01*
X87958349Y-56227462D01*
X87949170Y-56246868D01*
X87938134Y-56265281D01*
X87925346Y-56282524D01*
X87910930Y-56298430D01*
X87895024Y-56312846D01*
X87877781Y-56325634D01*
X87859368Y-56336670D01*
X87839962Y-56345849D01*
X87819750Y-56353081D01*
X87798926Y-56358297D01*
X87777691Y-56361447D01*
X87756250Y-56362500D01*
X87243750Y-56362500D01*
X87222309Y-56361447D01*
X87201074Y-56358297D01*
X87180250Y-56353081D01*
X87160038Y-56345849D01*
X87140632Y-56336670D01*
X87122219Y-56325634D01*
X87104976Y-56312846D01*
X87089070Y-56298430D01*
X87074654Y-56282524D01*
X87061866Y-56265281D01*
X87050830Y-56246868D01*
X87041651Y-56227462D01*
X87034419Y-56207250D01*
X87029203Y-56186426D01*
X87026053Y-56165191D01*
X87025000Y-56143750D01*
X87025000Y-55706250D01*
X87026053Y-55684809D01*
X87029203Y-55663574D01*
X87034419Y-55642750D01*
X87041651Y-55622538D01*
X87050830Y-55603132D01*
X87061866Y-55584719D01*
X87074654Y-55567476D01*
X87089070Y-55551570D01*
X87104976Y-55537154D01*
X87122219Y-55524366D01*
X87140632Y-55513330D01*
X87160038Y-55504151D01*
X87180250Y-55496919D01*
X87201074Y-55491703D01*
X87222309Y-55488553D01*
X87243750Y-55487500D01*
X87756250Y-55487500D01*
X87777691Y-55488553D01*
X87777691Y-55488553D01*
G37*
D16*
X87500000Y-55925000D03*
D12*
G36*
X87777691Y-57063553D02*
G01*
X87798926Y-57066703D01*
X87819750Y-57071919D01*
X87839962Y-57079151D01*
X87859368Y-57088330D01*
X87877781Y-57099366D01*
X87895024Y-57112154D01*
X87910930Y-57126570D01*
X87925346Y-57142476D01*
X87938134Y-57159719D01*
X87949170Y-57178132D01*
X87958349Y-57197538D01*
X87965581Y-57217750D01*
X87970797Y-57238574D01*
X87973947Y-57259809D01*
X87975000Y-57281250D01*
X87975000Y-57718750D01*
X87973947Y-57740191D01*
X87970797Y-57761426D01*
X87965581Y-57782250D01*
X87958349Y-57802462D01*
X87949170Y-57821868D01*
X87938134Y-57840281D01*
X87925346Y-57857524D01*
X87910930Y-57873430D01*
X87895024Y-57887846D01*
X87877781Y-57900634D01*
X87859368Y-57911670D01*
X87839962Y-57920849D01*
X87819750Y-57928081D01*
X87798926Y-57933297D01*
X87777691Y-57936447D01*
X87756250Y-57937500D01*
X87243750Y-57937500D01*
X87222309Y-57936447D01*
X87201074Y-57933297D01*
X87180250Y-57928081D01*
X87160038Y-57920849D01*
X87140632Y-57911670D01*
X87122219Y-57900634D01*
X87104976Y-57887846D01*
X87089070Y-57873430D01*
X87074654Y-57857524D01*
X87061866Y-57840281D01*
X87050830Y-57821868D01*
X87041651Y-57802462D01*
X87034419Y-57782250D01*
X87029203Y-57761426D01*
X87026053Y-57740191D01*
X87025000Y-57718750D01*
X87025000Y-57281250D01*
X87026053Y-57259809D01*
X87029203Y-57238574D01*
X87034419Y-57217750D01*
X87041651Y-57197538D01*
X87050830Y-57178132D01*
X87061866Y-57159719D01*
X87074654Y-57142476D01*
X87089070Y-57126570D01*
X87104976Y-57112154D01*
X87122219Y-57099366D01*
X87140632Y-57088330D01*
X87160038Y-57079151D01*
X87180250Y-57071919D01*
X87201074Y-57066703D01*
X87222309Y-57063553D01*
X87243750Y-57062500D01*
X87756250Y-57062500D01*
X87777691Y-57063553D01*
X87777691Y-57063553D01*
G37*
D16*
X87500000Y-57500000D03*
D22*
X109550000Y-52650000D03*
X109550000Y-51350000D03*
X111450000Y-52000000D03*
X109550000Y-52000000D03*
X111450000Y-51350000D03*
X111450000Y-52650000D03*
X102800000Y-33100000D03*
X102800000Y-34400000D03*
X104700000Y-33750000D03*
X102800000Y-33750000D03*
X104700000Y-34400000D03*
X104700000Y-33100000D03*
D12*
G36*
X103777691Y-54638553D02*
G01*
X103798926Y-54641703D01*
X103819750Y-54646919D01*
X103839962Y-54654151D01*
X103859368Y-54663330D01*
X103877781Y-54674366D01*
X103895024Y-54687154D01*
X103910930Y-54701570D01*
X103925346Y-54717476D01*
X103938134Y-54734719D01*
X103949170Y-54753132D01*
X103958349Y-54772538D01*
X103965581Y-54792750D01*
X103970797Y-54813574D01*
X103973947Y-54834809D01*
X103975000Y-54856250D01*
X103975000Y-55293750D01*
X103973947Y-55315191D01*
X103970797Y-55336426D01*
X103965581Y-55357250D01*
X103958349Y-55377462D01*
X103949170Y-55396868D01*
X103938134Y-55415281D01*
X103925346Y-55432524D01*
X103910930Y-55448430D01*
X103895024Y-55462846D01*
X103877781Y-55475634D01*
X103859368Y-55486670D01*
X103839962Y-55495849D01*
X103819750Y-55503081D01*
X103798926Y-55508297D01*
X103777691Y-55511447D01*
X103756250Y-55512500D01*
X103243750Y-55512500D01*
X103222309Y-55511447D01*
X103201074Y-55508297D01*
X103180250Y-55503081D01*
X103160038Y-55495849D01*
X103140632Y-55486670D01*
X103122219Y-55475634D01*
X103104976Y-55462846D01*
X103089070Y-55448430D01*
X103074654Y-55432524D01*
X103061866Y-55415281D01*
X103050830Y-55396868D01*
X103041651Y-55377462D01*
X103034419Y-55357250D01*
X103029203Y-55336426D01*
X103026053Y-55315191D01*
X103025000Y-55293750D01*
X103025000Y-54856250D01*
X103026053Y-54834809D01*
X103029203Y-54813574D01*
X103034419Y-54792750D01*
X103041651Y-54772538D01*
X103050830Y-54753132D01*
X103061866Y-54734719D01*
X103074654Y-54717476D01*
X103089070Y-54701570D01*
X103104976Y-54687154D01*
X103122219Y-54674366D01*
X103140632Y-54663330D01*
X103160038Y-54654151D01*
X103180250Y-54646919D01*
X103201074Y-54641703D01*
X103222309Y-54638553D01*
X103243750Y-54637500D01*
X103756250Y-54637500D01*
X103777691Y-54638553D01*
X103777691Y-54638553D01*
G37*
D16*
X103500000Y-55075000D03*
D12*
G36*
X103777691Y-53063553D02*
G01*
X103798926Y-53066703D01*
X103819750Y-53071919D01*
X103839962Y-53079151D01*
X103859368Y-53088330D01*
X103877781Y-53099366D01*
X103895024Y-53112154D01*
X103910930Y-53126570D01*
X103925346Y-53142476D01*
X103938134Y-53159719D01*
X103949170Y-53178132D01*
X103958349Y-53197538D01*
X103965581Y-53217750D01*
X103970797Y-53238574D01*
X103973947Y-53259809D01*
X103975000Y-53281250D01*
X103975000Y-53718750D01*
X103973947Y-53740191D01*
X103970797Y-53761426D01*
X103965581Y-53782250D01*
X103958349Y-53802462D01*
X103949170Y-53821868D01*
X103938134Y-53840281D01*
X103925346Y-53857524D01*
X103910930Y-53873430D01*
X103895024Y-53887846D01*
X103877781Y-53900634D01*
X103859368Y-53911670D01*
X103839962Y-53920849D01*
X103819750Y-53928081D01*
X103798926Y-53933297D01*
X103777691Y-53936447D01*
X103756250Y-53937500D01*
X103243750Y-53937500D01*
X103222309Y-53936447D01*
X103201074Y-53933297D01*
X103180250Y-53928081D01*
X103160038Y-53920849D01*
X103140632Y-53911670D01*
X103122219Y-53900634D01*
X103104976Y-53887846D01*
X103089070Y-53873430D01*
X103074654Y-53857524D01*
X103061866Y-53840281D01*
X103050830Y-53821868D01*
X103041651Y-53802462D01*
X103034419Y-53782250D01*
X103029203Y-53761426D01*
X103026053Y-53740191D01*
X103025000Y-53718750D01*
X103025000Y-53281250D01*
X103026053Y-53259809D01*
X103029203Y-53238574D01*
X103034419Y-53217750D01*
X103041651Y-53197538D01*
X103050830Y-53178132D01*
X103061866Y-53159719D01*
X103074654Y-53142476D01*
X103089070Y-53126570D01*
X103104976Y-53112154D01*
X103122219Y-53099366D01*
X103140632Y-53088330D01*
X103160038Y-53079151D01*
X103180250Y-53071919D01*
X103201074Y-53066703D01*
X103222309Y-53063553D01*
X103243750Y-53062500D01*
X103756250Y-53062500D01*
X103777691Y-53063553D01*
X103777691Y-53063553D01*
G37*
D16*
X103500000Y-53500000D03*
D12*
G36*
X105777691Y-53063553D02*
G01*
X105798926Y-53066703D01*
X105819750Y-53071919D01*
X105839962Y-53079151D01*
X105859368Y-53088330D01*
X105877781Y-53099366D01*
X105895024Y-53112154D01*
X105910930Y-53126570D01*
X105925346Y-53142476D01*
X105938134Y-53159719D01*
X105949170Y-53178132D01*
X105958349Y-53197538D01*
X105965581Y-53217750D01*
X105970797Y-53238574D01*
X105973947Y-53259809D01*
X105975000Y-53281250D01*
X105975000Y-53718750D01*
X105973947Y-53740191D01*
X105970797Y-53761426D01*
X105965581Y-53782250D01*
X105958349Y-53802462D01*
X105949170Y-53821868D01*
X105938134Y-53840281D01*
X105925346Y-53857524D01*
X105910930Y-53873430D01*
X105895024Y-53887846D01*
X105877781Y-53900634D01*
X105859368Y-53911670D01*
X105839962Y-53920849D01*
X105819750Y-53928081D01*
X105798926Y-53933297D01*
X105777691Y-53936447D01*
X105756250Y-53937500D01*
X105243750Y-53937500D01*
X105222309Y-53936447D01*
X105201074Y-53933297D01*
X105180250Y-53928081D01*
X105160038Y-53920849D01*
X105140632Y-53911670D01*
X105122219Y-53900634D01*
X105104976Y-53887846D01*
X105089070Y-53873430D01*
X105074654Y-53857524D01*
X105061866Y-53840281D01*
X105050830Y-53821868D01*
X105041651Y-53802462D01*
X105034419Y-53782250D01*
X105029203Y-53761426D01*
X105026053Y-53740191D01*
X105025000Y-53718750D01*
X105025000Y-53281250D01*
X105026053Y-53259809D01*
X105029203Y-53238574D01*
X105034419Y-53217750D01*
X105041651Y-53197538D01*
X105050830Y-53178132D01*
X105061866Y-53159719D01*
X105074654Y-53142476D01*
X105089070Y-53126570D01*
X105104976Y-53112154D01*
X105122219Y-53099366D01*
X105140632Y-53088330D01*
X105160038Y-53079151D01*
X105180250Y-53071919D01*
X105201074Y-53066703D01*
X105222309Y-53063553D01*
X105243750Y-53062500D01*
X105756250Y-53062500D01*
X105777691Y-53063553D01*
X105777691Y-53063553D01*
G37*
D16*
X105500000Y-53500000D03*
D12*
G36*
X105777691Y-54638553D02*
G01*
X105798926Y-54641703D01*
X105819750Y-54646919D01*
X105839962Y-54654151D01*
X105859368Y-54663330D01*
X105877781Y-54674366D01*
X105895024Y-54687154D01*
X105910930Y-54701570D01*
X105925346Y-54717476D01*
X105938134Y-54734719D01*
X105949170Y-54753132D01*
X105958349Y-54772538D01*
X105965581Y-54792750D01*
X105970797Y-54813574D01*
X105973947Y-54834809D01*
X105975000Y-54856250D01*
X105975000Y-55293750D01*
X105973947Y-55315191D01*
X105970797Y-55336426D01*
X105965581Y-55357250D01*
X105958349Y-55377462D01*
X105949170Y-55396868D01*
X105938134Y-55415281D01*
X105925346Y-55432524D01*
X105910930Y-55448430D01*
X105895024Y-55462846D01*
X105877781Y-55475634D01*
X105859368Y-55486670D01*
X105839962Y-55495849D01*
X105819750Y-55503081D01*
X105798926Y-55508297D01*
X105777691Y-55511447D01*
X105756250Y-55512500D01*
X105243750Y-55512500D01*
X105222309Y-55511447D01*
X105201074Y-55508297D01*
X105180250Y-55503081D01*
X105160038Y-55495849D01*
X105140632Y-55486670D01*
X105122219Y-55475634D01*
X105104976Y-55462846D01*
X105089070Y-55448430D01*
X105074654Y-55432524D01*
X105061866Y-55415281D01*
X105050830Y-55396868D01*
X105041651Y-55377462D01*
X105034419Y-55357250D01*
X105029203Y-55336426D01*
X105026053Y-55315191D01*
X105025000Y-55293750D01*
X105025000Y-54856250D01*
X105026053Y-54834809D01*
X105029203Y-54813574D01*
X105034419Y-54792750D01*
X105041651Y-54772538D01*
X105050830Y-54753132D01*
X105061866Y-54734719D01*
X105074654Y-54717476D01*
X105089070Y-54701570D01*
X105104976Y-54687154D01*
X105122219Y-54674366D01*
X105140632Y-54663330D01*
X105160038Y-54654151D01*
X105180250Y-54646919D01*
X105201074Y-54641703D01*
X105222309Y-54638553D01*
X105243750Y-54637500D01*
X105756250Y-54637500D01*
X105777691Y-54638553D01*
X105777691Y-54638553D01*
G37*
D16*
X105500000Y-55075000D03*
D23*
X110750000Y-49750000D03*
X112327983Y-52075000D03*
X108356949Y-52075000D03*
D21*
X77470000Y-56515000D03*
X76835000Y-53340000D03*
D23*
X116205000Y-47625000D03*
X109855000Y-32385000D03*
X102362000Y-40640000D03*
X84531200Y-58267600D03*
X79705200Y-57962800D03*
X76200000Y-56515000D03*
X102750000Y-32500000D03*
X100500000Y-57000000D03*
X96775000Y-56750000D03*
X95000000Y-52750000D03*
X93250000Y-52750000D03*
X115000000Y-53300000D03*
X113900000Y-50600000D03*
X81915000Y-38735000D03*
X80645000Y-38735000D03*
X135255000Y-55245000D03*
X128905000Y-55245000D03*
X123825000Y-51435000D03*
X123500000Y-47600000D03*
X109800000Y-44700000D03*
X111600000Y-44700000D03*
X117500000Y-51500000D03*
X116000000Y-50000000D03*
X93980000Y-48895000D03*
X98425000Y-48895000D03*
X100500000Y-55000000D03*
X98970000Y-55000000D03*
X103500000Y-52250000D03*
X103500000Y-50625000D03*
D24*
X76230000Y-54610000D02*
X76200000Y-54640000D01*
X79060000Y-54610000D02*
X76230000Y-54610000D01*
X76200000Y-54640000D02*
X72680000Y-54640000D01*
X72680000Y-54640000D02*
X72390000Y-54350000D01*
D25*
X72130000Y-54610000D02*
X72390000Y-54350000D01*
X67945000Y-54610000D02*
X72130000Y-54610000D01*
X96525000Y-40995000D02*
X98150000Y-39370000D01*
X96525000Y-42190000D02*
X96525000Y-40995000D01*
X98150000Y-38629000D02*
X98150000Y-39370000D01*
X100711000Y-38100000D02*
X98679000Y-38100000D01*
X98679000Y-38100000D02*
X98150000Y-38629000D01*
X105105000Y-39370000D02*
X101981000Y-39370000D01*
X101981000Y-39370000D02*
X100711000Y-38100000D01*
X96525000Y-42190000D02*
X93625000Y-42190000D01*
X72390000Y-39370000D02*
X74295000Y-37465000D01*
X74295000Y-37465000D02*
X88900000Y-37465000D01*
X93625000Y-42190000D02*
X88900000Y-37465000D01*
X72390000Y-54350000D02*
X72390000Y-39370000D01*
X88900000Y-37465000D02*
X83820000Y-32385000D01*
X105105000Y-38795000D02*
X105650000Y-38250000D01*
X105105000Y-39370000D02*
X105105000Y-38795000D01*
X110750000Y-41864814D02*
X110750000Y-49750000D01*
X105650000Y-38250000D02*
X107135186Y-38250000D01*
X107135186Y-38250000D02*
X110750000Y-41864814D01*
X112252983Y-52000000D02*
X111450000Y-52000000D01*
X112327983Y-52075000D02*
X112252983Y-52000000D01*
X109550000Y-52000000D02*
X108431949Y-52000000D01*
X108431949Y-52000000D02*
X108356949Y-52075000D01*
D24*
X80010000Y-56810000D02*
X80010000Y-55880000D01*
X76835000Y-52070000D02*
X76835000Y-53340000D01*
X76835000Y-55880000D02*
X76200000Y-56515000D01*
X80010000Y-55880000D02*
X76835000Y-55880000D01*
X84455000Y-57785000D02*
X84455000Y-57150000D01*
X80010000Y-57785000D02*
X84455000Y-57785000D01*
X77470000Y-56515000D02*
X76200000Y-56515000D01*
X80010000Y-56810000D02*
X80010000Y-57785000D01*
D25*
X101475000Y-41120000D02*
X99725000Y-39370000D01*
X101475000Y-42190000D02*
X101475000Y-41120000D01*
X117500000Y-47600000D02*
X116230000Y-47600000D01*
X116230000Y-47600000D02*
X116205000Y-47625000D01*
X111155000Y-32385000D02*
X109855000Y-32385000D01*
X104190000Y-42190000D02*
X104775000Y-41605000D01*
X101475000Y-42190000D02*
X104190000Y-42190000D01*
X104775000Y-41605000D02*
X107315000Y-41605000D01*
X101475000Y-41120000D02*
X101882000Y-41120000D01*
X101882000Y-41120000D02*
X102362000Y-40640000D01*
X84455000Y-57150000D02*
X84455000Y-58191400D01*
X84455000Y-58191400D02*
X84531200Y-58267600D01*
X80010000Y-57785000D02*
X79883000Y-57785000D01*
X79883000Y-57785000D02*
X79705200Y-57962800D01*
X85298800Y-57500000D02*
X84531200Y-58267600D01*
X87500000Y-57500000D02*
X85298800Y-57500000D01*
X102800000Y-33100000D02*
X102800000Y-32550000D01*
X102800000Y-32550000D02*
X102750000Y-32500000D01*
D24*
X83759290Y-55045710D02*
X84455000Y-54350000D01*
X80010000Y-54610000D02*
X80010000Y-55100002D01*
X80010000Y-55100002D02*
X80374999Y-55465001D01*
X83339999Y-55465001D02*
X83759290Y-55045710D01*
X80374999Y-55465001D02*
X83339999Y-55465001D01*
D25*
X113045000Y-32400000D02*
X113030000Y-32385000D01*
X117500000Y-32400000D02*
X113045000Y-32400000D01*
X119500000Y-57000000D02*
X117500000Y-57000000D01*
X96775000Y-56750000D02*
X96775000Y-54525000D01*
X96775000Y-54525000D02*
X95000000Y-52750000D01*
X86055000Y-52750000D02*
X84455000Y-54350000D01*
X93250000Y-52750000D02*
X86055000Y-52750000D01*
X84455000Y-54305000D02*
X82220000Y-52070000D01*
X84455000Y-54350000D02*
X84455000Y-54305000D01*
X113500000Y-57000000D02*
X113500000Y-54800000D01*
X113500000Y-57000000D02*
X100500000Y-57000000D01*
X113500000Y-54800000D02*
X115000000Y-53300000D01*
X117500000Y-57000000D02*
X113500000Y-57000000D01*
X113900000Y-50600000D02*
X113500000Y-50200000D01*
X113500000Y-50200000D02*
X113500000Y-35100000D01*
X113030000Y-34630000D02*
X113030000Y-32385000D01*
X113500000Y-35100000D02*
X113030000Y-34630000D01*
D24*
X72390000Y-57150000D02*
X73085710Y-57845710D01*
X78229290Y-57845710D02*
X79060000Y-57015000D01*
X79060000Y-57015000D02*
X79060000Y-56810000D01*
X73085710Y-57845710D02*
X78229290Y-57845710D01*
X80960000Y-54610000D02*
X80960000Y-52385000D01*
X80645000Y-52070000D02*
X78410000Y-52070000D01*
X80960000Y-52385000D02*
X80645000Y-52070000D01*
X96525000Y-43460000D02*
X84100000Y-43460000D01*
X84100000Y-43460000D02*
X81915000Y-41275000D01*
X81915000Y-41275000D02*
X81915000Y-38735000D01*
X96525000Y-44730000D02*
X83465000Y-44730000D01*
X83465000Y-44730000D02*
X80645000Y-41910000D01*
X80645000Y-41910000D02*
X80645000Y-38735000D01*
X104495000Y-43460000D02*
X104775000Y-43180000D01*
X101475000Y-43460000D02*
X104495000Y-43460000D01*
X104775000Y-43180000D02*
X107315000Y-43180000D01*
X107442000Y-39370000D02*
X106680000Y-39370000D01*
X108331000Y-40259000D02*
X107442000Y-39370000D01*
X107315000Y-43180000D02*
X107890000Y-43180000D01*
X108331000Y-42739000D02*
X108331000Y-40259000D01*
X107890000Y-43180000D02*
X108331000Y-42739000D01*
X77167500Y-46052500D02*
X77167500Y-45000000D01*
X90017500Y-47000000D02*
X78115000Y-47000000D01*
X78115000Y-47000000D02*
X77167500Y-46052500D01*
X80042500Y-46000000D02*
X79042500Y-45000000D01*
X96525000Y-46000000D02*
X80042500Y-46000000D01*
X100330000Y-61595000D02*
X99695000Y-60960000D01*
X99695000Y-47625000D02*
X100050000Y-47270000D01*
X127635000Y-59690000D02*
X125730000Y-61595000D01*
X99695000Y-60960000D02*
X99695000Y-47625000D01*
X135425000Y-62000000D02*
X135160001Y-61735001D01*
X133350000Y-59690000D02*
X127635000Y-59690000D01*
X100050000Y-47270000D02*
X101475000Y-47270000D01*
X125730000Y-61595000D02*
X100330000Y-61595000D01*
X136525000Y-62000000D02*
X135425000Y-62000000D01*
X135160001Y-61500001D02*
X133350000Y-59690000D01*
X135160001Y-61735001D02*
X135160001Y-61500001D01*
X98000000Y-55103002D02*
X98000000Y-51285000D01*
X99244990Y-56347992D02*
X98000000Y-55103002D01*
X99244990Y-61146400D02*
X99244990Y-56347992D01*
X98000000Y-51285000D02*
X96525000Y-49810000D01*
X132809999Y-60824999D02*
X127175001Y-60824999D01*
X133985000Y-62000000D02*
X132809999Y-60824999D01*
X125585010Y-62414990D02*
X100513580Y-62414990D01*
X127175001Y-60824999D02*
X125585010Y-62414990D01*
X100513580Y-62414990D02*
X99244990Y-61146400D01*
X95000000Y-48990000D02*
X95450000Y-48540000D01*
X95450000Y-48540000D02*
X96525000Y-48540000D01*
X131445000Y-62000000D02*
X130269999Y-63175001D01*
X130269999Y-63175001D02*
X99175001Y-63175001D01*
X99175001Y-63175001D02*
X97500000Y-61500000D01*
X97500000Y-61500000D02*
X97500000Y-53000000D01*
X95000000Y-50500000D02*
X95000000Y-48990000D01*
X97500000Y-53000000D02*
X95000000Y-50500000D01*
X137625000Y-55245000D02*
X135255000Y-55245000D01*
X139065000Y-57785000D02*
X139065000Y-56685000D01*
X139065000Y-56685000D02*
X137625000Y-55245000D01*
X128905000Y-55245000D02*
X127635000Y-55245000D01*
X127635000Y-55245000D02*
X123825000Y-51435000D01*
X131500000Y-52760000D02*
X131500000Y-47600000D01*
X136525000Y-57785000D02*
X131500000Y-52760000D01*
X129500000Y-49100000D02*
X129500000Y-47600000D01*
X129500000Y-52097919D02*
X129500000Y-49100000D01*
X133985000Y-56582919D02*
X129500000Y-52097919D01*
X133985000Y-57785000D02*
X133985000Y-56582919D01*
X102550000Y-44730000D02*
X102580000Y-44700000D01*
X101475000Y-44730000D02*
X102550000Y-44730000D01*
X102580000Y-44700000D02*
X109800000Y-44700000D01*
X111600000Y-41901628D02*
X105198372Y-35500000D01*
X111600000Y-44700000D02*
X111600000Y-41901628D01*
X104689998Y-35500000D02*
X103700000Y-34510002D01*
X105198372Y-35500000D02*
X104689998Y-35500000D01*
X103375000Y-33750000D02*
X102800000Y-33750000D01*
X103700000Y-34075000D02*
X103375000Y-33750000D01*
X103700000Y-34510002D02*
X103700000Y-34075000D01*
X91862500Y-47270000D02*
X91592500Y-47000000D01*
X96525000Y-47270000D02*
X91862500Y-47270000D01*
X111450000Y-51350000D02*
X115650000Y-51350000D01*
X125500000Y-48350000D02*
X125500000Y-47600000D01*
X124350000Y-49500000D02*
X125500000Y-48350000D01*
X117500000Y-49500000D02*
X124350000Y-49500000D01*
X119500000Y-55425000D02*
X119500000Y-53500000D01*
X119500000Y-53500000D02*
X117500000Y-51500000D01*
X116000000Y-50000000D02*
X116500000Y-50500000D01*
X115650000Y-51350000D02*
X116500000Y-50500000D01*
X116500000Y-50500000D02*
X117500000Y-49500000D01*
X109625001Y-53175001D02*
X113824999Y-53175001D01*
X109550000Y-52650000D02*
X109550000Y-53100000D01*
X109550000Y-53100000D02*
X109625001Y-53175001D01*
X115199990Y-51800010D02*
X115836401Y-51800009D01*
X113824999Y-53175001D02*
X115199990Y-51800010D01*
X127500000Y-48350000D02*
X127500000Y-47600000D01*
X117686400Y-49950010D02*
X125899990Y-49950010D01*
X125899990Y-49950010D02*
X127500000Y-48350000D01*
X115836401Y-51800009D02*
X117686400Y-49950010D01*
X117500000Y-53463608D02*
X115836401Y-51800009D01*
X117500000Y-55425000D02*
X117500000Y-53463608D01*
X80960000Y-56810000D02*
X82255000Y-56810000D01*
X82631410Y-56810000D02*
X83561410Y-55880000D01*
X82255000Y-56810000D02*
X82631410Y-56810000D01*
X83561410Y-55880000D02*
X92710000Y-55880000D01*
X92710000Y-55880000D02*
X93980000Y-54610000D01*
X93980000Y-54610000D02*
X93980000Y-48895000D01*
X98425000Y-48895000D02*
X98425000Y-46990000D01*
X99415000Y-46000000D02*
X101475000Y-46000000D01*
X98425000Y-46990000D02*
X99415000Y-46000000D01*
X105500000Y-55075000D02*
X103500000Y-55075000D01*
X103500000Y-55075000D02*
X100575000Y-55075000D01*
X100575000Y-55075000D02*
X100500000Y-55000000D01*
X98970000Y-49440000D02*
X98425000Y-48895000D01*
X98970000Y-55000000D02*
X98970000Y-49440000D01*
X100400000Y-48540000D02*
X101475000Y-48540000D01*
X100174990Y-48765010D02*
X100400000Y-48540000D01*
X100350000Y-51350000D02*
X100174990Y-51174990D01*
X100174990Y-51174990D02*
X100174990Y-48765010D01*
X105500000Y-53500000D02*
X105500000Y-51500000D01*
X109550000Y-51350000D02*
X105350000Y-51350000D01*
X105500000Y-51500000D02*
X105350000Y-51350000D01*
X105350000Y-51350000D02*
X100350000Y-51350000D01*
X111450000Y-52650000D02*
X110650000Y-52650000D01*
X102550000Y-49810000D02*
X101475000Y-49810000D01*
X110650000Y-51039998D02*
X109420002Y-49810000D01*
X110650000Y-52650000D02*
X110650000Y-51039998D01*
X103500000Y-53500000D02*
X103500000Y-52250000D01*
X103310000Y-49869315D02*
X103310000Y-49810000D01*
X103500000Y-50625000D02*
X103500000Y-50059315D01*
X109420002Y-49810000D02*
X103310000Y-49810000D01*
X103500000Y-50059315D02*
X103310000Y-49869315D01*
X103310000Y-49810000D02*
X102550000Y-49810000D01*
X131445000Y-54679329D02*
X128500000Y-51734329D01*
X131445000Y-57785000D02*
X131445000Y-54679329D01*
X128500000Y-51734329D02*
X128500000Y-35000000D01*
X130150000Y-34500000D02*
X131500000Y-33150000D01*
X131500000Y-33150000D02*
X131500000Y-32400000D01*
X128500000Y-35000000D02*
X128500000Y-34500000D01*
X128500000Y-34500000D02*
X130150000Y-34500000D01*
X131500000Y-31650000D02*
X130450000Y-30600000D01*
X131500000Y-32400000D02*
X131500000Y-31650000D01*
X130450000Y-30600000D02*
X115100000Y-30600000D01*
X115100000Y-30600000D02*
X114500000Y-31200000D01*
X105275000Y-33100000D02*
X104700000Y-33100000D01*
X107175000Y-31200000D02*
X105275000Y-33100000D01*
X114500000Y-31200000D02*
X107175000Y-31200000D01*
D26*
G36*
X106611201Y-30688997D02*
G01*
X105037081Y-32263118D01*
X105025000Y-32261928D01*
X104375000Y-32261928D01*
X104250518Y-32274188D01*
X104130820Y-32310498D01*
X104020506Y-32369463D01*
X103923815Y-32448815D01*
X103844463Y-32545506D01*
X103785498Y-32655820D01*
X103752921Y-32763211D01*
X103785000Y-32601939D01*
X103785000Y-32398061D01*
X103745226Y-32198102D01*
X103667205Y-32009744D01*
X103553937Y-31840226D01*
X103409774Y-31696063D01*
X103240256Y-31582795D01*
X103051898Y-31504774D01*
X102851939Y-31465000D01*
X102648061Y-31465000D01*
X102448102Y-31504774D01*
X102259744Y-31582795D01*
X102090226Y-31696063D01*
X101946063Y-31840226D01*
X101832795Y-32009744D01*
X101754774Y-32198102D01*
X101715000Y-32398061D01*
X101715000Y-32601939D01*
X101754774Y-32801898D01*
X101832795Y-32990256D01*
X101836928Y-32996441D01*
X101836928Y-33300000D01*
X101849188Y-33424482D01*
X101849345Y-33425000D01*
X101849188Y-33425518D01*
X101836928Y-33550000D01*
X101836928Y-33950000D01*
X101849188Y-34074482D01*
X101849345Y-34074999D01*
X101849188Y-34075518D01*
X101836928Y-34200000D01*
X101836928Y-34600000D01*
X101849188Y-34724482D01*
X101885498Y-34844180D01*
X101944463Y-34954494D01*
X102023815Y-35051185D01*
X102120506Y-35130537D01*
X102230820Y-35189502D01*
X102350518Y-35225812D01*
X102475000Y-35238072D01*
X103125000Y-35238072D01*
X103249482Y-35225812D01*
X103319706Y-35204510D01*
X104126198Y-36011002D01*
X104149997Y-36040001D01*
X104178995Y-36063799D01*
X104265722Y-36134974D01*
X104397751Y-36205546D01*
X104541012Y-36249003D01*
X104689998Y-36263677D01*
X104727331Y-36260000D01*
X104883571Y-36260000D01*
X106880499Y-38256928D01*
X106461250Y-38256928D01*
X106294092Y-38273392D01*
X106133358Y-38322150D01*
X105985225Y-38401329D01*
X105855385Y-38507885D01*
X105781328Y-38598124D01*
X105755196Y-38576678D01*
X105689008Y-38541299D01*
X105617189Y-38519513D01*
X105542500Y-38512157D01*
X105510750Y-38514000D01*
X105415500Y-38609250D01*
X105415500Y-39022000D01*
X105498000Y-39022000D01*
X105498000Y-39718000D01*
X105415500Y-39718000D01*
X105415500Y-40130750D01*
X105510750Y-40226000D01*
X105542500Y-40227843D01*
X105617189Y-40220487D01*
X105689008Y-40198701D01*
X105755196Y-40163322D01*
X105781328Y-40141876D01*
X105855385Y-40232115D01*
X105985225Y-40338671D01*
X106133358Y-40417850D01*
X106294092Y-40466608D01*
X106461250Y-40483072D01*
X106898750Y-40483072D01*
X107065908Y-40466608D01*
X107226642Y-40417850D01*
X107349421Y-40352223D01*
X107526626Y-40529428D01*
X107058750Y-40529428D01*
X106891592Y-40545892D01*
X106730858Y-40594650D01*
X106582725Y-40673829D01*
X106526465Y-40720000D01*
X105563535Y-40720000D01*
X105507275Y-40673829D01*
X105359142Y-40594650D01*
X105198408Y-40545892D01*
X105031250Y-40529428D01*
X104518750Y-40529428D01*
X104351592Y-40545892D01*
X104190858Y-40594650D01*
X104042725Y-40673829D01*
X103912885Y-40780385D01*
X103806329Y-40910225D01*
X103727150Y-41058358D01*
X103678392Y-41219092D01*
X103669931Y-41305000D01*
X103160711Y-41305000D01*
X103165937Y-41299774D01*
X103279205Y-41130256D01*
X103357226Y-40941898D01*
X103397000Y-40741939D01*
X103397000Y-40538061D01*
X103357226Y-40338102D01*
X103279205Y-40149744D01*
X103165937Y-39980226D01*
X103030711Y-39845000D01*
X104284657Y-39845000D01*
X104292013Y-39919689D01*
X104313799Y-39991508D01*
X104349178Y-40057696D01*
X104396789Y-40115711D01*
X104454804Y-40163322D01*
X104520992Y-40198701D01*
X104592811Y-40220487D01*
X104667500Y-40227843D01*
X104699250Y-40226000D01*
X104794500Y-40130750D01*
X104794500Y-39718000D01*
X104381750Y-39718000D01*
X104286500Y-39813250D01*
X104284657Y-39845000D01*
X103030711Y-39845000D01*
X103021774Y-39836063D01*
X102852256Y-39722795D01*
X102663898Y-39644774D01*
X102463939Y-39605000D01*
X102260061Y-39605000D01*
X102060102Y-39644774D01*
X101871744Y-39722795D01*
X101702226Y-39836063D01*
X101572434Y-39965855D01*
X100800572Y-39193994D01*
X100800572Y-39113750D01*
X100784108Y-38946592D01*
X100768458Y-38895000D01*
X104284657Y-38895000D01*
X104286500Y-38926750D01*
X104381750Y-39022000D01*
X104794500Y-39022000D01*
X104794500Y-38609250D01*
X104699250Y-38514000D01*
X104667500Y-38512157D01*
X104592811Y-38519513D01*
X104520992Y-38541299D01*
X104454804Y-38576678D01*
X104396789Y-38624289D01*
X104349178Y-38682304D01*
X104313799Y-38748492D01*
X104292013Y-38820311D01*
X104284657Y-38895000D01*
X100768458Y-38895000D01*
X100735350Y-38785858D01*
X100656171Y-38637725D01*
X100549615Y-38507885D01*
X100419775Y-38401329D01*
X100271642Y-38322150D01*
X100110908Y-38273392D01*
X99943750Y-38256928D01*
X99506250Y-38256928D01*
X99339092Y-38273392D01*
X99178358Y-38322150D01*
X99030225Y-38401329D01*
X98900385Y-38507885D01*
X98826328Y-38598124D01*
X98800196Y-38576678D01*
X98734008Y-38541299D01*
X98662189Y-38519513D01*
X98587500Y-38512157D01*
X98555750Y-38514000D01*
X98460500Y-38609250D01*
X98460500Y-39022000D01*
X98543000Y-39022000D01*
X98543000Y-39718000D01*
X98460500Y-39718000D01*
X98460500Y-40130750D01*
X98555750Y-40226000D01*
X98587500Y-40227843D01*
X98662189Y-40220487D01*
X98734008Y-40198701D01*
X98800196Y-40163322D01*
X98826328Y-40141876D01*
X98900385Y-40232115D01*
X99030225Y-40338671D01*
X99178358Y-40417850D01*
X99339092Y-40466608D01*
X99506250Y-40483072D01*
X99586494Y-40483072D01*
X100399762Y-41296341D01*
X100348418Y-41311916D01*
X100212171Y-41384742D01*
X100092749Y-41482749D01*
X99994742Y-41602171D01*
X99921916Y-41738418D01*
X99877071Y-41886255D01*
X99861928Y-42040000D01*
X99861928Y-42340000D01*
X99877071Y-42493745D01*
X99921916Y-42641582D01*
X99994742Y-42777829D01*
X100033454Y-42825000D01*
X99994742Y-42872171D01*
X99921916Y-43008418D01*
X99877071Y-43156255D01*
X99861928Y-43310000D01*
X99861928Y-43610000D01*
X99877071Y-43763745D01*
X99921916Y-43911582D01*
X99994742Y-44047829D01*
X100033454Y-44095000D01*
X99994742Y-44142171D01*
X99921916Y-44278418D01*
X99877071Y-44426255D01*
X99861928Y-44580000D01*
X99861928Y-44880000D01*
X99877071Y-45033745D01*
X99921916Y-45181582D01*
X99953141Y-45240000D01*
X99452322Y-45240000D01*
X99414999Y-45236324D01*
X99377676Y-45240000D01*
X99377667Y-45240000D01*
X99266014Y-45250997D01*
X99122753Y-45294454D01*
X98990724Y-45365026D01*
X98990722Y-45365027D01*
X98990723Y-45365027D01*
X98903996Y-45436201D01*
X98903992Y-45436205D01*
X98874999Y-45459999D01*
X98851205Y-45488992D01*
X98132377Y-46207822D01*
X98138072Y-46150000D01*
X98138072Y-45850000D01*
X98122929Y-45696255D01*
X98078084Y-45548418D01*
X98005258Y-45412171D01*
X97966546Y-45365000D01*
X98005258Y-45317829D01*
X98078084Y-45181582D01*
X98122929Y-45033745D01*
X98138072Y-44880000D01*
X98138072Y-44580000D01*
X98122929Y-44426255D01*
X98078084Y-44278418D01*
X98005258Y-44142171D01*
X97966546Y-44095000D01*
X98005258Y-44047829D01*
X98078084Y-43911582D01*
X98122929Y-43763745D01*
X98138072Y-43610000D01*
X98138072Y-43310000D01*
X98122929Y-43156255D01*
X98078084Y-43008418D01*
X98005258Y-42872171D01*
X97907251Y-42752749D01*
X97826841Y-42686758D01*
X97853701Y-42636508D01*
X97875487Y-42564689D01*
X97882843Y-42490000D01*
X97881000Y-42458250D01*
X97785750Y-42363000D01*
X96898000Y-42363000D01*
X96898000Y-42490000D01*
X96152000Y-42490000D01*
X96152000Y-42363000D01*
X95264250Y-42363000D01*
X95169000Y-42458250D01*
X95167157Y-42490000D01*
X95174513Y-42564689D01*
X95196299Y-42636508D01*
X95223159Y-42686758D01*
X95207024Y-42700000D01*
X84414802Y-42700000D01*
X83604802Y-41890000D01*
X95167157Y-41890000D01*
X95169000Y-41921750D01*
X95264250Y-42017000D01*
X96152000Y-42017000D01*
X96152000Y-41604250D01*
X96898000Y-41604250D01*
X96898000Y-42017000D01*
X97785750Y-42017000D01*
X97881000Y-41921750D01*
X97882843Y-41890000D01*
X97875487Y-41815311D01*
X97853701Y-41743492D01*
X97818322Y-41677304D01*
X97770711Y-41619289D01*
X97712696Y-41571678D01*
X97646508Y-41536299D01*
X97574689Y-41514513D01*
X97500000Y-41507157D01*
X96993250Y-41509000D01*
X96898000Y-41604250D01*
X96152000Y-41604250D01*
X96056750Y-41509000D01*
X95550000Y-41507157D01*
X95475311Y-41514513D01*
X95403492Y-41536299D01*
X95337304Y-41571678D01*
X95279289Y-41619289D01*
X95231678Y-41677304D01*
X95196299Y-41743492D01*
X95174513Y-41815311D01*
X95167157Y-41890000D01*
X83604802Y-41890000D01*
X82675000Y-40960199D01*
X82675000Y-39845000D01*
X97329657Y-39845000D01*
X97337013Y-39919689D01*
X97358799Y-39991508D01*
X97394178Y-40057696D01*
X97441789Y-40115711D01*
X97499804Y-40163322D01*
X97565992Y-40198701D01*
X97637811Y-40220487D01*
X97712500Y-40227843D01*
X97744250Y-40226000D01*
X97839500Y-40130750D01*
X97839500Y-39718000D01*
X97426750Y-39718000D01*
X97331500Y-39813250D01*
X97329657Y-39845000D01*
X82675000Y-39845000D01*
X82675000Y-39438711D01*
X82718937Y-39394774D01*
X82832205Y-39225256D01*
X82910226Y-39036898D01*
X82938451Y-38895000D01*
X97329657Y-38895000D01*
X97331500Y-38926750D01*
X97426750Y-39022000D01*
X97839500Y-39022000D01*
X97839500Y-38609250D01*
X97744250Y-38514000D01*
X97712500Y-38512157D01*
X97637811Y-38519513D01*
X97565992Y-38541299D01*
X97499804Y-38576678D01*
X97441789Y-38624289D01*
X97394178Y-38682304D01*
X97358799Y-38748492D01*
X97337013Y-38820311D01*
X97329657Y-38895000D01*
X82938451Y-38895000D01*
X82950000Y-38836939D01*
X82950000Y-38633061D01*
X82910226Y-38433102D01*
X82832205Y-38244744D01*
X82718937Y-38075226D01*
X82574774Y-37931063D01*
X82405256Y-37817795D01*
X82216898Y-37739774D01*
X82016939Y-37700000D01*
X81813061Y-37700000D01*
X81613102Y-37739774D01*
X81424744Y-37817795D01*
X81280000Y-37914510D01*
X81135256Y-37817795D01*
X80946898Y-37739774D01*
X80746939Y-37700000D01*
X80543061Y-37700000D01*
X80343102Y-37739774D01*
X80154744Y-37817795D01*
X79985226Y-37931063D01*
X79841063Y-38075226D01*
X79727795Y-38244744D01*
X79649774Y-38433102D01*
X79610000Y-38633061D01*
X79610000Y-38836939D01*
X79649774Y-39036898D01*
X79727795Y-39225256D01*
X79841063Y-39394774D01*
X79885001Y-39438712D01*
X79885000Y-41872677D01*
X79881324Y-41910000D01*
X79885000Y-41947322D01*
X79885000Y-41947332D01*
X79895997Y-42058985D01*
X79931250Y-42175201D01*
X79939454Y-42202246D01*
X80010026Y-42334276D01*
X80034001Y-42363489D01*
X80104999Y-42450001D01*
X80134003Y-42473804D01*
X82900198Y-45240000D01*
X80357302Y-45240000D01*
X80168072Y-45050770D01*
X80168072Y-44543750D01*
X80151128Y-44371715D01*
X80100947Y-44206291D01*
X80019458Y-44053836D01*
X79909792Y-43920208D01*
X79776164Y-43810542D01*
X79623709Y-43729053D01*
X79458285Y-43678872D01*
X79286250Y-43661928D01*
X78798750Y-43661928D01*
X78626715Y-43678872D01*
X78461291Y-43729053D01*
X78308836Y-43810542D01*
X78175208Y-43920208D01*
X78105000Y-44005756D01*
X78034792Y-43920208D01*
X77901164Y-43810542D01*
X77748709Y-43729053D01*
X77583285Y-43678872D01*
X77411250Y-43661928D01*
X76923750Y-43661928D01*
X76751715Y-43678872D01*
X76586291Y-43729053D01*
X76433836Y-43810542D01*
X76300208Y-43920208D01*
X76190542Y-44053836D01*
X76109053Y-44206291D01*
X76058872Y-44371715D01*
X76041928Y-44543750D01*
X76041928Y-45456250D01*
X76058872Y-45628285D01*
X76109053Y-45793709D01*
X76190542Y-45946164D01*
X76300208Y-46079792D01*
X76415859Y-46174705D01*
X76418497Y-46201485D01*
X76461954Y-46344746D01*
X76532526Y-46476776D01*
X76572371Y-46525326D01*
X76627499Y-46592501D01*
X76656502Y-46616304D01*
X77551200Y-47511002D01*
X77574999Y-47540001D01*
X77690724Y-47634974D01*
X77822753Y-47705546D01*
X77966014Y-47749003D01*
X78077667Y-47760000D01*
X78077676Y-47760000D01*
X78114999Y-47763676D01*
X78152322Y-47760000D01*
X89109082Y-47760000D01*
X89192885Y-47862115D01*
X89322725Y-47968671D01*
X89470858Y-48047850D01*
X89631592Y-48096608D01*
X89798750Y-48113072D01*
X90236250Y-48113072D01*
X90403408Y-48096608D01*
X90564142Y-48047850D01*
X90712275Y-47968671D01*
X90805000Y-47892574D01*
X90897725Y-47968671D01*
X91045858Y-48047850D01*
X91206592Y-48096608D01*
X91373750Y-48113072D01*
X91811250Y-48113072D01*
X91978408Y-48096608D01*
X92139142Y-48047850D01*
X92172537Y-48030000D01*
X93411613Y-48030000D01*
X93320226Y-48091063D01*
X93176063Y-48235226D01*
X93062795Y-48404744D01*
X92984774Y-48593102D01*
X92945000Y-48793061D01*
X92945000Y-48996939D01*
X92984774Y-49196898D01*
X93062795Y-49385256D01*
X93176063Y-49554774D01*
X93220001Y-49598712D01*
X93220001Y-50373000D01*
X79000000Y-50373000D01*
X78975224Y-50375440D01*
X78951399Y-50382667D01*
X78929443Y-50394403D01*
X78910197Y-50410197D01*
X78894403Y-50429443D01*
X78882667Y-50451399D01*
X78875440Y-50475224D01*
X78873000Y-50500000D01*
X78873000Y-50996778D01*
X78795908Y-50973392D01*
X78628750Y-50956928D01*
X78191250Y-50956928D01*
X78024092Y-50973392D01*
X77863358Y-51022150D01*
X77715225Y-51101329D01*
X77622500Y-51177426D01*
X77529775Y-51101329D01*
X77381642Y-51022150D01*
X77220908Y-50973392D01*
X77053750Y-50956928D01*
X76616250Y-50956928D01*
X76449092Y-50973392D01*
X76288358Y-51022150D01*
X76140225Y-51101329D01*
X76010385Y-51207885D01*
X75903829Y-51337725D01*
X75824650Y-51485858D01*
X75775892Y-51646592D01*
X75759428Y-51813750D01*
X75759428Y-52326250D01*
X75775892Y-52493408D01*
X75824650Y-52654142D01*
X75903829Y-52802275D01*
X75998110Y-52917158D01*
X75935932Y-53067271D01*
X75900000Y-53247911D01*
X75900000Y-53432089D01*
X75935932Y-53612729D01*
X76001697Y-53771500D01*
X75826998Y-53771500D01*
X75826998Y-53866748D01*
X75731750Y-53771500D01*
X75500000Y-53769657D01*
X75425311Y-53777013D01*
X75353492Y-53798799D01*
X75287304Y-53834178D01*
X75229289Y-53881789D01*
X75181678Y-53939804D01*
X75146299Y-54005992D01*
X75124513Y-54077811D01*
X75117157Y-54152500D01*
X75119000Y-54184250D01*
X75214250Y-54279500D01*
X75827000Y-54279500D01*
X75827000Y-54247000D01*
X76573000Y-54247000D01*
X76573000Y-54279500D01*
X77185750Y-54279500D01*
X77281000Y-54184250D01*
X77282071Y-54165791D01*
X77431028Y-54066262D01*
X77561262Y-53936028D01*
X77663586Y-53782889D01*
X77734068Y-53612729D01*
X77770000Y-53432089D01*
X77770000Y-53247911D01*
X77734068Y-53067271D01*
X77724211Y-53043474D01*
X77863358Y-53117850D01*
X78024092Y-53166608D01*
X78191250Y-53183072D01*
X78628750Y-53183072D01*
X78795908Y-53166608D01*
X78873000Y-53143222D01*
X78873000Y-53699000D01*
X78766750Y-53699000D01*
X78735000Y-53697157D01*
X78716287Y-53699000D01*
X78686998Y-53699000D01*
X78686998Y-53701885D01*
X78660311Y-53704513D01*
X78588492Y-53726299D01*
X78522304Y-53761678D01*
X78464289Y-53809289D01*
X78416678Y-53867304D01*
X78381299Y-53933492D01*
X78359513Y-54005311D01*
X78352157Y-54080000D01*
X78354000Y-54141750D01*
X78449250Y-54237000D01*
X78862000Y-54237000D01*
X78862000Y-54217000D01*
X78873000Y-54217000D01*
X78873000Y-54873000D01*
X74096644Y-54873000D01*
X74096000Y-54818250D01*
X74000750Y-54723000D01*
X72763000Y-54723000D01*
X72763000Y-54743000D01*
X72017000Y-54743000D01*
X72017000Y-54723000D01*
X70779250Y-54723000D01*
X70684000Y-54818250D01*
X70682157Y-54975000D01*
X70689513Y-55049689D01*
X70711299Y-55121508D01*
X70746678Y-55187696D01*
X70794289Y-55245711D01*
X70852304Y-55293322D01*
X70873000Y-55304384D01*
X70873000Y-55373000D01*
X69327022Y-55373000D01*
X69326000Y-55078250D01*
X69230750Y-54983000D01*
X68318000Y-54983000D01*
X68318000Y-55003000D01*
X67572000Y-55003000D01*
X67572000Y-54983000D01*
X67552000Y-54983000D01*
X67552000Y-54237000D01*
X67572000Y-54237000D01*
X67572000Y-53324250D01*
X68318000Y-53324250D01*
X68318000Y-54237000D01*
X69230750Y-54237000D01*
X69326000Y-54141750D01*
X69327444Y-53725000D01*
X70682157Y-53725000D01*
X70684000Y-53881750D01*
X70779250Y-53977000D01*
X72017000Y-53977000D01*
X72017000Y-53439250D01*
X72763000Y-53439250D01*
X72763000Y-53977000D01*
X74000750Y-53977000D01*
X74096000Y-53881750D01*
X74097843Y-53725000D01*
X74090487Y-53650311D01*
X74068701Y-53578492D01*
X74033322Y-53512304D01*
X73985711Y-53454289D01*
X73927696Y-53406678D01*
X73861508Y-53371299D01*
X73789689Y-53349513D01*
X73715000Y-53342157D01*
X72858250Y-53344000D01*
X72763000Y-53439250D01*
X72017000Y-53439250D01*
X71921750Y-53344000D01*
X71065000Y-53342157D01*
X70990311Y-53349513D01*
X70918492Y-53371299D01*
X70852304Y-53406678D01*
X70794289Y-53454289D01*
X70746678Y-53512304D01*
X70711299Y-53578492D01*
X70689513Y-53650311D01*
X70682157Y-53725000D01*
X69327444Y-53725000D01*
X69327843Y-53610000D01*
X69320487Y-53535311D01*
X69298701Y-53463492D01*
X69263322Y-53397304D01*
X69215711Y-53339289D01*
X69157696Y-53291678D01*
X69091508Y-53256299D01*
X69019689Y-53234513D01*
X68945000Y-53227157D01*
X68413250Y-53229000D01*
X68318000Y-53324250D01*
X67572000Y-53324250D01*
X67476750Y-53229000D01*
X66945000Y-53227157D01*
X66870311Y-53234513D01*
X66798492Y-53256299D01*
X66732304Y-53291678D01*
X66674289Y-53339289D01*
X66660000Y-53356700D01*
X66660000Y-40639783D01*
X66675013Y-40662252D01*
X66902748Y-40889987D01*
X67170537Y-41068918D01*
X67468088Y-41192168D01*
X67783967Y-41255000D01*
X68106033Y-41255000D01*
X68421912Y-41192168D01*
X68719463Y-41068918D01*
X68987252Y-40889987D01*
X69214987Y-40662252D01*
X69393918Y-40394463D01*
X69517168Y-40096912D01*
X69580000Y-39781033D01*
X69580000Y-39458967D01*
X69517168Y-39143088D01*
X69393918Y-38845537D01*
X69214987Y-38577748D01*
X68987252Y-38350013D01*
X68719463Y-38171082D01*
X68421912Y-38047832D01*
X68106033Y-37985000D01*
X67783967Y-37985000D01*
X67468088Y-38047832D01*
X67170537Y-38171082D01*
X66902748Y-38350013D01*
X66675013Y-38577748D01*
X66660000Y-38600217D01*
X66660000Y-32223967D01*
X69485000Y-32223967D01*
X69485000Y-32546033D01*
X69547832Y-32861912D01*
X69671082Y-33159463D01*
X69850013Y-33427252D01*
X70077748Y-33654987D01*
X70345537Y-33833918D01*
X70643088Y-33957168D01*
X70958967Y-34020000D01*
X71281033Y-34020000D01*
X71596912Y-33957168D01*
X71894463Y-33833918D01*
X72162252Y-33654987D01*
X72389987Y-33427252D01*
X72390000Y-33427233D01*
X72390013Y-33427252D01*
X72617748Y-33654987D01*
X72885537Y-33833918D01*
X73183088Y-33957168D01*
X73498967Y-34020000D01*
X73821033Y-34020000D01*
X74136912Y-33957168D01*
X74434463Y-33833918D01*
X74702252Y-33654987D01*
X74929987Y-33427252D01*
X74930000Y-33427233D01*
X74930013Y-33427252D01*
X75157748Y-33654987D01*
X75425537Y-33833918D01*
X75723088Y-33957168D01*
X76038967Y-34020000D01*
X76361033Y-34020000D01*
X76676912Y-33957168D01*
X76974463Y-33833918D01*
X77242252Y-33654987D01*
X77469987Y-33427252D01*
X77470000Y-33427233D01*
X77470013Y-33427252D01*
X77697748Y-33654987D01*
X77965537Y-33833918D01*
X78263088Y-33957168D01*
X78578967Y-34020000D01*
X78901033Y-34020000D01*
X79216912Y-33957168D01*
X79514463Y-33833918D01*
X79782252Y-33654987D01*
X80009987Y-33427252D01*
X80010000Y-33427233D01*
X80010013Y-33427252D01*
X80237748Y-33654987D01*
X80505537Y-33833918D01*
X80803088Y-33957168D01*
X81118967Y-34020000D01*
X81441033Y-34020000D01*
X81756912Y-33957168D01*
X82054463Y-33833918D01*
X82322252Y-33654987D01*
X82453488Y-33523751D01*
X83208751Y-33523751D01*
X83336123Y-33685586D01*
X83599152Y-33754995D01*
X83870668Y-33771757D01*
X84140238Y-33735225D01*
X84303877Y-33685586D01*
X84431249Y-33523751D01*
X83820000Y-32912502D01*
X83208751Y-33523751D01*
X82453488Y-33523751D01*
X82549987Y-33427252D01*
X82728918Y-33159463D01*
X82852168Y-32861912D01*
X82861251Y-32816247D01*
X83292498Y-32385000D01*
X84347502Y-32385000D01*
X84958751Y-32996249D01*
X85120586Y-32868877D01*
X85189995Y-32605848D01*
X85206757Y-32334332D01*
X85170225Y-32064762D01*
X85120586Y-31901123D01*
X84958751Y-31773751D01*
X84347502Y-32385000D01*
X83292498Y-32385000D01*
X82861251Y-31953753D01*
X82852168Y-31908088D01*
X82728918Y-31610537D01*
X82549987Y-31342748D01*
X82453488Y-31246249D01*
X83208751Y-31246249D01*
X83820000Y-31857498D01*
X84431249Y-31246249D01*
X84303877Y-31084414D01*
X84040848Y-31015005D01*
X83769332Y-30998243D01*
X83499762Y-31034775D01*
X83336123Y-31084414D01*
X83208751Y-31246249D01*
X82453488Y-31246249D01*
X82322252Y-31115013D01*
X82054463Y-30936082D01*
X81756912Y-30812832D01*
X81441033Y-30750000D01*
X81118967Y-30750000D01*
X80803088Y-30812832D01*
X80505537Y-30936082D01*
X80237748Y-31115013D01*
X80010013Y-31342748D01*
X80010000Y-31342767D01*
X80009987Y-31342748D01*
X79782252Y-31115013D01*
X79514463Y-30936082D01*
X79216912Y-30812832D01*
X78901033Y-30750000D01*
X78578967Y-30750000D01*
X78263088Y-30812832D01*
X77965537Y-30936082D01*
X77697748Y-31115013D01*
X77470013Y-31342748D01*
X77470000Y-31342767D01*
X77469987Y-31342748D01*
X77242252Y-31115013D01*
X76974463Y-30936082D01*
X76676912Y-30812832D01*
X76361033Y-30750000D01*
X76038967Y-30750000D01*
X75723088Y-30812832D01*
X75425537Y-30936082D01*
X75157748Y-31115013D01*
X74930013Y-31342748D01*
X74930000Y-31342767D01*
X74929987Y-31342748D01*
X74702252Y-31115013D01*
X74434463Y-30936082D01*
X74136912Y-30812832D01*
X73821033Y-30750000D01*
X73498967Y-30750000D01*
X73183088Y-30812832D01*
X72885537Y-30936082D01*
X72617748Y-31115013D01*
X72390013Y-31342748D01*
X72390000Y-31342767D01*
X72389987Y-31342748D01*
X72162252Y-31115013D01*
X71894463Y-30936082D01*
X71596912Y-30812832D01*
X71281033Y-30750000D01*
X70958967Y-30750000D01*
X70643088Y-30812832D01*
X70345537Y-30936082D01*
X70077748Y-31115013D01*
X69850013Y-31342748D01*
X69671082Y-31610537D01*
X69547832Y-31908088D01*
X69485000Y-32223967D01*
X66660000Y-32223967D01*
X66660000Y-30660000D01*
X106634998Y-30660000D01*
X106611201Y-30688997D01*
X106611201Y-30688997D01*
G37*
X106611201Y-30688997D02*
X105037081Y-32263118D01*
X105025000Y-32261928D01*
X104375000Y-32261928D01*
X104250518Y-32274188D01*
X104130820Y-32310498D01*
X104020506Y-32369463D01*
X103923815Y-32448815D01*
X103844463Y-32545506D01*
X103785498Y-32655820D01*
X103752921Y-32763211D01*
X103785000Y-32601939D01*
X103785000Y-32398061D01*
X103745226Y-32198102D01*
X103667205Y-32009744D01*
X103553937Y-31840226D01*
X103409774Y-31696063D01*
X103240256Y-31582795D01*
X103051898Y-31504774D01*
X102851939Y-31465000D01*
X102648061Y-31465000D01*
X102448102Y-31504774D01*
X102259744Y-31582795D01*
X102090226Y-31696063D01*
X101946063Y-31840226D01*
X101832795Y-32009744D01*
X101754774Y-32198102D01*
X101715000Y-32398061D01*
X101715000Y-32601939D01*
X101754774Y-32801898D01*
X101832795Y-32990256D01*
X101836928Y-32996441D01*
X101836928Y-33300000D01*
X101849188Y-33424482D01*
X101849345Y-33425000D01*
X101849188Y-33425518D01*
X101836928Y-33550000D01*
X101836928Y-33950000D01*
X101849188Y-34074482D01*
X101849345Y-34074999D01*
X101849188Y-34075518D01*
X101836928Y-34200000D01*
X101836928Y-34600000D01*
X101849188Y-34724482D01*
X101885498Y-34844180D01*
X101944463Y-34954494D01*
X102023815Y-35051185D01*
X102120506Y-35130537D01*
X102230820Y-35189502D01*
X102350518Y-35225812D01*
X102475000Y-35238072D01*
X103125000Y-35238072D01*
X103249482Y-35225812D01*
X103319706Y-35204510D01*
X104126198Y-36011002D01*
X104149997Y-36040001D01*
X104178995Y-36063799D01*
X104265722Y-36134974D01*
X104397751Y-36205546D01*
X104541012Y-36249003D01*
X104689998Y-36263677D01*
X104727331Y-36260000D01*
X104883571Y-36260000D01*
X106880499Y-38256928D01*
X106461250Y-38256928D01*
X106294092Y-38273392D01*
X106133358Y-38322150D01*
X105985225Y-38401329D01*
X105855385Y-38507885D01*
X105781328Y-38598124D01*
X105755196Y-38576678D01*
X105689008Y-38541299D01*
X105617189Y-38519513D01*
X105542500Y-38512157D01*
X105510750Y-38514000D01*
X105415500Y-38609250D01*
X105415500Y-39022000D01*
X105498000Y-39022000D01*
X105498000Y-39718000D01*
X105415500Y-39718000D01*
X105415500Y-40130750D01*
X105510750Y-40226000D01*
X105542500Y-40227843D01*
X105617189Y-40220487D01*
X105689008Y-40198701D01*
X105755196Y-40163322D01*
X105781328Y-40141876D01*
X105855385Y-40232115D01*
X105985225Y-40338671D01*
X106133358Y-40417850D01*
X106294092Y-40466608D01*
X106461250Y-40483072D01*
X106898750Y-40483072D01*
X107065908Y-40466608D01*
X107226642Y-40417850D01*
X107349421Y-40352223D01*
X107526626Y-40529428D01*
X107058750Y-40529428D01*
X106891592Y-40545892D01*
X106730858Y-40594650D01*
X106582725Y-40673829D01*
X106526465Y-40720000D01*
X105563535Y-40720000D01*
X105507275Y-40673829D01*
X105359142Y-40594650D01*
X105198408Y-40545892D01*
X105031250Y-40529428D01*
X104518750Y-40529428D01*
X104351592Y-40545892D01*
X104190858Y-40594650D01*
X104042725Y-40673829D01*
X103912885Y-40780385D01*
X103806329Y-40910225D01*
X103727150Y-41058358D01*
X103678392Y-41219092D01*
X103669931Y-41305000D01*
X103160711Y-41305000D01*
X103165937Y-41299774D01*
X103279205Y-41130256D01*
X103357226Y-40941898D01*
X103397000Y-40741939D01*
X103397000Y-40538061D01*
X103357226Y-40338102D01*
X103279205Y-40149744D01*
X103165937Y-39980226D01*
X103030711Y-39845000D01*
X104284657Y-39845000D01*
X104292013Y-39919689D01*
X104313799Y-39991508D01*
X104349178Y-40057696D01*
X104396789Y-40115711D01*
X104454804Y-40163322D01*
X104520992Y-40198701D01*
X104592811Y-40220487D01*
X104667500Y-40227843D01*
X104699250Y-40226000D01*
X104794500Y-40130750D01*
X104794500Y-39718000D01*
X104381750Y-39718000D01*
X104286500Y-39813250D01*
X104284657Y-39845000D01*
X103030711Y-39845000D01*
X103021774Y-39836063D01*
X102852256Y-39722795D01*
X102663898Y-39644774D01*
X102463939Y-39605000D01*
X102260061Y-39605000D01*
X102060102Y-39644774D01*
X101871744Y-39722795D01*
X101702226Y-39836063D01*
X101572434Y-39965855D01*
X100800572Y-39193994D01*
X100800572Y-39113750D01*
X100784108Y-38946592D01*
X100768458Y-38895000D01*
X104284657Y-38895000D01*
X104286500Y-38926750D01*
X104381750Y-39022000D01*
X104794500Y-39022000D01*
X104794500Y-38609250D01*
X104699250Y-38514000D01*
X104667500Y-38512157D01*
X104592811Y-38519513D01*
X104520992Y-38541299D01*
X104454804Y-38576678D01*
X104396789Y-38624289D01*
X104349178Y-38682304D01*
X104313799Y-38748492D01*
X104292013Y-38820311D01*
X104284657Y-38895000D01*
X100768458Y-38895000D01*
X100735350Y-38785858D01*
X100656171Y-38637725D01*
X100549615Y-38507885D01*
X100419775Y-38401329D01*
X100271642Y-38322150D01*
X100110908Y-38273392D01*
X99943750Y-38256928D01*
X99506250Y-38256928D01*
X99339092Y-38273392D01*
X99178358Y-38322150D01*
X99030225Y-38401329D01*
X98900385Y-38507885D01*
X98826328Y-38598124D01*
X98800196Y-38576678D01*
X98734008Y-38541299D01*
X98662189Y-38519513D01*
X98587500Y-38512157D01*
X98555750Y-38514000D01*
X98460500Y-38609250D01*
X98460500Y-39022000D01*
X98543000Y-39022000D01*
X98543000Y-39718000D01*
X98460500Y-39718000D01*
X98460500Y-40130750D01*
X98555750Y-40226000D01*
X98587500Y-40227843D01*
X98662189Y-40220487D01*
X98734008Y-40198701D01*
X98800196Y-40163322D01*
X98826328Y-40141876D01*
X98900385Y-40232115D01*
X99030225Y-40338671D01*
X99178358Y-40417850D01*
X99339092Y-40466608D01*
X99506250Y-40483072D01*
X99586494Y-40483072D01*
X100399762Y-41296341D01*
X100348418Y-41311916D01*
X100212171Y-41384742D01*
X100092749Y-41482749D01*
X99994742Y-41602171D01*
X99921916Y-41738418D01*
X99877071Y-41886255D01*
X99861928Y-42040000D01*
X99861928Y-42340000D01*
X99877071Y-42493745D01*
X99921916Y-42641582D01*
X99994742Y-42777829D01*
X100033454Y-42825000D01*
X99994742Y-42872171D01*
X99921916Y-43008418D01*
X99877071Y-43156255D01*
X99861928Y-43310000D01*
X99861928Y-43610000D01*
X99877071Y-43763745D01*
X99921916Y-43911582D01*
X99994742Y-44047829D01*
X100033454Y-44095000D01*
X99994742Y-44142171D01*
X99921916Y-44278418D01*
X99877071Y-44426255D01*
X99861928Y-44580000D01*
X99861928Y-44880000D01*
X99877071Y-45033745D01*
X99921916Y-45181582D01*
X99953141Y-45240000D01*
X99452322Y-45240000D01*
X99414999Y-45236324D01*
X99377676Y-45240000D01*
X99377667Y-45240000D01*
X99266014Y-45250997D01*
X99122753Y-45294454D01*
X98990724Y-45365026D01*
X98990722Y-45365027D01*
X98990723Y-45365027D01*
X98903996Y-45436201D01*
X98903992Y-45436205D01*
X98874999Y-45459999D01*
X98851205Y-45488992D01*
X98132377Y-46207822D01*
X98138072Y-46150000D01*
X98138072Y-45850000D01*
X98122929Y-45696255D01*
X98078084Y-45548418D01*
X98005258Y-45412171D01*
X97966546Y-45365000D01*
X98005258Y-45317829D01*
X98078084Y-45181582D01*
X98122929Y-45033745D01*
X98138072Y-44880000D01*
X98138072Y-44580000D01*
X98122929Y-44426255D01*
X98078084Y-44278418D01*
X98005258Y-44142171D01*
X97966546Y-44095000D01*
X98005258Y-44047829D01*
X98078084Y-43911582D01*
X98122929Y-43763745D01*
X98138072Y-43610000D01*
X98138072Y-43310000D01*
X98122929Y-43156255D01*
X98078084Y-43008418D01*
X98005258Y-42872171D01*
X97907251Y-42752749D01*
X97826841Y-42686758D01*
X97853701Y-42636508D01*
X97875487Y-42564689D01*
X97882843Y-42490000D01*
X97881000Y-42458250D01*
X97785750Y-42363000D01*
X96898000Y-42363000D01*
X96898000Y-42490000D01*
X96152000Y-42490000D01*
X96152000Y-42363000D01*
X95264250Y-42363000D01*
X95169000Y-42458250D01*
X95167157Y-42490000D01*
X95174513Y-42564689D01*
X95196299Y-42636508D01*
X95223159Y-42686758D01*
X95207024Y-42700000D01*
X84414802Y-42700000D01*
X83604802Y-41890000D01*
X95167157Y-41890000D01*
X95169000Y-41921750D01*
X95264250Y-42017000D01*
X96152000Y-42017000D01*
X96152000Y-41604250D01*
X96898000Y-41604250D01*
X96898000Y-42017000D01*
X97785750Y-42017000D01*
X97881000Y-41921750D01*
X97882843Y-41890000D01*
X97875487Y-41815311D01*
X97853701Y-41743492D01*
X97818322Y-41677304D01*
X97770711Y-41619289D01*
X97712696Y-41571678D01*
X97646508Y-41536299D01*
X97574689Y-41514513D01*
X97500000Y-41507157D01*
X96993250Y-41509000D01*
X96898000Y-41604250D01*
X96152000Y-41604250D01*
X96056750Y-41509000D01*
X95550000Y-41507157D01*
X95475311Y-41514513D01*
X95403492Y-41536299D01*
X95337304Y-41571678D01*
X95279289Y-41619289D01*
X95231678Y-41677304D01*
X95196299Y-41743492D01*
X95174513Y-41815311D01*
X95167157Y-41890000D01*
X83604802Y-41890000D01*
X82675000Y-40960199D01*
X82675000Y-39845000D01*
X97329657Y-39845000D01*
X97337013Y-39919689D01*
X97358799Y-39991508D01*
X97394178Y-40057696D01*
X97441789Y-40115711D01*
X97499804Y-40163322D01*
X97565992Y-40198701D01*
X97637811Y-40220487D01*
X97712500Y-40227843D01*
X97744250Y-40226000D01*
X97839500Y-40130750D01*
X97839500Y-39718000D01*
X97426750Y-39718000D01*
X97331500Y-39813250D01*
X97329657Y-39845000D01*
X82675000Y-39845000D01*
X82675000Y-39438711D01*
X82718937Y-39394774D01*
X82832205Y-39225256D01*
X82910226Y-39036898D01*
X82938451Y-38895000D01*
X97329657Y-38895000D01*
X97331500Y-38926750D01*
X97426750Y-39022000D01*
X97839500Y-39022000D01*
X97839500Y-38609250D01*
X97744250Y-38514000D01*
X97712500Y-38512157D01*
X97637811Y-38519513D01*
X97565992Y-38541299D01*
X97499804Y-38576678D01*
X97441789Y-38624289D01*
X97394178Y-38682304D01*
X97358799Y-38748492D01*
X97337013Y-38820311D01*
X97329657Y-38895000D01*
X82938451Y-38895000D01*
X82950000Y-38836939D01*
X82950000Y-38633061D01*
X82910226Y-38433102D01*
X82832205Y-38244744D01*
X82718937Y-38075226D01*
X82574774Y-37931063D01*
X82405256Y-37817795D01*
X82216898Y-37739774D01*
X82016939Y-37700000D01*
X81813061Y-37700000D01*
X81613102Y-37739774D01*
X81424744Y-37817795D01*
X81280000Y-37914510D01*
X81135256Y-37817795D01*
X80946898Y-37739774D01*
X80746939Y-37700000D01*
X80543061Y-37700000D01*
X80343102Y-37739774D01*
X80154744Y-37817795D01*
X79985226Y-37931063D01*
X79841063Y-38075226D01*
X79727795Y-38244744D01*
X79649774Y-38433102D01*
X79610000Y-38633061D01*
X79610000Y-38836939D01*
X79649774Y-39036898D01*
X79727795Y-39225256D01*
X79841063Y-39394774D01*
X79885001Y-39438712D01*
X79885000Y-41872677D01*
X79881324Y-41910000D01*
X79885000Y-41947322D01*
X79885000Y-41947332D01*
X79895997Y-42058985D01*
X79931250Y-42175201D01*
X79939454Y-42202246D01*
X80010026Y-42334276D01*
X80034001Y-42363489D01*
X80104999Y-42450001D01*
X80134003Y-42473804D01*
X82900198Y-45240000D01*
X80357302Y-45240000D01*
X80168072Y-45050770D01*
X80168072Y-44543750D01*
X80151128Y-44371715D01*
X80100947Y-44206291D01*
X80019458Y-44053836D01*
X79909792Y-43920208D01*
X79776164Y-43810542D01*
X79623709Y-43729053D01*
X79458285Y-43678872D01*
X79286250Y-43661928D01*
X78798750Y-43661928D01*
X78626715Y-43678872D01*
X78461291Y-43729053D01*
X78308836Y-43810542D01*
X78175208Y-43920208D01*
X78105000Y-44005756D01*
X78034792Y-43920208D01*
X77901164Y-43810542D01*
X77748709Y-43729053D01*
X77583285Y-43678872D01*
X77411250Y-43661928D01*
X76923750Y-43661928D01*
X76751715Y-43678872D01*
X76586291Y-43729053D01*
X76433836Y-43810542D01*
X76300208Y-43920208D01*
X76190542Y-44053836D01*
X76109053Y-44206291D01*
X76058872Y-44371715D01*
X76041928Y-44543750D01*
X76041928Y-45456250D01*
X76058872Y-45628285D01*
X76109053Y-45793709D01*
X76190542Y-45946164D01*
X76300208Y-46079792D01*
X76415859Y-46174705D01*
X76418497Y-46201485D01*
X76461954Y-46344746D01*
X76532526Y-46476776D01*
X76572371Y-46525326D01*
X76627499Y-46592501D01*
X76656502Y-46616304D01*
X77551200Y-47511002D01*
X77574999Y-47540001D01*
X77690724Y-47634974D01*
X77822753Y-47705546D01*
X77966014Y-47749003D01*
X78077667Y-47760000D01*
X78077676Y-47760000D01*
X78114999Y-47763676D01*
X78152322Y-47760000D01*
X89109082Y-47760000D01*
X89192885Y-47862115D01*
X89322725Y-47968671D01*
X89470858Y-48047850D01*
X89631592Y-48096608D01*
X89798750Y-48113072D01*
X90236250Y-48113072D01*
X90403408Y-48096608D01*
X90564142Y-48047850D01*
X90712275Y-47968671D01*
X90805000Y-47892574D01*
X90897725Y-47968671D01*
X91045858Y-48047850D01*
X91206592Y-48096608D01*
X91373750Y-48113072D01*
X91811250Y-48113072D01*
X91978408Y-48096608D01*
X92139142Y-48047850D01*
X92172537Y-48030000D01*
X93411613Y-48030000D01*
X93320226Y-48091063D01*
X93176063Y-48235226D01*
X93062795Y-48404744D01*
X92984774Y-48593102D01*
X92945000Y-48793061D01*
X92945000Y-48996939D01*
X92984774Y-49196898D01*
X93062795Y-49385256D01*
X93176063Y-49554774D01*
X93220001Y-49598712D01*
X93220001Y-50373000D01*
X79000000Y-50373000D01*
X78975224Y-50375440D01*
X78951399Y-50382667D01*
X78929443Y-50394403D01*
X78910197Y-50410197D01*
X78894403Y-50429443D01*
X78882667Y-50451399D01*
X78875440Y-50475224D01*
X78873000Y-50500000D01*
X78873000Y-50996778D01*
X78795908Y-50973392D01*
X78628750Y-50956928D01*
X78191250Y-50956928D01*
X78024092Y-50973392D01*
X77863358Y-51022150D01*
X77715225Y-51101329D01*
X77622500Y-51177426D01*
X77529775Y-51101329D01*
X77381642Y-51022150D01*
X77220908Y-50973392D01*
X77053750Y-50956928D01*
X76616250Y-50956928D01*
X76449092Y-50973392D01*
X76288358Y-51022150D01*
X76140225Y-51101329D01*
X76010385Y-51207885D01*
X75903829Y-51337725D01*
X75824650Y-51485858D01*
X75775892Y-51646592D01*
X75759428Y-51813750D01*
X75759428Y-52326250D01*
X75775892Y-52493408D01*
X75824650Y-52654142D01*
X75903829Y-52802275D01*
X75998110Y-52917158D01*
X75935932Y-53067271D01*
X75900000Y-53247911D01*
X75900000Y-53432089D01*
X75935932Y-53612729D01*
X76001697Y-53771500D01*
X75826998Y-53771500D01*
X75826998Y-53866748D01*
X75731750Y-53771500D01*
X75500000Y-53769657D01*
X75425311Y-53777013D01*
X75353492Y-53798799D01*
X75287304Y-53834178D01*
X75229289Y-53881789D01*
X75181678Y-53939804D01*
X75146299Y-54005992D01*
X75124513Y-54077811D01*
X75117157Y-54152500D01*
X75119000Y-54184250D01*
X75214250Y-54279500D01*
X75827000Y-54279500D01*
X75827000Y-54247000D01*
X76573000Y-54247000D01*
X76573000Y-54279500D01*
X77185750Y-54279500D01*
X77281000Y-54184250D01*
X77282071Y-54165791D01*
X77431028Y-54066262D01*
X77561262Y-53936028D01*
X77663586Y-53782889D01*
X77734068Y-53612729D01*
X77770000Y-53432089D01*
X77770000Y-53247911D01*
X77734068Y-53067271D01*
X77724211Y-53043474D01*
X77863358Y-53117850D01*
X78024092Y-53166608D01*
X78191250Y-53183072D01*
X78628750Y-53183072D01*
X78795908Y-53166608D01*
X78873000Y-53143222D01*
X78873000Y-53699000D01*
X78766750Y-53699000D01*
X78735000Y-53697157D01*
X78716287Y-53699000D01*
X78686998Y-53699000D01*
X78686998Y-53701885D01*
X78660311Y-53704513D01*
X78588492Y-53726299D01*
X78522304Y-53761678D01*
X78464289Y-53809289D01*
X78416678Y-53867304D01*
X78381299Y-53933492D01*
X78359513Y-54005311D01*
X78352157Y-54080000D01*
X78354000Y-54141750D01*
X78449250Y-54237000D01*
X78862000Y-54237000D01*
X78862000Y-54217000D01*
X78873000Y-54217000D01*
X78873000Y-54873000D01*
X74096644Y-54873000D01*
X74096000Y-54818250D01*
X74000750Y-54723000D01*
X72763000Y-54723000D01*
X72763000Y-54743000D01*
X72017000Y-54743000D01*
X72017000Y-54723000D01*
X70779250Y-54723000D01*
X70684000Y-54818250D01*
X70682157Y-54975000D01*
X70689513Y-55049689D01*
X70711299Y-55121508D01*
X70746678Y-55187696D01*
X70794289Y-55245711D01*
X70852304Y-55293322D01*
X70873000Y-55304384D01*
X70873000Y-55373000D01*
X69327022Y-55373000D01*
X69326000Y-55078250D01*
X69230750Y-54983000D01*
X68318000Y-54983000D01*
X68318000Y-55003000D01*
X67572000Y-55003000D01*
X67572000Y-54983000D01*
X67552000Y-54983000D01*
X67552000Y-54237000D01*
X67572000Y-54237000D01*
X67572000Y-53324250D01*
X68318000Y-53324250D01*
X68318000Y-54237000D01*
X69230750Y-54237000D01*
X69326000Y-54141750D01*
X69327444Y-53725000D01*
X70682157Y-53725000D01*
X70684000Y-53881750D01*
X70779250Y-53977000D01*
X72017000Y-53977000D01*
X72017000Y-53439250D01*
X72763000Y-53439250D01*
X72763000Y-53977000D01*
X74000750Y-53977000D01*
X74096000Y-53881750D01*
X74097843Y-53725000D01*
X74090487Y-53650311D01*
X74068701Y-53578492D01*
X74033322Y-53512304D01*
X73985711Y-53454289D01*
X73927696Y-53406678D01*
X73861508Y-53371299D01*
X73789689Y-53349513D01*
X73715000Y-53342157D01*
X72858250Y-53344000D01*
X72763000Y-53439250D01*
X72017000Y-53439250D01*
X71921750Y-53344000D01*
X71065000Y-53342157D01*
X70990311Y-53349513D01*
X70918492Y-53371299D01*
X70852304Y-53406678D01*
X70794289Y-53454289D01*
X70746678Y-53512304D01*
X70711299Y-53578492D01*
X70689513Y-53650311D01*
X70682157Y-53725000D01*
X69327444Y-53725000D01*
X69327843Y-53610000D01*
X69320487Y-53535311D01*
X69298701Y-53463492D01*
X69263322Y-53397304D01*
X69215711Y-53339289D01*
X69157696Y-53291678D01*
X69091508Y-53256299D01*
X69019689Y-53234513D01*
X68945000Y-53227157D01*
X68413250Y-53229000D01*
X68318000Y-53324250D01*
X67572000Y-53324250D01*
X67476750Y-53229000D01*
X66945000Y-53227157D01*
X66870311Y-53234513D01*
X66798492Y-53256299D01*
X66732304Y-53291678D01*
X66674289Y-53339289D01*
X66660000Y-53356700D01*
X66660000Y-40639783D01*
X66675013Y-40662252D01*
X66902748Y-40889987D01*
X67170537Y-41068918D01*
X67468088Y-41192168D01*
X67783967Y-41255000D01*
X68106033Y-41255000D01*
X68421912Y-41192168D01*
X68719463Y-41068918D01*
X68987252Y-40889987D01*
X69214987Y-40662252D01*
X69393918Y-40394463D01*
X69517168Y-40096912D01*
X69580000Y-39781033D01*
X69580000Y-39458967D01*
X69517168Y-39143088D01*
X69393918Y-38845537D01*
X69214987Y-38577748D01*
X68987252Y-38350013D01*
X68719463Y-38171082D01*
X68421912Y-38047832D01*
X68106033Y-37985000D01*
X67783967Y-37985000D01*
X67468088Y-38047832D01*
X67170537Y-38171082D01*
X66902748Y-38350013D01*
X66675013Y-38577748D01*
X66660000Y-38600217D01*
X66660000Y-32223967D01*
X69485000Y-32223967D01*
X69485000Y-32546033D01*
X69547832Y-32861912D01*
X69671082Y-33159463D01*
X69850013Y-33427252D01*
X70077748Y-33654987D01*
X70345537Y-33833918D01*
X70643088Y-33957168D01*
X70958967Y-34020000D01*
X71281033Y-34020000D01*
X71596912Y-33957168D01*
X71894463Y-33833918D01*
X72162252Y-33654987D01*
X72389987Y-33427252D01*
X72390000Y-33427233D01*
X72390013Y-33427252D01*
X72617748Y-33654987D01*
X72885537Y-33833918D01*
X73183088Y-33957168D01*
X73498967Y-34020000D01*
X73821033Y-34020000D01*
X74136912Y-33957168D01*
X74434463Y-33833918D01*
X74702252Y-33654987D01*
X74929987Y-33427252D01*
X74930000Y-33427233D01*
X74930013Y-33427252D01*
X75157748Y-33654987D01*
X75425537Y-33833918D01*
X75723088Y-33957168D01*
X76038967Y-34020000D01*
X76361033Y-34020000D01*
X76676912Y-33957168D01*
X76974463Y-33833918D01*
X77242252Y-33654987D01*
X77469987Y-33427252D01*
X77470000Y-33427233D01*
X77470013Y-33427252D01*
X77697748Y-33654987D01*
X77965537Y-33833918D01*
X78263088Y-33957168D01*
X78578967Y-34020000D01*
X78901033Y-34020000D01*
X79216912Y-33957168D01*
X79514463Y-33833918D01*
X79782252Y-33654987D01*
X80009987Y-33427252D01*
X80010000Y-33427233D01*
X80010013Y-33427252D01*
X80237748Y-33654987D01*
X80505537Y-33833918D01*
X80803088Y-33957168D01*
X81118967Y-34020000D01*
X81441033Y-34020000D01*
X81756912Y-33957168D01*
X82054463Y-33833918D01*
X82322252Y-33654987D01*
X82453488Y-33523751D01*
X83208751Y-33523751D01*
X83336123Y-33685586D01*
X83599152Y-33754995D01*
X83870668Y-33771757D01*
X84140238Y-33735225D01*
X84303877Y-33685586D01*
X84431249Y-33523751D01*
X83820000Y-32912502D01*
X83208751Y-33523751D01*
X82453488Y-33523751D01*
X82549987Y-33427252D01*
X82728918Y-33159463D01*
X82852168Y-32861912D01*
X82861251Y-32816247D01*
X83292498Y-32385000D01*
X84347502Y-32385000D01*
X84958751Y-32996249D01*
X85120586Y-32868877D01*
X85189995Y-32605848D01*
X85206757Y-32334332D01*
X85170225Y-32064762D01*
X85120586Y-31901123D01*
X84958751Y-31773751D01*
X84347502Y-32385000D01*
X83292498Y-32385000D01*
X82861251Y-31953753D01*
X82852168Y-31908088D01*
X82728918Y-31610537D01*
X82549987Y-31342748D01*
X82453488Y-31246249D01*
X83208751Y-31246249D01*
X83820000Y-31857498D01*
X84431249Y-31246249D01*
X84303877Y-31084414D01*
X84040848Y-31015005D01*
X83769332Y-30998243D01*
X83499762Y-31034775D01*
X83336123Y-31084414D01*
X83208751Y-31246249D01*
X82453488Y-31246249D01*
X82322252Y-31115013D01*
X82054463Y-30936082D01*
X81756912Y-30812832D01*
X81441033Y-30750000D01*
X81118967Y-30750000D01*
X80803088Y-30812832D01*
X80505537Y-30936082D01*
X80237748Y-31115013D01*
X80010013Y-31342748D01*
X80010000Y-31342767D01*
X80009987Y-31342748D01*
X79782252Y-31115013D01*
X79514463Y-30936082D01*
X79216912Y-30812832D01*
X78901033Y-30750000D01*
X78578967Y-30750000D01*
X78263088Y-30812832D01*
X77965537Y-30936082D01*
X77697748Y-31115013D01*
X77470013Y-31342748D01*
X77470000Y-31342767D01*
X77469987Y-31342748D01*
X77242252Y-31115013D01*
X76974463Y-30936082D01*
X76676912Y-30812832D01*
X76361033Y-30750000D01*
X76038967Y-30750000D01*
X75723088Y-30812832D01*
X75425537Y-30936082D01*
X75157748Y-31115013D01*
X74930013Y-31342748D01*
X74930000Y-31342767D01*
X74929987Y-31342748D01*
X74702252Y-31115013D01*
X74434463Y-30936082D01*
X74136912Y-30812832D01*
X73821033Y-30750000D01*
X73498967Y-30750000D01*
X73183088Y-30812832D01*
X72885537Y-30936082D01*
X72617748Y-31115013D01*
X72390013Y-31342748D01*
X72390000Y-31342767D01*
X72389987Y-31342748D01*
X72162252Y-31115013D01*
X71894463Y-30936082D01*
X71596912Y-30812832D01*
X71281033Y-30750000D01*
X70958967Y-30750000D01*
X70643088Y-30812832D01*
X70345537Y-30936082D01*
X70077748Y-31115013D01*
X69850013Y-31342748D01*
X69671082Y-31610537D01*
X69547832Y-31908088D01*
X69485000Y-32223967D01*
X66660000Y-32223967D01*
X66660000Y-30660000D01*
X106634998Y-30660000D01*
X106611201Y-30688997D01*
G36*
X112615000Y-50156531D02*
G01*
X112610719Y-50200000D01*
X112615000Y-50243469D01*
X112615000Y-50243476D01*
X112623960Y-50334452D01*
X112627757Y-50373000D01*
X111057804Y-50373000D01*
X109983806Y-49299003D01*
X109960003Y-49269999D01*
X109844278Y-49175026D01*
X109712249Y-49104454D01*
X109568988Y-49060997D01*
X109457335Y-49050000D01*
X109457324Y-49050000D01*
X109420002Y-49046324D01*
X109382680Y-49050000D01*
X103347333Y-49050000D01*
X103310000Y-49046323D01*
X103272667Y-49050000D01*
X102996859Y-49050000D01*
X103028084Y-48991582D01*
X103072929Y-48843745D01*
X103088072Y-48690000D01*
X103088072Y-48390000D01*
X103072929Y-48236255D01*
X103028084Y-48088418D01*
X102955258Y-47952171D01*
X102916546Y-47905000D01*
X102955258Y-47857829D01*
X103028084Y-47721582D01*
X103072929Y-47573745D01*
X103088072Y-47420000D01*
X103088072Y-47120000D01*
X103072929Y-46966255D01*
X103028084Y-46818418D01*
X102955258Y-46682171D01*
X102916546Y-46635000D01*
X102955258Y-46587829D01*
X103028084Y-46451582D01*
X103072929Y-46303745D01*
X103088072Y-46150000D01*
X103088072Y-45850000D01*
X103072929Y-45696255D01*
X103028084Y-45548418D01*
X102980823Y-45460000D01*
X109096289Y-45460000D01*
X109140226Y-45503937D01*
X109309744Y-45617205D01*
X109498102Y-45695226D01*
X109698061Y-45735000D01*
X109901939Y-45735000D01*
X110101898Y-45695226D01*
X110290256Y-45617205D01*
X110459774Y-45503937D01*
X110603937Y-45359774D01*
X110700000Y-45216005D01*
X110796063Y-45359774D01*
X110940226Y-45503937D01*
X111109744Y-45617205D01*
X111298102Y-45695226D01*
X111498061Y-45735000D01*
X111701939Y-45735000D01*
X111901898Y-45695226D01*
X112090256Y-45617205D01*
X112259774Y-45503937D01*
X112403937Y-45359774D01*
X112517205Y-45190256D01*
X112595226Y-45001898D01*
X112615000Y-44902485D01*
X112615000Y-50156531D01*
X112615000Y-50156531D01*
G37*
X112615000Y-50156531D02*
X112610719Y-50200000D01*
X112615000Y-50243469D01*
X112615000Y-50243476D01*
X112623960Y-50334452D01*
X112627757Y-50373000D01*
X111057804Y-50373000D01*
X109983806Y-49299003D01*
X109960003Y-49269999D01*
X109844278Y-49175026D01*
X109712249Y-49104454D01*
X109568988Y-49060997D01*
X109457335Y-49050000D01*
X109457324Y-49050000D01*
X109420002Y-49046324D01*
X109382680Y-49050000D01*
X103347333Y-49050000D01*
X103310000Y-49046323D01*
X103272667Y-49050000D01*
X102996859Y-49050000D01*
X103028084Y-48991582D01*
X103072929Y-48843745D01*
X103088072Y-48690000D01*
X103088072Y-48390000D01*
X103072929Y-48236255D01*
X103028084Y-48088418D01*
X102955258Y-47952171D01*
X102916546Y-47905000D01*
X102955258Y-47857829D01*
X103028084Y-47721582D01*
X103072929Y-47573745D01*
X103088072Y-47420000D01*
X103088072Y-47120000D01*
X103072929Y-46966255D01*
X103028084Y-46818418D01*
X102955258Y-46682171D01*
X102916546Y-46635000D01*
X102955258Y-46587829D01*
X103028084Y-46451582D01*
X103072929Y-46303745D01*
X103088072Y-46150000D01*
X103088072Y-45850000D01*
X103072929Y-45696255D01*
X103028084Y-45548418D01*
X102980823Y-45460000D01*
X109096289Y-45460000D01*
X109140226Y-45503937D01*
X109309744Y-45617205D01*
X109498102Y-45695226D01*
X109698061Y-45735000D01*
X109901939Y-45735000D01*
X110101898Y-45695226D01*
X110290256Y-45617205D01*
X110459774Y-45503937D01*
X110603937Y-45359774D01*
X110700000Y-45216005D01*
X110796063Y-45359774D01*
X110940226Y-45503937D01*
X111109744Y-45617205D01*
X111298102Y-45695226D01*
X111498061Y-45735000D01*
X111701939Y-45735000D01*
X111901898Y-45695226D01*
X112090256Y-45617205D01*
X112259774Y-45503937D01*
X112403937Y-45359774D01*
X112517205Y-45190256D01*
X112595226Y-45001898D01*
X112615000Y-44902485D01*
X112615000Y-50156531D01*
G36*
X110840001Y-42216431D02*
G01*
X110840000Y-43996289D01*
X110796063Y-44040226D01*
X110700000Y-44183995D01*
X110603937Y-44040226D01*
X110459774Y-43896063D01*
X110290256Y-43782795D01*
X110101898Y-43704774D01*
X109901939Y-43665000D01*
X109698061Y-43665000D01*
X109498102Y-43704774D01*
X109309744Y-43782795D01*
X109140226Y-43896063D01*
X109096289Y-43940000D01*
X108230143Y-43940000D01*
X108283671Y-43874775D01*
X108316698Y-43812987D01*
X108430001Y-43720001D01*
X108453804Y-43690997D01*
X108841998Y-43302803D01*
X108871001Y-43279001D01*
X108965974Y-43163276D01*
X109036546Y-43031247D01*
X109080003Y-42887986D01*
X109091000Y-42776333D01*
X109091000Y-42776324D01*
X109094676Y-42739001D01*
X109091000Y-42701678D01*
X109091000Y-40467430D01*
X110840001Y-42216431D01*
X110840001Y-42216431D01*
G37*
X110840001Y-42216431D02*
X110840000Y-43996289D01*
X110796063Y-44040226D01*
X110700000Y-44183995D01*
X110603937Y-44040226D01*
X110459774Y-43896063D01*
X110290256Y-43782795D01*
X110101898Y-43704774D01*
X109901939Y-43665000D01*
X109698061Y-43665000D01*
X109498102Y-43704774D01*
X109309744Y-43782795D01*
X109140226Y-43896063D01*
X109096289Y-43940000D01*
X108230143Y-43940000D01*
X108283671Y-43874775D01*
X108316698Y-43812987D01*
X108430001Y-43720001D01*
X108453804Y-43690997D01*
X108841998Y-43302803D01*
X108871001Y-43279001D01*
X108965974Y-43163276D01*
X109036546Y-43031247D01*
X109080003Y-42887986D01*
X109091000Y-42776333D01*
X109091000Y-42776324D01*
X109094676Y-42739001D01*
X109091000Y-42701678D01*
X109091000Y-40467430D01*
X110840001Y-42216431D01*
G36*
X74861928Y-56758750D02*
G01*
X74873000Y-56871166D01*
X74873000Y-57000000D01*
X74875440Y-57024776D01*
X74882667Y-57048601D01*
X74894403Y-57070557D01*
X74910197Y-57089803D01*
X74929443Y-57105597D01*
X74935922Y-57109060D01*
X75010542Y-57248664D01*
X75120208Y-57382292D01*
X75253836Y-57491958D01*
X75406291Y-57573447D01*
X75571715Y-57623628D01*
X75743750Y-57640572D01*
X76656250Y-57640572D01*
X76828285Y-57623628D01*
X76993709Y-57573447D01*
X77146164Y-57491958D01*
X77232528Y-57421081D01*
X77377911Y-57450000D01*
X77562089Y-57450000D01*
X77742729Y-57414068D01*
X77912889Y-57343586D01*
X78066028Y-57241262D01*
X78180290Y-57127000D01*
X78873000Y-57127000D01*
X78873000Y-57345325D01*
X78787995Y-57472544D01*
X78709974Y-57660902D01*
X78670200Y-57860861D01*
X78670200Y-58064739D01*
X78709974Y-58264698D01*
X78754834Y-58373000D01*
X71627000Y-58373000D01*
X71627000Y-56627000D01*
X74861928Y-56627000D01*
X74861928Y-56758750D01*
X74861928Y-56758750D01*
G37*
X74861928Y-56758750D02*
X74873000Y-56871166D01*
X74873000Y-57000000D01*
X74875440Y-57024776D01*
X74882667Y-57048601D01*
X74894403Y-57070557D01*
X74910197Y-57089803D01*
X74929443Y-57105597D01*
X74935922Y-57109060D01*
X75010542Y-57248664D01*
X75120208Y-57382292D01*
X75253836Y-57491958D01*
X75406291Y-57573447D01*
X75571715Y-57623628D01*
X75743750Y-57640572D01*
X76656250Y-57640572D01*
X76828285Y-57623628D01*
X76993709Y-57573447D01*
X77146164Y-57491958D01*
X77232528Y-57421081D01*
X77377911Y-57450000D01*
X77562089Y-57450000D01*
X77742729Y-57414068D01*
X77912889Y-57343586D01*
X78066028Y-57241262D01*
X78180290Y-57127000D01*
X78873000Y-57127000D01*
X78873000Y-57345325D01*
X78787995Y-57472544D01*
X78709974Y-57660902D01*
X78670200Y-57860861D01*
X78670200Y-58064739D01*
X78709974Y-58264698D01*
X78754834Y-58373000D01*
X71627000Y-58373000D01*
X71627000Y-56627000D01*
X74861928Y-56627000D01*
X74861928Y-56758750D01*
G36*
X96740001Y-53314803D02*
G01*
X96740000Y-61462678D01*
X96736324Y-61500000D01*
X96740000Y-61537322D01*
X96740000Y-61537332D01*
X96750997Y-61648985D01*
X96779815Y-61743986D01*
X96794454Y-61792246D01*
X96865026Y-61924276D01*
X96904871Y-61972826D01*
X96959999Y-62040001D01*
X96989003Y-62063804D01*
X98265198Y-63340000D01*
X82127000Y-63340000D01*
X82127000Y-58545000D01*
X83531101Y-58545000D01*
X83535974Y-58569498D01*
X83613995Y-58757856D01*
X83727263Y-58927374D01*
X83871426Y-59071537D01*
X84040944Y-59184805D01*
X84229302Y-59262826D01*
X84429261Y-59302600D01*
X84633139Y-59302600D01*
X84833098Y-59262826D01*
X85021456Y-59184805D01*
X85190974Y-59071537D01*
X85335137Y-58927374D01*
X85448405Y-58757856D01*
X85526426Y-58569498D01*
X85537735Y-58512644D01*
X85665379Y-58385000D01*
X86711465Y-58385000D01*
X86767725Y-58431171D01*
X86915858Y-58510350D01*
X87076592Y-58559108D01*
X87243750Y-58575572D01*
X87756250Y-58575572D01*
X87923408Y-58559108D01*
X88084142Y-58510350D01*
X88232275Y-58431171D01*
X88362115Y-58324615D01*
X88468671Y-58194775D01*
X88547850Y-58046642D01*
X88596608Y-57885908D01*
X88613072Y-57718750D01*
X88613072Y-57281250D01*
X88596608Y-57114092D01*
X88547850Y-56953358D01*
X88468671Y-56805225D01*
X88392574Y-56712500D01*
X88452073Y-56640000D01*
X92672678Y-56640000D01*
X92710000Y-56643676D01*
X92747322Y-56640000D01*
X92747333Y-56640000D01*
X92858986Y-56629003D01*
X93002247Y-56585546D01*
X93134276Y-56514974D01*
X93250001Y-56420001D01*
X93273804Y-56390997D01*
X94491004Y-55173798D01*
X94520001Y-55150001D01*
X94614974Y-55034276D01*
X94685546Y-54902247D01*
X94729003Y-54758986D01*
X94740000Y-54647333D01*
X94740000Y-54647324D01*
X94743676Y-54610001D01*
X94740000Y-54572678D01*
X94740000Y-51627000D01*
X95052199Y-51627000D01*
X96740001Y-53314803D01*
X96740001Y-53314803D01*
G37*
X96740001Y-53314803D02*
X96740000Y-61462678D01*
X96736324Y-61500000D01*
X96740000Y-61537322D01*
X96740000Y-61537332D01*
X96750997Y-61648985D01*
X96779815Y-61743986D01*
X96794454Y-61792246D01*
X96865026Y-61924276D01*
X96904871Y-61972826D01*
X96959999Y-62040001D01*
X96989003Y-62063804D01*
X98265198Y-63340000D01*
X82127000Y-63340000D01*
X82127000Y-58545000D01*
X83531101Y-58545000D01*
X83535974Y-58569498D01*
X83613995Y-58757856D01*
X83727263Y-58927374D01*
X83871426Y-59071537D01*
X84040944Y-59184805D01*
X84229302Y-59262826D01*
X84429261Y-59302600D01*
X84633139Y-59302600D01*
X84833098Y-59262826D01*
X85021456Y-59184805D01*
X85190974Y-59071537D01*
X85335137Y-58927374D01*
X85448405Y-58757856D01*
X85526426Y-58569498D01*
X85537735Y-58512644D01*
X85665379Y-58385000D01*
X86711465Y-58385000D01*
X86767725Y-58431171D01*
X86915858Y-58510350D01*
X87076592Y-58559108D01*
X87243750Y-58575572D01*
X87756250Y-58575572D01*
X87923408Y-58559108D01*
X88084142Y-58510350D01*
X88232275Y-58431171D01*
X88362115Y-58324615D01*
X88468671Y-58194775D01*
X88547850Y-58046642D01*
X88596608Y-57885908D01*
X88613072Y-57718750D01*
X88613072Y-57281250D01*
X88596608Y-57114092D01*
X88547850Y-56953358D01*
X88468671Y-56805225D01*
X88392574Y-56712500D01*
X88452073Y-56640000D01*
X92672678Y-56640000D01*
X92710000Y-56643676D01*
X92747322Y-56640000D01*
X92747333Y-56640000D01*
X92858986Y-56629003D01*
X93002247Y-56585546D01*
X93134276Y-56514974D01*
X93250001Y-56420001D01*
X93273804Y-56390997D01*
X94491004Y-55173798D01*
X94520001Y-55150001D01*
X94614974Y-55034276D01*
X94685546Y-54902247D01*
X94729003Y-54758986D01*
X94740000Y-54647333D01*
X94740000Y-54647324D01*
X94743676Y-54610001D01*
X94740000Y-54572678D01*
X94740000Y-51627000D01*
X95052199Y-51627000D01*
X96740001Y-53314803D01*
G36*
X107321949Y-52176939D02*
G01*
X107361723Y-52376898D01*
X107439744Y-52565256D01*
X107553012Y-52734774D01*
X107697175Y-52878937D01*
X107866693Y-52992205D01*
X108055051Y-53070226D01*
X108255010Y-53110000D01*
X108458888Y-53110000D01*
X108629974Y-53075969D01*
X108635498Y-53094180D01*
X108694463Y-53204494D01*
X108773815Y-53301185D01*
X108831089Y-53348189D01*
X108844454Y-53392247D01*
X108915026Y-53524276D01*
X109010000Y-53640001D01*
X109038996Y-53663797D01*
X109061200Y-53686002D01*
X109085000Y-53715002D01*
X109200725Y-53809975D01*
X109332754Y-53880547D01*
X109476015Y-53924004D01*
X109587668Y-53935001D01*
X109587678Y-53935001D01*
X109625000Y-53938677D01*
X109662323Y-53935001D01*
X113787677Y-53935001D01*
X113824999Y-53938677D01*
X113862321Y-53935001D01*
X113862332Y-53935001D01*
X113973985Y-53924004D01*
X114117246Y-53880547D01*
X114249275Y-53809975D01*
X114365000Y-53715002D01*
X114373000Y-53705254D01*
X114373000Y-60835000D01*
X100644802Y-60835000D01*
X100455000Y-60645199D01*
X100455000Y-56035000D01*
X100601939Y-56035000D01*
X100801898Y-55995226D01*
X100990256Y-55917205D01*
X101113285Y-55835000D01*
X102584857Y-55835000D01*
X102637885Y-55899615D01*
X102767725Y-56006171D01*
X102915858Y-56085350D01*
X103076592Y-56134108D01*
X103243750Y-56150572D01*
X103756250Y-56150572D01*
X103923408Y-56134108D01*
X104084142Y-56085350D01*
X104232275Y-56006171D01*
X104362115Y-55899615D01*
X104415143Y-55835000D01*
X104584857Y-55835000D01*
X104637885Y-55899615D01*
X104767725Y-56006171D01*
X104915858Y-56085350D01*
X105076592Y-56134108D01*
X105243750Y-56150572D01*
X105756250Y-56150572D01*
X105923408Y-56134108D01*
X106084142Y-56085350D01*
X106232275Y-56006171D01*
X106362115Y-55899615D01*
X106468671Y-55769775D01*
X106547850Y-55621642D01*
X106596608Y-55460908D01*
X106613072Y-55293750D01*
X106613072Y-54856250D01*
X106596608Y-54689092D01*
X106547850Y-54528358D01*
X106468671Y-54380225D01*
X106392574Y-54287500D01*
X106468671Y-54194775D01*
X106547850Y-54046642D01*
X106596608Y-53885908D01*
X106613072Y-53718750D01*
X106613072Y-53281250D01*
X106596608Y-53114092D01*
X106547850Y-52953358D01*
X106468671Y-52805225D01*
X106362115Y-52675385D01*
X106260000Y-52591582D01*
X106260000Y-52110000D01*
X107321949Y-52110000D01*
X107321949Y-52176939D01*
X107321949Y-52176939D01*
G37*
X107321949Y-52176939D02*
X107361723Y-52376898D01*
X107439744Y-52565256D01*
X107553012Y-52734774D01*
X107697175Y-52878937D01*
X107866693Y-52992205D01*
X108055051Y-53070226D01*
X108255010Y-53110000D01*
X108458888Y-53110000D01*
X108629974Y-53075969D01*
X108635498Y-53094180D01*
X108694463Y-53204494D01*
X108773815Y-53301185D01*
X108831089Y-53348189D01*
X108844454Y-53392247D01*
X108915026Y-53524276D01*
X109010000Y-53640001D01*
X109038996Y-53663797D01*
X109061200Y-53686002D01*
X109085000Y-53715002D01*
X109200725Y-53809975D01*
X109332754Y-53880547D01*
X109476015Y-53924004D01*
X109587668Y-53935001D01*
X109587678Y-53935001D01*
X109625000Y-53938677D01*
X109662323Y-53935001D01*
X113787677Y-53935001D01*
X113824999Y-53938677D01*
X113862321Y-53935001D01*
X113862332Y-53935001D01*
X113973985Y-53924004D01*
X114117246Y-53880547D01*
X114249275Y-53809975D01*
X114365000Y-53715002D01*
X114373000Y-53705254D01*
X114373000Y-60835000D01*
X100644802Y-60835000D01*
X100455000Y-60645199D01*
X100455000Y-56035000D01*
X100601939Y-56035000D01*
X100801898Y-55995226D01*
X100990256Y-55917205D01*
X101113285Y-55835000D01*
X102584857Y-55835000D01*
X102637885Y-55899615D01*
X102767725Y-56006171D01*
X102915858Y-56085350D01*
X103076592Y-56134108D01*
X103243750Y-56150572D01*
X103756250Y-56150572D01*
X103923408Y-56134108D01*
X104084142Y-56085350D01*
X104232275Y-56006171D01*
X104362115Y-55899615D01*
X104415143Y-55835000D01*
X104584857Y-55835000D01*
X104637885Y-55899615D01*
X104767725Y-56006171D01*
X104915858Y-56085350D01*
X105076592Y-56134108D01*
X105243750Y-56150572D01*
X105756250Y-56150572D01*
X105923408Y-56134108D01*
X106084142Y-56085350D01*
X106232275Y-56006171D01*
X106362115Y-55899615D01*
X106468671Y-55769775D01*
X106547850Y-55621642D01*
X106596608Y-55460908D01*
X106613072Y-55293750D01*
X106613072Y-54856250D01*
X106596608Y-54689092D01*
X106547850Y-54528358D01*
X106468671Y-54380225D01*
X106392574Y-54287500D01*
X106468671Y-54194775D01*
X106547850Y-54046642D01*
X106596608Y-53885908D01*
X106613072Y-53718750D01*
X106613072Y-53281250D01*
X106596608Y-53114092D01*
X106547850Y-52953358D01*
X106468671Y-52805225D01*
X106362115Y-52675385D01*
X106260000Y-52591582D01*
X106260000Y-52110000D01*
X107321949Y-52110000D01*
X107321949Y-52176939D01*
G36*
X93220000Y-54295198D02*
G01*
X92395199Y-55120000D01*
X88378212Y-55120000D01*
X88362115Y-55100385D01*
X88232275Y-54993829D01*
X88084142Y-54914650D01*
X87923408Y-54865892D01*
X87756250Y-54849428D01*
X87243750Y-54849428D01*
X87076592Y-54865892D01*
X86915858Y-54914650D01*
X86767725Y-54993829D01*
X86637885Y-55100385D01*
X86621788Y-55120000D01*
X85684158Y-55120000D01*
X85705487Y-55049689D01*
X85712843Y-54975000D01*
X85711000Y-54818250D01*
X85615750Y-54723000D01*
X84828000Y-54723000D01*
X84828000Y-54743000D01*
X84082000Y-54743000D01*
X84082000Y-54723000D01*
X83294250Y-54723000D01*
X83199000Y-54818250D01*
X83197157Y-54975000D01*
X83204513Y-55049689D01*
X83226299Y-55121508D01*
X83257836Y-55180508D01*
X83137134Y-55245026D01*
X83021409Y-55339999D01*
X82997611Y-55368997D01*
X82316609Y-56050000D01*
X82127000Y-56050000D01*
X82127000Y-53725000D01*
X83197157Y-53725000D01*
X83199000Y-53881750D01*
X83294250Y-53977000D01*
X84082000Y-53977000D01*
X84082000Y-53439250D01*
X84828000Y-53439250D01*
X84828000Y-53977000D01*
X85615750Y-53977000D01*
X85711000Y-53881750D01*
X85712843Y-53725000D01*
X85705487Y-53650311D01*
X85683701Y-53578492D01*
X85648322Y-53512304D01*
X85600711Y-53454289D01*
X85542696Y-53406678D01*
X85476508Y-53371299D01*
X85404689Y-53349513D01*
X85330000Y-53342157D01*
X84923250Y-53344000D01*
X84828000Y-53439250D01*
X84082000Y-53439250D01*
X83986750Y-53344000D01*
X83580000Y-53342157D01*
X83505311Y-53349513D01*
X83433492Y-53371299D01*
X83367304Y-53406678D01*
X83309289Y-53454289D01*
X83261678Y-53512304D01*
X83226299Y-53578492D01*
X83204513Y-53650311D01*
X83197157Y-53725000D01*
X82127000Y-53725000D01*
X82127000Y-52418000D01*
X82530500Y-52418000D01*
X82530500Y-52830750D01*
X82625750Y-52926000D01*
X82657500Y-52927843D01*
X82732189Y-52920487D01*
X82804008Y-52898701D01*
X82870196Y-52863322D01*
X82928211Y-52815711D01*
X82975822Y-52757696D01*
X83011201Y-52691508D01*
X83032987Y-52619689D01*
X83040343Y-52545000D01*
X83038500Y-52513250D01*
X82943250Y-52418000D01*
X82530500Y-52418000D01*
X82127000Y-52418000D01*
X82127000Y-51677000D01*
X82530500Y-51677000D01*
X82530500Y-51722000D01*
X82943250Y-51722000D01*
X83038250Y-51627000D01*
X93220000Y-51627000D01*
X93220000Y-54295198D01*
X93220000Y-54295198D01*
G37*
X93220000Y-54295198D02*
X92395199Y-55120000D01*
X88378212Y-55120000D01*
X88362115Y-55100385D01*
X88232275Y-54993829D01*
X88084142Y-54914650D01*
X87923408Y-54865892D01*
X87756250Y-54849428D01*
X87243750Y-54849428D01*
X87076592Y-54865892D01*
X86915858Y-54914650D01*
X86767725Y-54993829D01*
X86637885Y-55100385D01*
X86621788Y-55120000D01*
X85684158Y-55120000D01*
X85705487Y-55049689D01*
X85712843Y-54975000D01*
X85711000Y-54818250D01*
X85615750Y-54723000D01*
X84828000Y-54723000D01*
X84828000Y-54743000D01*
X84082000Y-54743000D01*
X84082000Y-54723000D01*
X83294250Y-54723000D01*
X83199000Y-54818250D01*
X83197157Y-54975000D01*
X83204513Y-55049689D01*
X83226299Y-55121508D01*
X83257836Y-55180508D01*
X83137134Y-55245026D01*
X83021409Y-55339999D01*
X82997611Y-55368997D01*
X82316609Y-56050000D01*
X82127000Y-56050000D01*
X82127000Y-53725000D01*
X83197157Y-53725000D01*
X83199000Y-53881750D01*
X83294250Y-53977000D01*
X84082000Y-53977000D01*
X84082000Y-53439250D01*
X84828000Y-53439250D01*
X84828000Y-53977000D01*
X85615750Y-53977000D01*
X85711000Y-53881750D01*
X85712843Y-53725000D01*
X85705487Y-53650311D01*
X85683701Y-53578492D01*
X85648322Y-53512304D01*
X85600711Y-53454289D01*
X85542696Y-53406678D01*
X85476508Y-53371299D01*
X85404689Y-53349513D01*
X85330000Y-53342157D01*
X84923250Y-53344000D01*
X84828000Y-53439250D01*
X84082000Y-53439250D01*
X83986750Y-53344000D01*
X83580000Y-53342157D01*
X83505311Y-53349513D01*
X83433492Y-53371299D01*
X83367304Y-53406678D01*
X83309289Y-53454289D01*
X83261678Y-53512304D01*
X83226299Y-53578492D01*
X83204513Y-53650311D01*
X83197157Y-53725000D01*
X82127000Y-53725000D01*
X82127000Y-52418000D01*
X82530500Y-52418000D01*
X82530500Y-52830750D01*
X82625750Y-52926000D01*
X82657500Y-52927843D01*
X82732189Y-52920487D01*
X82804008Y-52898701D01*
X82870196Y-52863322D01*
X82928211Y-52815711D01*
X82975822Y-52757696D01*
X83011201Y-52691508D01*
X83032987Y-52619689D01*
X83040343Y-52545000D01*
X83038500Y-52513250D01*
X82943250Y-52418000D01*
X82530500Y-52418000D01*
X82127000Y-52418000D01*
X82127000Y-51677000D01*
X82530500Y-51677000D01*
X82530500Y-51722000D01*
X82943250Y-51722000D01*
X83038250Y-51627000D01*
X93220000Y-51627000D01*
X93220000Y-54295198D01*
M02*
