G04 #@! TF.GenerationSoftware,KiCad,Pcbnew,5.1.2*
G04 #@! TF.CreationDate,2019-08-07T15:52:47+02:00*
G04 #@! TF.ProjectId,wifisensor-dual-cpu,77696669-7365-46e7-936f-722d6475616c,rev?*
G04 #@! TF.SameCoordinates,Original*
G04 #@! TF.FileFunction,Soldermask,Top*
G04 #@! TF.FilePolarity,Negative*
%FSLAX46Y46*%
G04 Gerber Fmt 4.6, Leading zero omitted, Abs format (unit mm)*
G04 Created by KiCad (PCBNEW 5.1.2) date 2019-08-07 15:52:47*
%MOMM*%
%LPD*%
G04 APERTURE LIST*
%ADD10C,0.100000*%
G04 APERTURE END LIST*
D10*
G36*
X137426000Y-62901000D02*
G01*
X135624000Y-62901000D01*
X135624000Y-61099000D01*
X137426000Y-61099000D01*
X137426000Y-62901000D01*
X137426000Y-62901000D01*
G37*
G36*
X134095443Y-61105519D02*
G01*
X134161627Y-61112037D01*
X134331466Y-61163557D01*
X134487991Y-61247222D01*
X134523729Y-61276552D01*
X134625186Y-61359814D01*
X134708448Y-61461271D01*
X134737778Y-61497009D01*
X134821443Y-61653534D01*
X134872963Y-61823373D01*
X134890359Y-62000000D01*
X134872963Y-62176627D01*
X134821443Y-62346466D01*
X134737778Y-62502991D01*
X134708448Y-62538729D01*
X134625186Y-62640186D01*
X134523729Y-62723448D01*
X134487991Y-62752778D01*
X134331466Y-62836443D01*
X134161627Y-62887963D01*
X134095442Y-62894482D01*
X134029260Y-62901000D01*
X133940740Y-62901000D01*
X133874558Y-62894482D01*
X133808373Y-62887963D01*
X133638534Y-62836443D01*
X133482009Y-62752778D01*
X133446271Y-62723448D01*
X133344814Y-62640186D01*
X133261552Y-62538729D01*
X133232222Y-62502991D01*
X133148557Y-62346466D01*
X133097037Y-62176627D01*
X133079641Y-62000000D01*
X133097037Y-61823373D01*
X133148557Y-61653534D01*
X133232222Y-61497009D01*
X133261552Y-61461271D01*
X133344814Y-61359814D01*
X133446271Y-61276552D01*
X133482009Y-61247222D01*
X133638534Y-61163557D01*
X133808373Y-61112037D01*
X133874557Y-61105519D01*
X133940740Y-61099000D01*
X134029260Y-61099000D01*
X134095443Y-61105519D01*
X134095443Y-61105519D01*
G37*
G36*
X129015443Y-61105519D02*
G01*
X129081627Y-61112037D01*
X129251466Y-61163557D01*
X129407991Y-61247222D01*
X129443729Y-61276552D01*
X129545186Y-61359814D01*
X129628448Y-61461271D01*
X129657778Y-61497009D01*
X129741443Y-61653534D01*
X129792963Y-61823373D01*
X129810359Y-62000000D01*
X129792963Y-62176627D01*
X129741443Y-62346466D01*
X129657778Y-62502991D01*
X129628448Y-62538729D01*
X129545186Y-62640186D01*
X129443729Y-62723448D01*
X129407991Y-62752778D01*
X129251466Y-62836443D01*
X129081627Y-62887963D01*
X129015442Y-62894482D01*
X128949260Y-62901000D01*
X128860740Y-62901000D01*
X128794558Y-62894482D01*
X128728373Y-62887963D01*
X128558534Y-62836443D01*
X128402009Y-62752778D01*
X128366271Y-62723448D01*
X128264814Y-62640186D01*
X128181552Y-62538729D01*
X128152222Y-62502991D01*
X128068557Y-62346466D01*
X128017037Y-62176627D01*
X127999641Y-62000000D01*
X128017037Y-61823373D01*
X128068557Y-61653534D01*
X128152222Y-61497009D01*
X128181552Y-61461271D01*
X128264814Y-61359814D01*
X128366271Y-61276552D01*
X128402009Y-61247222D01*
X128558534Y-61163557D01*
X128728373Y-61112037D01*
X128794557Y-61105519D01*
X128860740Y-61099000D01*
X128949260Y-61099000D01*
X129015443Y-61105519D01*
X129015443Y-61105519D01*
G37*
G36*
X131555443Y-61105519D02*
G01*
X131621627Y-61112037D01*
X131791466Y-61163557D01*
X131947991Y-61247222D01*
X131983729Y-61276552D01*
X132085186Y-61359814D01*
X132168448Y-61461271D01*
X132197778Y-61497009D01*
X132281443Y-61653534D01*
X132332963Y-61823373D01*
X132350359Y-62000000D01*
X132332963Y-62176627D01*
X132281443Y-62346466D01*
X132197778Y-62502991D01*
X132168448Y-62538729D01*
X132085186Y-62640186D01*
X131983729Y-62723448D01*
X131947991Y-62752778D01*
X131791466Y-62836443D01*
X131621627Y-62887963D01*
X131555442Y-62894482D01*
X131489260Y-62901000D01*
X131400740Y-62901000D01*
X131334558Y-62894482D01*
X131268373Y-62887963D01*
X131098534Y-62836443D01*
X130942009Y-62752778D01*
X130906271Y-62723448D01*
X130804814Y-62640186D01*
X130721552Y-62538729D01*
X130692222Y-62502991D01*
X130608557Y-62346466D01*
X130557037Y-62176627D01*
X130539641Y-62000000D01*
X130557037Y-61823373D01*
X130608557Y-61653534D01*
X130692222Y-61497009D01*
X130721552Y-61461271D01*
X130804814Y-61359814D01*
X130906271Y-61276552D01*
X130942009Y-61247222D01*
X131098534Y-61163557D01*
X131268373Y-61112037D01*
X131334557Y-61105519D01*
X131400740Y-61099000D01*
X131489260Y-61099000D01*
X131555443Y-61105519D01*
X131555443Y-61105519D01*
G37*
G36*
X131555442Y-56890518D02*
G01*
X131621627Y-56897037D01*
X131791466Y-56948557D01*
X131947991Y-57032222D01*
X131972899Y-57052664D01*
X132085186Y-57144814D01*
X132166790Y-57244250D01*
X132197778Y-57282009D01*
X132281443Y-57438534D01*
X132332963Y-57608373D01*
X132350359Y-57785000D01*
X132332963Y-57961627D01*
X132281443Y-58131466D01*
X132197778Y-58287991D01*
X132168448Y-58323729D01*
X132085186Y-58425186D01*
X131983729Y-58508448D01*
X131947991Y-58537778D01*
X131791466Y-58621443D01*
X131621627Y-58672963D01*
X131555442Y-58679482D01*
X131489260Y-58686000D01*
X131400740Y-58686000D01*
X131334558Y-58679482D01*
X131268373Y-58672963D01*
X131098534Y-58621443D01*
X130942009Y-58537778D01*
X130906271Y-58508448D01*
X130804814Y-58425186D01*
X130721552Y-58323729D01*
X130692222Y-58287991D01*
X130608557Y-58131466D01*
X130557037Y-57961627D01*
X130539641Y-57785000D01*
X130557037Y-57608373D01*
X130608557Y-57438534D01*
X130692222Y-57282009D01*
X130723210Y-57244250D01*
X130804814Y-57144814D01*
X130917101Y-57052664D01*
X130942009Y-57032222D01*
X131098534Y-56948557D01*
X131268373Y-56897037D01*
X131334558Y-56890518D01*
X131400740Y-56884000D01*
X131489260Y-56884000D01*
X131555442Y-56890518D01*
X131555442Y-56890518D01*
G37*
G36*
X129015442Y-56890518D02*
G01*
X129081627Y-56897037D01*
X129251466Y-56948557D01*
X129407991Y-57032222D01*
X129432899Y-57052664D01*
X129545186Y-57144814D01*
X129626790Y-57244250D01*
X129657778Y-57282009D01*
X129741443Y-57438534D01*
X129792963Y-57608373D01*
X129810359Y-57785000D01*
X129792963Y-57961627D01*
X129741443Y-58131466D01*
X129657778Y-58287991D01*
X129628448Y-58323729D01*
X129545186Y-58425186D01*
X129443729Y-58508448D01*
X129407991Y-58537778D01*
X129251466Y-58621443D01*
X129081627Y-58672963D01*
X129015442Y-58679482D01*
X128949260Y-58686000D01*
X128860740Y-58686000D01*
X128794558Y-58679482D01*
X128728373Y-58672963D01*
X128558534Y-58621443D01*
X128402009Y-58537778D01*
X128366271Y-58508448D01*
X128264814Y-58425186D01*
X128181552Y-58323729D01*
X128152222Y-58287991D01*
X128068557Y-58131466D01*
X128017037Y-57961627D01*
X127999641Y-57785000D01*
X128017037Y-57608373D01*
X128068557Y-57438534D01*
X128152222Y-57282009D01*
X128183210Y-57244250D01*
X128264814Y-57144814D01*
X128377101Y-57052664D01*
X128402009Y-57032222D01*
X128558534Y-56948557D01*
X128728373Y-56897037D01*
X128794558Y-56890518D01*
X128860740Y-56884000D01*
X128949260Y-56884000D01*
X129015442Y-56890518D01*
X129015442Y-56890518D01*
G37*
G36*
X134095442Y-56890518D02*
G01*
X134161627Y-56897037D01*
X134331466Y-56948557D01*
X134487991Y-57032222D01*
X134512899Y-57052664D01*
X134625186Y-57144814D01*
X134706790Y-57244250D01*
X134737778Y-57282009D01*
X134821443Y-57438534D01*
X134872963Y-57608373D01*
X134890359Y-57785000D01*
X134872963Y-57961627D01*
X134821443Y-58131466D01*
X134737778Y-58287991D01*
X134708448Y-58323729D01*
X134625186Y-58425186D01*
X134523729Y-58508448D01*
X134487991Y-58537778D01*
X134331466Y-58621443D01*
X134161627Y-58672963D01*
X134095442Y-58679482D01*
X134029260Y-58686000D01*
X133940740Y-58686000D01*
X133874558Y-58679482D01*
X133808373Y-58672963D01*
X133638534Y-58621443D01*
X133482009Y-58537778D01*
X133446271Y-58508448D01*
X133344814Y-58425186D01*
X133261552Y-58323729D01*
X133232222Y-58287991D01*
X133148557Y-58131466D01*
X133097037Y-57961627D01*
X133079641Y-57785000D01*
X133097037Y-57608373D01*
X133148557Y-57438534D01*
X133232222Y-57282009D01*
X133263210Y-57244250D01*
X133344814Y-57144814D01*
X133457101Y-57052664D01*
X133482009Y-57032222D01*
X133638534Y-56948557D01*
X133808373Y-56897037D01*
X133874558Y-56890518D01*
X133940740Y-56884000D01*
X134029260Y-56884000D01*
X134095442Y-56890518D01*
X134095442Y-56890518D01*
G37*
G36*
X139966000Y-58686000D02*
G01*
X138164000Y-58686000D01*
X138164000Y-56884000D01*
X139966000Y-56884000D01*
X139966000Y-58686000D01*
X139966000Y-58686000D01*
G37*
G36*
X136635442Y-56890518D02*
G01*
X136701627Y-56897037D01*
X136871466Y-56948557D01*
X137027991Y-57032222D01*
X137052899Y-57052664D01*
X137165186Y-57144814D01*
X137246790Y-57244250D01*
X137277778Y-57282009D01*
X137361443Y-57438534D01*
X137412963Y-57608373D01*
X137430359Y-57785000D01*
X137412963Y-57961627D01*
X137361443Y-58131466D01*
X137277778Y-58287991D01*
X137248448Y-58323729D01*
X137165186Y-58425186D01*
X137063729Y-58508448D01*
X137027991Y-58537778D01*
X136871466Y-58621443D01*
X136701627Y-58672963D01*
X136635442Y-58679482D01*
X136569260Y-58686000D01*
X136480740Y-58686000D01*
X136414558Y-58679482D01*
X136348373Y-58672963D01*
X136178534Y-58621443D01*
X136022009Y-58537778D01*
X135986271Y-58508448D01*
X135884814Y-58425186D01*
X135801552Y-58323729D01*
X135772222Y-58287991D01*
X135688557Y-58131466D01*
X135637037Y-57961627D01*
X135619641Y-57785000D01*
X135637037Y-57608373D01*
X135688557Y-57438534D01*
X135772222Y-57282009D01*
X135803210Y-57244250D01*
X135884814Y-57144814D01*
X135997101Y-57052664D01*
X136022009Y-57032222D01*
X136178534Y-56948557D01*
X136348373Y-56897037D01*
X136414558Y-56890518D01*
X136480740Y-56884000D01*
X136569260Y-56884000D01*
X136635442Y-56890518D01*
X136635442Y-56890518D01*
G37*
G36*
X87879591Y-57015585D02*
G01*
X87913569Y-57025893D01*
X87944890Y-57042634D01*
X87972339Y-57065161D01*
X87994866Y-57092610D01*
X88011607Y-57123931D01*
X88021915Y-57157909D01*
X88026000Y-57199390D01*
X88026000Y-57800610D01*
X88021915Y-57842091D01*
X88011607Y-57876069D01*
X87994866Y-57907390D01*
X87972339Y-57934839D01*
X87944890Y-57957366D01*
X87913569Y-57974107D01*
X87879591Y-57984415D01*
X87838110Y-57988500D01*
X87161890Y-57988500D01*
X87120409Y-57984415D01*
X87086431Y-57974107D01*
X87055110Y-57957366D01*
X87027661Y-57934839D01*
X87005134Y-57907390D01*
X86988393Y-57876069D01*
X86978085Y-57842091D01*
X86974000Y-57800610D01*
X86974000Y-57199390D01*
X86978085Y-57157909D01*
X86988393Y-57123931D01*
X87005134Y-57092610D01*
X87027661Y-57065161D01*
X87055110Y-57042634D01*
X87086431Y-57025893D01*
X87120409Y-57015585D01*
X87161890Y-57011500D01*
X87838110Y-57011500D01*
X87879591Y-57015585D01*
X87879591Y-57015585D01*
G37*
G36*
X85223604Y-56478347D02*
G01*
X85260144Y-56489432D01*
X85293821Y-56507433D01*
X85323341Y-56531659D01*
X85347567Y-56561179D01*
X85365568Y-56594856D01*
X85376653Y-56631396D01*
X85381000Y-56675538D01*
X85381000Y-57624462D01*
X85376653Y-57668604D01*
X85365568Y-57705144D01*
X85347567Y-57738821D01*
X85323341Y-57768341D01*
X85293821Y-57792567D01*
X85260144Y-57810568D01*
X85223604Y-57821653D01*
X85179462Y-57826000D01*
X83730538Y-57826000D01*
X83686396Y-57821653D01*
X83649856Y-57810568D01*
X83616179Y-57792567D01*
X83586659Y-57768341D01*
X83562433Y-57738821D01*
X83544432Y-57705144D01*
X83533347Y-57668604D01*
X83529000Y-57624462D01*
X83529000Y-56675538D01*
X83533347Y-56631396D01*
X83544432Y-56594856D01*
X83562433Y-56561179D01*
X83586659Y-56531659D01*
X83616179Y-56507433D01*
X83649856Y-56489432D01*
X83686396Y-56478347D01*
X83730538Y-56474000D01*
X85179462Y-56474000D01*
X85223604Y-56478347D01*
X85223604Y-56478347D01*
G37*
G36*
X73608604Y-56478347D02*
G01*
X73645144Y-56489432D01*
X73678821Y-56507433D01*
X73708341Y-56531659D01*
X73732567Y-56561179D01*
X73750568Y-56594856D01*
X73761653Y-56631396D01*
X73766000Y-56675538D01*
X73766000Y-57624462D01*
X73761653Y-57668604D01*
X73750568Y-57705144D01*
X73732567Y-57738821D01*
X73708341Y-57768341D01*
X73678821Y-57792567D01*
X73645144Y-57810568D01*
X73608604Y-57821653D01*
X73564462Y-57826000D01*
X71215538Y-57826000D01*
X71171396Y-57821653D01*
X71134856Y-57810568D01*
X71101179Y-57792567D01*
X71071659Y-57768341D01*
X71047433Y-57738821D01*
X71029432Y-57705144D01*
X71018347Y-57668604D01*
X71014000Y-57624462D01*
X71014000Y-56675538D01*
X71018347Y-56631396D01*
X71029432Y-56594856D01*
X71047433Y-56561179D01*
X71071659Y-56531659D01*
X71101179Y-56507433D01*
X71134856Y-56489432D01*
X71171396Y-56478347D01*
X71215538Y-56474000D01*
X73564462Y-56474000D01*
X73608604Y-56478347D01*
X73608604Y-56478347D01*
G37*
G36*
X117879591Y-56515585D02*
G01*
X117913569Y-56525893D01*
X117944890Y-56542634D01*
X117972339Y-56565161D01*
X117994866Y-56592610D01*
X118011607Y-56623931D01*
X118021915Y-56657909D01*
X118026000Y-56699390D01*
X118026000Y-57300610D01*
X118021915Y-57342091D01*
X118011607Y-57376069D01*
X117994866Y-57407390D01*
X117972339Y-57434839D01*
X117944890Y-57457366D01*
X117913569Y-57474107D01*
X117879591Y-57484415D01*
X117838110Y-57488500D01*
X117161890Y-57488500D01*
X117120409Y-57484415D01*
X117086431Y-57474107D01*
X117055110Y-57457366D01*
X117027661Y-57434839D01*
X117005134Y-57407390D01*
X116988393Y-57376069D01*
X116978085Y-57342091D01*
X116974000Y-57300610D01*
X116974000Y-56699390D01*
X116978085Y-56657909D01*
X116988393Y-56623931D01*
X117005134Y-56592610D01*
X117027661Y-56565161D01*
X117055110Y-56542634D01*
X117086431Y-56525893D01*
X117120409Y-56515585D01*
X117161890Y-56511500D01*
X117838110Y-56511500D01*
X117879591Y-56515585D01*
X117879591Y-56515585D01*
G37*
G36*
X119879591Y-56515585D02*
G01*
X119913569Y-56525893D01*
X119944890Y-56542634D01*
X119972339Y-56565161D01*
X119994866Y-56592610D01*
X120011607Y-56623931D01*
X120021915Y-56657909D01*
X120026000Y-56699390D01*
X120026000Y-57300610D01*
X120021915Y-57342091D01*
X120011607Y-57376069D01*
X119994866Y-57407390D01*
X119972339Y-57434839D01*
X119944890Y-57457366D01*
X119913569Y-57474107D01*
X119879591Y-57484415D01*
X119838110Y-57488500D01*
X119161890Y-57488500D01*
X119120409Y-57484415D01*
X119086431Y-57474107D01*
X119055110Y-57457366D01*
X119027661Y-57434839D01*
X119005134Y-57407390D01*
X118988393Y-57376069D01*
X118978085Y-57342091D01*
X118974000Y-57300610D01*
X118974000Y-56699390D01*
X118978085Y-56657909D01*
X118988393Y-56623931D01*
X119005134Y-56592610D01*
X119027661Y-56565161D01*
X119055110Y-56542634D01*
X119086431Y-56525893D01*
X119120409Y-56515585D01*
X119161890Y-56511500D01*
X119838110Y-56511500D01*
X119879591Y-56515585D01*
X119879591Y-56515585D01*
G37*
G36*
X81336000Y-57391000D02*
G01*
X78684000Y-57391000D01*
X78684000Y-56229000D01*
X81336000Y-56229000D01*
X81336000Y-57391000D01*
X81336000Y-57391000D01*
G37*
G36*
X76784468Y-55981065D02*
G01*
X76823138Y-55992796D01*
X76858777Y-56011846D01*
X76890017Y-56037483D01*
X76915654Y-56068723D01*
X76934704Y-56104362D01*
X76946435Y-56143032D01*
X76951000Y-56189388D01*
X76951000Y-56840612D01*
X76946435Y-56886968D01*
X76934704Y-56925638D01*
X76915654Y-56961277D01*
X76890017Y-56992517D01*
X76858777Y-57018154D01*
X76823138Y-57037204D01*
X76784468Y-57048935D01*
X76738112Y-57053500D01*
X75661888Y-57053500D01*
X75615532Y-57048935D01*
X75576862Y-57037204D01*
X75541223Y-57018154D01*
X75509983Y-56992517D01*
X75484346Y-56961277D01*
X75465296Y-56925638D01*
X75453565Y-56886968D01*
X75449000Y-56840612D01*
X75449000Y-56189388D01*
X75453565Y-56143032D01*
X75465296Y-56104362D01*
X75484346Y-56068723D01*
X75509983Y-56037483D01*
X75541223Y-56011846D01*
X75576862Y-55992796D01*
X75615532Y-55981065D01*
X75661888Y-55976500D01*
X76738112Y-55976500D01*
X76784468Y-55981065D01*
X76784468Y-55981065D01*
G37*
G36*
X87879591Y-55440585D02*
G01*
X87913569Y-55450893D01*
X87944890Y-55467634D01*
X87972339Y-55490161D01*
X87994866Y-55517610D01*
X88011607Y-55548931D01*
X88021915Y-55582909D01*
X88026000Y-55624390D01*
X88026000Y-56225610D01*
X88021915Y-56267091D01*
X88011607Y-56301069D01*
X87994866Y-56332390D01*
X87972339Y-56359839D01*
X87944890Y-56382366D01*
X87913569Y-56399107D01*
X87879591Y-56409415D01*
X87838110Y-56413500D01*
X87161890Y-56413500D01*
X87120409Y-56409415D01*
X87086431Y-56399107D01*
X87055110Y-56382366D01*
X87027661Y-56359839D01*
X87005134Y-56332390D01*
X86988393Y-56301069D01*
X86978085Y-56267091D01*
X86974000Y-56225610D01*
X86974000Y-55624390D01*
X86978085Y-55582909D01*
X86988393Y-55548931D01*
X87005134Y-55517610D01*
X87027661Y-55490161D01*
X87055110Y-55467634D01*
X87086431Y-55450893D01*
X87120409Y-55440585D01*
X87161890Y-55436500D01*
X87838110Y-55436500D01*
X87879591Y-55440585D01*
X87879591Y-55440585D01*
G37*
G36*
X119879591Y-54940585D02*
G01*
X119913569Y-54950893D01*
X119944890Y-54967634D01*
X119972339Y-54990161D01*
X119994866Y-55017610D01*
X120011607Y-55048931D01*
X120021915Y-55082909D01*
X120026000Y-55124390D01*
X120026000Y-55725610D01*
X120021915Y-55767091D01*
X120011607Y-55801069D01*
X119994866Y-55832390D01*
X119972339Y-55859839D01*
X119944890Y-55882366D01*
X119913569Y-55899107D01*
X119879591Y-55909415D01*
X119838110Y-55913500D01*
X119161890Y-55913500D01*
X119120409Y-55909415D01*
X119086431Y-55899107D01*
X119055110Y-55882366D01*
X119027661Y-55859839D01*
X119005134Y-55832390D01*
X118988393Y-55801069D01*
X118978085Y-55767091D01*
X118974000Y-55725610D01*
X118974000Y-55124390D01*
X118978085Y-55082909D01*
X118988393Y-55048931D01*
X119005134Y-55017610D01*
X119027661Y-54990161D01*
X119055110Y-54967634D01*
X119086431Y-54950893D01*
X119120409Y-54940585D01*
X119161890Y-54936500D01*
X119838110Y-54936500D01*
X119879591Y-54940585D01*
X119879591Y-54940585D01*
G37*
G36*
X117879591Y-54940585D02*
G01*
X117913569Y-54950893D01*
X117944890Y-54967634D01*
X117972339Y-54990161D01*
X117994866Y-55017610D01*
X118011607Y-55048931D01*
X118021915Y-55082909D01*
X118026000Y-55124390D01*
X118026000Y-55725610D01*
X118021915Y-55767091D01*
X118011607Y-55801069D01*
X117994866Y-55832390D01*
X117972339Y-55859839D01*
X117944890Y-55882366D01*
X117913569Y-55899107D01*
X117879591Y-55909415D01*
X117838110Y-55913500D01*
X117161890Y-55913500D01*
X117120409Y-55909415D01*
X117086431Y-55899107D01*
X117055110Y-55882366D01*
X117027661Y-55859839D01*
X117005134Y-55832390D01*
X116988393Y-55801069D01*
X116978085Y-55767091D01*
X116974000Y-55725610D01*
X116974000Y-55124390D01*
X116978085Y-55082909D01*
X116988393Y-55048931D01*
X117005134Y-55017610D01*
X117027661Y-54990161D01*
X117055110Y-54967634D01*
X117086431Y-54950893D01*
X117120409Y-54940585D01*
X117161890Y-54936500D01*
X117838110Y-54936500D01*
X117879591Y-54940585D01*
X117879591Y-54940585D01*
G37*
G36*
X68996000Y-55661000D02*
G01*
X66894000Y-55661000D01*
X66894000Y-53559000D01*
X68996000Y-53559000D01*
X68996000Y-55661000D01*
X68996000Y-55661000D01*
G37*
G36*
X105879591Y-54590585D02*
G01*
X105913569Y-54600893D01*
X105944890Y-54617634D01*
X105972339Y-54640161D01*
X105994866Y-54667610D01*
X106011607Y-54698931D01*
X106021915Y-54732909D01*
X106026000Y-54774390D01*
X106026000Y-55375610D01*
X106021915Y-55417091D01*
X106011607Y-55451069D01*
X105994866Y-55482390D01*
X105972339Y-55509839D01*
X105944890Y-55532366D01*
X105913569Y-55549107D01*
X105879591Y-55559415D01*
X105838110Y-55563500D01*
X105161890Y-55563500D01*
X105120409Y-55559415D01*
X105086431Y-55549107D01*
X105055110Y-55532366D01*
X105027661Y-55509839D01*
X105005134Y-55482390D01*
X104988393Y-55451069D01*
X104978085Y-55417091D01*
X104974000Y-55375610D01*
X104974000Y-54774390D01*
X104978085Y-54732909D01*
X104988393Y-54698931D01*
X105005134Y-54667610D01*
X105027661Y-54640161D01*
X105055110Y-54617634D01*
X105086431Y-54600893D01*
X105120409Y-54590585D01*
X105161890Y-54586500D01*
X105838110Y-54586500D01*
X105879591Y-54590585D01*
X105879591Y-54590585D01*
G37*
G36*
X103879591Y-54590585D02*
G01*
X103913569Y-54600893D01*
X103944890Y-54617634D01*
X103972339Y-54640161D01*
X103994866Y-54667610D01*
X104011607Y-54698931D01*
X104021915Y-54732909D01*
X104026000Y-54774390D01*
X104026000Y-55375610D01*
X104021915Y-55417091D01*
X104011607Y-55451069D01*
X103994866Y-55482390D01*
X103972339Y-55509839D01*
X103944890Y-55532366D01*
X103913569Y-55549107D01*
X103879591Y-55559415D01*
X103838110Y-55563500D01*
X103161890Y-55563500D01*
X103120409Y-55559415D01*
X103086431Y-55549107D01*
X103055110Y-55532366D01*
X103027661Y-55509839D01*
X103005134Y-55482390D01*
X102988393Y-55451069D01*
X102978085Y-55417091D01*
X102974000Y-55375610D01*
X102974000Y-54774390D01*
X102978085Y-54732909D01*
X102988393Y-54698931D01*
X103005134Y-54667610D01*
X103027661Y-54640161D01*
X103055110Y-54617634D01*
X103086431Y-54600893D01*
X103120409Y-54590585D01*
X103161890Y-54586500D01*
X103838110Y-54586500D01*
X103879591Y-54590585D01*
X103879591Y-54590585D01*
G37*
G36*
X81336000Y-55191000D02*
G01*
X78684000Y-55191000D01*
X78684000Y-54029000D01*
X81336000Y-54029000D01*
X81336000Y-55191000D01*
X81336000Y-55191000D01*
G37*
G36*
X76784468Y-54106065D02*
G01*
X76823138Y-54117796D01*
X76858777Y-54136846D01*
X76890017Y-54162483D01*
X76915654Y-54193723D01*
X76934704Y-54229362D01*
X76946435Y-54268032D01*
X76951000Y-54314388D01*
X76951000Y-54965612D01*
X76946435Y-55011968D01*
X76934704Y-55050638D01*
X76915654Y-55086277D01*
X76890017Y-55117517D01*
X76858777Y-55143154D01*
X76823138Y-55162204D01*
X76784468Y-55173935D01*
X76738112Y-55178500D01*
X75661888Y-55178500D01*
X75615532Y-55173935D01*
X75576862Y-55162204D01*
X75541223Y-55143154D01*
X75509983Y-55117517D01*
X75484346Y-55086277D01*
X75465296Y-55050638D01*
X75453565Y-55011968D01*
X75449000Y-54965612D01*
X75449000Y-54314388D01*
X75453565Y-54268032D01*
X75465296Y-54229362D01*
X75484346Y-54193723D01*
X75509983Y-54162483D01*
X75541223Y-54136846D01*
X75576862Y-54117796D01*
X75615532Y-54106065D01*
X75661888Y-54101500D01*
X76738112Y-54101500D01*
X76784468Y-54106065D01*
X76784468Y-54106065D01*
G37*
G36*
X73608604Y-53678347D02*
G01*
X73645144Y-53689432D01*
X73678821Y-53707433D01*
X73708341Y-53731659D01*
X73732567Y-53761179D01*
X73750568Y-53794856D01*
X73761653Y-53831396D01*
X73766000Y-53875538D01*
X73766000Y-54824462D01*
X73761653Y-54868604D01*
X73750568Y-54905144D01*
X73732567Y-54938821D01*
X73708341Y-54968341D01*
X73678821Y-54992567D01*
X73645144Y-55010568D01*
X73608604Y-55021653D01*
X73564462Y-55026000D01*
X71215538Y-55026000D01*
X71171396Y-55021653D01*
X71134856Y-55010568D01*
X71101179Y-54992567D01*
X71071659Y-54968341D01*
X71047433Y-54938821D01*
X71029432Y-54905144D01*
X71018347Y-54868604D01*
X71014000Y-54824462D01*
X71014000Y-53875538D01*
X71018347Y-53831396D01*
X71029432Y-53794856D01*
X71047433Y-53761179D01*
X71071659Y-53731659D01*
X71101179Y-53707433D01*
X71134856Y-53689432D01*
X71171396Y-53678347D01*
X71215538Y-53674000D01*
X73564462Y-53674000D01*
X73608604Y-53678347D01*
X73608604Y-53678347D01*
G37*
G36*
X85223604Y-53678347D02*
G01*
X85260144Y-53689432D01*
X85293821Y-53707433D01*
X85323341Y-53731659D01*
X85347567Y-53761179D01*
X85365568Y-53794856D01*
X85376653Y-53831396D01*
X85381000Y-53875538D01*
X85381000Y-54824462D01*
X85376653Y-54868604D01*
X85365568Y-54905144D01*
X85347567Y-54938821D01*
X85323341Y-54968341D01*
X85293821Y-54992567D01*
X85260144Y-55010568D01*
X85223604Y-55021653D01*
X85179462Y-55026000D01*
X83730538Y-55026000D01*
X83686396Y-55021653D01*
X83649856Y-55010568D01*
X83616179Y-54992567D01*
X83586659Y-54968341D01*
X83562433Y-54938821D01*
X83544432Y-54905144D01*
X83533347Y-54868604D01*
X83529000Y-54824462D01*
X83529000Y-53875538D01*
X83533347Y-53831396D01*
X83544432Y-53794856D01*
X83562433Y-53761179D01*
X83586659Y-53731659D01*
X83616179Y-53707433D01*
X83649856Y-53689432D01*
X83686396Y-53678347D01*
X83730538Y-53674000D01*
X85179462Y-53674000D01*
X85223604Y-53678347D01*
X85223604Y-53678347D01*
G37*
G36*
X105879591Y-53015585D02*
G01*
X105913569Y-53025893D01*
X105944890Y-53042634D01*
X105972339Y-53065161D01*
X105994866Y-53092610D01*
X106011607Y-53123931D01*
X106021915Y-53157909D01*
X106026000Y-53199390D01*
X106026000Y-53800610D01*
X106021915Y-53842091D01*
X106011607Y-53876069D01*
X105994866Y-53907390D01*
X105972339Y-53934839D01*
X105944890Y-53957366D01*
X105913569Y-53974107D01*
X105879591Y-53984415D01*
X105838110Y-53988500D01*
X105161890Y-53988500D01*
X105120409Y-53984415D01*
X105086431Y-53974107D01*
X105055110Y-53957366D01*
X105027661Y-53934839D01*
X105005134Y-53907390D01*
X104988393Y-53876069D01*
X104978085Y-53842091D01*
X104974000Y-53800610D01*
X104974000Y-53199390D01*
X104978085Y-53157909D01*
X104988393Y-53123931D01*
X105005134Y-53092610D01*
X105027661Y-53065161D01*
X105055110Y-53042634D01*
X105086431Y-53025893D01*
X105120409Y-53015585D01*
X105161890Y-53011500D01*
X105838110Y-53011500D01*
X105879591Y-53015585D01*
X105879591Y-53015585D01*
G37*
G36*
X103879591Y-53015585D02*
G01*
X103913569Y-53025893D01*
X103944890Y-53042634D01*
X103972339Y-53065161D01*
X103994866Y-53092610D01*
X104011607Y-53123931D01*
X104021915Y-53157909D01*
X104026000Y-53199390D01*
X104026000Y-53800610D01*
X104021915Y-53842091D01*
X104011607Y-53876069D01*
X103994866Y-53907390D01*
X103972339Y-53934839D01*
X103944890Y-53957366D01*
X103913569Y-53974107D01*
X103879591Y-53984415D01*
X103838110Y-53988500D01*
X103161890Y-53988500D01*
X103120409Y-53984415D01*
X103086431Y-53974107D01*
X103055110Y-53957366D01*
X103027661Y-53934839D01*
X103005134Y-53907390D01*
X102988393Y-53876069D01*
X102978085Y-53842091D01*
X102974000Y-53800610D01*
X102974000Y-53199390D01*
X102978085Y-53157909D01*
X102988393Y-53123931D01*
X103005134Y-53092610D01*
X103027661Y-53065161D01*
X103055110Y-53042634D01*
X103086431Y-53025893D01*
X103120409Y-53015585D01*
X103161890Y-53011500D01*
X103838110Y-53011500D01*
X103879591Y-53015585D01*
X103879591Y-53015585D01*
G37*
G36*
X111826000Y-52901000D02*
G01*
X111074000Y-52901000D01*
X111074000Y-51099000D01*
X111826000Y-51099000D01*
X111826000Y-52901000D01*
X111826000Y-52901000D01*
G37*
G36*
X109926000Y-52901000D02*
G01*
X109174000Y-52901000D01*
X109174000Y-51099000D01*
X109926000Y-51099000D01*
X109926000Y-52901000D01*
X109926000Y-52901000D01*
G37*
G36*
X82562091Y-51548085D02*
G01*
X82596069Y-51558393D01*
X82627390Y-51575134D01*
X82654839Y-51597661D01*
X82677366Y-51625110D01*
X82694107Y-51656431D01*
X82704415Y-51690409D01*
X82708500Y-51731890D01*
X82708500Y-52408110D01*
X82704415Y-52449591D01*
X82694107Y-52483569D01*
X82677366Y-52514890D01*
X82654839Y-52542339D01*
X82627390Y-52564866D01*
X82596069Y-52581607D01*
X82562091Y-52591915D01*
X82520610Y-52596000D01*
X81919390Y-52596000D01*
X81877909Y-52591915D01*
X81843931Y-52581607D01*
X81812610Y-52564866D01*
X81785161Y-52542339D01*
X81762634Y-52514890D01*
X81745893Y-52483569D01*
X81735585Y-52449591D01*
X81731500Y-52408110D01*
X81731500Y-51731890D01*
X81735585Y-51690409D01*
X81745893Y-51656431D01*
X81762634Y-51625110D01*
X81785161Y-51597661D01*
X81812610Y-51575134D01*
X81843931Y-51558393D01*
X81877909Y-51548085D01*
X81919390Y-51544000D01*
X82520610Y-51544000D01*
X82562091Y-51548085D01*
X82562091Y-51548085D01*
G37*
G36*
X78752091Y-51548085D02*
G01*
X78786069Y-51558393D01*
X78817390Y-51575134D01*
X78844839Y-51597661D01*
X78867366Y-51625110D01*
X78884107Y-51656431D01*
X78894415Y-51690409D01*
X78898500Y-51731890D01*
X78898500Y-52408110D01*
X78894415Y-52449591D01*
X78884107Y-52483569D01*
X78867366Y-52514890D01*
X78844839Y-52542339D01*
X78817390Y-52564866D01*
X78786069Y-52581607D01*
X78752091Y-52591915D01*
X78710610Y-52596000D01*
X78109390Y-52596000D01*
X78067909Y-52591915D01*
X78033931Y-52581607D01*
X78002610Y-52564866D01*
X77975161Y-52542339D01*
X77952634Y-52514890D01*
X77935893Y-52483569D01*
X77925585Y-52449591D01*
X77921500Y-52408110D01*
X77921500Y-51731890D01*
X77925585Y-51690409D01*
X77935893Y-51656431D01*
X77952634Y-51625110D01*
X77975161Y-51597661D01*
X78002610Y-51575134D01*
X78033931Y-51558393D01*
X78067909Y-51548085D01*
X78109390Y-51544000D01*
X78710610Y-51544000D01*
X78752091Y-51548085D01*
X78752091Y-51548085D01*
G37*
G36*
X80987091Y-51548085D02*
G01*
X81021069Y-51558393D01*
X81052390Y-51575134D01*
X81079839Y-51597661D01*
X81102366Y-51625110D01*
X81119107Y-51656431D01*
X81129415Y-51690409D01*
X81133500Y-51731890D01*
X81133500Y-52408110D01*
X81129415Y-52449591D01*
X81119107Y-52483569D01*
X81102366Y-52514890D01*
X81079839Y-52542339D01*
X81052390Y-52564866D01*
X81021069Y-52581607D01*
X80987091Y-52591915D01*
X80945610Y-52596000D01*
X80344390Y-52596000D01*
X80302909Y-52591915D01*
X80268931Y-52581607D01*
X80237610Y-52564866D01*
X80210161Y-52542339D01*
X80187634Y-52514890D01*
X80170893Y-52483569D01*
X80160585Y-52449591D01*
X80156500Y-52408110D01*
X80156500Y-51731890D01*
X80160585Y-51690409D01*
X80170893Y-51656431D01*
X80187634Y-51625110D01*
X80210161Y-51597661D01*
X80237610Y-51575134D01*
X80268931Y-51558393D01*
X80302909Y-51548085D01*
X80344390Y-51544000D01*
X80945610Y-51544000D01*
X80987091Y-51548085D01*
X80987091Y-51548085D01*
G37*
G36*
X77177091Y-51548085D02*
G01*
X77211069Y-51558393D01*
X77242390Y-51575134D01*
X77269839Y-51597661D01*
X77292366Y-51625110D01*
X77309107Y-51656431D01*
X77319415Y-51690409D01*
X77323500Y-51731890D01*
X77323500Y-52408110D01*
X77319415Y-52449591D01*
X77309107Y-52483569D01*
X77292366Y-52514890D01*
X77269839Y-52542339D01*
X77242390Y-52564866D01*
X77211069Y-52581607D01*
X77177091Y-52591915D01*
X77135610Y-52596000D01*
X76534390Y-52596000D01*
X76492909Y-52591915D01*
X76458931Y-52581607D01*
X76427610Y-52564866D01*
X76400161Y-52542339D01*
X76377634Y-52514890D01*
X76360893Y-52483569D01*
X76350585Y-52449591D01*
X76346500Y-52408110D01*
X76346500Y-51731890D01*
X76350585Y-51690409D01*
X76360893Y-51656431D01*
X76377634Y-51625110D01*
X76400161Y-51597661D01*
X76427610Y-51575134D01*
X76458931Y-51558393D01*
X76492909Y-51548085D01*
X76534390Y-51544000D01*
X77135610Y-51544000D01*
X77177091Y-51548085D01*
X77177091Y-51548085D01*
G37*
G36*
X102409928Y-49461764D02*
G01*
X102431009Y-49468160D01*
X102450445Y-49478548D01*
X102467476Y-49492524D01*
X102481452Y-49509555D01*
X102491840Y-49528991D01*
X102498236Y-49550072D01*
X102501000Y-49578140D01*
X102501000Y-50041860D01*
X102498236Y-50069928D01*
X102491840Y-50091009D01*
X102481452Y-50110445D01*
X102467476Y-50127476D01*
X102450445Y-50141452D01*
X102431009Y-50151840D01*
X102409928Y-50158236D01*
X102381860Y-50161000D01*
X100568140Y-50161000D01*
X100540072Y-50158236D01*
X100518991Y-50151840D01*
X100499555Y-50141452D01*
X100482524Y-50127476D01*
X100468548Y-50110445D01*
X100458160Y-50091009D01*
X100451764Y-50069928D01*
X100449000Y-50041860D01*
X100449000Y-49578140D01*
X100451764Y-49550072D01*
X100458160Y-49528991D01*
X100468548Y-49509555D01*
X100482524Y-49492524D01*
X100499555Y-49478548D01*
X100518991Y-49468160D01*
X100540072Y-49461764D01*
X100568140Y-49459000D01*
X102381860Y-49459000D01*
X102409928Y-49461764D01*
X102409928Y-49461764D01*
G37*
G36*
X97459928Y-49461764D02*
G01*
X97481009Y-49468160D01*
X97500445Y-49478548D01*
X97517476Y-49492524D01*
X97531452Y-49509555D01*
X97541840Y-49528991D01*
X97548236Y-49550072D01*
X97551000Y-49578140D01*
X97551000Y-50041860D01*
X97548236Y-50069928D01*
X97541840Y-50091009D01*
X97531452Y-50110445D01*
X97517476Y-50127476D01*
X97500445Y-50141452D01*
X97481009Y-50151840D01*
X97459928Y-50158236D01*
X97431860Y-50161000D01*
X95618140Y-50161000D01*
X95590072Y-50158236D01*
X95568991Y-50151840D01*
X95549555Y-50141452D01*
X95532524Y-50127476D01*
X95518548Y-50110445D01*
X95508160Y-50091009D01*
X95501764Y-50069928D01*
X95499000Y-50041860D01*
X95499000Y-49578140D01*
X95501764Y-49550072D01*
X95508160Y-49528991D01*
X95518548Y-49509555D01*
X95532524Y-49492524D01*
X95549555Y-49478548D01*
X95568991Y-49468160D01*
X95590072Y-49461764D01*
X95618140Y-49459000D01*
X97431860Y-49459000D01*
X97459928Y-49461764D01*
X97459928Y-49461764D01*
G37*
G36*
X124051000Y-48901000D02*
G01*
X122949000Y-48901000D01*
X122949000Y-46299000D01*
X124051000Y-46299000D01*
X124051000Y-48901000D01*
X124051000Y-48901000D01*
G37*
G36*
X132051000Y-48901000D02*
G01*
X130949000Y-48901000D01*
X130949000Y-46299000D01*
X132051000Y-46299000D01*
X132051000Y-48901000D01*
X132051000Y-48901000D01*
G37*
G36*
X130051000Y-48901000D02*
G01*
X128949000Y-48901000D01*
X128949000Y-46299000D01*
X130051000Y-46299000D01*
X130051000Y-48901000D01*
X130051000Y-48901000D01*
G37*
G36*
X120051000Y-48901000D02*
G01*
X118949000Y-48901000D01*
X118949000Y-46299000D01*
X120051000Y-46299000D01*
X120051000Y-48901000D01*
X120051000Y-48901000D01*
G37*
G36*
X122051000Y-48901000D02*
G01*
X120949000Y-48901000D01*
X120949000Y-46299000D01*
X122051000Y-46299000D01*
X122051000Y-48901000D01*
X122051000Y-48901000D01*
G37*
G36*
X128051000Y-48901000D02*
G01*
X126949000Y-48901000D01*
X126949000Y-46299000D01*
X128051000Y-46299000D01*
X128051000Y-48901000D01*
X128051000Y-48901000D01*
G37*
G36*
X126051000Y-48901000D02*
G01*
X124949000Y-48901000D01*
X124949000Y-46299000D01*
X126051000Y-46299000D01*
X126051000Y-48901000D01*
X126051000Y-48901000D01*
G37*
G36*
X118051000Y-48901000D02*
G01*
X116949000Y-48901000D01*
X116949000Y-46299000D01*
X118051000Y-46299000D01*
X118051000Y-48901000D01*
X118051000Y-48901000D01*
G37*
G36*
X102409928Y-48191764D02*
G01*
X102431009Y-48198160D01*
X102450445Y-48208548D01*
X102467476Y-48222524D01*
X102481452Y-48239555D01*
X102491840Y-48258991D01*
X102498236Y-48280072D01*
X102501000Y-48308140D01*
X102501000Y-48771860D01*
X102498236Y-48799928D01*
X102491840Y-48821009D01*
X102481452Y-48840445D01*
X102467476Y-48857476D01*
X102450445Y-48871452D01*
X102431009Y-48881840D01*
X102409928Y-48888236D01*
X102381860Y-48891000D01*
X100568140Y-48891000D01*
X100540072Y-48888236D01*
X100518991Y-48881840D01*
X100499555Y-48871452D01*
X100482524Y-48857476D01*
X100468548Y-48840445D01*
X100458160Y-48821009D01*
X100451764Y-48799928D01*
X100449000Y-48771860D01*
X100449000Y-48308140D01*
X100451764Y-48280072D01*
X100458160Y-48258991D01*
X100468548Y-48239555D01*
X100482524Y-48222524D01*
X100499555Y-48208548D01*
X100518991Y-48198160D01*
X100540072Y-48191764D01*
X100568140Y-48189000D01*
X102381860Y-48189000D01*
X102409928Y-48191764D01*
X102409928Y-48191764D01*
G37*
G36*
X97459928Y-48191764D02*
G01*
X97481009Y-48198160D01*
X97500445Y-48208548D01*
X97517476Y-48222524D01*
X97531452Y-48239555D01*
X97541840Y-48258991D01*
X97548236Y-48280072D01*
X97551000Y-48308140D01*
X97551000Y-48771860D01*
X97548236Y-48799928D01*
X97541840Y-48821009D01*
X97531452Y-48840445D01*
X97517476Y-48857476D01*
X97500445Y-48871452D01*
X97481009Y-48881840D01*
X97459928Y-48888236D01*
X97431860Y-48891000D01*
X95618140Y-48891000D01*
X95590072Y-48888236D01*
X95568991Y-48881840D01*
X95549555Y-48871452D01*
X95532524Y-48857476D01*
X95518548Y-48840445D01*
X95508160Y-48821009D01*
X95501764Y-48799928D01*
X95499000Y-48771860D01*
X95499000Y-48308140D01*
X95501764Y-48280072D01*
X95508160Y-48258991D01*
X95518548Y-48239555D01*
X95532524Y-48222524D01*
X95549555Y-48208548D01*
X95568991Y-48198160D01*
X95590072Y-48191764D01*
X95618140Y-48189000D01*
X97431860Y-48189000D01*
X97459928Y-48191764D01*
X97459928Y-48191764D01*
G37*
G36*
X102409928Y-46921764D02*
G01*
X102431009Y-46928160D01*
X102450445Y-46938548D01*
X102467476Y-46952524D01*
X102481452Y-46969555D01*
X102491840Y-46988991D01*
X102498236Y-47010072D01*
X102501000Y-47038140D01*
X102501000Y-47501860D01*
X102498236Y-47529928D01*
X102491840Y-47551009D01*
X102481452Y-47570445D01*
X102467476Y-47587476D01*
X102450445Y-47601452D01*
X102431009Y-47611840D01*
X102409928Y-47618236D01*
X102381860Y-47621000D01*
X100568140Y-47621000D01*
X100540072Y-47618236D01*
X100518991Y-47611840D01*
X100499555Y-47601452D01*
X100482524Y-47587476D01*
X100468548Y-47570445D01*
X100458160Y-47551009D01*
X100451764Y-47529928D01*
X100449000Y-47501860D01*
X100449000Y-47038140D01*
X100451764Y-47010072D01*
X100458160Y-46988991D01*
X100468548Y-46969555D01*
X100482524Y-46952524D01*
X100499555Y-46938548D01*
X100518991Y-46928160D01*
X100540072Y-46921764D01*
X100568140Y-46919000D01*
X102381860Y-46919000D01*
X102409928Y-46921764D01*
X102409928Y-46921764D01*
G37*
G36*
X97459928Y-46921764D02*
G01*
X97481009Y-46928160D01*
X97500445Y-46938548D01*
X97517476Y-46952524D01*
X97531452Y-46969555D01*
X97541840Y-46988991D01*
X97548236Y-47010072D01*
X97551000Y-47038140D01*
X97551000Y-47501860D01*
X97548236Y-47529928D01*
X97541840Y-47551009D01*
X97531452Y-47570445D01*
X97517476Y-47587476D01*
X97500445Y-47601452D01*
X97481009Y-47611840D01*
X97459928Y-47618236D01*
X97431860Y-47621000D01*
X95618140Y-47621000D01*
X95590072Y-47618236D01*
X95568991Y-47611840D01*
X95549555Y-47601452D01*
X95532524Y-47587476D01*
X95518548Y-47570445D01*
X95508160Y-47551009D01*
X95501764Y-47529928D01*
X95499000Y-47501860D01*
X95499000Y-47038140D01*
X95501764Y-47010072D01*
X95508160Y-46988991D01*
X95518548Y-46969555D01*
X95532524Y-46952524D01*
X95549555Y-46938548D01*
X95568991Y-46928160D01*
X95590072Y-46921764D01*
X95618140Y-46919000D01*
X97431860Y-46919000D01*
X97459928Y-46921764D01*
X97459928Y-46921764D01*
G37*
G36*
X91934591Y-46478085D02*
G01*
X91968569Y-46488393D01*
X91999890Y-46505134D01*
X92027339Y-46527661D01*
X92049866Y-46555110D01*
X92066607Y-46586431D01*
X92076915Y-46620409D01*
X92081000Y-46661890D01*
X92081000Y-47338110D01*
X92076915Y-47379591D01*
X92066607Y-47413569D01*
X92049866Y-47444890D01*
X92027339Y-47472339D01*
X91999890Y-47494866D01*
X91968569Y-47511607D01*
X91934591Y-47521915D01*
X91893110Y-47526000D01*
X91291890Y-47526000D01*
X91250409Y-47521915D01*
X91216431Y-47511607D01*
X91185110Y-47494866D01*
X91157661Y-47472339D01*
X91135134Y-47444890D01*
X91118393Y-47413569D01*
X91108085Y-47379591D01*
X91104000Y-47338110D01*
X91104000Y-46661890D01*
X91108085Y-46620409D01*
X91118393Y-46586431D01*
X91135134Y-46555110D01*
X91157661Y-46527661D01*
X91185110Y-46505134D01*
X91216431Y-46488393D01*
X91250409Y-46478085D01*
X91291890Y-46474000D01*
X91893110Y-46474000D01*
X91934591Y-46478085D01*
X91934591Y-46478085D01*
G37*
G36*
X90359591Y-46478085D02*
G01*
X90393569Y-46488393D01*
X90424890Y-46505134D01*
X90452339Y-46527661D01*
X90474866Y-46555110D01*
X90491607Y-46586431D01*
X90501915Y-46620409D01*
X90506000Y-46661890D01*
X90506000Y-47338110D01*
X90501915Y-47379591D01*
X90491607Y-47413569D01*
X90474866Y-47444890D01*
X90452339Y-47472339D01*
X90424890Y-47494866D01*
X90393569Y-47511607D01*
X90359591Y-47521915D01*
X90318110Y-47526000D01*
X89716890Y-47526000D01*
X89675409Y-47521915D01*
X89641431Y-47511607D01*
X89610110Y-47494866D01*
X89582661Y-47472339D01*
X89560134Y-47444890D01*
X89543393Y-47413569D01*
X89533085Y-47379591D01*
X89529000Y-47338110D01*
X89529000Y-46661890D01*
X89533085Y-46620409D01*
X89543393Y-46586431D01*
X89560134Y-46555110D01*
X89582661Y-46527661D01*
X89610110Y-46505134D01*
X89641431Y-46488393D01*
X89675409Y-46478085D01*
X89716890Y-46474000D01*
X90318110Y-46474000D01*
X90359591Y-46478085D01*
X90359591Y-46478085D01*
G37*
G36*
X97459928Y-45651764D02*
G01*
X97481009Y-45658160D01*
X97500445Y-45668548D01*
X97517476Y-45682524D01*
X97531452Y-45699555D01*
X97541840Y-45718991D01*
X97548236Y-45740072D01*
X97551000Y-45768140D01*
X97551000Y-46231860D01*
X97548236Y-46259928D01*
X97541840Y-46281009D01*
X97531452Y-46300445D01*
X97517476Y-46317476D01*
X97500445Y-46331452D01*
X97481009Y-46341840D01*
X97459928Y-46348236D01*
X97431860Y-46351000D01*
X95618140Y-46351000D01*
X95590072Y-46348236D01*
X95568991Y-46341840D01*
X95549555Y-46331452D01*
X95532524Y-46317476D01*
X95518548Y-46300445D01*
X95508160Y-46281009D01*
X95501764Y-46259928D01*
X95499000Y-46231860D01*
X95499000Y-45768140D01*
X95501764Y-45740072D01*
X95508160Y-45718991D01*
X95518548Y-45699555D01*
X95532524Y-45682524D01*
X95549555Y-45668548D01*
X95568991Y-45658160D01*
X95590072Y-45651764D01*
X95618140Y-45649000D01*
X97431860Y-45649000D01*
X97459928Y-45651764D01*
X97459928Y-45651764D01*
G37*
G36*
X102409928Y-45651764D02*
G01*
X102431009Y-45658160D01*
X102450445Y-45668548D01*
X102467476Y-45682524D01*
X102481452Y-45699555D01*
X102491840Y-45718991D01*
X102498236Y-45740072D01*
X102501000Y-45768140D01*
X102501000Y-46231860D01*
X102498236Y-46259928D01*
X102491840Y-46281009D01*
X102481452Y-46300445D01*
X102467476Y-46317476D01*
X102450445Y-46331452D01*
X102431009Y-46341840D01*
X102409928Y-46348236D01*
X102381860Y-46351000D01*
X100568140Y-46351000D01*
X100540072Y-46348236D01*
X100518991Y-46341840D01*
X100499555Y-46331452D01*
X100482524Y-46317476D01*
X100468548Y-46300445D01*
X100458160Y-46281009D01*
X100451764Y-46259928D01*
X100449000Y-46231860D01*
X100449000Y-45768140D01*
X100451764Y-45740072D01*
X100458160Y-45718991D01*
X100468548Y-45699555D01*
X100482524Y-45682524D01*
X100499555Y-45668548D01*
X100518991Y-45658160D01*
X100540072Y-45651764D01*
X100568140Y-45649000D01*
X102381860Y-45649000D01*
X102409928Y-45651764D01*
X102409928Y-45651764D01*
G37*
G36*
X77539468Y-44253565D02*
G01*
X77578138Y-44265296D01*
X77613777Y-44284346D01*
X77645017Y-44309983D01*
X77670654Y-44341223D01*
X77689704Y-44376862D01*
X77701435Y-44415532D01*
X77706000Y-44461888D01*
X77706000Y-45538112D01*
X77701435Y-45584468D01*
X77689704Y-45623138D01*
X77670654Y-45658777D01*
X77645017Y-45690017D01*
X77613777Y-45715654D01*
X77578138Y-45734704D01*
X77539468Y-45746435D01*
X77493112Y-45751000D01*
X76841888Y-45751000D01*
X76795532Y-45746435D01*
X76756862Y-45734704D01*
X76721223Y-45715654D01*
X76689983Y-45690017D01*
X76664346Y-45658777D01*
X76645296Y-45623138D01*
X76633565Y-45584468D01*
X76629000Y-45538112D01*
X76629000Y-44461888D01*
X76633565Y-44415532D01*
X76645296Y-44376862D01*
X76664346Y-44341223D01*
X76689983Y-44309983D01*
X76721223Y-44284346D01*
X76756862Y-44265296D01*
X76795532Y-44253565D01*
X76841888Y-44249000D01*
X77493112Y-44249000D01*
X77539468Y-44253565D01*
X77539468Y-44253565D01*
G37*
G36*
X79414468Y-44253565D02*
G01*
X79453138Y-44265296D01*
X79488777Y-44284346D01*
X79520017Y-44309983D01*
X79545654Y-44341223D01*
X79564704Y-44376862D01*
X79576435Y-44415532D01*
X79581000Y-44461888D01*
X79581000Y-45538112D01*
X79576435Y-45584468D01*
X79564704Y-45623138D01*
X79545654Y-45658777D01*
X79520017Y-45690017D01*
X79488777Y-45715654D01*
X79453138Y-45734704D01*
X79414468Y-45746435D01*
X79368112Y-45751000D01*
X78716888Y-45751000D01*
X78670532Y-45746435D01*
X78631862Y-45734704D01*
X78596223Y-45715654D01*
X78564983Y-45690017D01*
X78539346Y-45658777D01*
X78520296Y-45623138D01*
X78508565Y-45584468D01*
X78504000Y-45538112D01*
X78504000Y-44461888D01*
X78508565Y-44415532D01*
X78520296Y-44376862D01*
X78539346Y-44341223D01*
X78564983Y-44309983D01*
X78596223Y-44284346D01*
X78631862Y-44265296D01*
X78670532Y-44253565D01*
X78716888Y-44249000D01*
X79368112Y-44249000D01*
X79414468Y-44253565D01*
X79414468Y-44253565D01*
G37*
G36*
X116951000Y-45551000D02*
G01*
X115049000Y-45551000D01*
X115049000Y-44449000D01*
X116951000Y-44449000D01*
X116951000Y-45551000D01*
X116951000Y-45551000D01*
G37*
G36*
X102409928Y-44381764D02*
G01*
X102431009Y-44388160D01*
X102450445Y-44398548D01*
X102467476Y-44412524D01*
X102481452Y-44429555D01*
X102491840Y-44448991D01*
X102498236Y-44470072D01*
X102501000Y-44498140D01*
X102501000Y-44961860D01*
X102498236Y-44989928D01*
X102491840Y-45011009D01*
X102481452Y-45030445D01*
X102467476Y-45047476D01*
X102450445Y-45061452D01*
X102431009Y-45071840D01*
X102409928Y-45078236D01*
X102381860Y-45081000D01*
X100568140Y-45081000D01*
X100540072Y-45078236D01*
X100518991Y-45071840D01*
X100499555Y-45061452D01*
X100482524Y-45047476D01*
X100468548Y-45030445D01*
X100458160Y-45011009D01*
X100451764Y-44989928D01*
X100449000Y-44961860D01*
X100449000Y-44498140D01*
X100451764Y-44470072D01*
X100458160Y-44448991D01*
X100468548Y-44429555D01*
X100482524Y-44412524D01*
X100499555Y-44398548D01*
X100518991Y-44388160D01*
X100540072Y-44381764D01*
X100568140Y-44379000D01*
X102381860Y-44379000D01*
X102409928Y-44381764D01*
X102409928Y-44381764D01*
G37*
G36*
X97459928Y-44381764D02*
G01*
X97481009Y-44388160D01*
X97500445Y-44398548D01*
X97517476Y-44412524D01*
X97531452Y-44429555D01*
X97541840Y-44448991D01*
X97548236Y-44470072D01*
X97551000Y-44498140D01*
X97551000Y-44961860D01*
X97548236Y-44989928D01*
X97541840Y-45011009D01*
X97531452Y-45030445D01*
X97517476Y-45047476D01*
X97500445Y-45061452D01*
X97481009Y-45071840D01*
X97459928Y-45078236D01*
X97431860Y-45081000D01*
X95618140Y-45081000D01*
X95590072Y-45078236D01*
X95568991Y-45071840D01*
X95549555Y-45061452D01*
X95532524Y-45047476D01*
X95518548Y-45030445D01*
X95508160Y-45011009D01*
X95501764Y-44989928D01*
X95499000Y-44961860D01*
X95499000Y-44498140D01*
X95501764Y-44470072D01*
X95508160Y-44448991D01*
X95518548Y-44429555D01*
X95532524Y-44412524D01*
X95549555Y-44398548D01*
X95568991Y-44388160D01*
X95590072Y-44381764D01*
X95618140Y-44379000D01*
X97431860Y-44379000D01*
X97459928Y-44381764D01*
X97459928Y-44381764D01*
G37*
G36*
X102409928Y-43111764D02*
G01*
X102431009Y-43118160D01*
X102450445Y-43128548D01*
X102467476Y-43142524D01*
X102481452Y-43159555D01*
X102491840Y-43178991D01*
X102498236Y-43200072D01*
X102501000Y-43228140D01*
X102501000Y-43691860D01*
X102498236Y-43719928D01*
X102491840Y-43741009D01*
X102481452Y-43760445D01*
X102467476Y-43777476D01*
X102450445Y-43791452D01*
X102431009Y-43801840D01*
X102409928Y-43808236D01*
X102381860Y-43811000D01*
X100568140Y-43811000D01*
X100540072Y-43808236D01*
X100518991Y-43801840D01*
X100499555Y-43791452D01*
X100482524Y-43777476D01*
X100468548Y-43760445D01*
X100458160Y-43741009D01*
X100451764Y-43719928D01*
X100449000Y-43691860D01*
X100449000Y-43228140D01*
X100451764Y-43200072D01*
X100458160Y-43178991D01*
X100468548Y-43159555D01*
X100482524Y-43142524D01*
X100499555Y-43128548D01*
X100518991Y-43118160D01*
X100540072Y-43111764D01*
X100568140Y-43109000D01*
X102381860Y-43109000D01*
X102409928Y-43111764D01*
X102409928Y-43111764D01*
G37*
G36*
X97459928Y-43111764D02*
G01*
X97481009Y-43118160D01*
X97500445Y-43128548D01*
X97517476Y-43142524D01*
X97531452Y-43159555D01*
X97541840Y-43178991D01*
X97548236Y-43200072D01*
X97551000Y-43228140D01*
X97551000Y-43691860D01*
X97548236Y-43719928D01*
X97541840Y-43741009D01*
X97531452Y-43760445D01*
X97517476Y-43777476D01*
X97500445Y-43791452D01*
X97481009Y-43801840D01*
X97459928Y-43808236D01*
X97431860Y-43811000D01*
X95618140Y-43811000D01*
X95590072Y-43808236D01*
X95568991Y-43801840D01*
X95549555Y-43791452D01*
X95532524Y-43777476D01*
X95518548Y-43760445D01*
X95508160Y-43741009D01*
X95501764Y-43719928D01*
X95499000Y-43691860D01*
X95499000Y-43228140D01*
X95501764Y-43200072D01*
X95508160Y-43178991D01*
X95518548Y-43159555D01*
X95532524Y-43142524D01*
X95549555Y-43128548D01*
X95568991Y-43118160D01*
X95590072Y-43111764D01*
X95618140Y-43109000D01*
X97431860Y-43109000D01*
X97459928Y-43111764D01*
X97459928Y-43111764D01*
G37*
G36*
X107694591Y-42695585D02*
G01*
X107728569Y-42705893D01*
X107759890Y-42722634D01*
X107787339Y-42745161D01*
X107809866Y-42772610D01*
X107826607Y-42803931D01*
X107836915Y-42837909D01*
X107841000Y-42879390D01*
X107841000Y-43480610D01*
X107836915Y-43522091D01*
X107826607Y-43556069D01*
X107809866Y-43587390D01*
X107787339Y-43614839D01*
X107759890Y-43637366D01*
X107728569Y-43654107D01*
X107694591Y-43664415D01*
X107653110Y-43668500D01*
X106976890Y-43668500D01*
X106935409Y-43664415D01*
X106901431Y-43654107D01*
X106870110Y-43637366D01*
X106842661Y-43614839D01*
X106820134Y-43587390D01*
X106803393Y-43556069D01*
X106793085Y-43522091D01*
X106789000Y-43480610D01*
X106789000Y-42879390D01*
X106793085Y-42837909D01*
X106803393Y-42803931D01*
X106820134Y-42772610D01*
X106842661Y-42745161D01*
X106870110Y-42722634D01*
X106901431Y-42705893D01*
X106935409Y-42695585D01*
X106976890Y-42691500D01*
X107653110Y-42691500D01*
X107694591Y-42695585D01*
X107694591Y-42695585D01*
G37*
G36*
X105154591Y-42695585D02*
G01*
X105188569Y-42705893D01*
X105219890Y-42722634D01*
X105247339Y-42745161D01*
X105269866Y-42772610D01*
X105286607Y-42803931D01*
X105296915Y-42837909D01*
X105301000Y-42879390D01*
X105301000Y-43480610D01*
X105296915Y-43522091D01*
X105286607Y-43556069D01*
X105269866Y-43587390D01*
X105247339Y-43614839D01*
X105219890Y-43637366D01*
X105188569Y-43654107D01*
X105154591Y-43664415D01*
X105113110Y-43668500D01*
X104436890Y-43668500D01*
X104395409Y-43664415D01*
X104361431Y-43654107D01*
X104330110Y-43637366D01*
X104302661Y-43614839D01*
X104280134Y-43587390D01*
X104263393Y-43556069D01*
X104253085Y-43522091D01*
X104249000Y-43480610D01*
X104249000Y-42879390D01*
X104253085Y-42837909D01*
X104263393Y-42803931D01*
X104280134Y-42772610D01*
X104302661Y-42745161D01*
X104330110Y-42722634D01*
X104361431Y-42705893D01*
X104395409Y-42695585D01*
X104436890Y-42691500D01*
X105113110Y-42691500D01*
X105154591Y-42695585D01*
X105154591Y-42695585D01*
G37*
G36*
X116951000Y-43551000D02*
G01*
X115049000Y-43551000D01*
X115049000Y-42449000D01*
X116951000Y-42449000D01*
X116951000Y-43551000D01*
X116951000Y-43551000D01*
G37*
G36*
X102409928Y-41841764D02*
G01*
X102431009Y-41848160D01*
X102450445Y-41858548D01*
X102467476Y-41872524D01*
X102481452Y-41889555D01*
X102491840Y-41908991D01*
X102498236Y-41930072D01*
X102501000Y-41958140D01*
X102501000Y-42421860D01*
X102498236Y-42449928D01*
X102491840Y-42471009D01*
X102481452Y-42490445D01*
X102467476Y-42507476D01*
X102450445Y-42521452D01*
X102431009Y-42531840D01*
X102409928Y-42538236D01*
X102381860Y-42541000D01*
X100568140Y-42541000D01*
X100540072Y-42538236D01*
X100518991Y-42531840D01*
X100499555Y-42521452D01*
X100482524Y-42507476D01*
X100468548Y-42490445D01*
X100458160Y-42471009D01*
X100451764Y-42449928D01*
X100449000Y-42421860D01*
X100449000Y-41958140D01*
X100451764Y-41930072D01*
X100458160Y-41908991D01*
X100468548Y-41889555D01*
X100482524Y-41872524D01*
X100499555Y-41858548D01*
X100518991Y-41848160D01*
X100540072Y-41841764D01*
X100568140Y-41839000D01*
X102381860Y-41839000D01*
X102409928Y-41841764D01*
X102409928Y-41841764D01*
G37*
G36*
X97459928Y-41841764D02*
G01*
X97481009Y-41848160D01*
X97500445Y-41858548D01*
X97517476Y-41872524D01*
X97531452Y-41889555D01*
X97541840Y-41908991D01*
X97548236Y-41930072D01*
X97551000Y-41958140D01*
X97551000Y-42421860D01*
X97548236Y-42449928D01*
X97541840Y-42471009D01*
X97531452Y-42490445D01*
X97517476Y-42507476D01*
X97500445Y-42521452D01*
X97481009Y-42531840D01*
X97459928Y-42538236D01*
X97431860Y-42541000D01*
X95618140Y-42541000D01*
X95590072Y-42538236D01*
X95568991Y-42531840D01*
X95549555Y-42521452D01*
X95532524Y-42507476D01*
X95518548Y-42490445D01*
X95508160Y-42471009D01*
X95501764Y-42449928D01*
X95499000Y-42421860D01*
X95499000Y-41958140D01*
X95501764Y-41930072D01*
X95508160Y-41908991D01*
X95518548Y-41889555D01*
X95532524Y-41872524D01*
X95549555Y-41858548D01*
X95568991Y-41848160D01*
X95590072Y-41841764D01*
X95618140Y-41839000D01*
X97431860Y-41839000D01*
X97459928Y-41841764D01*
X97459928Y-41841764D01*
G37*
G36*
X107694591Y-41120585D02*
G01*
X107728569Y-41130893D01*
X107759890Y-41147634D01*
X107787339Y-41170161D01*
X107809866Y-41197610D01*
X107826607Y-41228931D01*
X107836915Y-41262909D01*
X107841000Y-41304390D01*
X107841000Y-41905610D01*
X107836915Y-41947091D01*
X107826607Y-41981069D01*
X107809866Y-42012390D01*
X107787339Y-42039839D01*
X107759890Y-42062366D01*
X107728569Y-42079107D01*
X107694591Y-42089415D01*
X107653110Y-42093500D01*
X106976890Y-42093500D01*
X106935409Y-42089415D01*
X106901431Y-42079107D01*
X106870110Y-42062366D01*
X106842661Y-42039839D01*
X106820134Y-42012390D01*
X106803393Y-41981069D01*
X106793085Y-41947091D01*
X106789000Y-41905610D01*
X106789000Y-41304390D01*
X106793085Y-41262909D01*
X106803393Y-41228931D01*
X106820134Y-41197610D01*
X106842661Y-41170161D01*
X106870110Y-41147634D01*
X106901431Y-41130893D01*
X106935409Y-41120585D01*
X106976890Y-41116500D01*
X107653110Y-41116500D01*
X107694591Y-41120585D01*
X107694591Y-41120585D01*
G37*
G36*
X105154591Y-41120585D02*
G01*
X105188569Y-41130893D01*
X105219890Y-41147634D01*
X105247339Y-41170161D01*
X105269866Y-41197610D01*
X105286607Y-41228931D01*
X105296915Y-41262909D01*
X105301000Y-41304390D01*
X105301000Y-41905610D01*
X105296915Y-41947091D01*
X105286607Y-41981069D01*
X105269866Y-42012390D01*
X105247339Y-42039839D01*
X105219890Y-42062366D01*
X105188569Y-42079107D01*
X105154591Y-42089415D01*
X105113110Y-42093500D01*
X104436890Y-42093500D01*
X104395409Y-42089415D01*
X104361431Y-42079107D01*
X104330110Y-42062366D01*
X104302661Y-42039839D01*
X104280134Y-42012390D01*
X104263393Y-41981069D01*
X104253085Y-41947091D01*
X104249000Y-41905610D01*
X104249000Y-41304390D01*
X104253085Y-41262909D01*
X104263393Y-41228931D01*
X104280134Y-41197610D01*
X104302661Y-41170161D01*
X104330110Y-41147634D01*
X104361431Y-41130893D01*
X104395409Y-41120585D01*
X104436890Y-41116500D01*
X105113110Y-41116500D01*
X105154591Y-41120585D01*
X105154591Y-41120585D01*
G37*
G36*
X116951000Y-41551000D02*
G01*
X115049000Y-41551000D01*
X115049000Y-40449000D01*
X116951000Y-40449000D01*
X116951000Y-41551000D01*
X116951000Y-41551000D01*
G37*
G36*
X68251564Y-38609389D02*
G01*
X68442833Y-38688615D01*
X68442835Y-38688616D01*
X68614973Y-38803635D01*
X68761365Y-38950027D01*
X68853723Y-39088250D01*
X68876385Y-39122167D01*
X68955611Y-39313436D01*
X68996000Y-39516484D01*
X68996000Y-39723516D01*
X68955611Y-39926564D01*
X68876385Y-40117833D01*
X68876384Y-40117835D01*
X68761365Y-40289973D01*
X68614973Y-40436365D01*
X68442835Y-40551384D01*
X68442834Y-40551385D01*
X68442833Y-40551385D01*
X68251564Y-40630611D01*
X68048516Y-40671000D01*
X67841484Y-40671000D01*
X67638436Y-40630611D01*
X67447167Y-40551385D01*
X67447166Y-40551385D01*
X67447165Y-40551384D01*
X67275027Y-40436365D01*
X67128635Y-40289973D01*
X67013616Y-40117835D01*
X67013615Y-40117833D01*
X66934389Y-39926564D01*
X66894000Y-39723516D01*
X66894000Y-39516484D01*
X66934389Y-39313436D01*
X67013615Y-39122167D01*
X67036278Y-39088250D01*
X67128635Y-38950027D01*
X67275027Y-38803635D01*
X67447165Y-38688616D01*
X67447167Y-38688615D01*
X67638436Y-38609389D01*
X67841484Y-38569000D01*
X68048516Y-38569000D01*
X68251564Y-38609389D01*
X68251564Y-38609389D01*
G37*
G36*
X105447091Y-38848085D02*
G01*
X105481069Y-38858393D01*
X105512390Y-38875134D01*
X105539839Y-38897661D01*
X105562366Y-38925110D01*
X105579107Y-38956431D01*
X105589415Y-38990409D01*
X105593500Y-39031890D01*
X105593500Y-39708110D01*
X105589415Y-39749591D01*
X105579107Y-39783569D01*
X105562366Y-39814890D01*
X105539839Y-39842339D01*
X105512390Y-39864866D01*
X105481069Y-39881607D01*
X105447091Y-39891915D01*
X105405610Y-39896000D01*
X104804390Y-39896000D01*
X104762909Y-39891915D01*
X104728931Y-39881607D01*
X104697610Y-39864866D01*
X104670161Y-39842339D01*
X104647634Y-39814890D01*
X104630893Y-39783569D01*
X104620585Y-39749591D01*
X104616500Y-39708110D01*
X104616500Y-39031890D01*
X104620585Y-38990409D01*
X104630893Y-38956431D01*
X104647634Y-38925110D01*
X104670161Y-38897661D01*
X104697610Y-38875134D01*
X104728931Y-38858393D01*
X104762909Y-38848085D01*
X104804390Y-38844000D01*
X105405610Y-38844000D01*
X105447091Y-38848085D01*
X105447091Y-38848085D01*
G37*
G36*
X98492091Y-38848085D02*
G01*
X98526069Y-38858393D01*
X98557390Y-38875134D01*
X98584839Y-38897661D01*
X98607366Y-38925110D01*
X98624107Y-38956431D01*
X98634415Y-38990409D01*
X98638500Y-39031890D01*
X98638500Y-39708110D01*
X98634415Y-39749591D01*
X98624107Y-39783569D01*
X98607366Y-39814890D01*
X98584839Y-39842339D01*
X98557390Y-39864866D01*
X98526069Y-39881607D01*
X98492091Y-39891915D01*
X98450610Y-39896000D01*
X97849390Y-39896000D01*
X97807909Y-39891915D01*
X97773931Y-39881607D01*
X97742610Y-39864866D01*
X97715161Y-39842339D01*
X97692634Y-39814890D01*
X97675893Y-39783569D01*
X97665585Y-39749591D01*
X97661500Y-39708110D01*
X97661500Y-39031890D01*
X97665585Y-38990409D01*
X97675893Y-38956431D01*
X97692634Y-38925110D01*
X97715161Y-38897661D01*
X97742610Y-38875134D01*
X97773931Y-38858393D01*
X97807909Y-38848085D01*
X97849390Y-38844000D01*
X98450610Y-38844000D01*
X98492091Y-38848085D01*
X98492091Y-38848085D01*
G37*
G36*
X107022091Y-38848085D02*
G01*
X107056069Y-38858393D01*
X107087390Y-38875134D01*
X107114839Y-38897661D01*
X107137366Y-38925110D01*
X107154107Y-38956431D01*
X107164415Y-38990409D01*
X107168500Y-39031890D01*
X107168500Y-39708110D01*
X107164415Y-39749591D01*
X107154107Y-39783569D01*
X107137366Y-39814890D01*
X107114839Y-39842339D01*
X107087390Y-39864866D01*
X107056069Y-39881607D01*
X107022091Y-39891915D01*
X106980610Y-39896000D01*
X106379390Y-39896000D01*
X106337909Y-39891915D01*
X106303931Y-39881607D01*
X106272610Y-39864866D01*
X106245161Y-39842339D01*
X106222634Y-39814890D01*
X106205893Y-39783569D01*
X106195585Y-39749591D01*
X106191500Y-39708110D01*
X106191500Y-39031890D01*
X106195585Y-38990409D01*
X106205893Y-38956431D01*
X106222634Y-38925110D01*
X106245161Y-38897661D01*
X106272610Y-38875134D01*
X106303931Y-38858393D01*
X106337909Y-38848085D01*
X106379390Y-38844000D01*
X106980610Y-38844000D01*
X107022091Y-38848085D01*
X107022091Y-38848085D01*
G37*
G36*
X100067091Y-38848085D02*
G01*
X100101069Y-38858393D01*
X100132390Y-38875134D01*
X100159839Y-38897661D01*
X100182366Y-38925110D01*
X100199107Y-38956431D01*
X100209415Y-38990409D01*
X100213500Y-39031890D01*
X100213500Y-39708110D01*
X100209415Y-39749591D01*
X100199107Y-39783569D01*
X100182366Y-39814890D01*
X100159839Y-39842339D01*
X100132390Y-39864866D01*
X100101069Y-39881607D01*
X100067091Y-39891915D01*
X100025610Y-39896000D01*
X99424390Y-39896000D01*
X99382909Y-39891915D01*
X99348931Y-39881607D01*
X99317610Y-39864866D01*
X99290161Y-39842339D01*
X99267634Y-39814890D01*
X99250893Y-39783569D01*
X99240585Y-39749591D01*
X99236500Y-39708110D01*
X99236500Y-39031890D01*
X99240585Y-38990409D01*
X99250893Y-38956431D01*
X99267634Y-38925110D01*
X99290161Y-38897661D01*
X99317610Y-38875134D01*
X99348931Y-38858393D01*
X99382909Y-38848085D01*
X99424390Y-38844000D01*
X100025610Y-38844000D01*
X100067091Y-38848085D01*
X100067091Y-38848085D01*
G37*
G36*
X116951000Y-39551000D02*
G01*
X115049000Y-39551000D01*
X115049000Y-38449000D01*
X116951000Y-38449000D01*
X116951000Y-39551000D01*
X116951000Y-39551000D01*
G37*
G36*
X116951000Y-37551000D02*
G01*
X115049000Y-37551000D01*
X115049000Y-36449000D01*
X116951000Y-36449000D01*
X116951000Y-37551000D01*
X116951000Y-37551000D01*
G37*
G36*
X116951000Y-35551000D02*
G01*
X115049000Y-35551000D01*
X115049000Y-34449000D01*
X116951000Y-34449000D01*
X116951000Y-35551000D01*
X116951000Y-35551000D01*
G37*
G36*
X105076000Y-34651000D02*
G01*
X104324000Y-34651000D01*
X104324000Y-32849000D01*
X105076000Y-32849000D01*
X105076000Y-34651000D01*
X105076000Y-34651000D01*
G37*
G36*
X103176000Y-34651000D02*
G01*
X102424000Y-34651000D01*
X102424000Y-32849000D01*
X103176000Y-32849000D01*
X103176000Y-34651000D01*
X103176000Y-34651000D01*
G37*
G36*
X126051000Y-33701000D02*
G01*
X124949000Y-33701000D01*
X124949000Y-31099000D01*
X126051000Y-31099000D01*
X126051000Y-33701000D01*
X126051000Y-33701000D01*
G37*
G36*
X132051000Y-33701000D02*
G01*
X130949000Y-33701000D01*
X130949000Y-31099000D01*
X132051000Y-31099000D01*
X132051000Y-33701000D01*
X132051000Y-33701000D01*
G37*
G36*
X130051000Y-33701000D02*
G01*
X128949000Y-33701000D01*
X128949000Y-31099000D01*
X130051000Y-31099000D01*
X130051000Y-33701000D01*
X130051000Y-33701000D01*
G37*
G36*
X128051000Y-33701000D02*
G01*
X126949000Y-33701000D01*
X126949000Y-31099000D01*
X128051000Y-31099000D01*
X128051000Y-33701000D01*
X128051000Y-33701000D01*
G37*
G36*
X124051000Y-33701000D02*
G01*
X122949000Y-33701000D01*
X122949000Y-31099000D01*
X124051000Y-31099000D01*
X124051000Y-33701000D01*
X124051000Y-33701000D01*
G37*
G36*
X122051000Y-33701000D02*
G01*
X120949000Y-33701000D01*
X120949000Y-31099000D01*
X122051000Y-31099000D01*
X122051000Y-33701000D01*
X122051000Y-33701000D01*
G37*
G36*
X120051000Y-33701000D02*
G01*
X118949000Y-33701000D01*
X118949000Y-31099000D01*
X120051000Y-31099000D01*
X120051000Y-33701000D01*
X120051000Y-33701000D01*
G37*
G36*
X118051000Y-33701000D02*
G01*
X116949000Y-33701000D01*
X116949000Y-31099000D01*
X118051000Y-31099000D01*
X118051000Y-33701000D01*
X118051000Y-33701000D01*
G37*
G36*
X71426564Y-31374389D02*
G01*
X71617833Y-31453615D01*
X71617835Y-31453616D01*
X71789973Y-31568635D01*
X71936365Y-31715027D01*
X72027034Y-31850722D01*
X72051385Y-31887167D01*
X72130611Y-32078436D01*
X72171000Y-32281484D01*
X72171000Y-32488516D01*
X72130611Y-32691564D01*
X72065399Y-32849000D01*
X72051384Y-32882835D01*
X71936365Y-33054973D01*
X71789973Y-33201365D01*
X71617835Y-33316384D01*
X71617834Y-33316385D01*
X71617833Y-33316385D01*
X71426564Y-33395611D01*
X71223516Y-33436000D01*
X71016484Y-33436000D01*
X70813436Y-33395611D01*
X70622167Y-33316385D01*
X70622166Y-33316385D01*
X70622165Y-33316384D01*
X70450027Y-33201365D01*
X70303635Y-33054973D01*
X70188616Y-32882835D01*
X70174601Y-32849000D01*
X70109389Y-32691564D01*
X70069000Y-32488516D01*
X70069000Y-32281484D01*
X70109389Y-32078436D01*
X70188615Y-31887167D01*
X70212967Y-31850722D01*
X70303635Y-31715027D01*
X70450027Y-31568635D01*
X70622165Y-31453616D01*
X70622167Y-31453615D01*
X70813436Y-31374389D01*
X71016484Y-31334000D01*
X71223516Y-31334000D01*
X71426564Y-31374389D01*
X71426564Y-31374389D01*
G37*
G36*
X79046564Y-31374389D02*
G01*
X79237833Y-31453615D01*
X79237835Y-31453616D01*
X79409973Y-31568635D01*
X79556365Y-31715027D01*
X79647034Y-31850722D01*
X79671385Y-31887167D01*
X79750611Y-32078436D01*
X79791000Y-32281484D01*
X79791000Y-32488516D01*
X79750611Y-32691564D01*
X79685399Y-32849000D01*
X79671384Y-32882835D01*
X79556365Y-33054973D01*
X79409973Y-33201365D01*
X79237835Y-33316384D01*
X79237834Y-33316385D01*
X79237833Y-33316385D01*
X79046564Y-33395611D01*
X78843516Y-33436000D01*
X78636484Y-33436000D01*
X78433436Y-33395611D01*
X78242167Y-33316385D01*
X78242166Y-33316385D01*
X78242165Y-33316384D01*
X78070027Y-33201365D01*
X77923635Y-33054973D01*
X77808616Y-32882835D01*
X77794601Y-32849000D01*
X77729389Y-32691564D01*
X77689000Y-32488516D01*
X77689000Y-32281484D01*
X77729389Y-32078436D01*
X77808615Y-31887167D01*
X77832967Y-31850722D01*
X77923635Y-31715027D01*
X78070027Y-31568635D01*
X78242165Y-31453616D01*
X78242167Y-31453615D01*
X78433436Y-31374389D01*
X78636484Y-31334000D01*
X78843516Y-31334000D01*
X79046564Y-31374389D01*
X79046564Y-31374389D01*
G37*
G36*
X73966564Y-31374389D02*
G01*
X74157833Y-31453615D01*
X74157835Y-31453616D01*
X74329973Y-31568635D01*
X74476365Y-31715027D01*
X74567034Y-31850722D01*
X74591385Y-31887167D01*
X74670611Y-32078436D01*
X74711000Y-32281484D01*
X74711000Y-32488516D01*
X74670611Y-32691564D01*
X74605399Y-32849000D01*
X74591384Y-32882835D01*
X74476365Y-33054973D01*
X74329973Y-33201365D01*
X74157835Y-33316384D01*
X74157834Y-33316385D01*
X74157833Y-33316385D01*
X73966564Y-33395611D01*
X73763516Y-33436000D01*
X73556484Y-33436000D01*
X73353436Y-33395611D01*
X73162167Y-33316385D01*
X73162166Y-33316385D01*
X73162165Y-33316384D01*
X72990027Y-33201365D01*
X72843635Y-33054973D01*
X72728616Y-32882835D01*
X72714601Y-32849000D01*
X72649389Y-32691564D01*
X72609000Y-32488516D01*
X72609000Y-32281484D01*
X72649389Y-32078436D01*
X72728615Y-31887167D01*
X72752967Y-31850722D01*
X72843635Y-31715027D01*
X72990027Y-31568635D01*
X73162165Y-31453616D01*
X73162167Y-31453615D01*
X73353436Y-31374389D01*
X73556484Y-31334000D01*
X73763516Y-31334000D01*
X73966564Y-31374389D01*
X73966564Y-31374389D01*
G37*
G36*
X76506564Y-31374389D02*
G01*
X76697833Y-31453615D01*
X76697835Y-31453616D01*
X76869973Y-31568635D01*
X77016365Y-31715027D01*
X77107034Y-31850722D01*
X77131385Y-31887167D01*
X77210611Y-32078436D01*
X77251000Y-32281484D01*
X77251000Y-32488516D01*
X77210611Y-32691564D01*
X77145399Y-32849000D01*
X77131384Y-32882835D01*
X77016365Y-33054973D01*
X76869973Y-33201365D01*
X76697835Y-33316384D01*
X76697834Y-33316385D01*
X76697833Y-33316385D01*
X76506564Y-33395611D01*
X76303516Y-33436000D01*
X76096484Y-33436000D01*
X75893436Y-33395611D01*
X75702167Y-33316385D01*
X75702166Y-33316385D01*
X75702165Y-33316384D01*
X75530027Y-33201365D01*
X75383635Y-33054973D01*
X75268616Y-32882835D01*
X75254601Y-32849000D01*
X75189389Y-32691564D01*
X75149000Y-32488516D01*
X75149000Y-32281484D01*
X75189389Y-32078436D01*
X75268615Y-31887167D01*
X75292967Y-31850722D01*
X75383635Y-31715027D01*
X75530027Y-31568635D01*
X75702165Y-31453616D01*
X75702167Y-31453615D01*
X75893436Y-31374389D01*
X76096484Y-31334000D01*
X76303516Y-31334000D01*
X76506564Y-31374389D01*
X76506564Y-31374389D01*
G37*
G36*
X84126564Y-31374389D02*
G01*
X84317833Y-31453615D01*
X84317835Y-31453616D01*
X84489973Y-31568635D01*
X84636365Y-31715027D01*
X84727034Y-31850722D01*
X84751385Y-31887167D01*
X84830611Y-32078436D01*
X84871000Y-32281484D01*
X84871000Y-32488516D01*
X84830611Y-32691564D01*
X84765399Y-32849000D01*
X84751384Y-32882835D01*
X84636365Y-33054973D01*
X84489973Y-33201365D01*
X84317835Y-33316384D01*
X84317834Y-33316385D01*
X84317833Y-33316385D01*
X84126564Y-33395611D01*
X83923516Y-33436000D01*
X83716484Y-33436000D01*
X83513436Y-33395611D01*
X83322167Y-33316385D01*
X83322166Y-33316385D01*
X83322165Y-33316384D01*
X83150027Y-33201365D01*
X83003635Y-33054973D01*
X82888616Y-32882835D01*
X82874601Y-32849000D01*
X82809389Y-32691564D01*
X82769000Y-32488516D01*
X82769000Y-32281484D01*
X82809389Y-32078436D01*
X82888615Y-31887167D01*
X82912967Y-31850722D01*
X83003635Y-31715027D01*
X83150027Y-31568635D01*
X83322165Y-31453616D01*
X83322167Y-31453615D01*
X83513436Y-31374389D01*
X83716484Y-31334000D01*
X83923516Y-31334000D01*
X84126564Y-31374389D01*
X84126564Y-31374389D01*
G37*
G36*
X81586564Y-31374389D02*
G01*
X81777833Y-31453615D01*
X81777835Y-31453616D01*
X81949973Y-31568635D01*
X82096365Y-31715027D01*
X82187034Y-31850722D01*
X82211385Y-31887167D01*
X82290611Y-32078436D01*
X82331000Y-32281484D01*
X82331000Y-32488516D01*
X82290611Y-32691564D01*
X82225399Y-32849000D01*
X82211384Y-32882835D01*
X82096365Y-33054973D01*
X81949973Y-33201365D01*
X81777835Y-33316384D01*
X81777834Y-33316385D01*
X81777833Y-33316385D01*
X81586564Y-33395611D01*
X81383516Y-33436000D01*
X81176484Y-33436000D01*
X80973436Y-33395611D01*
X80782167Y-33316385D01*
X80782166Y-33316385D01*
X80782165Y-33316384D01*
X80610027Y-33201365D01*
X80463635Y-33054973D01*
X80348616Y-32882835D01*
X80334601Y-32849000D01*
X80269389Y-32691564D01*
X80229000Y-32488516D01*
X80229000Y-32281484D01*
X80269389Y-32078436D01*
X80348615Y-31887167D01*
X80372967Y-31850722D01*
X80463635Y-31715027D01*
X80610027Y-31568635D01*
X80782165Y-31453616D01*
X80782167Y-31453615D01*
X80973436Y-31374389D01*
X81176484Y-31334000D01*
X81383516Y-31334000D01*
X81586564Y-31374389D01*
X81586564Y-31374389D01*
G37*
G36*
X113401968Y-31638565D02*
G01*
X113440638Y-31650296D01*
X113476277Y-31669346D01*
X113507517Y-31694983D01*
X113533154Y-31726223D01*
X113552204Y-31761862D01*
X113563935Y-31800532D01*
X113568500Y-31846888D01*
X113568500Y-32923112D01*
X113563935Y-32969468D01*
X113552204Y-33008138D01*
X113533154Y-33043777D01*
X113507517Y-33075017D01*
X113476277Y-33100654D01*
X113440638Y-33119704D01*
X113401968Y-33131435D01*
X113355612Y-33136000D01*
X112704388Y-33136000D01*
X112658032Y-33131435D01*
X112619362Y-33119704D01*
X112583723Y-33100654D01*
X112552483Y-33075017D01*
X112526846Y-33043777D01*
X112507796Y-33008138D01*
X112496065Y-32969468D01*
X112491500Y-32923112D01*
X112491500Y-31846888D01*
X112496065Y-31800532D01*
X112507796Y-31761862D01*
X112526846Y-31726223D01*
X112552483Y-31694983D01*
X112583723Y-31669346D01*
X112619362Y-31650296D01*
X112658032Y-31638565D01*
X112704388Y-31634000D01*
X113355612Y-31634000D01*
X113401968Y-31638565D01*
X113401968Y-31638565D01*
G37*
G36*
X111526968Y-31638565D02*
G01*
X111565638Y-31650296D01*
X111601277Y-31669346D01*
X111632517Y-31694983D01*
X111658154Y-31726223D01*
X111677204Y-31761862D01*
X111688935Y-31800532D01*
X111693500Y-31846888D01*
X111693500Y-32923112D01*
X111688935Y-32969468D01*
X111677204Y-33008138D01*
X111658154Y-33043777D01*
X111632517Y-33075017D01*
X111601277Y-33100654D01*
X111565638Y-33119704D01*
X111526968Y-33131435D01*
X111480612Y-33136000D01*
X110829388Y-33136000D01*
X110783032Y-33131435D01*
X110744362Y-33119704D01*
X110708723Y-33100654D01*
X110677483Y-33075017D01*
X110651846Y-33043777D01*
X110632796Y-33008138D01*
X110621065Y-32969468D01*
X110616500Y-32923112D01*
X110616500Y-31846888D01*
X110621065Y-31800532D01*
X110632796Y-31761862D01*
X110651846Y-31726223D01*
X110677483Y-31694983D01*
X110708723Y-31669346D01*
X110744362Y-31650296D01*
X110783032Y-31638565D01*
X110829388Y-31634000D01*
X111480612Y-31634000D01*
X111526968Y-31638565D01*
X111526968Y-31638565D01*
G37*
M02*
